ISO-10303-21;
HEADER;
/* Generated by software containing ST-Developer
 * from STEP Tools, Inc. (www.steptools.com) 
 */
/* OPTION: using custom renumber hook */

FILE_DESCRIPTION(
/* description */ ('STEP AP242 Edition 2',
'CAx-IF Rec.Pracs.---Representation and Presentation of Product Manufa
cturing Information (PMI)---4.0---2014-10-13',
'CAx-IF Rec.Pracs.---3D Tessellated Geometry---0.4---2014-09-14','2;1',
'CAx-IF Rec.Pracs.---User Defined Attributes---1.5---2016-08-15'),
/* implementation_level */ '2;1');

FILE_NAME(
/* name */ 'happy plant - servo arm',
/* time_stamp */ '2026-10-08T17:36:09Z',
/* author */ (''),
/* organization */ (''),
/* preprocessor_version */ 'ST-DEVELOPER v20',
/* originating_system */ 'ONSHAPE BY PTC INC, 1.221',
/* authorisation */ '  ');

FILE_SCHEMA (('AP242_MANAGED_MODEL_BASED_3D_ENGINEERING_MIM_LF { 1 0 10303 442 3 1 4 }'));
ENDSEC;

DATA;
#10=SHAPE_REPRESENTATION_RELATIONSHIP('','',#832,#11);
#11=ADVANCED_BREP_SHAPE_REPRESENTATION('',(#830),#1456);
#12=TOROIDAL_SURFACE('',#883,0.00541019893528111,0.002);
#13=TOROIDAL_SURFACE('',#889,0.00541019893528111,0.002);
#14=TOROIDAL_SURFACE('',#895,0.00541019893528111,0.002);
#15=TOROIDAL_SURFACE('',#901,0.00541019893528111,0.002);
#16=TOROIDAL_SURFACE('',#907,0.00541019893528111,0.002);
#17=TOROIDAL_SURFACE('',#913,0.00541019893528111,0.002);
#18=TOROIDAL_SURFACE('',#919,0.00541019893528111,0.002);
#19=TOROIDAL_SURFACE('',#925,0.00541019893528111,0.002);
#20=TOROIDAL_SURFACE('',#931,0.00541019893528111,0.002);
#21=TOROIDAL_SURFACE('',#937,0.00541019893528111,0.002);
#22=ELLIPSE('',#881,0.00315763955920126,0.002);
#23=ELLIPSE('',#888,0.00315763955920126,0.002);
#24=ELLIPSE('',#894,0.00315763955920126,0.002);
#25=ELLIPSE('',#900,0.00315763955920126,0.002);
#26=ELLIPSE('',#906,0.00315763955920126,0.002);
#27=ELLIPSE('',#911,0.00315763955920126,0.002);
#28=ELLIPSE('',#918,0.00315763955920126,0.002);
#29=ELLIPSE('',#924,0.00315763955920126,0.002);
#30=ELLIPSE('',#930,0.00315763955920126,0.002);
#31=ELLIPSE('',#936,0.00315763955920126,0.002);
#32=CYLINDRICAL_SURFACE('',#843,0.00741019893528111);
#33=CYLINDRICAL_SURFACE('',#853,0.00559965103854325);
#34=CYLINDRICAL_SURFACE('',#856,0.00361595124680785);
#35=CYLINDRICAL_SURFACE('',#862,0.00741019893528111);
#36=CYLINDRICAL_SURFACE('',#867,0.00741019893528111);
#37=CYLINDRICAL_SURFACE('',#872,0.00741019893528111);
#38=CYLINDRICAL_SURFACE('',#877,0.00741019893528111);
#39=CYLINDRICAL_SURFACE('',#880,0.002);
#40=CYLINDRICAL_SURFACE('',#885,0.002);
#41=CYLINDRICAL_SURFACE('',#887,0.002);
#42=CYLINDRICAL_SURFACE('',#891,0.002);
#43=CYLINDRICAL_SURFACE('',#893,0.002);
#44=CYLINDRICAL_SURFACE('',#897,0.002);
#45=CYLINDRICAL_SURFACE('',#899,0.002);
#46=CYLINDRICAL_SURFACE('',#903,0.002);
#47=CYLINDRICAL_SURFACE('',#905,0.002);
#48=CYLINDRICAL_SURFACE('',#909,0.002);
#49=CYLINDRICAL_SURFACE('',#910,0.002);
#50=CYLINDRICAL_SURFACE('',#915,0.002);
#51=CYLINDRICAL_SURFACE('',#917,0.002);
#52=CYLINDRICAL_SURFACE('',#921,0.002);
#53=CYLINDRICAL_SURFACE('',#923,0.002);
#54=CYLINDRICAL_SURFACE('',#927,0.002);
#55=CYLINDRICAL_SURFACE('',#929,0.002);
#56=CYLINDRICAL_SURFACE('',#933,0.002);
#57=CYLINDRICAL_SURFACE('',#935,0.002);
#58=CYLINDRICAL_SURFACE('',#939,0.002);
#59=CIRCLE('',#835,0.00541019893528111);
#60=CIRCLE('',#836,0.00541019893528111);
#61=CIRCLE('',#837,0.00541019893528111);
#62=CIRCLE('',#838,0.00541019893528111);
#63=CIRCLE('',#839,0.00541019893528111);
#64=CIRCLE('',#840,0.00559965103854325);
#65=CIRCLE('',#841,0.00361595124680785);
#66=CIRCLE('',#844,0.00741019893528111);
#67=CIRCLE('',#845,0.00741019893528111);
#68=CIRCLE('',#848,0.00541019893528111);
#69=CIRCLE('',#849,0.00541019893528111);
#70=CIRCLE('',#850,0.00541019893528111);
#71=CIRCLE('',#851,0.00541019893528111);
#72=CIRCLE('',#852,0.00541019893528111);
#73=CIRCLE('',#854,0.00559965103854325);
#74=CIRCLE('',#857,0.00361595124680785);
#75=CIRCLE('',#863,0.00741019893528111);
#76=CIRCLE('',#864,0.00741019893528111);
#77=CIRCLE('',#868,0.00741019893528111);
#78=CIRCLE('',#869,0.00741019893528111);
#79=CIRCLE('',#873,0.00741019893528111);
#80=CIRCLE('',#874,0.00741019893528111);
#81=CIRCLE('',#878,0.00741019893528111);
#82=CIRCLE('',#879,0.00741019893528111);
#83=CIRCLE('',#882,0.002);
#84=CIRCLE('',#884,0.002);
#85=CIRCLE('',#886,0.002);
#86=CIRCLE('',#890,0.002);
#87=CIRCLE('',#892,0.002);
#88=CIRCLE('',#896,0.002);
#89=CIRCLE('',#898,0.002);
#90=CIRCLE('',#902,0.002);
#91=CIRCLE('',#904,0.002);
#92=CIRCLE('',#908,0.002);
#93=CIRCLE('',#912,0.002);
#94=CIRCLE('',#914,0.002);
#95=CIRCLE('',#916,0.002);
#96=CIRCLE('',#920,0.002);
#97=CIRCLE('',#922,0.002);
#98=CIRCLE('',#926,0.002);
#99=CIRCLE('',#928,0.002);
#100=CIRCLE('',#932,0.002);
#101=CIRCLE('',#934,0.002);
#102=CIRCLE('',#938,0.002);
#103=ORIENTED_EDGE('',*,*,#337,.T.);
#104=ORIENTED_EDGE('',*,*,#338,.T.);
#105=ORIENTED_EDGE('',*,*,#339,.T.);
#106=ORIENTED_EDGE('',*,*,#340,.T.);
#107=ORIENTED_EDGE('',*,*,#341,.T.);
#108=ORIENTED_EDGE('',*,*,#342,.T.);
#109=ORIENTED_EDGE('',*,*,#343,.T.);
#110=ORIENTED_EDGE('',*,*,#344,.T.);
#111=ORIENTED_EDGE('',*,*,#345,.T.);
#112=ORIENTED_EDGE('',*,*,#346,.T.);
#113=ORIENTED_EDGE('',*,*,#347,.T.);
#114=ORIENTED_EDGE('',*,*,#348,.T.);
#115=ORIENTED_EDGE('',*,*,#349,.T.);
#116=ORIENTED_EDGE('',*,*,#350,.T.);
#117=ORIENTED_EDGE('',*,*,#351,.T.);
#118=ORIENTED_EDGE('',*,*,#352,.T.);
#119=ORIENTED_EDGE('',*,*,#353,.F.);
#120=ORIENTED_EDGE('',*,*,#354,.T.);
#121=ORIENTED_EDGE('',*,*,#355,.T.);
#122=ORIENTED_EDGE('',*,*,#356,.F.);
#123=ORIENTED_EDGE('',*,*,#357,.T.);
#124=ORIENTED_EDGE('',*,*,#358,.T.);
#125=ORIENTED_EDGE('',*,*,#359,.T.);
#126=ORIENTED_EDGE('',*,*,#360,.F.);
#127=ORIENTED_EDGE('',*,*,#361,.T.);
#128=ORIENTED_EDGE('',*,*,#356,.T.);
#129=ORIENTED_EDGE('',*,*,#362,.T.);
#130=ORIENTED_EDGE('',*,*,#363,.F.);
#131=ORIENTED_EDGE('',*,*,#364,.T.);
#132=ORIENTED_EDGE('',*,*,#360,.T.);
#133=ORIENTED_EDGE('',*,*,#365,.T.);
#134=ORIENTED_EDGE('',*,*,#366,.T.);
#135=ORIENTED_EDGE('',*,*,#367,.T.);
#136=ORIENTED_EDGE('',*,*,#368,.T.);
#137=ORIENTED_EDGE('',*,*,#369,.T.);
#138=ORIENTED_EDGE('',*,*,#370,.T.);
#139=ORIENTED_EDGE('',*,*,#371,.T.);
#140=ORIENTED_EDGE('',*,*,#372,.T.);
#141=ORIENTED_EDGE('',*,*,#373,.T.);
#142=ORIENTED_EDGE('',*,*,#374,.T.);
#143=ORIENTED_EDGE('',*,*,#375,.T.);
#144=ORIENTED_EDGE('',*,*,#376,.T.);
#145=ORIENTED_EDGE('',*,*,#377,.T.);
#146=ORIENTED_EDGE('',*,*,#378,.T.);
#147=ORIENTED_EDGE('',*,*,#379,.T.);
#148=ORIENTED_EDGE('',*,*,#380,.T.);
#149=ORIENTED_EDGE('',*,*,#352,.F.);
#150=ORIENTED_EDGE('',*,*,#381,.F.);
#151=ORIENTED_EDGE('',*,*,#382,.T.);
#152=ORIENTED_EDGE('',*,*,#383,.T.);
#153=ORIENTED_EDGE('',*,*,#353,.T.);
#154=ORIENTED_EDGE('',*,*,#383,.F.);
#155=ORIENTED_EDGE('',*,*,#384,.F.);
#156=ORIENTED_EDGE('',*,*,#385,.T.);
#157=ORIENTED_EDGE('',*,*,#354,.F.);
#158=ORIENTED_EDGE('',*,*,#385,.F.);
#159=ORIENTED_EDGE('',*,*,#386,.T.);
#160=ORIENTED_EDGE('',*,*,#387,.T.);
#161=ORIENTED_EDGE('',*,*,#355,.F.);
#162=ORIENTED_EDGE('',*,*,#387,.F.);
#163=ORIENTED_EDGE('',*,*,#388,.T.);
#164=ORIENTED_EDGE('',*,*,#381,.T.);
#165=ORIENTED_EDGE('',*,*,#382,.F.);
#166=ORIENTED_EDGE('',*,*,#388,.F.);
#167=ORIENTED_EDGE('',*,*,#386,.F.);
#168=ORIENTED_EDGE('',*,*,#384,.T.);
#169=ORIENTED_EDGE('',*,*,#389,.F.);
#170=ORIENTED_EDGE('',*,*,#390,.T.);
#171=ORIENTED_EDGE('',*,*,#391,.T.);
#172=ORIENTED_EDGE('',*,*,#392,.T.);
#173=ORIENTED_EDGE('',*,*,#393,.F.);
#174=ORIENTED_EDGE('',*,*,#394,.T.);
#175=ORIENTED_EDGE('',*,*,#389,.T.);
#176=ORIENTED_EDGE('',*,*,#395,.T.);
#177=ORIENTED_EDGE('',*,*,#396,.F.);
#178=ORIENTED_EDGE('',*,*,#397,.T.);
#179=ORIENTED_EDGE('',*,*,#393,.T.);
#180=ORIENTED_EDGE('',*,*,#398,.T.);
#181=ORIENTED_EDGE('',*,*,#399,.F.);
#182=ORIENTED_EDGE('',*,*,#400,.T.);
#183=ORIENTED_EDGE('',*,*,#396,.T.);
#184=ORIENTED_EDGE('',*,*,#401,.T.);
#185=ORIENTED_EDGE('',*,*,#402,.F.);
#186=ORIENTED_EDGE('',*,*,#403,.T.);
#187=ORIENTED_EDGE('',*,*,#399,.T.);
#188=ORIENTED_EDGE('',*,*,#404,.T.);
#189=ORIENTED_EDGE('',*,*,#405,.F.);
#190=ORIENTED_EDGE('',*,*,#406,.T.);
#191=ORIENTED_EDGE('',*,*,#402,.T.);
#192=ORIENTED_EDGE('',*,*,#407,.T.);
#193=ORIENTED_EDGE('',*,*,#408,.F.);
#194=ORIENTED_EDGE('',*,*,#409,.T.);
#195=ORIENTED_EDGE('',*,*,#405,.T.);
#196=ORIENTED_EDGE('',*,*,#410,.T.);
#197=ORIENTED_EDGE('',*,*,#411,.F.);
#198=ORIENTED_EDGE('',*,*,#412,.T.);
#199=ORIENTED_EDGE('',*,*,#408,.T.);
#200=ORIENTED_EDGE('',*,*,#413,.T.);
#201=ORIENTED_EDGE('',*,*,#414,.F.);
#202=ORIENTED_EDGE('',*,*,#415,.T.);
#203=ORIENTED_EDGE('',*,*,#411,.T.);
#204=ORIENTED_EDGE('',*,*,#416,.T.);
#205=ORIENTED_EDGE('',*,*,#358,.F.);
#206=ORIENTED_EDGE('',*,*,#417,.T.);
#207=ORIENTED_EDGE('',*,*,#414,.T.);
#208=ORIENTED_EDGE('',*,*,#418,.T.);
#209=ORIENTED_EDGE('',*,*,#419,.F.);
#210=ORIENTED_EDGE('',*,*,#420,.T.);
#211=ORIENTED_EDGE('',*,*,#363,.T.);
#212=ORIENTED_EDGE('',*,*,#421,.T.);
#213=ORIENTED_EDGE('',*,*,#391,.F.);
#214=ORIENTED_EDGE('',*,*,#422,.T.);
#215=ORIENTED_EDGE('',*,*,#419,.T.);
#216=ORIENTED_EDGE('',*,*,#423,.T.);
#217=ORIENTED_EDGE('',*,*,#424,.F.);
#218=ORIENTED_EDGE('',*,*,#403,.F.);
#219=ORIENTED_EDGE('',*,*,#425,.F.);
#220=ORIENTED_EDGE('',*,*,#371,.F.);
#221=ORIENTED_EDGE('',*,*,#425,.T.);
#222=ORIENTED_EDGE('',*,*,#406,.F.);
#223=ORIENTED_EDGE('',*,*,#426,.F.);
#224=ORIENTED_EDGE('',*,*,#372,.F.);
#225=ORIENTED_EDGE('',*,*,#424,.T.);
#226=ORIENTED_EDGE('',*,*,#370,.F.);
#227=ORIENTED_EDGE('',*,*,#427,.F.);
#228=ORIENTED_EDGE('',*,*,#400,.F.);
#229=ORIENTED_EDGE('',*,*,#426,.T.);
#230=ORIENTED_EDGE('',*,*,#409,.F.);
#231=ORIENTED_EDGE('',*,*,#428,.F.);
#232=ORIENTED_EDGE('',*,*,#373,.F.);
#233=ORIENTED_EDGE('',*,*,#427,.T.);
#234=ORIENTED_EDGE('',*,*,#369,.F.);
#235=ORIENTED_EDGE('',*,*,#429,.F.);
#236=ORIENTED_EDGE('',*,*,#397,.F.);
#237=ORIENTED_EDGE('',*,*,#428,.T.);
#238=ORIENTED_EDGE('',*,*,#412,.F.);
#239=ORIENTED_EDGE('',*,*,#430,.F.);
#240=ORIENTED_EDGE('',*,*,#374,.F.);
#241=ORIENTED_EDGE('',*,*,#429,.T.);
#242=ORIENTED_EDGE('',*,*,#368,.F.);
#243=ORIENTED_EDGE('',*,*,#431,.F.);
#244=ORIENTED_EDGE('',*,*,#394,.F.);
#245=ORIENTED_EDGE('',*,*,#430,.T.);
#246=ORIENTED_EDGE('',*,*,#415,.F.);
#247=ORIENTED_EDGE('',*,*,#432,.F.);
#248=ORIENTED_EDGE('',*,*,#375,.F.);
#249=ORIENTED_EDGE('',*,*,#431,.T.);
#250=ORIENTED_EDGE('',*,*,#367,.F.);
#251=ORIENTED_EDGE('',*,*,#433,.F.);
#252=ORIENTED_EDGE('',*,*,#390,.F.);
#253=ORIENTED_EDGE('',*,*,#432,.T.);
#254=ORIENTED_EDGE('',*,*,#417,.F.);
#255=ORIENTED_EDGE('',*,*,#434,.F.);
#256=ORIENTED_EDGE('',*,*,#376,.F.);
#257=ORIENTED_EDGE('',*,*,#433,.T.);
#258=ORIENTED_EDGE('',*,*,#366,.F.);
#259=ORIENTED_EDGE('',*,*,#435,.F.);
#260=ORIENTED_EDGE('',*,*,#422,.F.);
#261=ORIENTED_EDGE('',*,*,#434,.T.);
#262=ORIENTED_EDGE('',*,*,#357,.F.);
#263=ORIENTED_EDGE('',*,*,#436,.F.);
#264=ORIENTED_EDGE('',*,*,#377,.F.);
#265=ORIENTED_EDGE('',*,*,#435,.T.);
#266=ORIENTED_EDGE('',*,*,#380,.F.);
#267=ORIENTED_EDGE('',*,*,#437,.F.);
#268=ORIENTED_EDGE('',*,*,#420,.F.);
#269=ORIENTED_EDGE('',*,*,#436,.T.);
#270=ORIENTED_EDGE('',*,*,#361,.F.);
#271=ORIENTED_EDGE('',*,*,#438,.F.);
#272=ORIENTED_EDGE('',*,*,#378,.F.);
#273=ORIENTED_EDGE('',*,*,#437,.T.);
#274=ORIENTED_EDGE('',*,*,#379,.F.);
#275=ORIENTED_EDGE('',*,*,#438,.T.);
#276=ORIENTED_EDGE('',*,*,#364,.F.);
#277=ORIENTED_EDGE('',*,*,#439,.F.);
#278=ORIENTED_EDGE('',*,*,#418,.F.);
#279=ORIENTED_EDGE('',*,*,#440,.F.);
#280=ORIENTED_EDGE('',*,*,#349,.F.);
#281=ORIENTED_EDGE('',*,*,#440,.T.);
#282=ORIENTED_EDGE('',*,*,#416,.F.);
#283=ORIENTED_EDGE('',*,*,#441,.F.);
#284=ORIENTED_EDGE('',*,*,#350,.F.);
#285=ORIENTED_EDGE('',*,*,#439,.T.);
#286=ORIENTED_EDGE('',*,*,#348,.F.);
#287=ORIENTED_EDGE('',*,*,#442,.F.);
#288=ORIENTED_EDGE('',*,*,#359,.F.);
#289=ORIENTED_EDGE('',*,*,#441,.T.);
#290=ORIENTED_EDGE('',*,*,#413,.F.);
#291=ORIENTED_EDGE('',*,*,#443,.F.);
#292=ORIENTED_EDGE('',*,*,#351,.F.);
#293=ORIENTED_EDGE('',*,*,#442,.T.);
#294=ORIENTED_EDGE('',*,*,#347,.F.);
#295=ORIENTED_EDGE('',*,*,#444,.F.);
#296=ORIENTED_EDGE('',*,*,#362,.F.);
#297=ORIENTED_EDGE('',*,*,#443,.T.);
#298=ORIENTED_EDGE('',*,*,#410,.F.);
#299=ORIENTED_EDGE('',*,*,#445,.F.);
#300=ORIENTED_EDGE('',*,*,#337,.F.);
#301=ORIENTED_EDGE('',*,*,#444,.T.);
#302=ORIENTED_EDGE('',*,*,#346,.F.);
#303=ORIENTED_EDGE('',*,*,#446,.F.);
#304=ORIENTED_EDGE('',*,*,#365,.F.);
#305=ORIENTED_EDGE('',*,*,#445,.T.);
#306=ORIENTED_EDGE('',*,*,#407,.F.);
#307=ORIENTED_EDGE('',*,*,#447,.F.);
#308=ORIENTED_EDGE('',*,*,#338,.F.);
#309=ORIENTED_EDGE('',*,*,#446,.T.);
#310=ORIENTED_EDGE('',*,*,#345,.F.);
#311=ORIENTED_EDGE('',*,*,#448,.F.);
#312=ORIENTED_EDGE('',*,*,#421,.F.);
#313=ORIENTED_EDGE('',*,*,#447,.T.);
#314=ORIENTED_EDGE('',*,*,#404,.F.);
#315=ORIENTED_EDGE('',*,*,#449,.F.);
#316=ORIENTED_EDGE('',*,*,#339,.F.);
#317=ORIENTED_EDGE('',*,*,#448,.T.);
#318=ORIENTED_EDGE('',*,*,#344,.F.);
#319=ORIENTED_EDGE('',*,*,#450,.F.);
#320=ORIENTED_EDGE('',*,*,#423,.F.);
#321=ORIENTED_EDGE('',*,*,#449,.T.);
#322=ORIENTED_EDGE('',*,*,#401,.F.);
#323=ORIENTED_EDGE('',*,*,#451,.F.);
#324=ORIENTED_EDGE('',*,*,#340,.F.);
#325=ORIENTED_EDGE('',*,*,#450,.T.);
#326=ORIENTED_EDGE('',*,*,#343,.F.);
#327=ORIENTED_EDGE('',*,*,#452,.F.);
#328=ORIENTED_EDGE('',*,*,#392,.F.);
#329=ORIENTED_EDGE('',*,*,#451,.T.);
#330=ORIENTED_EDGE('',*,*,#398,.F.);
#331=ORIENTED_EDGE('',*,*,#453,.F.);
#332=ORIENTED_EDGE('',*,*,#341,.F.);
#333=ORIENTED_EDGE('',*,*,#452,.T.);
#334=ORIENTED_EDGE('',*,*,#342,.F.);
#335=ORIENTED_EDGE('',*,*,#453,.T.);
#336=ORIENTED_EDGE('',*,*,#395,.F.);
#337=EDGE_CURVE('',#454,#455,#522,.T.);
#338=EDGE_CURVE('',#455,#456,#59,.F.);
#339=EDGE_CURVE('',#456,#457,#523,.F.);
#340=EDGE_CURVE('',#457,#458,#524,.T.);
#341=EDGE_CURVE('',#458,#459,#60,.F.);
#342=EDGE_CURVE('',#459,#460,#525,.F.);
#343=EDGE_CURVE('',#460,#461,#526,.T.);
#344=EDGE_CURVE('',#461,#462,#61,.F.);
#345=EDGE_CURVE('',#462,#463,#527,.F.);
#346=EDGE_CURVE('',#463,#464,#528,.T.);
#347=EDGE_CURVE('',#464,#465,#62,.F.);
#348=EDGE_CURVE('',#465,#466,#529,.F.);
#349=EDGE_CURVE('',#466,#467,#530,.T.);
#350=EDGE_CURVE('',#467,#468,#63,.F.);
#351=EDGE_CURVE('',#468,#454,#531,.F.);
#352=EDGE_CURVE('',#469,#470,#64,.T.);
#353=EDGE_CURVE('',#471,#470,#532,.T.);
#354=EDGE_CURVE('',#471,#472,#65,.T.);
#355=EDGE_CURVE('',#472,#469,#533,.T.);
#356=EDGE_CURVE('',#473,#474,#534,.T.);
#357=EDGE_CURVE('',#473,#475,#535,.F.);
#358=EDGE_CURVE('',#475,#476,#536,.T.);
#359=EDGE_CURVE('',#476,#474,#537,.T.);
#360=EDGE_CURVE('',#477,#478,#538,.T.);
#361=EDGE_CURVE('',#477,#473,#66,.F.);
#362=EDGE_CURVE('',#474,#478,#67,.T.);
#363=EDGE_CURVE('',#479,#480,#539,.T.);
#364=EDGE_CURVE('',#479,#477,#540,.T.);
#365=EDGE_CURVE('',#478,#480,#541,.F.);
#366=EDGE_CURVE('',#481,#482,#68,.T.);
#367=EDGE_CURVE('',#482,#483,#542,.F.);
#368=EDGE_CURVE('',#483,#484,#543,.T.);
#369=EDGE_CURVE('',#484,#485,#69,.T.);
#370=EDGE_CURVE('',#485,#486,#544,.F.);
#371=EDGE_CURVE('',#486,#487,#545,.T.);
#372=EDGE_CURVE('',#487,#488,#70,.T.);
#373=EDGE_CURVE('',#488,#489,#546,.F.);
#374=EDGE_CURVE('',#489,#490,#547,.T.);
#375=EDGE_CURVE('',#490,#491,#71,.T.);
#376=EDGE_CURVE('',#491,#492,#548,.F.);
#377=EDGE_CURVE('',#492,#493,#549,.T.);
#378=EDGE_CURVE('',#493,#494,#72,.T.);
#379=EDGE_CURVE('',#494,#495,#550,.F.);
#380=EDGE_CURVE('',#495,#481,#551,.T.);
#381=EDGE_CURVE('',#496,#469,#552,.T.);
#382=EDGE_CURVE('',#496,#497,#73,.T.);
#383=EDGE_CURVE('',#497,#470,#553,.T.);
#384=EDGE_CURVE('',#498,#497,#554,.T.);
#385=EDGE_CURVE('',#498,#471,#555,.T.);
#386=EDGE_CURVE('',#498,#499,#74,.T.);
#387=EDGE_CURVE('',#499,#472,#556,.T.);
#388=EDGE_CURVE('',#499,#496,#557,.T.);
#389=EDGE_CURVE('',#500,#501,#558,.T.);
#390=EDGE_CURVE('',#500,#502,#559,.T.);
#391=EDGE_CURVE('',#502,#503,#560,.T.);
#392=EDGE_CURVE('',#503,#501,#561,.F.);
#393=EDGE_CURVE('',#504,#505,#562,.T.);
#394=EDGE_CURVE('',#504,#500,#563,.F.);
#395=EDGE_CURVE('',#501,#505,#564,.T.);
#396=EDGE_CURVE('',#506,#507,#565,.T.);
#397=EDGE_CURVE('',#506,#504,#75,.F.);
#398=EDGE_CURVE('',#505,#507,#76,.T.);
#399=EDGE_CURVE('',#508,#509,#566,.T.);
#400=EDGE_CURVE('',#508,#506,#567,.T.);
#401=EDGE_CURVE('',#507,#509,#568,.F.);
#402=EDGE_CURVE('',#510,#511,#569,.T.);
#403=EDGE_CURVE('',#510,#508,#570,.F.);
#404=EDGE_CURVE('',#509,#511,#571,.T.);
#405=EDGE_CURVE('',#512,#513,#572,.T.);
#406=EDGE_CURVE('',#512,#510,#77,.F.);
#407=EDGE_CURVE('',#511,#513,#78,.T.);
#408=EDGE_CURVE('',#514,#515,#573,.T.);
#409=EDGE_CURVE('',#514,#512,#574,.T.);
#410=EDGE_CURVE('',#513,#515,#575,.F.);
#411=EDGE_CURVE('',#516,#517,#576,.T.);
#412=EDGE_CURVE('',#516,#514,#577,.F.);
#413=EDGE_CURVE('',#515,#517,#578,.T.);
#414=EDGE_CURVE('',#518,#519,#579,.T.);
#415=EDGE_CURVE('',#518,#516,#79,.F.);
#416=EDGE_CURVE('',#517,#519,#80,.T.);
#417=EDGE_CURVE('',#475,#518,#580,.T.);
#418=EDGE_CURVE('',#519,#476,#581,.F.);
#419=EDGE_CURVE('',#520,#521,#582,.T.);
#420=EDGE_CURVE('',#520,#479,#583,.F.);
#421=EDGE_CURVE('',#480,#521,#584,.T.);
#422=EDGE_CURVE('',#502,#520,#81,.F.);
#423=EDGE_CURVE('',#521,#503,#82,.T.);
#424=EDGE_CURVE('',#508,#486,#22,.T.);
#425=EDGE_CURVE('',#487,#510,#83,.T.);
#426=EDGE_CURVE('',#488,#512,#84,.T.);
#427=EDGE_CURVE('',#506,#485,#85,.T.);
#428=EDGE_CURVE('',#489,#514,#23,.F.);
#429=EDGE_CURVE('',#504,#484,#86,.T.);
#430=EDGE_CURVE('',#490,#516,#87,.T.);
#431=EDGE_CURVE('',#500,#483,#24,.T.);
#432=EDGE_CURVE('',#491,#518,#88,.T.);
#433=EDGE_CURVE('',#502,#482,#89,.T.);
#434=EDGE_CURVE('',#492,#475,#25,.F.);
#435=EDGE_CURVE('',#520,#481,#90,.T.);
#436=EDGE_CURVE('',#493,#473,#91,.T.);
#437=EDGE_CURVE('',#479,#495,#26,.T.);
#438=EDGE_CURVE('',#494,#477,#92,.T.);
#439=EDGE_CURVE('',#476,#466,#27,.T.);
#440=EDGE_CURVE('',#467,#519,#93,.T.);
#441=EDGE_CURVE('',#468,#517,#94,.T.);
#442=EDGE_CURVE('',#474,#465,#95,.T.);
#443=EDGE_CURVE('',#454,#515,#28,.F.);
#444=EDGE_CURVE('',#478,#464,#96,.T.);
#445=EDGE_CURVE('',#455,#513,#97,.T.);
#446=EDGE_CURVE('',#480,#463,#29,.T.);
#447=EDGE_CURVE('',#456,#511,#98,.T.);
#448=EDGE_CURVE('',#521,#462,#99,.T.);
#449=EDGE_CURVE('',#457,#509,#30,.F.);
#450=EDGE_CURVE('',#503,#461,#100,.T.);
#451=EDGE_CURVE('',#458,#507,#101,.T.);
#452=EDGE_CURVE('',#501,#460,#31,.T.);
#453=EDGE_CURVE('',#459,#505,#102,.T.);
#454=VERTEX_POINT('',#1220);
#455=VERTEX_POINT('',#1221);
#456=VERTEX_POINT('',#1223);
#457=VERTEX_POINT('',#1225);
#458=VERTEX_POINT('',#1227);
#459=VERTEX_POINT('',#1229);
#460=VERTEX_POINT('',#1231);
#461=VERTEX_POINT('',#1233);
#462=VERTEX_POINT('',#1235);
#463=VERTEX_POINT('',#1237);
#464=VERTEX_POINT('',#1239);
#465=VERTEX_POINT('',#1241);
#466=VERTEX_POINT('',#1243);
#467=VERTEX_POINT('',#1245);
#468=VERTEX_POINT('',#1247);
#469=VERTEX_POINT('',#1250);
#470=VERTEX_POINT('',#1251);
#471=VERTEX_POINT('',#1253);
#472=VERTEX_POINT('',#1255);
#473=VERTEX_POINT('',#1259);
#474=VERTEX_POINT('',#1260);
#475=VERTEX_POINT('',#1262);
#476=VERTEX_POINT('',#1264);
#477=VERTEX_POINT('',#1268);
#478=VERTEX_POINT('',#1269);
#479=VERTEX_POINT('',#1274);
#480=VERTEX_POINT('',#1275);
#481=VERTEX_POINT('',#1280);
#482=VERTEX_POINT('',#1281);
#483=VERTEX_POINT('',#1283);
#484=VERTEX_POINT('',#1285);
#485=VERTEX_POINT('',#1287);
#486=VERTEX_POINT('',#1289);
#487=VERTEX_POINT('',#1291);
#488=VERTEX_POINT('',#1293);
#489=VERTEX_POINT('',#1295);
#490=VERTEX_POINT('',#1297);
#491=VERTEX_POINT('',#1299);
#492=VERTEX_POINT('',#1301);
#493=VERTEX_POINT('',#1303);
#494=VERTEX_POINT('',#1305);
#495=VERTEX_POINT('',#1307);
#496=VERTEX_POINT('',#1311);
#497=VERTEX_POINT('',#1313);
#498=VERTEX_POINT('',#1317);
#499=VERTEX_POINT('',#1321);
#500=VERTEX_POINT('',#1328);
#501=VERTEX_POINT('',#1329);
#502=VERTEX_POINT('',#1331);
#503=VERTEX_POINT('',#1333);
#504=VERTEX_POINT('',#1337);
#505=VERTEX_POINT('',#1338);
#506=VERTEX_POINT('',#1343);
#507=VERTEX_POINT('',#1344);
#508=VERTEX_POINT('',#1349);
#509=VERTEX_POINT('',#1350);
#510=VERTEX_POINT('',#1355);
#511=VERTEX_POINT('',#1356);
#512=VERTEX_POINT('',#1361);
#513=VERTEX_POINT('',#1362);
#514=VERTEX_POINT('',#1367);
#515=VERTEX_POINT('',#1368);
#516=VERTEX_POINT('',#1373);
#517=VERTEX_POINT('',#1374);
#518=VERTEX_POINT('',#1379);
#519=VERTEX_POINT('',#1380);
#520=VERTEX_POINT('',#1388);
#521=VERTEX_POINT('',#1389);
#522=LINE('',#1219,#585);
#523=LINE('',#1224,#586);
#524=LINE('',#1226,#587);
#525=LINE('',#1230,#588);
#526=LINE('',#1232,#589);
#527=LINE('',#1236,#590);
#528=LINE('',#1238,#591);
#529=LINE('',#1242,#592);
#530=LINE('',#1244,#593);
#531=LINE('',#1248,#594);
#532=LINE('',#1252,#595);
#533=LINE('',#1256,#596);
#534=LINE('',#1258,#597);
#535=LINE('',#1261,#598);
#536=LINE('',#1263,#599);
#537=LINE('',#1265,#600);
#538=LINE('',#1267,#601);
#539=LINE('',#1273,#602);
#540=LINE('',#1276,#603);
#541=LINE('',#1277,#604);
#542=LINE('',#1282,#605);
#543=LINE('',#1284,#606);
#544=LINE('',#1288,#607);
#545=LINE('',#1290,#608);
#546=LINE('',#1294,#609);
#547=LINE('',#1296,#610);
#548=LINE('',#1300,#611);
#549=LINE('',#1302,#612);
#550=LINE('',#1306,#613);
#551=LINE('',#1308,#614);
#552=LINE('',#1310,#615);
#553=LINE('',#1314,#616);
#554=LINE('',#1316,#617);
#555=LINE('',#1318,#618);
#556=LINE('',#1322,#619);
#557=LINE('',#1324,#620);
#558=LINE('',#1327,#621);
#559=LINE('',#1330,#622);
#560=LINE('',#1332,#623);
#561=LINE('',#1334,#624);
#562=LINE('',#1336,#625);
#563=LINE('',#1339,#626);
#564=LINE('',#1340,#627);
#565=LINE('',#1342,#628);
#566=LINE('',#1348,#629);
#567=LINE('',#1351,#630);
#568=LINE('',#1352,#631);
#569=LINE('',#1354,#632);
#570=LINE('',#1357,#633);
#571=LINE('',#1358,#634);
#572=LINE('',#1360,#635);
#573=LINE('',#1366,#636);
#574=LINE('',#1369,#637);
#575=LINE('',#1370,#638);
#576=LINE('',#1372,#639);
#577=LINE('',#1375,#640);
#578=LINE('',#1376,#641);
#579=LINE('',#1378,#642);
#580=LINE('',#1384,#643);
#581=LINE('',#1385,#644);
#582=LINE('',#1387,#645);
#583=LINE('',#1390,#646);
#584=LINE('',#1391,#647);
#585=VECTOR('',#944,1.);
#586=VECTOR('',#947,1.);
#587=VECTOR('',#948,1.);
#588=VECTOR('',#951,1.);
#589=VECTOR('',#952,1.);
#590=VECTOR('',#955,1.);
#591=VECTOR('',#956,1.);
#592=VECTOR('',#959,1.);
#593=VECTOR('',#960,1.);
#594=VECTOR('',#963,1.);
#595=VECTOR('',#966,1.);
#596=VECTOR('',#969,1.);
#597=VECTOR('',#972,1.);
#598=VECTOR('',#973,1.);
#599=VECTOR('',#974,1.);
#600=VECTOR('',#975,1.);
#601=VECTOR('',#978,1.);
#602=VECTOR('',#985,1.);
#603=VECTOR('',#986,1.);
#604=VECTOR('',#987,1.);
#605=VECTOR('',#992,1.);
#606=VECTOR('',#993,1.);
#607=VECTOR('',#996,1.);
#608=VECTOR('',#997,1.);
#609=VECTOR('',#1000,1.);
#610=VECTOR('',#1001,1.);
#611=VECTOR('',#1004,1.);
#612=VECTOR('',#1005,1.);
#613=VECTOR('',#1008,1.);
#614=VECTOR('',#1009,1.);
#615=VECTOR('',#1012,1.);
#616=VECTOR('',#1015,1.);
#617=VECTOR('',#1018,1.);
#618=VECTOR('',#1019,1.);
#619=VECTOR('',#1024,1.);
#620=VECTOR('',#1027,1.);
#621=VECTOR('',#1032,1.);
#622=VECTOR('',#1033,1.);
#623=VECTOR('',#1034,1.);
#624=VECTOR('',#1035,1.);
#625=VECTOR('',#1038,1.);
#626=VECTOR('',#1039,1.);
#627=VECTOR('',#1040,1.);
#628=VECTOR('',#1043,1.);
#629=VECTOR('',#1050,1.);
#630=VECTOR('',#1051,1.);
#631=VECTOR('',#1052,1.);
#632=VECTOR('',#1055,1.);
#633=VECTOR('',#1056,1.);
#634=VECTOR('',#1057,1.);
#635=VECTOR('',#1060,1.);
#636=VECTOR('',#1067,1.);
#637=VECTOR('',#1068,1.);
#638=VECTOR('',#1069,1.);
#639=VECTOR('',#1072,1.);
#640=VECTOR('',#1073,1.);
#641=VECTOR('',#1074,1.);
#642=VECTOR('',#1077,1.);
#643=VECTOR('',#1084,1.);
#644=VECTOR('',#1085,1.);
#645=VECTOR('',#1088,1.);
#646=VECTOR('',#1089,1.);
#647=VECTOR('',#1090,1.);
#648=EDGE_LOOP('',(#103,#104,#105,#106,#107,#108,#109,#110,#111,#112,#113,
#114,#115,#116,#117));
#649=EDGE_LOOP('',(#118,#119,#120,#121));
#650=EDGE_LOOP('',(#122,#123,#124,#125));
#651=EDGE_LOOP('',(#126,#127,#128,#129));
#652=EDGE_LOOP('',(#130,#131,#132,#133));
#653=EDGE_LOOP('',(#134,#135,#136,#137,#138,#139,#140,#141,#142,#143,#144,
#145,#146,#147,#148));
#654=EDGE_LOOP('',(#149,#150,#151,#152));
#655=EDGE_LOOP('',(#153,#154,#155,#156));
#656=EDGE_LOOP('',(#157,#158,#159,#160));
#657=EDGE_LOOP('',(#161,#162,#163,#164));
#658=EDGE_LOOP('',(#165,#166,#167,#168));
#659=EDGE_LOOP('',(#169,#170,#171,#172));
#660=EDGE_LOOP('',(#173,#174,#175,#176));
#661=EDGE_LOOP('',(#177,#178,#179,#180));
#662=EDGE_LOOP('',(#181,#182,#183,#184));
#663=EDGE_LOOP('',(#185,#186,#187,#188));
#664=EDGE_LOOP('',(#189,#190,#191,#192));
#665=EDGE_LOOP('',(#193,#194,#195,#196));
#666=EDGE_LOOP('',(#197,#198,#199,#200));
#667=EDGE_LOOP('',(#201,#202,#203,#204));
#668=EDGE_LOOP('',(#205,#206,#207,#208));
#669=EDGE_LOOP('',(#209,#210,#211,#212));
#670=EDGE_LOOP('',(#213,#214,#215,#216));
#671=EDGE_LOOP('',(#217,#218,#219,#220));
#672=EDGE_LOOP('',(#221,#222,#223,#224));
#673=EDGE_LOOP('',(#225,#226,#227,#228));
#674=EDGE_LOOP('',(#229,#230,#231,#232));
#675=EDGE_LOOP('',(#233,#234,#235,#236));
#676=EDGE_LOOP('',(#237,#238,#239,#240));
#677=EDGE_LOOP('',(#241,#242,#243,#244));
#678=EDGE_LOOP('',(#245,#246,#247,#248));
#679=EDGE_LOOP('',(#249,#250,#251,#252));
#680=EDGE_LOOP('',(#253,#254,#255,#256));
#681=EDGE_LOOP('',(#257,#258,#259,#260));
#682=EDGE_LOOP('',(#261,#262,#263,#264));
#683=EDGE_LOOP('',(#265,#266,#267,#268));
#684=EDGE_LOOP('',(#269,#270,#271,#272));
#685=EDGE_LOOP('',(#273,#274,#275,#276));
#686=EDGE_LOOP('',(#277,#278,#279,#280));
#687=EDGE_LOOP('',(#281,#282,#283,#284));
#688=EDGE_LOOP('',(#285,#286,#287,#288));
#689=EDGE_LOOP('',(#289,#290,#291,#292));
#690=EDGE_LOOP('',(#293,#294,#295,#296));
#691=EDGE_LOOP('',(#297,#298,#299,#300));
#692=EDGE_LOOP('',(#301,#302,#303,#304));
#693=EDGE_LOOP('',(#305,#306,#307,#308));
#694=EDGE_LOOP('',(#309,#310,#311,#312));
#695=EDGE_LOOP('',(#313,#314,#315,#316));
#696=EDGE_LOOP('',(#317,#318,#319,#320));
#697=EDGE_LOOP('',(#321,#322,#323,#324));
#698=EDGE_LOOP('',(#325,#326,#327,#328));
#699=EDGE_LOOP('',(#329,#330,#331,#332));
#700=EDGE_LOOP('',(#333,#334,#335,#336));
#701=FACE_BOUND('',#648,.T.);
#702=FACE_BOUND('',#649,.T.);
#703=FACE_BOUND('',#650,.T.);
#704=FACE_BOUND('',#651,.T.);
#705=FACE_BOUND('',#652,.T.);
#706=FACE_BOUND('',#653,.T.);
#707=FACE_BOUND('',#654,.T.);
#708=FACE_BOUND('',#655,.T.);
#709=FACE_BOUND('',#656,.T.);
#710=FACE_BOUND('',#657,.T.);
#711=FACE_BOUND('',#658,.T.);
#712=FACE_BOUND('',#659,.T.);
#713=FACE_BOUND('',#660,.T.);
#714=FACE_BOUND('',#661,.T.);
#715=FACE_BOUND('',#662,.T.);
#716=FACE_BOUND('',#663,.T.);
#717=FACE_BOUND('',#664,.T.);
#718=FACE_BOUND('',#665,.T.);
#719=FACE_BOUND('',#666,.T.);
#720=FACE_BOUND('',#667,.T.);
#721=FACE_BOUND('',#668,.T.);
#722=FACE_BOUND('',#669,.T.);
#723=FACE_BOUND('',#670,.T.);
#724=FACE_BOUND('',#671,.T.);
#725=FACE_BOUND('',#672,.T.);
#726=FACE_BOUND('',#673,.T.);
#727=FACE_BOUND('',#674,.T.);
#728=FACE_BOUND('',#675,.T.);
#729=FACE_BOUND('',#676,.T.);
#730=FACE_BOUND('',#677,.T.);
#731=FACE_BOUND('',#678,.T.);
#732=FACE_BOUND('',#679,.T.);
#733=FACE_BOUND('',#680,.T.);
#734=FACE_BOUND('',#681,.T.);
#735=FACE_BOUND('',#682,.T.);
#736=FACE_BOUND('',#683,.T.);
#737=FACE_BOUND('',#684,.T.);
#738=FACE_BOUND('',#685,.T.);
#739=FACE_BOUND('',#686,.T.);
#740=FACE_BOUND('',#687,.T.);
#741=FACE_BOUND('',#688,.T.);
#742=FACE_BOUND('',#689,.T.);
#743=FACE_BOUND('',#690,.T.);
#744=FACE_BOUND('',#691,.T.);
#745=FACE_BOUND('',#692,.T.);
#746=FACE_BOUND('',#693,.T.);
#747=FACE_BOUND('',#694,.T.);
#748=FACE_BOUND('',#695,.T.);
#749=FACE_BOUND('',#696,.T.);
#750=FACE_BOUND('',#697,.T.);
#751=FACE_BOUND('',#698,.T.);
#752=FACE_BOUND('',#699,.T.);
#753=FACE_BOUND('',#700,.T.);
#754=PLANE('',#834);
#755=PLANE('',#842);
#756=PLANE('',#846);
#757=PLANE('',#847);
#758=PLANE('',#855);
#759=PLANE('',#858);
#760=PLANE('',#859);
#761=PLANE('',#860);
#762=PLANE('',#861);
#763=PLANE('',#865);
#764=PLANE('',#866);
#765=PLANE('',#870);
#766=PLANE('',#871);
#767=PLANE('',#875);
#768=PLANE('',#876);
#769=ADVANCED_FACE('',(#701,#702),#754,.F.);
#770=ADVANCED_FACE('',(#703),#755,.F.);
#771=ADVANCED_FACE('',(#704),#32,.T.);
#772=ADVANCED_FACE('',(#705),#756,.T.);
#773=ADVANCED_FACE('',(#706),#757,.T.);
#774=ADVANCED_FACE('',(#707),#33,.F.);
#775=ADVANCED_FACE('',(#708),#758,.F.);
#776=ADVANCED_FACE('',(#709),#34,.F.);
#777=ADVANCED_FACE('',(#710),#759,.T.);
#778=ADVANCED_FACE('',(#711),#760,.F.);
#779=ADVANCED_FACE('',(#712),#761,.T.);
#780=ADVANCED_FACE('',(#713),#762,.F.);
#781=ADVANCED_FACE('',(#714),#35,.T.);
#782=ADVANCED_FACE('',(#715),#763,.T.);
#783=ADVANCED_FACE('',(#716),#764,.F.);
#784=ADVANCED_FACE('',(#717),#36,.T.);
#785=ADVANCED_FACE('',(#718),#765,.T.);
#786=ADVANCED_FACE('',(#719),#766,.F.);
#787=ADVANCED_FACE('',(#720),#37,.T.);
#788=ADVANCED_FACE('',(#721),#767,.T.);
#789=ADVANCED_FACE('',(#722),#768,.F.);
#790=ADVANCED_FACE('',(#723),#38,.T.);
#791=ADVANCED_FACE('',(#724),#39,.T.);
#792=ADVANCED_FACE('',(#725),#12,.T.);
#793=ADVANCED_FACE('',(#726),#40,.T.);
#794=ADVANCED_FACE('',(#727),#41,.T.);
#795=ADVANCED_FACE('',(#728),#13,.T.);
#796=ADVANCED_FACE('',(#729),#42,.T.);
#797=ADVANCED_FACE('',(#730),#43,.T.);
#798=ADVANCED_FACE('',(#731),#14,.T.);
#799=ADVANCED_FACE('',(#732),#44,.T.);
#800=ADVANCED_FACE('',(#733),#45,.T.);
#801=ADVANCED_FACE('',(#734),#15,.T.);
#802=ADVANCED_FACE('',(#735),#46,.T.);
#803=ADVANCED_FACE('',(#736),#47,.T.);
#804=ADVANCED_FACE('',(#737),#16,.T.);
#805=ADVANCED_FACE('',(#738),#48,.T.);
#806=ADVANCED_FACE('',(#739),#49,.T.);
#807=ADVANCED_FACE('',(#740),#17,.T.);
#808=ADVANCED_FACE('',(#741),#50,.T.);
#809=ADVANCED_FACE('',(#742),#51,.T.);
#810=ADVANCED_FACE('',(#743),#18,.T.);
#811=ADVANCED_FACE('',(#744),#52,.T.);
#812=ADVANCED_FACE('',(#745),#53,.T.);
#813=ADVANCED_FACE('',(#746),#19,.T.);
#814=ADVANCED_FACE('',(#747),#54,.T.);
#815=ADVANCED_FACE('',(#748),#55,.T.);
#816=ADVANCED_FACE('',(#749),#20,.T.);
#817=ADVANCED_FACE('',(#750),#56,.T.);
#818=ADVANCED_FACE('',(#751),#57,.T.);
#819=ADVANCED_FACE('',(#752),#21,.T.);
#820=ADVANCED_FACE('',(#753),#58,.T.);
#821=CLOSED_SHELL('',(#769,#770,#771,#772,#773,#774,#775,#776,#777,#778,
#779,#780,#781,#782,#783,#784,#785,#786,#787,#788,#789,#790,#791,#792,#793,
#794,#795,#796,#797,#798,#799,#800,#801,#802,#803,#804,#805,#806,#807,#808,
#809,#810,#811,#812,#813,#814,#815,#816,#817,#818,#819,#820));
#822=STYLED_ITEM('',(#823),#830);
#823=PRESENTATION_STYLE_ASSIGNMENT((#824));
#824=SURFACE_STYLE_USAGE(.BOTH.,#825);
#825=SURFACE_SIDE_STYLE('',(#826));
#826=SURFACE_STYLE_FILL_AREA(#827);
#827=FILL_AREA_STYLE('',(#828));
#828=FILL_AREA_STYLE_COLOUR('',#829);
#829=COLOUR_RGB('',0.972549019607843,0.529411764705882,0.00392156862745098);
#830=MANIFOLD_SOLID_BREP('servo arm',#821);
#831=SHAPE_DEFINITION_REPRESENTATION(#1461,#832);
#832=SHAPE_REPRESENTATION('servo arm',(#833),#1456);
#833=AXIS2_PLACEMENT_3D('',#1217,#940,#941);
#834=AXIS2_PLACEMENT_3D('',#1218,#942,#943);
#835=AXIS2_PLACEMENT_3D('',#1222,#945,#946);
#836=AXIS2_PLACEMENT_3D('',#1228,#949,#950);
#837=AXIS2_PLACEMENT_3D('',#1234,#953,#954);
#838=AXIS2_PLACEMENT_3D('',#1240,#957,#958);
#839=AXIS2_PLACEMENT_3D('',#1246,#961,#962);
#840=AXIS2_PLACEMENT_3D('',#1249,#964,#965);
#841=AXIS2_PLACEMENT_3D('',#1254,#967,#968);
#842=AXIS2_PLACEMENT_3D('',#1257,#970,#971);
#843=AXIS2_PLACEMENT_3D('',#1266,#976,#977);
#844=AXIS2_PLACEMENT_3D('',#1270,#979,#980);
#845=AXIS2_PLACEMENT_3D('',#1271,#981,#982);
#846=AXIS2_PLACEMENT_3D('',#1272,#983,#984);
#847=AXIS2_PLACEMENT_3D('',#1278,#988,#989);
#848=AXIS2_PLACEMENT_3D('',#1279,#990,#991);
#849=AXIS2_PLACEMENT_3D('',#1286,#994,#995);
#850=AXIS2_PLACEMENT_3D('',#1292,#998,#999);
#851=AXIS2_PLACEMENT_3D('',#1298,#1002,#1003);
#852=AXIS2_PLACEMENT_3D('',#1304,#1006,#1007);
#853=AXIS2_PLACEMENT_3D('',#1309,#1010,#1011);
#854=AXIS2_PLACEMENT_3D('',#1312,#1013,#1014);
#855=AXIS2_PLACEMENT_3D('',#1315,#1016,#1017);
#856=AXIS2_PLACEMENT_3D('',#1319,#1020,#1021);
#857=AXIS2_PLACEMENT_3D('',#1320,#1022,#1023);
#858=AXIS2_PLACEMENT_3D('',#1323,#1025,#1026);
#859=AXIS2_PLACEMENT_3D('',#1325,#1028,#1029);
#860=AXIS2_PLACEMENT_3D('',#1326,#1030,#1031);
#861=AXIS2_PLACEMENT_3D('',#1335,#1036,#1037);
#862=AXIS2_PLACEMENT_3D('',#1341,#1041,#1042);
#863=AXIS2_PLACEMENT_3D('',#1345,#1044,#1045);
#864=AXIS2_PLACEMENT_3D('',#1346,#1046,#1047);
#865=AXIS2_PLACEMENT_3D('',#1347,#1048,#1049);
#866=AXIS2_PLACEMENT_3D('',#1353,#1053,#1054);
#867=AXIS2_PLACEMENT_3D('',#1359,#1058,#1059);
#868=AXIS2_PLACEMENT_3D('',#1363,#1061,#1062);
#869=AXIS2_PLACEMENT_3D('',#1364,#1063,#1064);
#870=AXIS2_PLACEMENT_3D('',#1365,#1065,#1066);
#871=AXIS2_PLACEMENT_3D('',#1371,#1070,#1071);
#872=AXIS2_PLACEMENT_3D('',#1377,#1075,#1076);
#873=AXIS2_PLACEMENT_3D('',#1381,#1078,#1079);
#874=AXIS2_PLACEMENT_3D('',#1382,#1080,#1081);
#875=AXIS2_PLACEMENT_3D('',#1383,#1082,#1083);
#876=AXIS2_PLACEMENT_3D('',#1386,#1086,#1087);
#877=AXIS2_PLACEMENT_3D('',#1392,#1091,#1092);
#878=AXIS2_PLACEMENT_3D('',#1393,#1093,#1094);
#879=AXIS2_PLACEMENT_3D('',#1394,#1095,#1096);
#880=AXIS2_PLACEMENT_3D('',#1395,#1097,#1098);
#881=AXIS2_PLACEMENT_3D('',#1396,#1099,#1100);
#882=AXIS2_PLACEMENT_3D('',#1397,#1101,#1102);
#883=AXIS2_PLACEMENT_3D('',#1398,#1103,#1104);
#884=AXIS2_PLACEMENT_3D('',#1399,#1105,#1106);
#885=AXIS2_PLACEMENT_3D('',#1400,#1107,#1108);
#886=AXIS2_PLACEMENT_3D('',#1401,#1109,#1110);
#887=AXIS2_PLACEMENT_3D('',#1402,#1111,#1112);
#888=AXIS2_PLACEMENT_3D('',#1403,#1113,#1114);
#889=AXIS2_PLACEMENT_3D('',#1404,#1115,#1116);
#890=AXIS2_PLACEMENT_3D('',#1405,#1117,#1118);
#891=AXIS2_PLACEMENT_3D('',#1406,#1119,#1120);
#892=AXIS2_PLACEMENT_3D('',#1407,#1121,#1122);
#893=AXIS2_PLACEMENT_3D('',#1408,#1123,#1124);
#894=AXIS2_PLACEMENT_3D('',#1409,#1125,#1126);
#895=AXIS2_PLACEMENT_3D('',#1410,#1127,#1128);
#896=AXIS2_PLACEMENT_3D('',#1411,#1129,#1130);
#897=AXIS2_PLACEMENT_3D('',#1412,#1131,#1132);
#898=AXIS2_PLACEMENT_3D('',#1413,#1133,#1134);
#899=AXIS2_PLACEMENT_3D('',#1414,#1135,#1136);
#900=AXIS2_PLACEMENT_3D('',#1415,#1137,#1138);
#901=AXIS2_PLACEMENT_3D('',#1416,#1139,#1140);
#902=AXIS2_PLACEMENT_3D('',#1417,#1141,#1142);
#903=AXIS2_PLACEMENT_3D('',#1418,#1143,#1144);
#904=AXIS2_PLACEMENT_3D('',#1419,#1145,#1146);
#905=AXIS2_PLACEMENT_3D('',#1420,#1147,#1148);
#906=AXIS2_PLACEMENT_3D('',#1421,#1149,#1150);
#907=AXIS2_PLACEMENT_3D('',#1422,#1151,#1152);
#908=AXIS2_PLACEMENT_3D('',#1423,#1153,#1154);
#909=AXIS2_PLACEMENT_3D('',#1424,#1155,#1156);
#910=AXIS2_PLACEMENT_3D('',#1425,#1157,#1158);
#911=AXIS2_PLACEMENT_3D('',#1426,#1159,#1160);
#912=AXIS2_PLACEMENT_3D('',#1427,#1161,#1162);
#913=AXIS2_PLACEMENT_3D('',#1428,#1163,#1164);
#914=AXIS2_PLACEMENT_3D('',#1429,#1165,#1166);
#915=AXIS2_PLACEMENT_3D('',#1430,#1167,#1168);
#916=AXIS2_PLACEMENT_3D('',#1431,#1169,#1170);
#917=AXIS2_PLACEMENT_3D('',#1432,#1171,#1172);
#918=AXIS2_PLACEMENT_3D('',#1433,#1173,#1174);
#919=AXIS2_PLACEMENT_3D('',#1434,#1175,#1176);
#920=AXIS2_PLACEMENT_3D('',#1435,#1177,#1178);
#921=AXIS2_PLACEMENT_3D('',#1436,#1179,#1180);
#922=AXIS2_PLACEMENT_3D('',#1437,#1181,#1182);
#923=AXIS2_PLACEMENT_3D('',#1438,#1183,#1184);
#924=AXIS2_PLACEMENT_3D('',#1439,#1185,#1186);
#925=AXIS2_PLACEMENT_3D('',#1440,#1187,#1188);
#926=AXIS2_PLACEMENT_3D('',#1441,#1189,#1190);
#927=AXIS2_PLACEMENT_3D('',#1442,#1191,#1192);
#928=AXIS2_PLACEMENT_3D('',#1443,#1193,#1194);
#929=AXIS2_PLACEMENT_3D('',#1444,#1195,#1196);
#930=AXIS2_PLACEMENT_3D('',#1445,#1197,#1198);
#931=AXIS2_PLACEMENT_3D('',#1446,#1199,#1200);
#932=AXIS2_PLACEMENT_3D('',#1447,#1201,#1202);
#933=AXIS2_PLACEMENT_3D('',#1448,#1203,#1204);
#934=AXIS2_PLACEMENT_3D('',#1449,#1205,#1206);
#935=AXIS2_PLACEMENT_3D('',#1450,#1207,#1208);
#936=AXIS2_PLACEMENT_3D('',#1451,#1209,#1210);
#937=AXIS2_PLACEMENT_3D('',#1452,#1211,#1212);
#938=AXIS2_PLACEMENT_3D('',#1453,#1213,#1214);
#939=AXIS2_PLACEMENT_3D('',#1454,#1215,#1216);
#940=DIRECTION('',(0.,0.,1.));
#941=DIRECTION('',(1.,0.,0.));
#942=DIRECTION('',(-1.,-6.12323399573677E-17,0.));
#943=DIRECTION('',(6.12323399573677E-17,-1.,0.));
#944=DIRECTION('',(-5.12546543857011E-17,0.837052028738189,-0.547123296145652));
#945=DIRECTION('',(-1.,-6.12323399573677E-17,0.));
#946=DIRECTION('',(0.,0.,-1.));
#947=DIRECTION('',(-4.70640260546229E-17,0.76861387442307,-0.639712991930255));
#948=DIRECTION('',(-4.77005119589966E-17,0.779008478072332,0.627013389882089));
#949=DIRECTION('',(-1.,-6.12323399573677E-17,0.));
#950=DIRECTION('',(0.,0.,-1.));
#951=DIRECTION('',(-5.17975360319195E-17,0.845917958843038,0.533313047756033));
#952=DIRECTION('',(2.17741167142703E-17,-0.35559831176516,0.934638882494072));
#953=DIRECTION('',(-1.,-6.12323399573677E-17,0.));
#954=DIRECTION('',(0.,0.,-1.));
#955=DIRECTION('',(1.50513882533993E-17,-0.245807824164137,0.969318582087279));
#956=DIRECTION('',(6.11576561634229E-17,-0.998780321085283,-0.049374793293533));
#957=DIRECTION('',(-1.,-6.12323399573677E-17,0.));
#958=DIRECTION('',(0.,0.,-1.));
#959=DIRECTION('',(6.10998055503912E-17,-0.997835548877133,0.0657587819007606));
#960=DIRECTION('',(1.60233934670045E-17,-0.261681873960078,-0.965154182936976));
#961=DIRECTION('',(-1.,-6.12323399573677E-17,0.));
#962=DIRECTION('',(0.,0.,-1.));
#963=DIRECTION('',(2.27103682827519E-17,-0.370888460224837,-0.928677419813817));
#964=DIRECTION('',(-1.,-6.12323399573677E-17,0.));
#965=DIRECTION('',(0.,0.,-1.));
#966=DIRECTION('',(-6.07787762550659E-17,0.992592742615789,-0.121489288854884));
#967=DIRECTION('',(-1.,-6.12323399573677E-17,0.));
#968=DIRECTION('',(0.,0.,-1.));
#969=DIRECTION('',(-6.0776431643864E-17,0.99255445220906,0.121801721662596));
#970=DIRECTION('',(-4.02656408852976E-18,0.0657587819007605,0.997835548877132));
#971=DIRECTION('',(6.10998055503912E-17,-0.997835548877133,0.0657587819007606));
#972=DIRECTION('',(1.,6.12323399573677E-17,0.));
#973=DIRECTION('',(6.10998055503912E-17,-0.997835548877133,0.0657587819007606));
#974=DIRECTION('',(1.,6.12323399573677E-17,0.));
#975=DIRECTION('',(6.10998055503912E-17,-0.997835548877133,0.0657587819007606));
#976=DIRECTION('',(1.,6.12323399573677E-17,0.));
#977=DIRECTION('',(0.,0.,1.));
#978=DIRECTION('',(1.,6.12323399573677E-17,0.));
#979=DIRECTION('',(-1.,-6.12323399573677E-17,0.));
#980=DIRECTION('',(0.,0.,-1.));
#981=DIRECTION('',(-1.,-6.12323399573677E-17,0.));
#982=DIRECTION('',(0.,0.,-1.));
#983=DIRECTION('',(3.02333412827437E-18,-0.049374793293533,0.998780321085283));
#984=DIRECTION('',(6.11576561634229E-17,-0.998780321085283,-0.049374793293533));
#985=DIRECTION('',(1.,6.12323399573677E-17,0.));
#986=DIRECTION('',(6.11576561634229E-17,-0.998780321085283,-0.049374793293533));
#987=DIRECTION('',(6.11576561634229E-17,-0.998780321085283,-0.049374793293533));
#988=DIRECTION('',(-1.,-6.12323399573677E-17,0.));
#989=DIRECTION('',(6.12323399573677E-17,-1.,0.));
#990=DIRECTION('',(-1.,-6.12323399573677E-17,0.));
#991=DIRECTION('',(0.,0.,-1.));
#992=DIRECTION('',(2.17741167142703E-17,-0.35559831176516,0.934638882494072));
#993=DIRECTION('',(-5.17975360319195E-17,0.845917958843038,0.533313047756033));
#994=DIRECTION('',(-1.,-6.12323399573677E-17,0.));
#995=DIRECTION('',(0.,0.,-1.));
#996=DIRECTION('',(-4.77005119589966E-17,0.779008478072332,0.627013389882089));
#997=DIRECTION('',(-4.70640260546229E-17,0.76861387442307,-0.639712991930255));
#998=DIRECTION('',(-1.,-6.12323399573677E-17,0.));
#999=DIRECTION('',(0.,0.,-1.));
#1000=DIRECTION('',(-5.12546543857011E-17,0.837052028738189,-0.547123296145652));
#1001=DIRECTION('',(2.27103682827519E-17,-0.370888460224837,-0.928677419813817));
#1002=DIRECTION('',(-1.,-6.12323399573677E-17,0.));
#1003=DIRECTION('',(0.,0.,-1.));
#1004=DIRECTION('',(1.60233934670045E-17,-0.261681873960078,-0.965154182936976));
#1005=DIRECTION('',(6.10998055503912E-17,-0.997835548877133,0.0657587819007606));
#1006=DIRECTION('',(-1.,-6.12323399573677E-17,0.));
#1007=DIRECTION('',(0.,0.,-1.));
#1008=DIRECTION('',(6.11576561634229E-17,-0.998780321085283,-0.049374793293533));
#1009=DIRECTION('',(1.50513882533993E-17,-0.245807824164137,0.969318582087279));
#1010=DIRECTION('',(1.,6.12323399573677E-17,0.));
#1011=DIRECTION('',(0.,0.,1.));
#1012=DIRECTION('',(1.,6.12323399573677E-17,0.));
#1013=DIRECTION('',(-1.,-6.12323399573677E-17,0.));
#1014=DIRECTION('',(0.,0.,-1.));
#1015=DIRECTION('',(1.,6.12323399573677E-17,0.));
#1016=DIRECTION('',(7.43907343634109E-18,-0.121489288854884,-0.992592742615789));
#1017=DIRECTION('',(-6.07787762550659E-17,0.992592742615789,-0.121489288854884));
#1018=DIRECTION('',(-6.07787762550659E-17,0.992592742615789,-0.121489288854884));
#1019=DIRECTION('',(1.,6.12323399573677E-17,0.));
#1020=DIRECTION('',(1.,6.12323399573677E-17,0.));
#1021=DIRECTION('',(0.,0.,1.));
#1022=DIRECTION('',(-1.,-6.12323399573677E-17,0.));
#1023=DIRECTION('',(0.,0.,-1.));
#1024=DIRECTION('',(1.,6.12323399573677E-17,0.));
#1025=DIRECTION('',(-7.45820442823678E-18,0.121801721662596,-0.99255445220906));
#1026=DIRECTION('',(-6.0776431643864E-17,0.99255445220906,0.121801721662596));
#1027=DIRECTION('',(-6.0776431643864E-17,0.99255445220906,0.121801721662596));
#1028=DIRECTION('',(-1.,-6.12323399573677E-17,0.));
#1029=DIRECTION('',(6.12323399573677E-17,-1.,0.));
#1030=DIRECTION('',(-5.72301257902512E-17,0.934638882494072,0.35559831176516));
#1031=DIRECTION('',(2.17741167142703E-17,-0.35559831176516,0.934638882494072));
#1032=DIRECTION('',(1.,6.12323399573677E-17,0.));
#1033=DIRECTION('',(2.17741167142703E-17,-0.35559831176516,0.934638882494072));
#1034=DIRECTION('',(1.,6.12323399573677E-17,0.));
#1035=DIRECTION('',(2.17741167142703E-17,-0.35559831176516,0.934638882494072));
#1036=DIRECTION('',(-3.26560058438972E-17,0.533313047756033,-0.845917958843038));
#1037=DIRECTION('',(-5.17975360319195E-17,0.845917958843038,0.533313047756033));
#1038=DIRECTION('',(1.,6.12323399573677E-17,0.));
#1039=DIRECTION('',(-5.17975360319195E-17,0.845917958843038,0.533313047756033));
#1040=DIRECTION('',(-5.17975360319195E-17,0.845917958843038,0.533313047756033));
#1041=DIRECTION('',(1.,6.12323399573677E-17,0.));
#1042=DIRECTION('',(0.,0.,1.));
#1043=DIRECTION('',(1.,6.12323399573677E-17,0.));
#1044=DIRECTION('',(-1.,-6.12323399573677E-17,0.));
#1045=DIRECTION('',(0.,0.,-1.));
#1046=DIRECTION('',(-1.,-6.12323399573677E-17,0.));
#1047=DIRECTION('',(0.,0.,-1.));
#1048=DIRECTION('',(-3.83934970470816E-17,0.627013389882089,-0.779008478072332));
#1049=DIRECTION('',(-4.77005119589966E-17,0.779008478072332,0.627013389882089));
#1050=DIRECTION('',(1.,6.12323399573677E-17,0.));
#1051=DIRECTION('',(-4.77005119589966E-17,0.779008478072332,0.627013389882089));
#1052=DIRECTION('',(-4.77005119589966E-17,0.779008478072332,0.627013389882089));
#1053=DIRECTION('',(3.91711233970182E-17,-0.639712991930255,-0.76861387442307));
#1054=DIRECTION('',(-4.70640260546229E-17,0.76861387442307,-0.639712991930255));
#1055=DIRECTION('',(1.,6.12323399573677E-17,0.));
#1056=DIRECTION('',(-4.70640260546229E-17,0.76861387442307,-0.639712991930255));
#1057=DIRECTION('',(-4.70640260546229E-17,0.76861387442307,-0.639712991930255));
#1058=DIRECTION('',(1.,6.12323399573677E-17,0.));
#1059=DIRECTION('',(0.,0.,1.));
#1060=DIRECTION('',(1.,6.12323399573677E-17,0.));
#1061=DIRECTION('',(-1.,-6.12323399573677E-17,0.));
#1062=DIRECTION('',(0.,0.,-1.));
#1063=DIRECTION('',(-1.,-6.12323399573677E-17,0.));
#1064=DIRECTION('',(0.,0.,-1.));
#1065=DIRECTION('',(3.35016396681861E-17,-0.547123296145652,-0.837052028738189));
#1066=DIRECTION('',(-5.12546543857011E-17,0.837052028738189,-0.547123296145652));
#1067=DIRECTION('',(1.,6.12323399573677E-17,0.));
#1068=DIRECTION('',(-5.12546543857011E-17,0.837052028738189,-0.547123296145652));
#1069=DIRECTION('',(-5.12546543857011E-17,0.837052028738189,-0.547123296145652));
#1070=DIRECTION('',(5.68650914807707E-17,-0.928677419813817,0.370888460224837));
#1071=DIRECTION('',(2.27103682827519E-17,-0.370888460224837,-0.928677419813817));
#1072=DIRECTION('',(1.,6.12323399573677E-17,0.));
#1073=DIRECTION('',(2.27103682827519E-17,-0.370888460224837,-0.928677419813817));
#1074=DIRECTION('',(2.27103682827519E-17,-0.370888460224837,-0.928677419813817));
#1075=DIRECTION('',(1.,6.12323399573677E-17,0.));
#1076=DIRECTION('',(0.,0.,1.));
#1077=DIRECTION('',(1.,6.12323399573677E-17,0.));
#1078=DIRECTION('',(-1.,-6.12323399573677E-17,0.));
#1079=DIRECTION('',(0.,0.,-1.));
#1080=DIRECTION('',(-1.,-6.12323399573677E-17,0.));
#1081=DIRECTION('',(0.,0.,-1.));
#1082=DIRECTION('',(5.90986490408723E-17,-0.965154182936976,0.261681873960078));
#1083=DIRECTION('',(1.60233934670045E-17,-0.261681873960078,-0.965154182936976));
#1084=DIRECTION('',(1.60233934670045E-17,-0.261681873960078,-0.965154182936976));
#1085=DIRECTION('',(1.60233934670045E-17,-0.261681873960078,-0.965154182936976));
#1086=DIRECTION('',(-5.93536449453619E-17,0.969318582087279,0.245807824164137));
#1087=DIRECTION('',(1.50513882533993E-17,-0.245807824164137,0.969318582087279));
#1088=DIRECTION('',(1.,6.12323399573677E-17,0.));
#1089=DIRECTION('',(1.50513882533993E-17,-0.245807824164137,0.969318582087279));
#1090=DIRECTION('',(1.50513882533993E-17,-0.245807824164137,0.969318582087279));
#1091=DIRECTION('',(1.,6.12323399573677E-17,0.));
#1092=DIRECTION('',(0.,0.,1.));
#1093=DIRECTION('',(-1.,-6.12323399573677E-17,0.));
#1094=DIRECTION('',(0.,0.,-1.));
#1095=DIRECTION('',(-1.,-6.12323399573677E-17,0.));
#1096=DIRECTION('',(0.,0.,-1.));
#1097=DIRECTION('',(4.70640260546229E-17,-0.76861387442307,0.639712991930255));
#1098=DIRECTION('',(3.91711233970182E-17,-0.639712991930255,-0.76861387442307));
#1099=DIRECTION('',(-5.02448267631139E-19,0.00820560292128249,0.999966333473632));
#1100=DIRECTION('',(-6.12302784771799E-17,0.999966333473632,-0.00820560292128262));
#1101=DIRECTION('',(-4.70640260546229E-17,0.76861387442307,-0.639712991930254));
#1102=DIRECTION('',(-3.91711233970181E-17,0.639712991930254,0.76861387442307));
#1103=DIRECTION('',(-1.,-6.12323399573677E-17,0.));
#1104=DIRECTION('',(0.,0.,-1.));
#1105=DIRECTION('',(5.1254654385701E-17,-0.837052028738188,0.547123296145652));
#1106=DIRECTION('',(3.35016396681861E-17,-0.547123296145652,-0.837052028738189));
#1107=DIRECTION('',(-4.77005119589966E-17,0.779008478072332,0.627013389882089));
#1108=DIRECTION('',(3.83934970470816E-17,-0.627013389882089,0.779008478072332));
#1109=DIRECTION('',(-4.77005119589967E-17,0.779008478072333,0.627013389882088));
#1110=DIRECTION('',(3.83934970470815E-17,-0.627013389882088,0.779008478072333));
#1111=DIRECTION('',(-5.12546543857011E-17,0.837052028738189,-0.547123296145652));
#1112=DIRECTION('',(-3.35016396681861E-17,0.547123296145652,0.837052028738189));
#1113=DIRECTION('',(-5.83887203937811E-17,0.953560168277639,0.301202598717741));
#1114=DIRECTION('',(-1.84433399207273E-17,0.301202598717741,-0.953560168277639));
#1115=DIRECTION('',(-1.,-6.12323399573677E-17,0.));
#1116=DIRECTION('',(0.,0.,-1.));
#1117=DIRECTION('',(2.8112403774633E-15,-0.845917958843036,-0.533313047756035));
#1118=DIRECTION('',(-3.26560058438974E-17,0.533313047756035,-0.845917958843037));
#1119=DIRECTION('',(-2.27103682827519E-17,0.370888460224837,0.928677419813817));
#1120=DIRECTION('',(5.68650914807707E-17,-0.928677419813817,0.370888460224837));
#1121=DIRECTION('',(2.27103682827519E-17,-0.370888460224837,-0.928677419813817));
#1122=DIRECTION('',(-5.68650914807707E-17,0.928677419813817,-0.370888460224837));
#1123=DIRECTION('',(5.17975360319195E-17,-0.845917958843038,-0.533313047756033));
#1124=DIRECTION('',(-3.26560058438972E-17,0.533313047756033,-0.845917958843038));
#1125=DIRECTION('',(5.80781902867966E-17,-0.948488826774101,0.316810582974574));
#1126=DIRECTION('',(1.9399053318791E-17,-0.316810582974574,-0.948488826774101));
#1127=DIRECTION('',(-1.,-6.12323399573677E-17,0.));
#1128=DIRECTION('',(0.,0.,-1.));
#1129=DIRECTION('',(-1.60233934670045E-17,0.261681873960078,0.965154182936976));
#1130=DIRECTION('',(5.90986490408723E-17,-0.965154182936976,0.261681873960078));
#1131=DIRECTION('',(2.17741167142703E-17,-0.35559831176516,0.934638882494072));
#1132=DIRECTION('',(5.72301257902512E-17,-0.934638882494072,-0.35559831176516));
#1133=DIRECTION('',(9.88822091438629E-17,-0.355598311765159,0.934638882494072));
#1134=DIRECTION('',(5.72301257902512E-17,-0.934638882494072,-0.355598311765159));
#1135=DIRECTION('',(1.60233934670045E-17,-0.261681873960078,-0.965154182936976));
#1136=DIRECTION('',(-5.90986490408723E-17,0.965154182936976,-0.261681873960078));
#1137=DIRECTION('',(-3.55837654953397E-17,0.581126991392368,-0.813812889966272));
#1138=DIRECTION('',(-4.98316675401026E-17,0.813812889966272,0.581126991392368));
#1139=DIRECTION('',(-1.,-6.12323399573677E-17,0.));
#1140=DIRECTION('',(0.,0.,-1.));
#1141=DIRECTION('',(-1.50513882533993E-17,0.245807824164137,-0.969318582087279));
#1142=DIRECTION('',(-5.93536449453619E-17,0.969318582087279,0.245807824164137));
#1143=DIRECTION('',(-6.10998055503912E-17,0.997835548877133,-0.0657587819007606));
#1144=DIRECTION('',(-4.02656408852976E-18,0.0657587819007605,0.997835548877132));
#1145=DIRECTION('',(6.10998055503912E-17,-0.997835548877133,0.0657587819007603));
#1146=DIRECTION('',(4.02656408852975E-18,-0.0657587819007603,-0.997835548877133));
#1147=DIRECTION('',(-1.50513882533993E-17,0.245807824164137,-0.969318582087279));
#1148=DIRECTION('',(-5.93536449453619E-17,0.969318582087279,0.245807824164137));
#1149=DIRECTION('',(3.63967438699554E-17,-0.594403935817188,-0.804166625199676));
#1150=DIRECTION('',(4.92410041765956E-17,-0.804166625199676,0.594403935817188));
#1151=DIRECTION('',(-1.,-6.12323399573677E-17,0.));
#1152=DIRECTION('',(0.,0.,-1.));
#1153=DIRECTION('',(-6.11576561634229E-17,0.998780321085283,0.0493747932935329));
#1154=DIRECTION('',(3.02333412827436E-18,-0.0493747932935329,0.998780321085283));
#1155=DIRECTION('',(6.11576561634229E-17,-0.998780321085283,-0.049374793293533));
#1156=DIRECTION('',(-3.02333412827437E-18,0.049374793293533,-0.998780321085283));
#1157=DIRECTION('',(-1.60233934670045E-17,0.261681873960078,0.965154182936976));
#1158=DIRECTION('',(5.90986490408723E-17,-0.965154182936976,0.261681873960078));
#1159=DIRECTION('',(3.55837654953397E-17,-0.581126991392368,0.813812889966272));
#1160=DIRECTION('',(-4.98316675401026E-17,0.813812889966272,0.581126991392368));
#1161=DIRECTION('',(1.60233934670045E-17,-0.261681873960079,-0.965154182936976));
#1162=DIRECTION('',(-5.90986490408723E-17,0.965154182936976,-0.261681873960079));
#1163=DIRECTION('',(-1.,-6.12323399573677E-17,0.));
#1164=DIRECTION('',(0.,0.,-1.));
#1165=DIRECTION('',(-2.27103682827519E-17,0.370888460224837,0.928677419813818));
#1166=DIRECTION('',(5.68650914807707E-17,-0.928677419813817,0.370888460224837));
#1167=DIRECTION('',(6.10998055503912E-17,-0.997835548877133,0.0657587819007606));
#1168=DIRECTION('',(4.02656408852976E-18,-0.0657587819007605,-0.997835548877132));
#1169=DIRECTION('',(6.10998055503911E-17,-0.997835548877132,0.0657587819007602));
#1170=DIRECTION('',(4.02656408852974E-18,-0.0657587819007602,-0.997835548877133));
#1171=DIRECTION('',(2.27103682827519E-17,-0.370888460224837,-0.928677419813817));
#1172=DIRECTION('',(-5.68650914807707E-17,0.928677419813817,-0.370888460224837));
#1173=DIRECTION('',(5.83887203937811E-17,-0.953560168277639,-0.301202598717741));
#1174=DIRECTION('',(1.84433399207273E-17,-0.301202598717741,0.953560168277639));
#1175=DIRECTION('',(-1.,-6.12323399573677E-17,0.));
#1176=DIRECTION('',(0.,0.,-1.));
#1177=DIRECTION('',(1.67145001416687E-15,0.998780321085283,0.0493747932935346));
#1178=DIRECTION('',(3.02333412827446E-18,-0.0493747932935346,0.998780321085283));
#1179=DIRECTION('',(5.12546543857011E-17,-0.837052028738189,0.547123296145652));
#1180=DIRECTION('',(3.35016396681861E-17,-0.547123296145652,-0.837052028738189));
#1181=DIRECTION('',(-5.1254654385701E-17,0.837052028738188,-0.547123296145652));
#1182=DIRECTION('',(-3.35016396681861E-17,0.547123296145652,0.837052028738188));
#1183=DIRECTION('',(-6.11576561634229E-17,0.998780321085283,0.049374793293533));
#1184=DIRECTION('',(3.02333412827437E-18,-0.049374793293533,0.998780321085283));
#1185=DIRECTION('',(-3.63967438699554E-17,0.594403935817188,0.804166625199676));
#1186=DIRECTION('',(-4.92410041765956E-17,0.804166625199676,-0.594403935817188));
#1187=DIRECTION('',(-1.,-6.12323399573677E-17,0.));
#1188=DIRECTION('',(0.,0.,-1.));
#1189=DIRECTION('',(4.70640260546229E-17,-0.768613874423069,0.639712991930255));
#1190=DIRECTION('',(3.91711233970182E-17,-0.639712991930255,-0.768613874423069));
#1191=DIRECTION('',(1.50513882533993E-17,-0.245807824164137,0.969318582087279));
#1192=DIRECTION('',(5.93536449453619E-17,-0.969318582087279,-0.245807824164137));
#1193=DIRECTION('',(1.50513882533993E-17,-0.245807824164137,0.969318582087279));
#1194=DIRECTION('',(5.93536449453619E-17,-0.969318582087279,-0.245807824164137));
#1195=DIRECTION('',(-4.70640260546229E-17,0.76861387442307,-0.639712991930255));
#1196=DIRECTION('',(-3.91711233970182E-17,0.639712991930255,0.76861387442307));
#1197=DIRECTION('',(5.02448267631139E-19,-0.00820560292128249,-0.999966333473632));
#1198=DIRECTION('',(6.12302784771799E-17,-0.999966333473632,0.00820560292128262));
#1199=DIRECTION('',(-1.,-6.12323399573677E-17,0.));
#1200=DIRECTION('',(0.,0.,-1.));
#1201=DIRECTION('',(1.90799826402729E-15,0.355598311765161,-0.934638882494072));
#1202=DIRECTION('',(-5.72301257902512E-17,0.934638882494072,0.355598311765161));
#1203=DIRECTION('',(4.77005119589966E-17,-0.779008478072332,-0.627013389882089));
#1204=DIRECTION('',(-3.83934970470816E-17,0.627013389882089,-0.779008478072332));
#1205=DIRECTION('',(-4.77005119589967E-17,0.779008478072333,0.627013389882089));
#1206=DIRECTION('',(3.83934970470816E-17,-0.627013389882089,0.779008478072332));
#1207=DIRECTION('',(-2.17741167142703E-17,0.35559831176516,-0.934638882494072));
#1208=DIRECTION('',(-5.72301257902512E-17,0.934638882494072,0.35559831176516));
#1209=DIRECTION('',(-5.80781902867966E-17,0.948488826774101,-0.316810582974574));
#1210=DIRECTION('',(-1.9399053318791E-17,0.316810582974574,0.948488826774101));
#1211=DIRECTION('',(-1.,-6.12323399573677E-17,0.));
#1212=DIRECTION('',(0.,0.,-1.));
#1213=DIRECTION('',(5.17975360319195E-17,-0.845917958843038,-0.533313047756033));
#1214=DIRECTION('',(-3.26560058438972E-17,0.533313047756033,-0.845917958843038));
#1215=DIRECTION('',(-5.17975360319195E-17,0.845917958843038,0.533313047756033));
#1216=DIRECTION('',(3.26560058438972E-17,-0.533313047756033,0.845917958843038));
#1217=CARTESIAN_POINT('',(0.,0.,0.));
#1218=CARTESIAN_POINT('',(-0.166756480932235,0.00930579886323787,0.0955139003135603));
#1219=CARTESIAN_POINT('',(-0.166756480932235,0.02550801415994,0.0820544118408617));
#1220=CARTESIAN_POINT('',(-0.166756480932235,0.0193696429578299,0.0860666425860959));
#1221=CARTESIAN_POINT('',(-0.166756480932235,0.02550801415994,0.0820544118408617));
#1222=CARTESIAN_POINT('',(-0.166756480932235,0.0284680600342147,0.086583029835516));
#1223=CARTESIAN_POINT('',(-0.166756480932235,0.0319290345820412,0.0907413838005619));
#1224=CARTESIAN_POINT('',(-0.166756480932235,0.0162173574401008,0.103818124056204));
#1225=CARTESIAN_POINT('',(-0.166756480932235,0.0262925423326728,0.0954326045042496));
#1226=CARTESIAN_POINT('',(-0.166756480932235,0.0320052615470414,0.100030694949824));
#1227=CARTESIAN_POINT('',(-0.166756480932235,0.0320052615470418,0.100030694949824));
#1228=CARTESIAN_POINT('',(-0.166756480932235,0.0286129943726946,0.104245285788465));
#1229=CARTESIAN_POINT('',(-0.166756480932235,0.0257276646895531,0.108821870228734));
#1230=CARTESIAN_POINT('',(-0.166756480932235,0.00797280666836625,0.0976282345519294));
#1231=CARTESIAN_POINT('',(-0.166756480932235,0.0195242767762147,0.104910914467728));
#1232=CARTESIAN_POINT('',(-0.166756480932235,0.016916560216769,0.111764921391673));
#1233=CARTESIAN_POINT('',(-0.166756480932235,0.016916560216769,0.111764921391673));
#1234=CARTESIAN_POINT('',(-0.166756480932235,0.0118599779298272,0.109841063783973));
#1235=CARTESIAN_POINT('',(-0.166756480932235,0.00661577156907039,0.108511194555397));
#1236=CARTESIAN_POINT('',(-0.166756480932235,0.00987512151687444,0.0956582738614566));
#1237=CARTESIAN_POINT('',(-0.166756480932235,0.00841835924259535,0.10140287026291));
#1238=CARTESIAN_POINT('',(-0.166756480932235,0.00109398256146334,0.101040789055461));
#1239=CARTESIAN_POINT('',(-0.166756480932235,0.00109398256146334,0.101040789055461));
#1240=CARTESIAN_POINT('',(-0.166756480932235,0.00136111001556974,0.095637188825746));
#1241=CARTESIAN_POINT('',(-0.166756480932235,0.00100534192374482,0.0902387000016253));
#1242=CARTESIAN_POINT('',(-0.166756480932235,0.00892376596420757,0.0897168645949188));
#1243=CARTESIAN_POINT('',(-0.166756480932235,0.00832279028702329,0.089756469746818));
#1244=CARTESIAN_POINT('',(-0.166756480932235,0.00640379311112232,0.0826786843299815));
#1245=CARTESIAN_POINT('',(-0.166756480932235,0.00640379311112232,0.0826786843299815));
#1246=CARTESIAN_POINT('',(-0.166756480932235,0.0116254692440301,0.0812629333341003));
#1247=CARTESIAN_POINT('',(-0.166756480932235,0.0166497988319264,0.0792563529814838));
#1248=CARTESIAN_POINT('',(-0.166756480932235,0.0212392513667137,0.0907480045032932));
#1249=CARTESIAN_POINT('',(-0.166756480932235,0.0161918369111046,0.0955013394661801));
#1250=CARTESIAN_POINT('',(-0.166756480932235,0.0139787176376167,0.100645092457409));
#1251=CARTESIAN_POINT('',(-0.166756480932235,0.013925439951226,0.0903808378722236));
#1252=CARTESIAN_POINT('',(-0.166756480932235,0.00764383985429814,0.0911496800124909));
#1253=CARTESIAN_POINT('',(-0.166756480932235,0.00136223975737032,0.0919185221527582));
#1254=CARTESIAN_POINT('',(-0.166756480932235,0.00180153910287894,0.0955076891179922));
#1255=CARTESIAN_POINT('',(-0.166756480932235,0.00136111001556974,0.0990967176269822));
#1256=CARTESIAN_POINT('',(-0.166756480932235,0.00766991382659324,0.0998709050421955));
#1257=CARTESIAN_POINT('',(-0.174756480932236,0.00835759097652183,0.0877498380396154));
#1258=CARTESIAN_POINT('',(-0.174756480932236,0.000873824359943319,0.0882430289038711));
#1259=CARTESIAN_POINT('',(-0.172756480932236,0.000873824359943319,0.0882430289038711));
#1260=CARTESIAN_POINT('',(-0.168756480932235,0.000873824359943319,0.0882430289038711));
#1261=CARTESIAN_POINT('',(-0.172756480932236,0.0057530625118779,0.0879214801698778));
#1262=CARTESIAN_POINT('',(-0.172756480932236,0.0057530625118779,0.0879214801698778));
#1263=CARTESIAN_POINT('',(-0.174756480932236,0.0057530625118779,0.0879214801698778));
#1264=CARTESIAN_POINT('',(-0.168756480932235,0.0057530625118779,0.0879214801698778));
#1265=CARTESIAN_POINT('',(-0.168756480932235,0.00835759097652183,0.0877498380396154));
#1266=CARTESIAN_POINT('',(-0.174756480932236,0.00136111001556974,0.095637188825746));
#1267=CARTESIAN_POINT('',(-0.174756480932236,0.000995232974876218,0.103038349697632));
#1268=CARTESIAN_POINT('',(-0.172756480932236,0.000995232974876218,0.103038349697632));
#1269=CARTESIAN_POINT('',(-0.168756480932235,0.000995232974876218,0.103038349697632));
#1270=CARTESIAN_POINT('',(-0.172756480932236,0.00136111001556974,0.095637188825746));
#1271=CARTESIAN_POINT('',(-0.168756480932235,0.00136111001556974,0.095637188825746));
#1272=CARTESIAN_POINT('',(-0.174756480932236,0.00848608538301587,0.103408660647333));
#1273=CARTESIAN_POINT('',(-0.174756480932236,0.00587909089467547,0.103279783644792));
#1274=CARTESIAN_POINT('',(-0.172756480932236,0.00587909089467547,0.103279783644792));
#1275=CARTESIAN_POINT('',(-0.168756480932235,0.00587909089467547,0.103279783644792));
#1276=CARTESIAN_POINT('',(-0.172756480932236,0.00848608538301587,0.103408660647333));
#1277=CARTESIAN_POINT('',(-0.168756480932235,0.00587909089467547,0.103279783644792));
#1278=CARTESIAN_POINT('',(-0.174756480932236,0.00930579886323787,0.0955139003135603));
#1279=CARTESIAN_POINT('',(-0.174756480932236,0.0118599779298272,0.109841063783973));
#1280=CARTESIAN_POINT('',(-0.174756480932236,0.00661577156907039,0.108511194555397));
#1281=CARTESIAN_POINT('',(-0.174756480932236,0.016916560216769,0.111764921391673));
#1282=CARTESIAN_POINT('',(-0.174756480932236,0.0213553027342175,0.100098326784984));
#1283=CARTESIAN_POINT('',(-0.174756480932236,0.0195242767762147,0.104910914467728));
#1284=CARTESIAN_POINT('',(-0.174756480932236,0.0257276646895531,0.108821870228734));
#1285=CARTESIAN_POINT('',(-0.174756480932236,0.0257276646895534,0.108821870228733));
#1286=CARTESIAN_POINT('',(-0.174756480932236,0.0286129943726946,0.104245285788465));
#1287=CARTESIAN_POINT('',(-0.174756480932236,0.0320052615470414,0.100030694949824));
#1288=CARTESIAN_POINT('',(-0.174756480932236,0.0160237743987563,0.0871674120533407));
#1289=CARTESIAN_POINT('',(-0.174756480932236,0.0262925423326728,0.0954326045042496));
#1290=CARTESIAN_POINT('',(-0.174756480932236,0.0319290345820412,0.0907413838005619));
#1291=CARTESIAN_POINT('',(-0.174756480932236,0.0319290345820413,0.090741383800562));
#1292=CARTESIAN_POINT('',(-0.174756480932236,0.0284680600342147,0.086583029835516));
#1293=CARTESIAN_POINT('',(-0.174756480932236,0.02550801415994,0.0820544118408617));
#1294=CARTESIAN_POINT('',(-0.174756480932236,0.00799178231147857,0.0935035669422815));
#1295=CARTESIAN_POINT('',(-0.174756480932236,0.0193696429578299,0.0860666425860959));
#1296=CARTESIAN_POINT('',(-0.174756480932236,0.0166497988319264,0.0792563529814839));
#1297=CARTESIAN_POINT('',(-0.174756480932236,0.0166497988319264,0.0792563529814838));
#1298=CARTESIAN_POINT('',(-0.174756480932236,0.0116254692440301,0.0812629333341003));
#1299=CARTESIAN_POINT('',(-0.174756480932236,0.00640379311112238,0.0826786843299815));
#1300=CARTESIAN_POINT('',(-0.174756480932236,0.00984422014316891,0.0953679183637297));
#1301=CARTESIAN_POINT('',(-0.174756480932236,0.00832279028702329,0.0897564697468179));
#1302=CARTESIAN_POINT('',(-0.174756480932236,0.00100534192374482,0.0902387000016253));
#1303=CARTESIAN_POINT('',(-0.174756480932236,0.00100534192374482,0.0902387000016253));
#1304=CARTESIAN_POINT('',(-0.174756480932236,0.00136111001556974,0.095637188825746));
#1305=CARTESIAN_POINT('',(-0.174756480932236,0.00109398256146334,0.101040789055461));
#1306=CARTESIAN_POINT('',(-0.174756480932236,0.00901322336864144,0.101432277423465));
#1307=CARTESIAN_POINT('',(-0.174756480932236,0.00841835924259535,0.10140287026291));
#1308=CARTESIAN_POINT('',(-0.174756480932236,0.00661577156907039,0.108511194555397));
#1309=CARTESIAN_POINT('',(-0.170256480932235,0.0161918369111046,0.0955013394661801));
#1310=CARTESIAN_POINT('',(-0.170256480932235,0.0139787176376167,0.100645092457409));
#1311=CARTESIAN_POINT('',(-0.170256480932235,0.0139787176376167,0.100645092457409));
#1312=CARTESIAN_POINT('',(-0.170256480932235,0.0161918369111046,0.0955013394661801));
#1313=CARTESIAN_POINT('',(-0.170256480932235,0.013925439951226,0.0903808378722236));
#1314=CARTESIAN_POINT('',(-0.170256480932235,0.013925439951226,0.0903808378722236));
#1315=CARTESIAN_POINT('',(-0.170256480932235,0.00764383985429814,0.0911496800124909));
#1316=CARTESIAN_POINT('',(-0.170256480932235,0.00764383985429814,0.0911496800124909));
#1317=CARTESIAN_POINT('',(-0.170256480932235,0.00136223975737032,0.0919185221527582));
#1318=CARTESIAN_POINT('',(-0.170256480932235,0.00136223975737032,0.0919185221527582));
#1319=CARTESIAN_POINT('',(-0.170256480932235,0.00180153910287894,0.0955076891179922));
#1320=CARTESIAN_POINT('',(-0.170256480932235,0.00180153910287894,0.0955076891179922));
#1321=CARTESIAN_POINT('',(-0.170256480932235,0.00136111001556974,0.0990967176269822));
#1322=CARTESIAN_POINT('',(-0.170256480932235,0.00136111001556974,0.0990967176269822));
#1323=CARTESIAN_POINT('',(-0.170256480932235,0.00766991382659324,0.0998709050421955));
#1324=CARTESIAN_POINT('',(-0.170256480932235,0.00766991382659324,0.0998709050421955));
#1325=CARTESIAN_POINT('',(-0.170256480932235,0.00998853790285947,0.0955013394661801));
#1326=CARTESIAN_POINT('',(-0.174756480932236,0.019655244193773,0.110191009161907));
#1327=CARTESIAN_POINT('',(-0.174756480932236,0.0205246504057888,0.10790590030861));
#1328=CARTESIAN_POINT('',(-0.172756480932236,0.0205246504057888,0.10790590030861));
#1329=CARTESIAN_POINT('',(-0.168756480932235,0.0205246504057888,0.10790590030861));
#1330=CARTESIAN_POINT('',(-0.172756480932236,0.019655244193773,0.110191009161907));
#1331=CARTESIAN_POINT('',(-0.172756480932236,0.0187858379817571,0.112476118015203));
#1332=CARTESIAN_POINT('',(-0.174756480932236,0.0187858379817571,0.112476118015203));
#1333=CARTESIAN_POINT('',(-0.168756480932235,0.0187858379817571,0.112476118015203));
#1334=CARTESIAN_POINT('',(-0.168756480932235,0.0205246504057888,0.10790590030861));
#1335=CARTESIAN_POINT('',(-0.174756480932236,0.022592844499915,0.109209803227515));
#1336=CARTESIAN_POINT('',(-0.174756480932236,0.0246610385940411,0.11051370614642));
#1337=CARTESIAN_POINT('',(-0.172756480932236,0.0246610385940411,0.11051370614642));
#1338=CARTESIAN_POINT('',(-0.168756480932235,0.0246610385940411,0.11051370614642));
#1339=CARTESIAN_POINT('',(-0.172756480932236,0.0205246504057888,0.10790590030861));
#1340=CARTESIAN_POINT('',(-0.168756480932235,0.022592844499915,0.109209803227515));
#1341=CARTESIAN_POINT('',(-0.174756480932236,0.0286129943726946,0.104245285788465));
#1342=CARTESIAN_POINT('',(-0.174756480932236,0.0332592883268056,0.0984726779936793));
#1343=CARTESIAN_POINT('',(-0.172756480932236,0.0332592883268056,0.0984726779936793));
#1344=CARTESIAN_POINT('',(-0.168756480932235,0.0332592883268056,0.0984726779936793));
#1345=CARTESIAN_POINT('',(-0.172756480932236,0.0286129943726946,0.104245285788465));
#1346=CARTESIAN_POINT('',(-0.168756480932235,0.0286129943726946,0.104245285788465));
#1347=CARTESIAN_POINT('',(-0.174756480932236,0.0313546819559621,0.0969396860807688));
#1348=CARTESIAN_POINT('',(-0.174756480932236,0.0294500755851186,0.0954066941678583));
#1349=CARTESIAN_POINT('',(-0.172756480932236,0.0294500755851186,0.0954066941678583));
#1350=CARTESIAN_POINT('',(-0.168756480932235,0.0294500755851186,0.0954066941678583));
#1351=CARTESIAN_POINT('',(-0.172756480932236,0.0313546819559621,0.0969396860807688));
#1352=CARTESIAN_POINT('',(-0.168756480932235,0.0294500755851186,0.0954066941678583));
#1353=CARTESIAN_POINT('',(-0.174756480932236,0.0313292680755102,0.0938426528586331));
#1354=CARTESIAN_POINT('',(-0.174756480932236,0.0332084605659017,0.092278611549408));
#1355=CARTESIAN_POINT('',(-0.172756480932236,0.0332084605659017,0.092278611549408));
#1356=CARTESIAN_POINT('',(-0.168756480932235,0.0332084605659017,0.092278611549408));
#1357=CARTESIAN_POINT('',(-0.172756480932236,0.0294500755851186,0.0954066941678583));
#1358=CARTESIAN_POINT('',(-0.168756480932235,0.0313292680755102,0.0938426528586331));
#1359=CARTESIAN_POINT('',(-0.174756480932236,0.0284680600342147,0.086583029835516));
#1360=CARTESIAN_POINT('',(-0.174756480932236,0.0244137675676487,0.0803803077833853));
#1361=CARTESIAN_POINT('',(-0.172756480932236,0.0244137675676487,0.0803803077833853));
#1362=CARTESIAN_POINT('',(-0.168756480932235,0.0244137675676487,0.0803803077833853));
#1363=CARTESIAN_POINT('',(-0.172756480932236,0.0284680600342147,0.086583029835516));
#1364=CARTESIAN_POINT('',(-0.168756480932235,0.0284680600342147,0.086583029835516));
#1365=CARTESIAN_POINT('',(-0.174756480932236,0.0223672498832619,0.0817179755300246));
#1366=CARTESIAN_POINT('',(-0.174756480932236,0.0203207321988752,0.0830556432766638));
#1367=CARTESIAN_POINT('',(-0.172756480932236,0.0203207321988752,0.0830556432766638));
#1368=CARTESIAN_POINT('',(-0.168756480932235,0.0203207321988752,0.0830556432766638));
#1369=CARTESIAN_POINT('',(-0.172756480932236,0.0223672498832619,0.0817179755300246));
#1370=CARTESIAN_POINT('',(-0.168756480932235,0.0203207321988752,0.0830556432766638));
#1371=CARTESIAN_POINT('',(-0.174756480932236,0.0194139429352146,0.080785109668849));
#1372=CARTESIAN_POINT('',(-0.174756480932236,0.018507153671554,0.0785145760610342));
#1373=CARTESIAN_POINT('',(-0.172756480932236,0.018507153671554,0.0785145760610342));
#1374=CARTESIAN_POINT('',(-0.168756480932235,0.018507153671554,0.0785145760610342));
#1375=CARTESIAN_POINT('',(-0.172756480932236,0.0203207321988752,0.0830556432766638));
#1376=CARTESIAN_POINT('',(-0.168756480932235,0.0194139429352146,0.080785109668849));
#1377=CARTESIAN_POINT('',(-0.174756480932236,0.0116254692440301,0.0812629333341003));
#1378=CARTESIAN_POINT('',(-0.174756480932236,0.00447348474524839,0.0832020480779017));
#1379=CARTESIAN_POINT('',(-0.172756480932236,0.00447348474524839,0.0832020480779017));
#1380=CARTESIAN_POINT('',(-0.168756480932235,0.00447348474524839,0.0832020480779017));
#1381=CARTESIAN_POINT('',(-0.172756480932236,0.0116254692440301,0.0812629333341003));
#1382=CARTESIAN_POINT('',(-0.168756480932235,0.0116254692440301,0.0812629333341003));
#1383=CARTESIAN_POINT('',(-0.174756480932236,0.00511327362856315,0.0855617641238897));
#1384=CARTESIAN_POINT('',(-0.172756480932236,0.00511327362856315,0.0855617641238897));
#1385=CARTESIAN_POINT('',(-0.168756480932235,0.0057530625118779,0.0879214801698778));
#1386=CARTESIAN_POINT('',(-0.174756480932236,0.00527811264978567,0.10564968127593));
#1387=CARTESIAN_POINT('',(-0.174756480932236,0.00467713440489584,0.108019578907069));
#1388=CARTESIAN_POINT('',(-0.172756480932236,0.00467713440489584,0.108019578907069));
#1389=CARTESIAN_POINT('',(-0.168756480932235,0.00467713440489584,0.108019578907069));
#1390=CARTESIAN_POINT('',(-0.172756480932236,0.00587909089467547,0.103279783644792));
#1391=CARTESIAN_POINT('',(-0.168756480932235,0.00527811264978567,0.10564968127593));
#1392=CARTESIAN_POINT('',(-0.174756480932236,0.0118599779298272,0.109841063783973));
#1393=CARTESIAN_POINT('',(-0.172756480932236,0.0118599779298272,0.109841063783973));
#1394=CARTESIAN_POINT('',(-0.168756480932235,0.0118599779298272,0.109841063783973));
#1395=CARTESIAN_POINT('',(-0.172756480932236,0.0162173574401008,0.103818124056204));
#1396=CARTESIAN_POINT('',(-0.172756480932236,0.0262925423326728,0.0954326045042496));
#1397=CARTESIAN_POINT('',(-0.172756480932236,0.0319290345820412,0.0907413838005619));
#1398=CARTESIAN_POINT('',(-0.172756480932236,0.0284680600342147,0.086583029835516));
#1399=CARTESIAN_POINT('',(-0.172756480932236,0.02550801415994,0.0820544118408618));
#1400=CARTESIAN_POINT('',(-0.172756480932236,0.0301006551761979,0.0984977030369135));
#1401=CARTESIAN_POINT('',(-0.172756480932236,0.0320052615470414,0.100030694949824));
#1402=CARTESIAN_POINT('',(-0.172756480932236,0.0234614964755533,0.0833920795875009));
#1403=CARTESIAN_POINT('',(-0.172756480932236,0.0193696429578299,0.0860666425860959));
#1404=CARTESIAN_POINT('',(-0.172756480932236,0.0286129943726946,0.104245285788465));
#1405=CARTESIAN_POINT('',(-0.172756480932236,0.0257276646895534,0.108821870228733));
#1406=CARTESIAN_POINT('',(-0.172756480932236,0.0212392513667137,0.0907480045032932));
#1407=CARTESIAN_POINT('',(-0.172756480932236,0.0166497988319264,0.0792563529814839));
#1408=CARTESIAN_POINT('',(-0.172756480932236,0.00797280666836625,0.0976282345519294));
#1409=CARTESIAN_POINT('',(-0.172756480932236,0.0195242767762147,0.104910914467728));
#1410=CARTESIAN_POINT('',(-0.172756480932236,0.0116254692440301,0.0812629333341003));
#1411=CARTESIAN_POINT('',(-0.172756480932236,0.00640379311112238,0.0826786843299815));
#1412=CARTESIAN_POINT('',(-0.172756480932236,0.0177859664287848,0.109479812538376));
#1413=CARTESIAN_POINT('',(-0.172756480932236,0.016916560216769,0.111764921391673));
#1414=CARTESIAN_POINT('',(-0.172756480932236,0.00704358199443708,0.0850384003759696));
#1415=CARTESIAN_POINT('',(-0.172756480932236,0.00832279028702329,0.089756469746818));
#1416=CARTESIAN_POINT('',(-0.172756480932236,0.0118599779298272,0.109841063783973));
#1417=CARTESIAN_POINT('',(-0.172756480932236,0.00661577156907039,0.108511194555397));
#1418=CARTESIAN_POINT('',(-0.172756480932236,0.00892376596420757,0.0897168645949188));
#1419=CARTESIAN_POINT('',(-0.172756480932236,0.00100534192374482,0.0902387000016253));
#1420=CARTESIAN_POINT('',(-0.172756480932236,0.00987512151687444,0.0956582738614566));
#1421=CARTESIAN_POINT('',(-0.172756480932236,0.00841835924259535,0.10140287026291));
#1422=CARTESIAN_POINT('',(-0.172756480932236,0.00136111001556974,0.095637188825746));
#1423=CARTESIAN_POINT('',(-0.172756480932236,0.00109398256146334,0.101040789055461));
#1424=CARTESIAN_POINT('',(-0.172756480932236,0.00858483496960297,0.101411100005163));
#1425=CARTESIAN_POINT('',(-0.168756480932235,0.00984422014316891,0.0953679183637297));
#1426=CARTESIAN_POINT('',(-0.168756480932235,0.00832279028702329,0.089756469746818));
#1427=CARTESIAN_POINT('',(-0.168756480932235,0.00640379311112232,0.0826786843299815));
#1428=CARTESIAN_POINT('',(-0.168756480932235,0.0116254692440301,0.0812629333341003));
#1429=CARTESIAN_POINT('',(-0.168756480932235,0.0166497988319264,0.0792563529814838));
#1430=CARTESIAN_POINT('',(-0.168756480932235,0.00848910854032334,0.0897455091373696));
#1431=CARTESIAN_POINT('',(-0.168756480932235,0.00100534192374482,0.0902387000016253));
#1432=CARTESIAN_POINT('',(-0.168756480932235,0.0175565880955869,0.0815268865892987));
#1433=CARTESIAN_POINT('',(-0.168756480932235,0.0193696429578298,0.0860666425860959));
#1434=CARTESIAN_POINT('',(-0.168756480932235,0.00136111001556974,0.095637188825746));
#1435=CARTESIAN_POINT('',(-0.168756480932235,0.00109398256146334,0.101040789055461));
#1436=CARTESIAN_POINT('',(-0.168756480932235,0.00799178231147857,0.0935035669422815));
#1437=CARTESIAN_POINT('',(-0.168756480932235,0.02550801415994,0.0820544118408617));
#1438=CARTESIAN_POINT('',(-0.168756480932235,0.00901322336864144,0.101432277423465));
#1439=CARTESIAN_POINT('',(-0.168756480932235,0.00841835924259535,0.10140287026291));
#1440=CARTESIAN_POINT('',(-0.168756480932235,0.0284680600342147,0.086583029835516));
#1441=CARTESIAN_POINT('',(-0.168756480932235,0.0319290345820413,0.090741383800562));
#1442=CARTESIAN_POINT('',(-0.168756480932235,0.00721674981396023,0.106141296924258));
#1443=CARTESIAN_POINT('',(-0.168756480932235,0.00661577156907039,0.108511194555397));
#1444=CARTESIAN_POINT('',(-0.168756480932235,0.0300498420916496,0.092305425109787));
#1445=CARTESIAN_POINT('',(-0.168756480932235,0.0262925423326728,0.0954326045042496));
#1446=CARTESIAN_POINT('',(-0.168756480932235,0.0118599779298272,0.109841063783973));
#1447=CARTESIAN_POINT('',(-0.168756480932235,0.016916560216769,0.111764921391673));
#1448=CARTESIAN_POINT('',(-0.168756480932235,0.0160237743987563,0.0871674120533407));
#1449=CARTESIAN_POINT('',(-0.168756480932235,0.0320052615470414,0.100030694949824));
#1450=CARTESIAN_POINT('',(-0.168756480932235,0.0213553027342175,0.100098326784984));
#1451=CARTESIAN_POINT('',(-0.168756480932235,0.0195242767762147,0.104910914467728));
#1452=CARTESIAN_POINT('',(-0.168756480932235,0.0286129943726946,0.104245285788465));
#1453=CARTESIAN_POINT('',(-0.168756480932235,0.0257276646895534,0.108821870228733));
#1454=CARTESIAN_POINT('',(-0.168756480932235,0.0236594705954271,0.107517967309829));
#1455=MECHANICAL_DESIGN_GEOMETRIC_PRESENTATION_REPRESENTATION('',(#822),
#1456);
#1456=(
GEOMETRIC_REPRESENTATION_CONTEXT(3)
GLOBAL_UNCERTAINTY_ASSIGNED_CONTEXT((#1457))
GLOBAL_UNIT_ASSIGNED_CONTEXT((#1460,#1459,#1458))
REPRESENTATION_CONTEXT('servo arm','TOP_LEVEL_ASSEMBLY_PART')
);
#1457=UNCERTAINTY_MEASURE_WITH_UNIT(LENGTH_MEASURE(1.E-8),#1460,
'DISTANCE_ACCURACY_VALUE','Maximum Tolerance applied to model');
#1458=(
NAMED_UNIT(*)
SI_UNIT($,.STERADIAN.)
SOLID_ANGLE_UNIT()
);
#1459=(
NAMED_UNIT(*)
PLANE_ANGLE_UNIT()
SI_UNIT($,.RADIAN.)
);
#1460=(
LENGTH_UNIT()
NAMED_UNIT(*)
SI_UNIT($,.METRE.)
);
#1461=PRODUCT_DEFINITION_SHAPE('','',#1462);
#1462=PRODUCT_DEFINITION('','',#1464,#1463);
#1463=PRODUCT_DEFINITION_CONTEXT('',#1470,'design');
#1464=PRODUCT_DEFINITION_FORMATION_WITH_SPECIFIED_SOURCE('','',#1466,
 .NOT_KNOWN.);
#1465=PRODUCT_RELATED_PRODUCT_CATEGORY('','',(#1466));
#1466=PRODUCT('servo arm','servo arm','servo arm',(#1468));
#1467=PRODUCT_CATEGORY('','');
#1468=PRODUCT_CONTEXT('',#1470,'mechanical');
#1469=APPLICATION_PROTOCOL_DEFINITION('international standard',
'ap242_managed_model_based_3d_engineering',2020,#1470);
#1470=APPLICATION_CONTEXT('managed model based 3d engineering');
ENDSEC;
END-ISO-10303-21;
