ISO-10303-21;
HEADER;
/* Generated by software containing ST-Developer
 * from STEP Tools, Inc. (www.steptools.com) 
 */
/* OPTION: using custom renumber hook */

FILE_DESCRIPTION(
/* description */ ('STEP AP242 Edition 2',
'CAx-IF Rec.Pracs.---Representation and Presentation of Product Manufa
cturing Information (PMI)---4.0---2014-10-13',
'CAx-IF Rec.Pracs.---3D Tessellated Geometry---0.4---2014-09-14','2;1',
'CAx-IF Rec.Pracs.---User Defined Attributes---1.5---2016-08-15'),
/* implementation_level */ '2;1');

FILE_NAME(
/* name */ 'happy plant - top shell',
/* time_stamp */ '2026-10-08T17:27:42Z',
/* author */ (''),
/* organization */ (''),
/* preprocessor_version */ 'ST-DEVELOPER v20',
/* originating_system */ 'ONSHAPE BY PTC INC, 1.221',
/* authorisation */ '  ');

FILE_SCHEMA (('AP242_MANAGED_MODEL_BASED_3D_ENGINEERING_MIM_LF { 1 0 10303 442 3 1 4 }'));
ENDSEC;

DATA;
#10=SHAPE_REPRESENTATION_RELATIONSHIP('','',#833,#11);
#11=ADVANCED_BREP_SHAPE_REPRESENTATION('',(#831),#1401);
#12=CONICAL_SURFACE('',#861,0.00254000000000004,0.785398163397448);
#13=CONICAL_SURFACE('',#865,0.00254000000000006,0.785398163397449);
#14=CONICAL_SURFACE('',#867,0.00254000000000004,0.785398163397448);
#15=CONICAL_SURFACE('',#871,0.00254,0.785398163397448);
#16=CYLINDRICAL_SURFACE('',#847,0.0127);
#17=CYLINDRICAL_SURFACE('',#850,0.0127);
#18=CYLINDRICAL_SURFACE('',#854,0.0127);
#19=CYLINDRICAL_SURFACE('',#857,0.0127);
#20=CYLINDRICAL_SURFACE('',#880,0.0127);
#21=CYLINDRICAL_SURFACE('',#883,0.0127);
#22=CYLINDRICAL_SURFACE('',#885,0.0127);
#23=CYLINDRICAL_SURFACE('',#888,0.0127);
#24=CYLINDRICAL_SURFACE('',#896,0.0127);
#25=CYLINDRICAL_SURFACE('',#898,0.0127);
#26=CYLINDRICAL_SURFACE('',#900,0.0127);
#27=CYLINDRICAL_SURFACE('',#902,0.0127);
#28=CYLINDRICAL_SURFACE('',#903,0.0126985932130592);
#29=CYLINDRICAL_SURFACE('',#908,0.0025);
#30=CYLINDRICAL_SURFACE('',#911,0.0025);
#31=CYLINDRICAL_SURFACE('',#914,0.0025);
#32=CYLINDRICAL_SURFACE('',#917,0.0025);
#33=CIRCLE('',#836,0.00754);
#34=CIRCLE('',#837,0.00754);
#35=CIRCLE('',#838,0.00754);
#36=CIRCLE('',#839,0.00754);
#37=CIRCLE('',#841,0.0126985932130592);
#38=CIRCLE('',#843,0.0127);
#39=CIRCLE('',#844,0.0127);
#40=CIRCLE('',#845,0.0127);
#41=CIRCLE('',#846,0.0127);
#42=CIRCLE('',#848,0.0127);
#43=CIRCLE('',#849,0.0127);
#44=CIRCLE('',#851,0.0127);
#45=CIRCLE('',#852,0.0127);
#46=CIRCLE('',#855,0.0127);
#47=CIRCLE('',#856,0.0127);
#48=CIRCLE('',#858,0.0127);
#49=CIRCLE('',#859,0.0127);
#50=CIRCLE('',#862,0.0127);
#51=CIRCLE('',#866,0.0127);
#52=CIRCLE('',#868,0.0127);
#53=CIRCLE('',#872,0.0127);
#54=CIRCLE('',#874,0.0126985932130592);
#55=CIRCLE('',#876,0.0127);
#56=CIRCLE('',#877,0.0127);
#57=CIRCLE('',#878,0.0127);
#58=CIRCLE('',#879,0.0127);
#59=CIRCLE('',#881,0.0127);
#60=CIRCLE('',#884,0.0127);
#61=CIRCLE('',#886,0.0127);
#62=CIRCLE('',#889,0.0127);
#63=CIRCLE('',#891,0.0025);
#64=CIRCLE('',#892,0.0025);
#65=CIRCLE('',#893,0.0025);
#66=CIRCLE('',#894,0.0025);
#67=CIRCLE('',#909,0.0025);
#68=CIRCLE('',#912,0.0025);
#69=CIRCLE('',#915,0.0025);
#70=CIRCLE('',#918,0.0025);
#71=ORIENTED_EDGE('',*,*,#291,.F.);
#72=ORIENTED_EDGE('',*,*,#292,.F.);
#73=ORIENTED_EDGE('',*,*,#293,.F.);
#74=ORIENTED_EDGE('',*,*,#294,.F.);
#75=ORIENTED_EDGE('',*,*,#295,.F.);
#76=ORIENTED_EDGE('',*,*,#296,.F.);
#77=ORIENTED_EDGE('',*,*,#297,.F.);
#78=ORIENTED_EDGE('',*,*,#298,.F.);
#79=ORIENTED_EDGE('',*,*,#299,.F.);
#80=ORIENTED_EDGE('',*,*,#300,.T.);
#81=ORIENTED_EDGE('',*,*,#301,.T.);
#82=ORIENTED_EDGE('',*,*,#302,.F.);
#83=ORIENTED_EDGE('',*,*,#303,.T.);
#84=ORIENTED_EDGE('',*,*,#304,.T.);
#85=ORIENTED_EDGE('',*,*,#305,.T.);
#86=ORIENTED_EDGE('',*,*,#306,.F.);
#87=ORIENTED_EDGE('',*,*,#307,.F.);
#88=ORIENTED_EDGE('',*,*,#308,.F.);
#89=ORIENTED_EDGE('',*,*,#309,.T.);
#90=ORIENTED_EDGE('',*,*,#310,.F.);
#91=ORIENTED_EDGE('',*,*,#311,.F.);
#92=ORIENTED_EDGE('',*,*,#312,.F.);
#93=ORIENTED_EDGE('',*,*,#313,.F.);
#94=ORIENTED_EDGE('',*,*,#314,.F.);
#95=ORIENTED_EDGE('',*,*,#315,.T.);
#96=ORIENTED_EDGE('',*,*,#316,.F.);
#97=ORIENTED_EDGE('',*,*,#317,.T.);
#98=ORIENTED_EDGE('',*,*,#318,.T.);
#99=ORIENTED_EDGE('',*,*,#319,.F.);
#100=ORIENTED_EDGE('',*,*,#318,.F.);
#101=ORIENTED_EDGE('',*,*,#320,.T.);
#102=ORIENTED_EDGE('',*,*,#321,.T.);
#103=ORIENTED_EDGE('',*,*,#322,.F.);
#104=ORIENTED_EDGE('',*,*,#323,.F.);
#105=ORIENTED_EDGE('',*,*,#324,.T.);
#106=ORIENTED_EDGE('',*,*,#316,.T.);
#107=ORIENTED_EDGE('',*,*,#325,.F.);
#108=ORIENTED_EDGE('',*,*,#326,.F.);
#109=ORIENTED_EDGE('',*,*,#323,.T.);
#110=ORIENTED_EDGE('',*,*,#327,.T.);
#111=ORIENTED_EDGE('',*,*,#328,.F.);
#112=ORIENTED_EDGE('',*,*,#300,.F.);
#113=ORIENTED_EDGE('',*,*,#329,.T.);
#114=ORIENTED_EDGE('',*,*,#328,.T.);
#115=ORIENTED_EDGE('',*,*,#330,.F.);
#116=ORIENTED_EDGE('',*,*,#331,.F.);
#117=ORIENTED_EDGE('',*,*,#332,.T.);
#118=ORIENTED_EDGE('',*,*,#302,.T.);
#119=ORIENTED_EDGE('',*,*,#333,.F.);
#120=ORIENTED_EDGE('',*,*,#321,.F.);
#121=ORIENTED_EDGE('',*,*,#334,.T.);
#122=ORIENTED_EDGE('',*,*,#331,.T.);
#123=ORIENTED_EDGE('',*,*,#335,.F.);
#124=ORIENTED_EDGE('',*,*,#336,.F.);
#125=ORIENTED_EDGE('',*,*,#298,.T.);
#126=ORIENTED_EDGE('',*,*,#337,.F.);
#127=ORIENTED_EDGE('',*,*,#338,.F.);
#128=ORIENTED_EDGE('',*,*,#339,.F.);
#129=ORIENTED_EDGE('',*,*,#291,.T.);
#130=ORIENTED_EDGE('',*,*,#336,.T.);
#131=ORIENTED_EDGE('',*,*,#340,.F.);
#132=ORIENTED_EDGE('',*,*,#337,.T.);
#133=ORIENTED_EDGE('',*,*,#297,.T.);
#134=ORIENTED_EDGE('',*,*,#341,.F.);
#135=ORIENTED_EDGE('',*,*,#342,.F.);
#136=ORIENTED_EDGE('',*,*,#343,.F.);
#137=ORIENTED_EDGE('',*,*,#292,.T.);
#138=ORIENTED_EDGE('',*,*,#339,.T.);
#139=ORIENTED_EDGE('',*,*,#344,.F.);
#140=ORIENTED_EDGE('',*,*,#341,.T.);
#141=ORIENTED_EDGE('',*,*,#296,.T.);
#142=ORIENTED_EDGE('',*,*,#345,.F.);
#143=ORIENTED_EDGE('',*,*,#346,.F.);
#144=ORIENTED_EDGE('',*,*,#347,.F.);
#145=ORIENTED_EDGE('',*,*,#293,.T.);
#146=ORIENTED_EDGE('',*,*,#343,.T.);
#147=ORIENTED_EDGE('',*,*,#348,.F.);
#148=ORIENTED_EDGE('',*,*,#345,.T.);
#149=ORIENTED_EDGE('',*,*,#295,.T.);
#150=ORIENTED_EDGE('',*,*,#349,.F.);
#151=ORIENTED_EDGE('',*,*,#350,.F.);
#152=ORIENTED_EDGE('',*,*,#349,.T.);
#153=ORIENTED_EDGE('',*,*,#294,.T.);
#154=ORIENTED_EDGE('',*,*,#347,.T.);
#155=ORIENTED_EDGE('',*,*,#351,.F.);
#156=ORIENTED_EDGE('',*,*,#352,.T.);
#157=ORIENTED_EDGE('',*,*,#353,.T.);
#158=ORIENTED_EDGE('',*,*,#354,.F.);
#159=ORIENTED_EDGE('',*,*,#355,.F.);
#160=ORIENTED_EDGE('',*,*,#356,.F.);
#161=ORIENTED_EDGE('',*,*,#357,.F.);
#162=ORIENTED_EDGE('',*,*,#348,.T.);
#163=ORIENTED_EDGE('',*,*,#358,.T.);
#164=ORIENTED_EDGE('',*,*,#359,.F.);
#165=ORIENTED_EDGE('',*,*,#360,.F.);
#166=ORIENTED_EDGE('',*,*,#342,.T.);
#167=ORIENTED_EDGE('',*,*,#361,.T.);
#168=ORIENTED_EDGE('',*,*,#362,.T.);
#169=ORIENTED_EDGE('',*,*,#363,.F.);
#170=ORIENTED_EDGE('',*,*,#364,.T.);
#171=ORIENTED_EDGE('',*,*,#365,.F.);
#172=ORIENTED_EDGE('',*,*,#366,.T.);
#173=ORIENTED_EDGE('',*,*,#367,.F.);
#174=ORIENTED_EDGE('',*,*,#368,.F.);
#175=ORIENTED_EDGE('',*,*,#369,.F.);
#176=ORIENTED_EDGE('',*,*,#370,.F.);
#177=ORIENTED_EDGE('',*,*,#371,.F.);
#178=ORIENTED_EDGE('',*,*,#338,.T.);
#179=ORIENTED_EDGE('',*,*,#360,.T.);
#180=ORIENTED_EDGE('',*,*,#372,.T.);
#181=ORIENTED_EDGE('',*,*,#373,.F.);
#182=ORIENTED_EDGE('',*,*,#340,.T.);
#183=ORIENTED_EDGE('',*,*,#371,.T.);
#184=ORIENTED_EDGE('',*,*,#374,.T.);
#185=ORIENTED_EDGE('',*,*,#358,.F.);
#186=ORIENTED_EDGE('',*,*,#344,.T.);
#187=ORIENTED_EDGE('',*,*,#373,.T.);
#188=ORIENTED_EDGE('',*,*,#375,.T.);
#189=ORIENTED_EDGE('',*,*,#376,.F.);
#190=ORIENTED_EDGE('',*,*,#351,.T.);
#191=ORIENTED_EDGE('',*,*,#357,.T.);
#192=ORIENTED_EDGE('',*,*,#377,.T.);
#193=ORIENTED_EDGE('',*,*,#378,.F.);
#194=ORIENTED_EDGE('',*,*,#350,.T.);
#195=ORIENTED_EDGE('',*,*,#376,.T.);
#196=ORIENTED_EDGE('',*,*,#379,.F.);
#197=ORIENTED_EDGE('',*,*,#361,.F.);
#198=ORIENTED_EDGE('',*,*,#346,.T.);
#199=ORIENTED_EDGE('',*,*,#378,.T.);
#200=ORIENTED_EDGE('',*,*,#380,.T.);
#201=ORIENTED_EDGE('',*,*,#381,.T.);
#202=ORIENTED_EDGE('',*,*,#382,.T.);
#203=ORIENTED_EDGE('',*,*,#383,.T.);
#204=ORIENTED_EDGE('',*,*,#384,.T.);
#205=ORIENTED_EDGE('',*,*,#322,.T.);
#206=ORIENTED_EDGE('',*,*,#335,.T.);
#207=ORIENTED_EDGE('',*,*,#333,.T.);
#208=ORIENTED_EDGE('',*,*,#301,.F.);
#209=ORIENTED_EDGE('',*,*,#330,.T.);
#210=ORIENTED_EDGE('',*,*,#327,.F.);
#211=ORIENTED_EDGE('',*,*,#325,.T.);
#212=ORIENTED_EDGE('',*,*,#319,.T.);
#213=ORIENTED_EDGE('',*,*,#362,.F.);
#214=ORIENTED_EDGE('',*,*,#380,.F.);
#215=ORIENTED_EDGE('',*,*,#379,.T.);
#216=ORIENTED_EDGE('',*,*,#377,.F.);
#217=ORIENTED_EDGE('',*,*,#359,.T.);
#218=ORIENTED_EDGE('',*,*,#375,.F.);
#219=ORIENTED_EDGE('',*,*,#374,.F.);
#220=ORIENTED_EDGE('',*,*,#372,.F.);
#221=ORIENTED_EDGE('',*,*,#385,.T.);
#222=ORIENTED_EDGE('',*,*,#364,.F.);
#223=ORIENTED_EDGE('',*,*,#386,.F.);
#224=ORIENTED_EDGE('',*,*,#309,.F.);
#225=ORIENTED_EDGE('',*,*,#310,.T.);
#226=ORIENTED_EDGE('',*,*,#386,.T.);
#227=ORIENTED_EDGE('',*,*,#363,.T.);
#228=ORIENTED_EDGE('',*,*,#387,.F.);
#229=ORIENTED_EDGE('',*,*,#311,.T.);
#230=ORIENTED_EDGE('',*,*,#387,.T.);
#231=ORIENTED_EDGE('',*,*,#370,.T.);
#232=ORIENTED_EDGE('',*,*,#388,.F.);
#233=ORIENTED_EDGE('',*,*,#312,.T.);
#234=ORIENTED_EDGE('',*,*,#388,.T.);
#235=ORIENTED_EDGE('',*,*,#369,.T.);
#236=ORIENTED_EDGE('',*,*,#389,.F.);
#237=ORIENTED_EDGE('',*,*,#313,.T.);
#238=ORIENTED_EDGE('',*,*,#389,.T.);
#239=ORIENTED_EDGE('',*,*,#368,.T.);
#240=ORIENTED_EDGE('',*,*,#390,.F.);
#241=ORIENTED_EDGE('',*,*,#314,.T.);
#242=ORIENTED_EDGE('',*,*,#390,.T.);
#243=ORIENTED_EDGE('',*,*,#367,.T.);
#244=ORIENTED_EDGE('',*,*,#391,.F.);
#245=ORIENTED_EDGE('',*,*,#391,.T.);
#246=ORIENTED_EDGE('',*,*,#366,.F.);
#247=ORIENTED_EDGE('',*,*,#392,.F.);
#248=ORIENTED_EDGE('',*,*,#315,.F.);
#249=ORIENTED_EDGE('',*,*,#308,.T.);
#250=ORIENTED_EDGE('',*,*,#392,.T.);
#251=ORIENTED_EDGE('',*,*,#365,.T.);
#252=ORIENTED_EDGE('',*,*,#385,.F.);
#253=ORIENTED_EDGE('',*,*,#356,.T.);
#254=ORIENTED_EDGE('',*,*,#303,.F.);
#255=ORIENTED_EDGE('',*,*,#352,.F.);
#256=ORIENTED_EDGE('',*,*,#393,.T.);
#257=ORIENTED_EDGE('',*,*,#305,.F.);
#258=ORIENTED_EDGE('',*,*,#394,.F.);
#259=ORIENTED_EDGE('',*,*,#354,.T.);
#260=ORIENTED_EDGE('',*,*,#395,.T.);
#261=ORIENTED_EDGE('',*,*,#307,.T.);
#262=ORIENTED_EDGE('',*,*,#396,.F.);
#263=ORIENTED_EDGE('',*,*,#355,.T.);
#264=ORIENTED_EDGE('',*,*,#396,.T.);
#265=ORIENTED_EDGE('',*,*,#306,.T.);
#266=ORIENTED_EDGE('',*,*,#393,.F.);
#267=ORIENTED_EDGE('',*,*,#394,.T.);
#268=ORIENTED_EDGE('',*,*,#304,.F.);
#269=ORIENTED_EDGE('',*,*,#395,.F.);
#270=ORIENTED_EDGE('',*,*,#353,.F.);
#271=ORIENTED_EDGE('',*,*,#397,.T.);
#272=ORIENTED_EDGE('',*,*,#384,.F.);
#273=ORIENTED_EDGE('',*,*,#397,.F.);
#274=ORIENTED_EDGE('',*,*,#398,.T.);
#275=ORIENTED_EDGE('',*,*,#383,.F.);
#276=ORIENTED_EDGE('',*,*,#398,.F.);
#277=ORIENTED_EDGE('',*,*,#399,.T.);
#278=ORIENTED_EDGE('',*,*,#382,.F.);
#279=ORIENTED_EDGE('',*,*,#399,.F.);
#280=ORIENTED_EDGE('',*,*,#400,.T.);
#281=ORIENTED_EDGE('',*,*,#381,.F.);
#282=ORIENTED_EDGE('',*,*,#400,.F.);
#283=ORIENTED_EDGE('',*,*,#317,.F.);
#284=ORIENTED_EDGE('',*,*,#324,.F.);
#285=ORIENTED_EDGE('',*,*,#326,.T.);
#286=ORIENTED_EDGE('',*,*,#329,.F.);
#287=ORIENTED_EDGE('',*,*,#299,.T.);
#288=ORIENTED_EDGE('',*,*,#332,.F.);
#289=ORIENTED_EDGE('',*,*,#334,.F.);
#290=ORIENTED_EDGE('',*,*,#320,.F.);
#291=EDGE_CURVE('',#401,#402,#475,.T.);
#292=EDGE_CURVE('',#403,#401,#33,.F.);
#293=EDGE_CURVE('',#404,#403,#476,.F.);
#294=EDGE_CURVE('',#405,#404,#34,.F.);
#295=EDGE_CURVE('',#406,#405,#477,.F.);
#296=EDGE_CURVE('',#407,#406,#35,.F.);
#297=EDGE_CURVE('',#408,#407,#478,.T.);
#298=EDGE_CURVE('',#402,#408,#36,.F.);
#299=EDGE_CURVE('',#409,#410,#479,.T.);
#300=EDGE_CURVE('',#409,#411,#480,.T.);
#301=EDGE_CURVE('',#411,#412,#481,.T.);
#302=EDGE_CURVE('',#410,#412,#482,.T.);
#303=EDGE_CURVE('',#413,#413,#37,.T.);
#304=EDGE_CURVE('',#414,#415,#483,.T.);
#305=EDGE_CURVE('',#415,#416,#484,.T.);
#306=EDGE_CURVE('',#417,#416,#485,.T.);
#307=EDGE_CURVE('',#414,#417,#486,.T.);
#308=EDGE_CURVE('',#418,#419,#38,.T.);
#309=EDGE_CURVE('',#418,#420,#487,.T.);
#310=EDGE_CURVE('',#421,#420,#39,.T.);
#311=EDGE_CURVE('',#422,#421,#488,.T.);
#312=EDGE_CURVE('',#423,#422,#40,.T.);
#313=EDGE_CURVE('',#424,#423,#489,.T.);
#314=EDGE_CURVE('',#425,#424,#41,.T.);
#315=EDGE_CURVE('',#425,#419,#490,.T.);
#316=EDGE_CURVE('',#426,#427,#491,.T.);
#317=EDGE_CURVE('',#426,#428,#492,.T.);
#318=EDGE_CURVE('',#428,#429,#493,.T.);
#319=EDGE_CURVE('',#427,#429,#494,.T.);
#320=EDGE_CURVE('',#428,#430,#42,.T.);
#321=EDGE_CURVE('',#430,#431,#495,.T.);
#322=EDGE_CURVE('',#429,#431,#43,.T.);
#323=EDGE_CURVE('',#432,#433,#496,.T.);
#324=EDGE_CURVE('',#432,#426,#44,.T.);
#325=EDGE_CURVE('',#433,#427,#45,.T.);
#326=EDGE_CURVE('',#432,#434,#497,.T.);
#327=EDGE_CURVE('',#433,#435,#498,.T.);
#328=EDGE_CURVE('',#434,#435,#499,.T.);
#329=EDGE_CURVE('',#409,#434,#46,.T.);
#330=EDGE_CURVE('',#411,#435,#47,.T.);
#331=EDGE_CURVE('',#436,#437,#500,.T.);
#332=EDGE_CURVE('',#436,#410,#48,.T.);
#333=EDGE_CURVE('',#437,#412,#49,.T.);
#334=EDGE_CURVE('',#430,#436,#501,.T.);
#335=EDGE_CURVE('',#431,#437,#502,.T.);
#336=EDGE_CURVE('',#402,#438,#503,.T.);
#337=EDGE_CURVE('',#439,#408,#504,.T.);
#338=EDGE_CURVE('',#438,#439,#50,.F.);
#339=EDGE_CURVE('',#401,#440,#505,.T.);
#340=EDGE_CURVE('',#440,#438,#506,.T.);
#341=EDGE_CURVE('',#441,#407,#507,.T.);
#342=EDGE_CURVE('',#439,#441,#508,.T.);
#343=EDGE_CURVE('',#403,#442,#509,.T.);
#344=EDGE_CURVE('',#442,#440,#51,.F.);
#345=EDGE_CURVE('',#443,#406,#510,.T.);
#346=EDGE_CURVE('',#441,#443,#52,.F.);
#347=EDGE_CURVE('',#404,#444,#511,.T.);
#348=EDGE_CURVE('',#444,#442,#512,.T.);
#349=EDGE_CURVE('',#445,#405,#513,.T.);
#350=EDGE_CURVE('',#443,#445,#514,.T.);
#351=EDGE_CURVE('',#445,#444,#53,.F.);
#352=EDGE_CURVE('',#446,#447,#515,.T.);
#353=EDGE_CURVE('',#447,#448,#516,.T.);
#354=EDGE_CURVE('',#449,#448,#517,.T.);
#355=EDGE_CURVE('',#446,#449,#518,.T.);
#356=EDGE_CURVE('',#450,#450,#54,.T.);
#357=EDGE_CURVE('',#444,#451,#519,.T.);
#358=EDGE_CURVE('',#442,#452,#520,.T.);
#359=EDGE_CURVE('',#451,#452,#521,.T.);
#360=EDGE_CURVE('',#439,#453,#522,.T.);
#361=EDGE_CURVE('',#441,#454,#523,.T.);
#362=EDGE_CURVE('',#454,#453,#524,.T.);
#363=EDGE_CURVE('',#455,#456,#55,.T.);
#364=EDGE_CURVE('',#455,#457,#525,.T.);
#365=EDGE_CURVE('',#458,#457,#56,.T.);
#366=EDGE_CURVE('',#458,#459,#526,.T.);
#367=EDGE_CURVE('',#460,#459,#57,.T.);
#368=EDGE_CURVE('',#461,#460,#527,.T.);
#369=EDGE_CURVE('',#462,#461,#58,.T.);
#370=EDGE_CURVE('',#456,#462,#528,.T.);
#371=EDGE_CURVE('',#438,#463,#529,.T.);
#372=EDGE_CURVE('',#453,#463,#59,.T.);
#373=EDGE_CURVE('',#440,#464,#530,.T.);
#374=EDGE_CURVE('',#463,#464,#531,.T.);
#375=EDGE_CURVE('',#464,#452,#60,.T.);
#376=EDGE_CURVE('',#445,#465,#532,.T.);
#377=EDGE_CURVE('',#451,#465,#61,.T.);
#378=EDGE_CURVE('',#443,#466,#533,.T.);
#379=EDGE_CURVE('',#466,#465,#534,.T.);
#380=EDGE_CURVE('',#466,#454,#62,.T.);
#381=EDGE_CURVE('',#467,#467,#63,.T.);
#382=EDGE_CURVE('',#468,#468,#64,.T.);
#383=EDGE_CURVE('',#469,#469,#65,.T.);
#384=EDGE_CURVE('',#470,#470,#66,.T.);
#385=EDGE_CURVE('',#418,#457,#535,.T.);
#386=EDGE_CURVE('',#420,#455,#536,.T.);
#387=EDGE_CURVE('',#421,#456,#537,.T.);
#388=EDGE_CURVE('',#422,#462,#538,.T.);
#389=EDGE_CURVE('',#423,#461,#539,.T.);
#390=EDGE_CURVE('',#424,#460,#540,.T.);
#391=EDGE_CURVE('',#425,#459,#541,.T.);
#392=EDGE_CURVE('',#419,#458,#542,.T.);
#393=EDGE_CURVE('',#446,#416,#543,.T.);
#394=EDGE_CURVE('',#447,#415,#544,.T.);
#395=EDGE_CURVE('',#448,#414,#545,.T.);
#396=EDGE_CURVE('',#449,#417,#546,.T.);
#397=EDGE_CURVE('',#471,#471,#67,.T.);
#398=EDGE_CURVE('',#472,#472,#68,.T.);
#399=EDGE_CURVE('',#473,#473,#69,.T.);
#400=EDGE_CURVE('',#474,#474,#70,.T.);
#401=VERTEX_POINT('',#1170);
#402=VERTEX_POINT('',#1171);
#403=VERTEX_POINT('',#1173);
#404=VERTEX_POINT('',#1175);
#405=VERTEX_POINT('',#1177);
#406=VERTEX_POINT('',#1179);
#407=VERTEX_POINT('',#1181);
#408=VERTEX_POINT('',#1183);
#409=VERTEX_POINT('',#1187);
#410=VERTEX_POINT('',#1188);
#411=VERTEX_POINT('',#1190);
#412=VERTEX_POINT('',#1192);
#413=VERTEX_POINT('',#1195);
#414=VERTEX_POINT('',#1197);
#415=VERTEX_POINT('',#1198);
#416=VERTEX_POINT('',#1200);
#417=VERTEX_POINT('',#1202);
#418=VERTEX_POINT('',#1206);
#419=VERTEX_POINT('',#1207);
#420=VERTEX_POINT('',#1209);
#421=VERTEX_POINT('',#1211);
#422=VERTEX_POINT('',#1213);
#423=VERTEX_POINT('',#1215);
#424=VERTEX_POINT('',#1217);
#425=VERTEX_POINT('',#1219);
#426=VERTEX_POINT('',#1222);
#427=VERTEX_POINT('',#1223);
#428=VERTEX_POINT('',#1225);
#429=VERTEX_POINT('',#1227);
#430=VERTEX_POINT('',#1231);
#431=VERTEX_POINT('',#1233);
#432=VERTEX_POINT('',#1237);
#433=VERTEX_POINT('',#1238);
#434=VERTEX_POINT('',#1243);
#435=VERTEX_POINT('',#1245);
#436=VERTEX_POINT('',#1252);
#437=VERTEX_POINT('',#1253);
#438=VERTEX_POINT('',#1261);
#439=VERTEX_POINT('',#1263);
#440=VERTEX_POINT('',#1267);
#441=VERTEX_POINT('',#1271);
#442=VERTEX_POINT('',#1275);
#443=VERTEX_POINT('',#1279);
#444=VERTEX_POINT('',#1283);
#445=VERTEX_POINT('',#1287);
#446=VERTEX_POINT('',#1293);
#447=VERTEX_POINT('',#1294);
#448=VERTEX_POINT('',#1296);
#449=VERTEX_POINT('',#1298);
#450=VERTEX_POINT('',#1301);
#451=VERTEX_POINT('',#1303);
#452=VERTEX_POINT('',#1305);
#453=VERTEX_POINT('',#1309);
#454=VERTEX_POINT('',#1311);
#455=VERTEX_POINT('',#1314);
#456=VERTEX_POINT('',#1315);
#457=VERTEX_POINT('',#1317);
#458=VERTEX_POINT('',#1319);
#459=VERTEX_POINT('',#1321);
#460=VERTEX_POINT('',#1323);
#461=VERTEX_POINT('',#1325);
#462=VERTEX_POINT('',#1327);
#463=VERTEX_POINT('',#1331);
#464=VERTEX_POINT('',#1335);
#465=VERTEX_POINT('',#1341);
#466=VERTEX_POINT('',#1345);
#467=VERTEX_POINT('',#1351);
#468=VERTEX_POINT('',#1353);
#469=VERTEX_POINT('',#1355);
#470=VERTEX_POINT('',#1357);
#471=VERTEX_POINT('',#1385);
#472=VERTEX_POINT('',#1389);
#473=VERTEX_POINT('',#1393);
#474=VERTEX_POINT('',#1397);
#475=LINE('',#1169,#547);
#476=LINE('',#1174,#548);
#477=LINE('',#1178,#549);
#478=LINE('',#1182,#550);
#479=LINE('',#1186,#551);
#480=LINE('',#1189,#552);
#481=LINE('',#1191,#553);
#482=LINE('',#1193,#554);
#483=LINE('',#1196,#555);
#484=LINE('',#1199,#556);
#485=LINE('',#1201,#557);
#486=LINE('',#1203,#558);
#487=LINE('',#1208,#559);
#488=LINE('',#1212,#560);
#489=LINE('',#1216,#561);
#490=LINE('',#1220,#562);
#491=LINE('',#1221,#563);
#492=LINE('',#1224,#564);
#493=LINE('',#1226,#565);
#494=LINE('',#1228,#566);
#495=LINE('',#1232,#567);
#496=LINE('',#1236,#568);
#497=LINE('',#1242,#569);
#498=LINE('',#1244,#570);
#499=LINE('',#1246,#571);
#500=LINE('',#1251,#572);
#501=LINE('',#1257,#573);
#502=LINE('',#1258,#574);
#503=LINE('',#1260,#575);
#504=LINE('',#1262,#576);
#505=LINE('',#1266,#577);
#506=LINE('',#1268,#578);
#507=LINE('',#1270,#579);
#508=LINE('',#1272,#580);
#509=LINE('',#1274,#581);
#510=LINE('',#1278,#582);
#511=LINE('',#1282,#583);
#512=LINE('',#1284,#584);
#513=LINE('',#1286,#585);
#514=LINE('',#1288,#586);
#515=LINE('',#1292,#587);
#516=LINE('',#1295,#588);
#517=LINE('',#1297,#589);
#518=LINE('',#1299,#590);
#519=LINE('',#1302,#591);
#520=LINE('',#1304,#592);
#521=LINE('',#1306,#593);
#522=LINE('',#1308,#594);
#523=LINE('',#1310,#595);
#524=LINE('',#1312,#596);
#525=LINE('',#1316,#597);
#526=LINE('',#1320,#598);
#527=LINE('',#1324,#599);
#528=LINE('',#1328,#600);
#529=LINE('',#1330,#601);
#530=LINE('',#1334,#602);
#531=LINE('',#1336,#603);
#532=LINE('',#1340,#604);
#533=LINE('',#1344,#605);
#534=LINE('',#1346,#606);
#535=LINE('',#1359,#607);
#536=LINE('',#1360,#608);
#537=LINE('',#1362,#609);
#538=LINE('',#1364,#610);
#539=LINE('',#1366,#611);
#540=LINE('',#1368,#612);
#541=LINE('',#1370,#613);
#542=LINE('',#1372,#614);
#543=LINE('',#1376,#615);
#544=LINE('',#1377,#616);
#545=LINE('',#1379,#617);
#546=LINE('',#1380,#618);
#547=VECTOR('',#925,1.);
#548=VECTOR('',#928,1.);
#549=VECTOR('',#931,1.);
#550=VECTOR('',#934,1.);
#551=VECTOR('',#939,1.);
#552=VECTOR('',#940,1.);
#553=VECTOR('',#941,1.);
#554=VECTOR('',#942,1.);
#555=VECTOR('',#945,1.);
#556=VECTOR('',#946,1.);
#557=VECTOR('',#947,1.);
#558=VECTOR('',#948,1.);
#559=VECTOR('',#953,1.);
#560=VECTOR('',#956,1.);
#561=VECTOR('',#959,1.);
#562=VECTOR('',#962,1.);
#563=VECTOR('',#963,1.);
#564=VECTOR('',#964,1.);
#565=VECTOR('',#965,1.);
#566=VECTOR('',#966,1.);
#567=VECTOR('',#971,1.);
#568=VECTOR('',#976,1.);
#569=VECTOR('',#983,1.);
#570=VECTOR('',#984,1.);
#571=VECTOR('',#985,1.);
#572=VECTOR('',#994,1.);
#573=VECTOR('',#1001,1.);
#574=VECTOR('',#1002,1.);
#575=VECTOR('',#1005,1.);
#576=VECTOR('',#1006,1.);
#577=VECTOR('',#1011,1.);
#578=VECTOR('',#1012,1.);
#579=VECTOR('',#1015,1.);
#580=VECTOR('',#1016,1.);
#581=VECTOR('',#1019,1.);
#582=VECTOR('',#1024,1.);
#583=VECTOR('',#1029,1.);
#584=VECTOR('',#1030,1.);
#585=VECTOR('',#1033,1.);
#586=VECTOR('',#1034,1.);
#587=VECTOR('',#1041,1.);
#588=VECTOR('',#1042,1.);
#589=VECTOR('',#1043,1.);
#590=VECTOR('',#1044,1.);
#591=VECTOR('',#1047,1.);
#592=VECTOR('',#1048,1.);
#593=VECTOR('',#1049,1.);
#594=VECTOR('',#1052,1.);
#595=VECTOR('',#1053,1.);
#596=VECTOR('',#1054,1.);
#597=VECTOR('',#1057,1.);
#598=VECTOR('',#1060,1.);
#599=VECTOR('',#1063,1.);
#600=VECTOR('',#1066,1.);
#601=VECTOR('',#1069,1.);
#602=VECTOR('',#1074,1.);
#603=VECTOR('',#1075,1.);
#604=VECTOR('',#1082,1.);
#605=VECTOR('',#1087,1.);
#606=VECTOR('',#1088,1.);
#607=VECTOR('',#1105,1.);
#608=VECTOR('',#1106,1.);
#609=VECTOR('',#1109,1.);
#610=VECTOR('',#1112,1.);
#611=VECTOR('',#1115,1.);
#612=VECTOR('',#1118,1.);
#613=VECTOR('',#1121,1.);
#614=VECTOR('',#1124,1.);
#615=VECTOR('',#1131,1.);
#616=VECTOR('',#1132,1.);
#617=VECTOR('',#1135,1.);
#618=VECTOR('',#1136,1.);
#619=EDGE_LOOP('',(#71,#72,#73,#74,#75,#76,#77,#78));
#620=EDGE_LOOP('',(#79,#80,#81,#82));
#621=EDGE_LOOP('',(#83));
#622=EDGE_LOOP('',(#84,#85,#86,#87));
#623=EDGE_LOOP('',(#88,#89,#90,#91,#92,#93,#94,#95));
#624=EDGE_LOOP('',(#96,#97,#98,#99));
#625=EDGE_LOOP('',(#100,#101,#102,#103));
#626=EDGE_LOOP('',(#104,#105,#106,#107));
#627=EDGE_LOOP('',(#108,#109,#110,#111));
#628=EDGE_LOOP('',(#112,#113,#114,#115));
#629=EDGE_LOOP('',(#116,#117,#118,#119));
#630=EDGE_LOOP('',(#120,#121,#122,#123));
#631=EDGE_LOOP('',(#124,#125,#126,#127));
#632=EDGE_LOOP('',(#128,#129,#130,#131));
#633=EDGE_LOOP('',(#132,#133,#134,#135));
#634=EDGE_LOOP('',(#136,#137,#138,#139));
#635=EDGE_LOOP('',(#140,#141,#142,#143));
#636=EDGE_LOOP('',(#144,#145,#146,#147));
#637=EDGE_LOOP('',(#148,#149,#150,#151));
#638=EDGE_LOOP('',(#152,#153,#154,#155));
#639=EDGE_LOOP('',(#156,#157,#158,#159));
#640=EDGE_LOOP('',(#160));
#641=EDGE_LOOP('',(#161,#162,#163,#164));
#642=EDGE_LOOP('',(#165,#166,#167,#168));
#643=EDGE_LOOP('',(#169,#170,#171,#172,#173,#174,#175,#176));
#644=EDGE_LOOP('',(#177,#178,#179,#180));
#645=EDGE_LOOP('',(#181,#182,#183,#184));
#646=EDGE_LOOP('',(#185,#186,#187,#188));
#647=EDGE_LOOP('',(#189,#190,#191,#192));
#648=EDGE_LOOP('',(#193,#194,#195,#196));
#649=EDGE_LOOP('',(#197,#198,#199,#200));
#650=EDGE_LOOP('',(#201));
#651=EDGE_LOOP('',(#202));
#652=EDGE_LOOP('',(#203));
#653=EDGE_LOOP('',(#204));
#654=EDGE_LOOP('',(#205,#206,#207,#208,#209,#210,#211,#212));
#655=EDGE_LOOP('',(#213,#214,#215,#216,#217,#218,#219,#220));
#656=EDGE_LOOP('',(#221,#222,#223,#224));
#657=EDGE_LOOP('',(#225,#226,#227,#228));
#658=EDGE_LOOP('',(#229,#230,#231,#232));
#659=EDGE_LOOP('',(#233,#234,#235,#236));
#660=EDGE_LOOP('',(#237,#238,#239,#240));
#661=EDGE_LOOP('',(#241,#242,#243,#244));
#662=EDGE_LOOP('',(#245,#246,#247,#248));
#663=EDGE_LOOP('',(#249,#250,#251,#252));
#664=EDGE_LOOP('',(#253));
#665=EDGE_LOOP('',(#254));
#666=EDGE_LOOP('',(#255,#256,#257,#258));
#667=EDGE_LOOP('',(#259,#260,#261,#262));
#668=EDGE_LOOP('',(#263,#264,#265,#266));
#669=EDGE_LOOP('',(#267,#268,#269,#270));
#670=EDGE_LOOP('',(#271));
#671=EDGE_LOOP('',(#272));
#672=EDGE_LOOP('',(#273));
#673=EDGE_LOOP('',(#274));
#674=EDGE_LOOP('',(#275));
#675=EDGE_LOOP('',(#276));
#676=EDGE_LOOP('',(#277));
#677=EDGE_LOOP('',(#278));
#678=EDGE_LOOP('',(#279));
#679=EDGE_LOOP('',(#280));
#680=EDGE_LOOP('',(#281));
#681=EDGE_LOOP('',(#282));
#682=EDGE_LOOP('',(#283,#284,#285,#286,#287,#288,#289,#290));
#683=FACE_BOUND('',#619,.T.);
#684=FACE_BOUND('',#620,.T.);
#685=FACE_BOUND('',#621,.T.);
#686=FACE_BOUND('',#622,.T.);
#687=FACE_BOUND('',#623,.T.);
#688=FACE_BOUND('',#624,.T.);
#689=FACE_BOUND('',#625,.T.);
#690=FACE_BOUND('',#626,.T.);
#691=FACE_BOUND('',#627,.T.);
#692=FACE_BOUND('',#628,.T.);
#693=FACE_BOUND('',#629,.T.);
#694=FACE_BOUND('',#630,.T.);
#695=FACE_BOUND('',#631,.T.);
#696=FACE_BOUND('',#632,.T.);
#697=FACE_BOUND('',#633,.T.);
#698=FACE_BOUND('',#634,.T.);
#699=FACE_BOUND('',#635,.T.);
#700=FACE_BOUND('',#636,.T.);
#701=FACE_BOUND('',#637,.T.);
#702=FACE_BOUND('',#638,.T.);
#703=FACE_BOUND('',#639,.T.);
#704=FACE_BOUND('',#640,.T.);
#705=FACE_BOUND('',#641,.T.);
#706=FACE_BOUND('',#642,.T.);
#707=FACE_BOUND('',#643,.T.);
#708=FACE_BOUND('',#644,.T.);
#709=FACE_BOUND('',#645,.T.);
#710=FACE_BOUND('',#646,.T.);
#711=FACE_BOUND('',#647,.T.);
#712=FACE_BOUND('',#648,.T.);
#713=FACE_BOUND('',#649,.T.);
#714=FACE_BOUND('',#650,.T.);
#715=FACE_BOUND('',#651,.T.);
#716=FACE_BOUND('',#652,.T.);
#717=FACE_BOUND('',#653,.T.);
#718=FACE_BOUND('',#654,.T.);
#719=FACE_BOUND('',#655,.T.);
#720=FACE_BOUND('',#656,.T.);
#721=FACE_BOUND('',#657,.T.);
#722=FACE_BOUND('',#658,.T.);
#723=FACE_BOUND('',#659,.T.);
#724=FACE_BOUND('',#660,.T.);
#725=FACE_BOUND('',#661,.T.);
#726=FACE_BOUND('',#662,.T.);
#727=FACE_BOUND('',#663,.T.);
#728=FACE_BOUND('',#664,.T.);
#729=FACE_BOUND('',#665,.T.);
#730=FACE_BOUND('',#666,.T.);
#731=FACE_BOUND('',#667,.T.);
#732=FACE_BOUND('',#668,.T.);
#733=FACE_BOUND('',#669,.T.);
#734=FACE_BOUND('',#670,.T.);
#735=FACE_BOUND('',#671,.T.);
#736=FACE_BOUND('',#672,.T.);
#737=FACE_BOUND('',#673,.T.);
#738=FACE_BOUND('',#674,.T.);
#739=FACE_BOUND('',#675,.T.);
#740=FACE_BOUND('',#676,.T.);
#741=FACE_BOUND('',#677,.T.);
#742=FACE_BOUND('',#678,.T.);
#743=FACE_BOUND('',#679,.T.);
#744=FACE_BOUND('',#680,.T.);
#745=FACE_BOUND('',#681,.T.);
#746=FACE_BOUND('',#682,.T.);
#747=PLANE('',#835);
#748=PLANE('',#840);
#749=PLANE('',#842);
#750=PLANE('',#853);
#751=PLANE('',#860);
#752=PLANE('',#863);
#753=PLANE('',#864);
#754=PLANE('',#869);
#755=PLANE('',#870);
#756=PLANE('',#873);
#757=PLANE('',#875);
#758=PLANE('',#882);
#759=PLANE('',#887);
#760=PLANE('',#890);
#761=PLANE('',#895);
#762=PLANE('',#897);
#763=PLANE('',#899);
#764=PLANE('',#901);
#765=PLANE('',#904);
#766=PLANE('',#905);
#767=PLANE('',#906);
#768=PLANE('',#907);
#769=PLANE('',#910);
#770=PLANE('',#913);
#771=PLANE('',#916);
#772=PLANE('',#919);
#773=PLANE('',#920);
#774=ADVANCED_FACE('',(#683),#747,.T.);
#775=ADVANCED_FACE('',(#684,#685,#686),#748,.F.);
#776=ADVANCED_FACE('',(#687,#688),#749,.T.);
#777=ADVANCED_FACE('',(#689),#16,.F.);
#778=ADVANCED_FACE('',(#690),#17,.F.);
#779=ADVANCED_FACE('',(#691),#750,.F.);
#780=ADVANCED_FACE('',(#692),#18,.F.);
#781=ADVANCED_FACE('',(#693),#19,.F.);
#782=ADVANCED_FACE('',(#694),#751,.T.);
#783=ADVANCED_FACE('',(#695),#12,.T.);
#784=ADVANCED_FACE('',(#696),#752,.T.);
#785=ADVANCED_FACE('',(#697),#753,.T.);
#786=ADVANCED_FACE('',(#698),#13,.T.);
#787=ADVANCED_FACE('',(#699),#14,.T.);
#788=ADVANCED_FACE('',(#700),#754,.F.);
#789=ADVANCED_FACE('',(#701),#755,.F.);
#790=ADVANCED_FACE('',(#702),#15,.T.);
#791=ADVANCED_FACE('',(#703,#704,#705),#756,.T.);
#792=ADVANCED_FACE('',(#706,#707),#757,.F.);
#793=ADVANCED_FACE('',(#708),#20,.T.);
#794=ADVANCED_FACE('',(#709),#758,.F.);
#795=ADVANCED_FACE('',(#710),#21,.T.);
#796=ADVANCED_FACE('',(#711),#22,.T.);
#797=ADVANCED_FACE('',(#712),#759,.T.);
#798=ADVANCED_FACE('',(#713),#23,.T.);
#799=ADVANCED_FACE('',(#714,#715,#716,#717,#718,#719),#760,.F.);
#800=ADVANCED_FACE('',(#720),#761,.T.);
#801=ADVANCED_FACE('',(#721),#24,.F.);
#802=ADVANCED_FACE('',(#722),#762,.F.);
#803=ADVANCED_FACE('',(#723),#25,.F.);
#804=ADVANCED_FACE('',(#724),#763,.F.);
#805=ADVANCED_FACE('',(#725),#26,.F.);
#806=ADVANCED_FACE('',(#726),#764,.T.);
#807=ADVANCED_FACE('',(#727),#27,.F.);
#808=ADVANCED_FACE('',(#728,#729),#28,.F.);
#809=ADVANCED_FACE('',(#730),#765,.T.);
#810=ADVANCED_FACE('',(#731),#766,.F.);
#811=ADVANCED_FACE('',(#732),#767,.F.);
#812=ADVANCED_FACE('',(#733),#768,.T.);
#813=ADVANCED_FACE('',(#734,#735),#29,.F.);
#814=ADVANCED_FACE('',(#736),#769,.F.);
#815=ADVANCED_FACE('',(#737,#738),#30,.F.);
#816=ADVANCED_FACE('',(#739),#770,.F.);
#817=ADVANCED_FACE('',(#740,#741),#31,.F.);
#818=ADVANCED_FACE('',(#742),#771,.F.);
#819=ADVANCED_FACE('',(#743,#744),#32,.F.);
#820=ADVANCED_FACE('',(#745),#772,.F.);
#821=ADVANCED_FACE('',(#746),#773,.F.);
#822=CLOSED_SHELL('',(#774,#775,#776,#777,#778,#779,#780,#781,#782,#783,
#784,#785,#786,#787,#788,#789,#790,#791,#792,#793,#794,#795,#796,#797,#798,
#799,#800,#801,#802,#803,#804,#805,#806,#807,#808,#809,#810,#811,#812,#813,
#814,#815,#816,#817,#818,#819,#820,#821));
#823=STYLED_ITEM('',(#824),#831);
#824=PRESENTATION_STYLE_ASSIGNMENT((#825));
#825=SURFACE_STYLE_USAGE(.BOTH.,#826);
#826=SURFACE_SIDE_STYLE('',(#827));
#827=SURFACE_STYLE_FILL_AREA(#828);
#828=FILL_AREA_STYLE('',(#829));
#829=FILL_AREA_STYLE_COLOUR('',#830);
#830=COLOUR_RGB('',0.615686274509804,0.811764705882353,0.929411764705882);
#831=MANIFOLD_SOLID_BREP('top shell',#822);
#832=SHAPE_DEFINITION_REPRESENTATION(#1406,#833);
#833=SHAPE_REPRESENTATION('top shell',(#834),#1401);
#834=AXIS2_PLACEMENT_3D('',#1167,#921,#922);
#835=AXIS2_PLACEMENT_3D('',#1168,#923,#924);
#836=AXIS2_PLACEMENT_3D('',#1172,#926,#927);
#837=AXIS2_PLACEMENT_3D('',#1176,#929,#930);
#838=AXIS2_PLACEMENT_3D('',#1180,#932,#933);
#839=AXIS2_PLACEMENT_3D('',#1184,#935,#936);
#840=AXIS2_PLACEMENT_3D('',#1185,#937,#938);
#841=AXIS2_PLACEMENT_3D('',#1194,#943,#944);
#842=AXIS2_PLACEMENT_3D('',#1204,#949,#950);
#843=AXIS2_PLACEMENT_3D('',#1205,#951,#952);
#844=AXIS2_PLACEMENT_3D('',#1210,#954,#955);
#845=AXIS2_PLACEMENT_3D('',#1214,#957,#958);
#846=AXIS2_PLACEMENT_3D('',#1218,#960,#961);
#847=AXIS2_PLACEMENT_3D('',#1229,#967,#968);
#848=AXIS2_PLACEMENT_3D('',#1230,#969,#970);
#849=AXIS2_PLACEMENT_3D('',#1234,#972,#973);
#850=AXIS2_PLACEMENT_3D('',#1235,#974,#975);
#851=AXIS2_PLACEMENT_3D('',#1239,#977,#978);
#852=AXIS2_PLACEMENT_3D('',#1240,#979,#980);
#853=AXIS2_PLACEMENT_3D('',#1241,#981,#982);
#854=AXIS2_PLACEMENT_3D('',#1247,#986,#987);
#855=AXIS2_PLACEMENT_3D('',#1248,#988,#989);
#856=AXIS2_PLACEMENT_3D('',#1249,#990,#991);
#857=AXIS2_PLACEMENT_3D('',#1250,#992,#993);
#858=AXIS2_PLACEMENT_3D('',#1254,#995,#996);
#859=AXIS2_PLACEMENT_3D('',#1255,#997,#998);
#860=AXIS2_PLACEMENT_3D('',#1256,#999,#1000);
#861=AXIS2_PLACEMENT_3D('',#1259,#1003,#1004);
#862=AXIS2_PLACEMENT_3D('',#1264,#1007,#1008);
#863=AXIS2_PLACEMENT_3D('',#1265,#1009,#1010);
#864=AXIS2_PLACEMENT_3D('',#1269,#1013,#1014);
#865=AXIS2_PLACEMENT_3D('',#1273,#1017,#1018);
#866=AXIS2_PLACEMENT_3D('',#1276,#1020,#1021);
#867=AXIS2_PLACEMENT_3D('',#1277,#1022,#1023);
#868=AXIS2_PLACEMENT_3D('',#1280,#1025,#1026);
#869=AXIS2_PLACEMENT_3D('',#1281,#1027,#1028);
#870=AXIS2_PLACEMENT_3D('',#1285,#1031,#1032);
#871=AXIS2_PLACEMENT_3D('',#1289,#1035,#1036);
#872=AXIS2_PLACEMENT_3D('',#1290,#1037,#1038);
#873=AXIS2_PLACEMENT_3D('',#1291,#1039,#1040);
#874=AXIS2_PLACEMENT_3D('',#1300,#1045,#1046);
#875=AXIS2_PLACEMENT_3D('',#1307,#1050,#1051);
#876=AXIS2_PLACEMENT_3D('',#1313,#1055,#1056);
#877=AXIS2_PLACEMENT_3D('',#1318,#1058,#1059);
#878=AXIS2_PLACEMENT_3D('',#1322,#1061,#1062);
#879=AXIS2_PLACEMENT_3D('',#1326,#1064,#1065);
#880=AXIS2_PLACEMENT_3D('',#1329,#1067,#1068);
#881=AXIS2_PLACEMENT_3D('',#1332,#1070,#1071);
#882=AXIS2_PLACEMENT_3D('',#1333,#1072,#1073);
#883=AXIS2_PLACEMENT_3D('',#1337,#1076,#1077);
#884=AXIS2_PLACEMENT_3D('',#1338,#1078,#1079);
#885=AXIS2_PLACEMENT_3D('',#1339,#1080,#1081);
#886=AXIS2_PLACEMENT_3D('',#1342,#1083,#1084);
#887=AXIS2_PLACEMENT_3D('',#1343,#1085,#1086);
#888=AXIS2_PLACEMENT_3D('',#1347,#1089,#1090);
#889=AXIS2_PLACEMENT_3D('',#1348,#1091,#1092);
#890=AXIS2_PLACEMENT_3D('',#1349,#1093,#1094);
#891=AXIS2_PLACEMENT_3D('',#1350,#1095,#1096);
#892=AXIS2_PLACEMENT_3D('',#1352,#1097,#1098);
#893=AXIS2_PLACEMENT_3D('',#1354,#1099,#1100);
#894=AXIS2_PLACEMENT_3D('',#1356,#1101,#1102);
#895=AXIS2_PLACEMENT_3D('',#1358,#1103,#1104);
#896=AXIS2_PLACEMENT_3D('',#1361,#1107,#1108);
#897=AXIS2_PLACEMENT_3D('',#1363,#1110,#1111);
#898=AXIS2_PLACEMENT_3D('',#1365,#1113,#1114);
#899=AXIS2_PLACEMENT_3D('',#1367,#1116,#1117);
#900=AXIS2_PLACEMENT_3D('',#1369,#1119,#1120);
#901=AXIS2_PLACEMENT_3D('',#1371,#1122,#1123);
#902=AXIS2_PLACEMENT_3D('',#1373,#1125,#1126);
#903=AXIS2_PLACEMENT_3D('',#1374,#1127,#1128);
#904=AXIS2_PLACEMENT_3D('',#1375,#1129,#1130);
#905=AXIS2_PLACEMENT_3D('',#1378,#1133,#1134);
#906=AXIS2_PLACEMENT_3D('',#1381,#1137,#1138);
#907=AXIS2_PLACEMENT_3D('',#1382,#1139,#1140);
#908=AXIS2_PLACEMENT_3D('',#1383,#1141,#1142);
#909=AXIS2_PLACEMENT_3D('',#1384,#1143,#1144);
#910=AXIS2_PLACEMENT_3D('',#1386,#1145,#1146);
#911=AXIS2_PLACEMENT_3D('',#1387,#1147,#1148);
#912=AXIS2_PLACEMENT_3D('',#1388,#1149,#1150);
#913=AXIS2_PLACEMENT_3D('',#1390,#1151,#1152);
#914=AXIS2_PLACEMENT_3D('',#1391,#1153,#1154);
#915=AXIS2_PLACEMENT_3D('',#1392,#1155,#1156);
#916=AXIS2_PLACEMENT_3D('',#1394,#1157,#1158);
#917=AXIS2_PLACEMENT_3D('',#1395,#1159,#1160);
#918=AXIS2_PLACEMENT_3D('',#1396,#1161,#1162);
#919=AXIS2_PLACEMENT_3D('',#1398,#1163,#1164);
#920=AXIS2_PLACEMENT_3D('',#1399,#1165,#1166);
#921=DIRECTION('',(0.,0.,1.));
#922=DIRECTION('',(1.,0.,0.));
#923=DIRECTION('',(0.,0.,1.));
#924=DIRECTION('',(1.,0.,0.));
#925=DIRECTION('',(1.,0.,0.));
#926=DIRECTION('',(0.,0.,1.));
#927=DIRECTION('',(1.,0.,0.));
#928=DIRECTION('',(1.36592399683213E-16,-1.,0.));
#929=DIRECTION('',(0.,0.,1.));
#930=DIRECTION('',(1.,0.,0.));
#931=DIRECTION('',(1.,1.36592399683213E-16,0.));
#932=DIRECTION('',(0.,0.,1.));
#933=DIRECTION('',(1.,0.,0.));
#934=DIRECTION('',(1.36592399683213E-16,-1.,0.));
#935=DIRECTION('',(0.,0.,1.));
#936=DIRECTION('',(1.,0.,0.));
#937=DIRECTION('',(-1.,-1.56105599637958E-16,0.));
#938=DIRECTION('',(1.56105599637958E-16,-1.,0.));
#939=DIRECTION('',(-1.56105599637958E-16,1.,0.));
#940=DIRECTION('',(0.,0.,-1.));
#941=DIRECTION('',(-1.56105599637958E-16,1.,0.));
#942=DIRECTION('',(0.,0.,-1.));
#943=DIRECTION('',(-1.,-1.56105599637958E-16,0.));
#944=DIRECTION('',(1.56105599637958E-16,-1.,0.));
#945=DIRECTION('',(1.56105599637958E-16,-1.,0.));
#946=DIRECTION('',(0.,0.,1.));
#947=DIRECTION('',(1.56105599637958E-16,-1.,0.));
#948=DIRECTION('',(0.,0.,1.));
#949=DIRECTION('',(-1.,-1.56105599637958E-16,0.));
#950=DIRECTION('',(1.56105599637958E-16,-1.,0.));
#951=DIRECTION('',(-1.,-1.56105599637958E-16,0.));
#952=DIRECTION('',(1.56105599637958E-16,-1.,0.));
#953=DIRECTION('',(-1.56105599637958E-16,1.,0.));
#954=DIRECTION('',(-1.,-1.56105599637958E-16,0.));
#955=DIRECTION('',(1.56105599637958E-16,-1.,0.));
#956=DIRECTION('',(0.,0.,-1.));
#957=DIRECTION('',(-1.,-1.56105599637958E-16,0.));
#958=DIRECTION('',(1.56105599637958E-16,-1.,0.));
#959=DIRECTION('',(-1.56105599637958E-16,1.,0.));
#960=DIRECTION('',(-1.,-1.56105599637958E-16,0.));
#961=DIRECTION('',(1.56105599637958E-16,-1.,0.));
#962=DIRECTION('',(0.,0.,-1.));
#963=DIRECTION('',(0.,0.,-1.));
#964=DIRECTION('',(-1.56105599637958E-16,1.,0.));
#965=DIRECTION('',(0.,0.,-1.));
#966=DIRECTION('',(-1.56105599637958E-16,1.,0.));
#967=DIRECTION('',(0.,0.,-1.));
#968=DIRECTION('',(-1.,0.,0.));
#969=DIRECTION('',(0.,0.,1.));
#970=DIRECTION('',(1.,0.,0.));
#971=DIRECTION('',(0.,0.,-1.));
#972=DIRECTION('',(0.,0.,1.));
#973=DIRECTION('',(1.,0.,0.));
#974=DIRECTION('',(0.,0.,-1.));
#975=DIRECTION('',(-1.,0.,0.));
#976=DIRECTION('',(0.,0.,-1.));
#977=DIRECTION('',(0.,0.,1.));
#978=DIRECTION('',(1.,0.,0.));
#979=DIRECTION('',(0.,0.,1.));
#980=DIRECTION('',(1.,0.,0.));
#981=DIRECTION('',(1.56105599637958E-16,-1.,0.));
#982=DIRECTION('',(1.,1.56105599637958E-16,0.));
#983=DIRECTION('',(-1.,-1.56105599637958E-16,0.));
#984=DIRECTION('',(-1.,-1.56105599637958E-16,0.));
#985=DIRECTION('',(0.,0.,-1.));
#986=DIRECTION('',(0.,0.,-1.));
#987=DIRECTION('',(-1.,0.,0.));
#988=DIRECTION('',(0.,0.,1.));
#989=DIRECTION('',(1.,0.,0.));
#990=DIRECTION('',(0.,0.,1.));
#991=DIRECTION('',(1.,0.,0.));
#992=DIRECTION('',(0.,0.,-1.));
#993=DIRECTION('',(-1.,0.,0.));
#994=DIRECTION('',(0.,0.,-1.));
#995=DIRECTION('',(0.,0.,1.));
#996=DIRECTION('',(1.,0.,0.));
#997=DIRECTION('',(0.,0.,1.));
#998=DIRECTION('',(1.,0.,0.));
#999=DIRECTION('',(0.,-1.,0.));
#1000=DIRECTION('',(0.,0.,-1.));
#1001=DIRECTION('',(-1.,0.,0.));
#1002=DIRECTION('',(-1.,0.,0.));
#1003=DIRECTION('',(0.,0.,-1.));
#1004=DIRECTION('',(-1.,0.,0.));
#1005=DIRECTION('',(1.93170824149087E-15,0.707106781186548,-0.707106781186548));
#1006=DIRECTION('',(-0.707106781186548,0.,0.707106781186548));
#1007=DIRECTION('',(0.,0.,1.));
#1008=DIRECTION('',(1.,0.,0.));
#1009=DIRECTION('',(0.,0.707106781186548,0.707106781186548));
#1010=DIRECTION('',(1.,0.,0.));
#1011=DIRECTION('',(0.,0.707106781186548,-0.707106781186548));
#1012=DIRECTION('',(1.,0.,0.));
#1013=DIRECTION('',(0.707106781186548,9.65854120745433E-17,0.707106781186548));
#1014=DIRECTION('',(1.36592399683213E-16,-1.,0.));
#1015=DIRECTION('',(-0.707106781186548,0.,0.707106781186548));
#1016=DIRECTION('',(1.36592399683213E-16,-1.,0.));
#1017=DIRECTION('',(0.,0.,-1.));
#1018=DIRECTION('',(-1.,0.,0.));
#1019=DIRECTION('',(-0.707106781186548,9.65854120745432E-16,-0.707106781186548));
#1020=DIRECTION('',(0.,0.,1.));
#1021=DIRECTION('',(1.,0.,0.));
#1022=DIRECTION('',(0.,0.,-1.));
#1023=DIRECTION('',(-1.,0.,0.));
#1024=DIRECTION('',(0.,0.707106781186548,0.707106781186548));
#1025=DIRECTION('',(0.,0.,1.));
#1026=DIRECTION('',(1.,0.,0.));
#1027=DIRECTION('',(0.707106781186548,9.65854120745433E-17,-0.707106781186548));
#1028=DIRECTION('',(-1.36592399683213E-16,1.,0.));
#1029=DIRECTION('',(-0.707106781186548,0.,-0.707106781186548));
#1030=DIRECTION('',(-1.36592399683213E-16,1.,0.));
#1031=DIRECTION('',(-9.65854120745433E-17,0.707106781186548,-0.707106781186548));
#1032=DIRECTION('',(-1.,-1.36592399683213E-16,0.));
#1033=DIRECTION('',(0.,0.707106781186548,0.707106781186548));
#1034=DIRECTION('',(-1.,-1.36592399683213E-16,0.));
#1035=DIRECTION('',(0.,0.,-1.));
#1036=DIRECTION('',(-1.,0.,0.));
#1037=DIRECTION('',(0.,0.,1.));
#1038=DIRECTION('',(1.,0.,0.));
#1039=DIRECTION('',(-1.,-1.36592399683213E-16,0.));
#1040=DIRECTION('',(1.36592399683213E-16,-1.,0.));
#1041=DIRECTION('',(0.,0.,-1.));
#1042=DIRECTION('',(-1.36592399683213E-16,1.,0.));
#1043=DIRECTION('',(0.,0.,-1.));
#1044=DIRECTION('',(-1.36592399683213E-16,1.,0.));
#1045=DIRECTION('',(-1.,-1.36592399683213E-16,0.));
#1046=DIRECTION('',(1.36592399683213E-16,-1.,0.));
#1047=DIRECTION('',(0.,0.,-1.));
#1048=DIRECTION('',(0.,0.,-1.));
#1049=DIRECTION('',(-1.36592399683213E-16,1.,0.));
#1050=DIRECTION('',(-1.,-1.36592399683213E-16,0.));
#1051=DIRECTION('',(1.36592399683213E-16,-1.,0.));
#1052=DIRECTION('',(0.,0.,-1.));
#1053=DIRECTION('',(0.,0.,-1.));
#1054=DIRECTION('',(-1.36592399683213E-16,1.,0.));
#1055=DIRECTION('',(1.,1.36592399683213E-16,0.));
#1056=DIRECTION('',(-1.36592399683213E-16,1.,0.));
#1057=DIRECTION('',(1.36592399683213E-16,-1.,0.));
#1058=DIRECTION('',(1.,1.36592399683213E-16,0.));
#1059=DIRECTION('',(-1.36592399683213E-16,1.,0.));
#1060=DIRECTION('',(0.,0.,1.));
#1061=DIRECTION('',(1.,1.36592399683213E-16,0.));
#1062=DIRECTION('',(-1.36592399683213E-16,1.,0.));
#1063=DIRECTION('',(1.36592399683213E-16,-1.,0.));
#1064=DIRECTION('',(1.,1.36592399683213E-16,0.));
#1065=DIRECTION('',(-1.36592399683213E-16,1.,0.));
#1066=DIRECTION('',(0.,0.,1.));
#1067=DIRECTION('',(0.,0.,-1.));
#1068=DIRECTION('',(-1.,0.,0.));
#1069=DIRECTION('',(0.,0.,-1.));
#1070=DIRECTION('',(0.,0.,1.));
#1071=DIRECTION('',(1.,0.,0.));
#1072=DIRECTION('',(0.,-1.,0.));
#1073=DIRECTION('',(0.,0.,-1.));
#1074=DIRECTION('',(0.,0.,-1.));
#1075=DIRECTION('',(-1.,0.,0.));
#1076=DIRECTION('',(0.,0.,-1.));
#1077=DIRECTION('',(-1.,0.,0.));
#1078=DIRECTION('',(0.,0.,1.));
#1079=DIRECTION('',(1.,0.,0.));
#1080=DIRECTION('',(0.,0.,-1.));
#1081=DIRECTION('',(-1.,0.,0.));
#1082=DIRECTION('',(0.,0.,-1.));
#1083=DIRECTION('',(0.,0.,1.));
#1084=DIRECTION('',(1.,0.,0.));
#1085=DIRECTION('',(1.36592399683213E-16,-1.,0.));
#1086=DIRECTION('',(1.,1.36592399683213E-16,0.));
#1087=DIRECTION('',(0.,0.,-1.));
#1088=DIRECTION('',(-1.,-1.36592399683213E-16,0.));
#1089=DIRECTION('',(0.,0.,-1.));
#1090=DIRECTION('',(-1.,0.,0.));
#1091=DIRECTION('',(0.,0.,1.));
#1092=DIRECTION('',(1.,0.,0.));
#1093=DIRECTION('',(0.,0.,1.));
#1094=DIRECTION('',(1.,0.,0.));
#1095=DIRECTION('',(0.,0.,1.));
#1096=DIRECTION('',(1.,0.,0.));
#1097=DIRECTION('',(0.,0.,1.));
#1098=DIRECTION('',(1.,0.,0.));
#1099=DIRECTION('',(0.,0.,1.));
#1100=DIRECTION('',(1.,0.,0.));
#1101=DIRECTION('',(0.,0.,1.));
#1102=DIRECTION('',(1.,0.,0.));
#1103=DIRECTION('',(0.,0.,1.));
#1104=DIRECTION('',(1.,0.,0.));
#1105=DIRECTION('',(1.,1.36592399683213E-16,0.));
#1106=DIRECTION('',(1.,1.36592399683213E-16,0.));
#1107=DIRECTION('',(1.,1.36592399683213E-16,0.));
#1108=DIRECTION('',(-1.36592399683213E-16,1.,0.));
#1109=DIRECTION('',(1.,1.36592399683213E-16,0.));
#1110=DIRECTION('',(-1.36592399683213E-16,1.,0.));
#1111=DIRECTION('',(-1.,-1.36592399683213E-16,0.));
#1112=DIRECTION('',(1.,1.36592399683213E-16,0.));
#1113=DIRECTION('',(1.,1.36592399683213E-16,0.));
#1114=DIRECTION('',(-1.36592399683213E-16,1.,0.));
#1115=DIRECTION('',(1.,1.36592399683213E-16,0.));
#1116=DIRECTION('',(0.,0.,1.));
#1117=DIRECTION('',(1.,0.,0.));
#1118=DIRECTION('',(1.,1.36592399683213E-16,0.));
#1119=DIRECTION('',(1.,1.36592399683213E-16,0.));
#1120=DIRECTION('',(-1.36592399683213E-16,1.,0.));
#1121=DIRECTION('',(1.,1.36592399683213E-16,0.));
#1122=DIRECTION('',(-1.36592399683213E-16,1.,0.));
#1123=DIRECTION('',(-1.,-1.36592399683213E-16,0.));
#1124=DIRECTION('',(1.,1.36592399683213E-16,0.));
#1125=DIRECTION('',(1.,1.36592399683213E-16,0.));
#1126=DIRECTION('',(-1.36592399683213E-16,1.,0.));
#1127=DIRECTION('',(-1.,-1.36592399683213E-16,0.));
#1128=DIRECTION('',(1.36592399683213E-16,-1.,0.));
#1129=DIRECTION('',(-1.56105599637958E-16,1.,0.));
#1130=DIRECTION('',(-1.,-1.56105599637958E-16,0.));
#1131=DIRECTION('',(1.,1.56105599637958E-16,0.));
#1132=DIRECTION('',(1.,1.56105599637958E-16,0.));
#1133=DIRECTION('',(-1.56105599637958E-16,1.,0.));
#1134=DIRECTION('',(-1.,-1.56105599637958E-16,0.));
#1135=DIRECTION('',(1.,1.56105599637958E-16,0.));
#1136=DIRECTION('',(1.,1.56105599637958E-16,0.));
#1137=DIRECTION('',(0.,0.,1.));
#1138=DIRECTION('',(1.,0.,0.));
#1139=DIRECTION('',(0.,0.,1.));
#1140=DIRECTION('',(1.,0.,0.));
#1141=DIRECTION('',(0.,0.,-1.));
#1142=DIRECTION('',(-1.,0.,0.));
#1143=DIRECTION('',(0.,0.,1.));
#1144=DIRECTION('',(1.,0.,0.));
#1145=DIRECTION('',(0.,0.,1.));
#1146=DIRECTION('',(1.,0.,0.));
#1147=DIRECTION('',(0.,0.,-1.));
#1148=DIRECTION('',(-1.,0.,0.));
#1149=DIRECTION('',(0.,0.,1.));
#1150=DIRECTION('',(1.,0.,0.));
#1151=DIRECTION('',(0.,0.,1.));
#1152=DIRECTION('',(1.,0.,0.));
#1153=DIRECTION('',(0.,0.,-1.));
#1154=DIRECTION('',(-1.,0.,0.));
#1155=DIRECTION('',(0.,0.,1.));
#1156=DIRECTION('',(1.,0.,0.));
#1157=DIRECTION('',(0.,0.,1.));
#1158=DIRECTION('',(1.,0.,0.));
#1159=DIRECTION('',(0.,0.,-1.));
#1160=DIRECTION('',(-1.,0.,0.));
#1161=DIRECTION('',(0.,0.,1.));
#1162=DIRECTION('',(1.,0.,0.));
#1163=DIRECTION('',(0.,0.,1.));
#1164=DIRECTION('',(1.,0.,0.));
#1165=DIRECTION('',(0.,0.,1.));
#1166=DIRECTION('',(1.,0.,0.));
#1167=CARTESIAN_POINT('',(0.,0.,0.));
#1168=CARTESIAN_POINT('',(0.0508,0.03175,0.297773296959268));
#1169=CARTESIAN_POINT('',(0.0508,0.14089,0.297773296959268));
#1170=CARTESIAN_POINT('',(-0.0508,0.14089,0.297773296959268));
#1171=CARTESIAN_POINT('',(0.1524,0.14089,0.297773296959268));
#1172=CARTESIAN_POINT('',(-0.0508,0.13335,0.297773296959268));
#1173=CARTESIAN_POINT('',(-0.05834,0.13335,0.297773296959268));
#1174=CARTESIAN_POINT('',(-0.05834,0.03175,0.297773296959268));
#1175=CARTESIAN_POINT('',(-0.05834,-0.06985,0.297773296959268));
#1176=CARTESIAN_POINT('',(-0.0508,-0.06985,0.297773296959268));
#1177=CARTESIAN_POINT('',(-0.0508,-0.07739,0.297773296959268));
#1178=CARTESIAN_POINT('',(0.0508,-0.07739,0.297773296959268));
#1179=CARTESIAN_POINT('',(0.1524,-0.07739,0.297773296959268));
#1180=CARTESIAN_POINT('',(0.1524,-0.06985,0.297773296959268));
#1181=CARTESIAN_POINT('',(0.15994,-0.06985,0.297773296959268));
#1182=CARTESIAN_POINT('',(0.15994,0.03175,0.297773296959268));
#1183=CARTESIAN_POINT('',(0.15994,0.13335,0.297773296959268));
#1184=CARTESIAN_POINT('',(0.1524,0.13335,0.297773296959268));
#1185=CARTESIAN_POINT('',(-0.0508,0.03175,0.302773296959268));
#1186=CARTESIAN_POINT('',(-0.0508,0.03175,0.290073296959267));
#1187=CARTESIAN_POINT('',(-0.0508,-0.05715,0.290073296959267));
#1188=CARTESIAN_POINT('',(-0.0508,0.12065,0.290073296959267));
#1189=CARTESIAN_POINT('',(-0.0508,-0.05715,0.302773296959268));
#1190=CARTESIAN_POINT('',(-0.0508,-0.05715,0.0487732969592676));
#1191=CARTESIAN_POINT('',(-0.0508,0.03175,0.0487732969592676));
#1192=CARTESIAN_POINT('',(-0.0508,0.12065,0.0487732969592676));
#1193=CARTESIAN_POINT('',(-0.0508,0.12065,0.302773296959268));
#1194=CARTESIAN_POINT('',(-0.0508,0.03175,0.263137289173471));
#1195=CARTESIAN_POINT('',(-0.0508,0.0190514067869408,0.263137289173471));
#1196=CARTESIAN_POINT('',(-0.0508,0.03175,0.0663452173039779));
#1197=CARTESIAN_POINT('',(-0.0508,0.05525,0.0663452173039779));
#1198=CARTESIAN_POINT('',(-0.0508,0.00825,0.0663452173039779));
#1199=CARTESIAN_POINT('',(-0.0508,0.00825,0.088645217303978));
#1200=CARTESIAN_POINT('',(-0.0508,0.00825,0.116345217303978));
#1201=CARTESIAN_POINT('',(-0.0508,0.03175,0.116345217303978));
#1202=CARTESIAN_POINT('',(-0.0508,0.05525,0.116345217303978));
#1203=CARTESIAN_POINT('',(-0.0508,0.05525,0.088645217303978));
#1204=CARTESIAN_POINT('',(0.1524,0.03175,0.302773296959268));
#1205=CARTESIAN_POINT('',(0.1524,-0.0333761199593543,0.0772030185948477));
#1206=CARTESIAN_POINT('',(0.1524,-0.0333761199593543,0.0645030185948476));
#1207=CARTESIAN_POINT('',(0.1524,-0.0460761199593544,0.0772030185948477));
#1208=CARTESIAN_POINT('',(0.1524,0.03175,0.0645030185948477));
#1209=CARTESIAN_POINT('',(0.1524,0.0968761199593544,0.0645030185948476));
#1210=CARTESIAN_POINT('',(0.1524,0.0968761199593543,0.0772030185948477));
#1211=CARTESIAN_POINT('',(0.1524,0.109576119959354,0.0772030185948477));
#1212=CARTESIAN_POINT('',(0.1524,0.109576119959354,0.302773296959268));
#1213=CARTESIAN_POINT('',(0.1524,0.109576119959354,0.252455759490596));
#1214=CARTESIAN_POINT('',(0.1524,0.0968761199593544,0.252455759490596));
#1215=CARTESIAN_POINT('',(0.1524,0.0968761199593544,0.265155759490596));
#1216=CARTESIAN_POINT('',(0.1524,0.03175,0.265155759490596));
#1217=CARTESIAN_POINT('',(0.1524,-0.0333761199593543,0.265155759490596));
#1218=CARTESIAN_POINT('',(0.1524,-0.0333761199593543,0.252455759490596));
#1219=CARTESIAN_POINT('',(0.1524,-0.0460761199593544,0.252455759490596));
#1220=CARTESIAN_POINT('',(0.1524,-0.0460761199593544,0.302773296959268));
#1221=CARTESIAN_POINT('',(0.1524,-0.05715,0.302773296959268));
#1222=CARTESIAN_POINT('',(0.1524,-0.05715,0.290073296959267));
#1223=CARTESIAN_POINT('',(0.1524,-0.05715,0.0487732969592676));
#1224=CARTESIAN_POINT('',(0.1524,0.03175,0.290073296959267));
#1225=CARTESIAN_POINT('',(0.1524,0.12065,0.290073296959267));
#1226=CARTESIAN_POINT('',(0.1524,0.12065,0.302773296959268));
#1227=CARTESIAN_POINT('',(0.1524,0.12065,0.0487732969592676));
#1228=CARTESIAN_POINT('',(0.1524,0.03175,0.0487732969592676));
#1229=CARTESIAN_POINT('',(0.1397,0.12065,0.302773296959268));
#1230=CARTESIAN_POINT('',(0.1397,0.12065,0.290073296959267));
#1231=CARTESIAN_POINT('',(0.1397,0.13335,0.290073296959267));
#1232=CARTESIAN_POINT('',(0.1397,0.13335,0.302773296959268));
#1233=CARTESIAN_POINT('',(0.1397,0.13335,0.0487732969592676));
#1234=CARTESIAN_POINT('',(0.1397,0.12065,0.0487732969592676));
#1235=CARTESIAN_POINT('',(0.1397,-0.05715,0.302773296959268));
#1236=CARTESIAN_POINT('',(0.1397,-0.06985,0.302773296959268));
#1237=CARTESIAN_POINT('',(0.1397,-0.06985,0.290073296959267));
#1238=CARTESIAN_POINT('',(0.1397,-0.06985,0.0487732969592676));
#1239=CARTESIAN_POINT('',(0.1397,-0.05715,0.290073296959267));
#1240=CARTESIAN_POINT('',(0.1397,-0.05715,0.0487732969592676));
#1241=CARTESIAN_POINT('',(0.0508,-0.06985,0.302773296959268));
#1242=CARTESIAN_POINT('',(0.0508,-0.06985,0.290073296959267));
#1243=CARTESIAN_POINT('',(-0.0381,-0.06985,0.290073296959267));
#1244=CARTESIAN_POINT('',(0.0508,-0.06985,0.0487732969592676));
#1245=CARTESIAN_POINT('',(-0.0381,-0.06985,0.0487732969592676));
#1246=CARTESIAN_POINT('',(-0.0381,-0.06985,0.302773296959268));
#1247=CARTESIAN_POINT('',(-0.0381,-0.05715,0.302773296959268));
#1248=CARTESIAN_POINT('',(-0.0381,-0.05715,0.290073296959267));
#1249=CARTESIAN_POINT('',(-0.0381,-0.05715,0.0487732969592676));
#1250=CARTESIAN_POINT('',(-0.0381,0.12065,0.302773296959268));
#1251=CARTESIAN_POINT('',(-0.0381,0.13335,0.302773296959268));
#1252=CARTESIAN_POINT('',(-0.0381,0.13335,0.290073296959267));
#1253=CARTESIAN_POINT('',(-0.0381,0.13335,0.0487732969592676));
#1254=CARTESIAN_POINT('',(-0.0381,0.12065,0.290073296959267));
#1255=CARTESIAN_POINT('',(-0.0381,0.12065,0.0487732969592676));
#1256=CARTESIAN_POINT('',(0.0508,0.13335,0.302773296959268));
#1257=CARTESIAN_POINT('',(0.0508,0.13335,0.290073296959267));
#1258=CARTESIAN_POINT('',(0.0508,0.13335,0.0487732969592676));
#1259=CARTESIAN_POINT('',(0.1524,0.13335,0.302773296959268));
#1260=CARTESIAN_POINT('',(0.1524,0.13589,0.302773296959268));
#1261=CARTESIAN_POINT('',(0.1524,0.14605,0.292613296959268));
#1262=CARTESIAN_POINT('',(0.1651,0.13335,0.292613296959268));
#1263=CARTESIAN_POINT('',(0.1651,0.13335,0.292613296959268));
#1264=CARTESIAN_POINT('',(0.1524,0.13335,0.292613296959268));
#1265=CARTESIAN_POINT('',(0.0508,0.13589,0.302773296959268));
#1266=CARTESIAN_POINT('',(-0.0508,0.13589,0.302773296959268));
#1267=CARTESIAN_POINT('',(-0.0508,0.14605,0.292613296959268));
#1268=CARTESIAN_POINT('',(0.1524,0.14605,0.292613296959268));
#1269=CARTESIAN_POINT('',(0.15494,0.03175,0.302773296959268));
#1270=CARTESIAN_POINT('',(0.1651,-0.06985,0.292613296959268));
#1271=CARTESIAN_POINT('',(0.1651,-0.06985,0.292613296959268));
#1272=CARTESIAN_POINT('',(0.1651,-0.06985,0.292613296959268));
#1273=CARTESIAN_POINT('',(-0.0508,0.13335,0.302773296959268));
#1274=CARTESIAN_POINT('',(-0.05334,0.13335,0.302773296959268));
#1275=CARTESIAN_POINT('',(-0.0635,0.13335,0.292613296959268));
#1276=CARTESIAN_POINT('',(-0.0508,0.13335,0.292613296959268));
#1277=CARTESIAN_POINT('',(0.1524,-0.06985,0.302773296959268));
#1278=CARTESIAN_POINT('',(0.1524,-0.08255,0.292613296959268));
#1279=CARTESIAN_POINT('',(0.1524,-0.08255,0.292613296959268));
#1280=CARTESIAN_POINT('',(0.1524,-0.06985,0.292613296959268));
#1281=CARTESIAN_POINT('',(-0.0635,0.03175,0.292613296959268));
#1282=CARTESIAN_POINT('',(-0.05334,-0.06985,0.302773296959268));
#1283=CARTESIAN_POINT('',(-0.0635,-0.06985,0.292613296959268));
#1284=CARTESIAN_POINT('',(-0.0635,0.03175,0.292613296959268));
#1285=CARTESIAN_POINT('',(0.0508,-0.08255,0.292613296959268));
#1286=CARTESIAN_POINT('',(-0.0508,-0.08255,0.292613296959268));
#1287=CARTESIAN_POINT('',(-0.0508,-0.08255,0.292613296959268));
#1288=CARTESIAN_POINT('',(0.0508,-0.08255,0.292613296959268));
#1289=CARTESIAN_POINT('',(-0.0508,-0.06985,0.302773296959268));
#1290=CARTESIAN_POINT('',(-0.0508,-0.06985,0.292613296959268));
#1291=CARTESIAN_POINT('',(-0.0635,0.03175,0.302773296959268));
#1292=CARTESIAN_POINT('',(-0.0635,0.00825,0.302773296959268));
#1293=CARTESIAN_POINT('',(-0.0635,0.00825,0.116345217303978));
#1294=CARTESIAN_POINT('',(-0.0635,0.00825,0.0663452173039779));
#1295=CARTESIAN_POINT('',(-0.0635,0.03175,0.0663452173039779));
#1296=CARTESIAN_POINT('',(-0.0635,0.05525,0.0663452173039779));
#1297=CARTESIAN_POINT('',(-0.0635,0.05525,0.302773296959268));
#1298=CARTESIAN_POINT('',(-0.0635,0.05525,0.116345217303978));
#1299=CARTESIAN_POINT('',(-0.0635,0.03175,0.116345217303978));
#1300=CARTESIAN_POINT('',(-0.0635,0.03175,0.263137289173471));
#1301=CARTESIAN_POINT('',(-0.0635,0.0190514067869408,0.263137289173471));
#1302=CARTESIAN_POINT('',(-0.0635,-0.06985,0.302773296959268));
#1303=CARTESIAN_POINT('',(-0.0635,-0.06985,0.0487732969592676));
#1304=CARTESIAN_POINT('',(-0.0635,0.13335,0.302773296959268));
#1305=CARTESIAN_POINT('',(-0.0635,0.13335,0.0487732969592676));
#1306=CARTESIAN_POINT('',(-0.0635,0.03175,0.0487732969592676));
#1307=CARTESIAN_POINT('',(0.1651,0.03175,0.302773296959268));
#1308=CARTESIAN_POINT('',(0.1651,0.13335,0.302773296959268));
#1309=CARTESIAN_POINT('',(0.1651,0.13335,0.0487732969592676));
#1310=CARTESIAN_POINT('',(0.1651,-0.06985,0.302773296959268));
#1311=CARTESIAN_POINT('',(0.1651,-0.06985,0.0487732969592676));
#1312=CARTESIAN_POINT('',(0.1651,0.03175,0.0487732969592676));
#1313=CARTESIAN_POINT('',(0.1651,0.0968761199593544,0.0772030185948477));
#1314=CARTESIAN_POINT('',(0.1651,0.0968761199593544,0.0645030185948476));
#1315=CARTESIAN_POINT('',(0.1651,0.109576119959354,0.0772030185948477));
#1316=CARTESIAN_POINT('',(0.1651,-0.000813059979677171,0.0645030185948477));
#1317=CARTESIAN_POINT('',(0.1651,-0.0333761199593543,0.0645030185948476));
#1318=CARTESIAN_POINT('',(0.1651,-0.0333761199593543,0.0772030185948477));
#1319=CARTESIAN_POINT('',(0.1651,-0.0460761199593544,0.0772030185948477));
#1320=CARTESIAN_POINT('',(0.1651,-0.0460761199593544,0.164829389042721));
#1321=CARTESIAN_POINT('',(0.1651,-0.0460761199593544,0.252455759490596));
#1322=CARTESIAN_POINT('',(0.1651,-0.0333761199593543,0.252455759490596));
#1323=CARTESIAN_POINT('',(0.1651,-0.0333761199593543,0.265155759490596));
#1324=CARTESIAN_POINT('',(0.1651,-0.000813059979677171,0.265155759490596));
#1325=CARTESIAN_POINT('',(0.1651,0.0968761199593544,0.265155759490596));
#1326=CARTESIAN_POINT('',(0.1651,0.0968761199593544,0.252455759490596));
#1327=CARTESIAN_POINT('',(0.1651,0.109576119959354,0.252455759490596));
#1328=CARTESIAN_POINT('',(0.1651,0.109576119959354,0.164829389042721));
#1329=CARTESIAN_POINT('',(0.1524,0.13335,0.302773296959268));
#1330=CARTESIAN_POINT('',(0.1524,0.14605,0.302773296959268));
#1331=CARTESIAN_POINT('',(0.1524,0.14605,0.0487732969592676));
#1332=CARTESIAN_POINT('',(0.1524,0.13335,0.0487732969592676));
#1333=CARTESIAN_POINT('',(0.0508,0.14605,0.302773296959268));
#1334=CARTESIAN_POINT('',(-0.0508,0.14605,0.302773296959268));
#1335=CARTESIAN_POINT('',(-0.0508,0.14605,0.0487732969592676));
#1336=CARTESIAN_POINT('',(0.0508,0.14605,0.0487732969592676));
#1337=CARTESIAN_POINT('',(-0.0508,0.13335,0.302773296959268));
#1338=CARTESIAN_POINT('',(-0.0508,0.13335,0.0487732969592676));
#1339=CARTESIAN_POINT('',(-0.0508,-0.06985,0.302773296959268));
#1340=CARTESIAN_POINT('',(-0.0508,-0.08255,0.302773296959268));
#1341=CARTESIAN_POINT('',(-0.0508,-0.08255,0.0487732969592676));
#1342=CARTESIAN_POINT('',(-0.0508,-0.06985,0.0487732969592676));
#1343=CARTESIAN_POINT('',(0.0508,-0.08255,0.302773296959268));
#1344=CARTESIAN_POINT('',(0.1524,-0.08255,0.302773296959268));
#1345=CARTESIAN_POINT('',(0.1524,-0.08255,0.0487732969592676));
#1346=CARTESIAN_POINT('',(0.0508,-0.08255,0.0487732969592676));
#1347=CARTESIAN_POINT('',(0.1524,-0.06985,0.302773296959268));
#1348=CARTESIAN_POINT('',(0.1524,-0.06985,0.0487732969592676));
#1349=CARTESIAN_POINT('',(0.0508,0.03175,0.0487732969592676));
#1350=CARTESIAN_POINT('',(-0.0541234018715768,0.136673401871577,0.0487732969592676));
#1351=CARTESIAN_POINT('',(-0.0516234018715768,0.136673401871577,0.0487732969592676));
#1352=CARTESIAN_POINT('',(0.15875,-0.07285,0.0487732969592676));
#1353=CARTESIAN_POINT('',(0.16125,-0.07285,0.0487732969592676));
#1354=CARTESIAN_POINT('',(-0.05715,-0.07285,0.0487732969592676));
#1355=CARTESIAN_POINT('',(-0.05465,-0.07285,0.0487732969592676));
#1356=CARTESIAN_POINT('',(0.155723401871577,0.136673401871577,0.0487732969592676));
#1357=CARTESIAN_POINT('',(0.158223401871577,0.136673401871577,0.0487732969592676));
#1358=CARTESIAN_POINT('',(0.1143,-0.000813059979677178,0.0645030185948477));
#1359=CARTESIAN_POINT('',(0.1143,-0.0333761199593543,0.0645030185948476));
#1360=CARTESIAN_POINT('',(0.1143,0.0968761199593544,0.0645030185948476));
#1361=CARTESIAN_POINT('',(0.1143,0.0968761199593543,0.0772030185948477));
#1362=CARTESIAN_POINT('',(0.1143,0.109576119959354,0.0772030185948477));
#1363=CARTESIAN_POINT('',(0.1143,0.109576119959354,0.164829389042721));
#1364=CARTESIAN_POINT('',(0.1143,0.109576119959354,0.252455759490596));
#1365=CARTESIAN_POINT('',(0.1143,0.0968761199593544,0.252455759490596));
#1366=CARTESIAN_POINT('',(0.1143,0.0968761199593544,0.265155759490596));
#1367=CARTESIAN_POINT('',(0.1143,-0.000813059979677178,0.265155759490596));
#1368=CARTESIAN_POINT('',(0.1143,-0.0333761199593543,0.265155759490596));
#1369=CARTESIAN_POINT('',(0.1143,-0.0333761199593543,0.252455759490596));
#1370=CARTESIAN_POINT('',(0.1143,-0.0460761199593544,0.252455759490596));
#1371=CARTESIAN_POINT('',(0.1143,-0.0460761199593544,0.164829389042721));
#1372=CARTESIAN_POINT('',(0.1143,-0.0460761199593544,0.0772030185948477));
#1373=CARTESIAN_POINT('',(0.1143,-0.0333761199593543,0.0772030185948477));
#1374=CARTESIAN_POINT('',(-0.0381,0.03175,0.263137289173471));
#1375=CARTESIAN_POINT('',(-0.090424,0.00825,0.088645217303978));
#1376=CARTESIAN_POINT('',(-0.090424,0.00825,0.116345217303978));
#1377=CARTESIAN_POINT('',(-0.090424,0.00825,0.0663452173039779));
#1378=CARTESIAN_POINT('',(-0.090424,0.05525,0.088645217303978));
#1379=CARTESIAN_POINT('',(-0.090424,0.05525,0.0663452173039779));
#1380=CARTESIAN_POINT('',(-0.090424,0.05525,0.116345217303978));
#1381=CARTESIAN_POINT('',(-0.090424,0.03175,0.116345217303978));
#1382=CARTESIAN_POINT('',(-0.090424,0.03175,0.0663452173039779));
#1383=CARTESIAN_POINT('',(0.155723401871577,0.136673401871577,0.0637732969592676));
#1384=CARTESIAN_POINT('',(0.155723401871577,0.136673401871577,0.0637732969592676));
#1385=CARTESIAN_POINT('',(0.158223401871577,0.136673401871577,0.0637732969592676));
#1386=CARTESIAN_POINT('',(0.0508,0.03175,0.0637732969592676));
#1387=CARTESIAN_POINT('',(-0.05715,-0.07285,0.0637732969592676));
#1388=CARTESIAN_POINT('',(-0.05715,-0.07285,0.0637732969592676));
#1389=CARTESIAN_POINT('',(-0.05465,-0.07285,0.0637732969592676));
#1390=CARTESIAN_POINT('',(0.0508,0.03175,0.0637732969592676));
#1391=CARTESIAN_POINT('',(0.15875,-0.07285,0.0637732969592676));
#1392=CARTESIAN_POINT('',(0.15875,-0.07285,0.0637732969592676));
#1393=CARTESIAN_POINT('',(0.16125,-0.07285,0.0637732969592676));
#1394=CARTESIAN_POINT('',(0.0508,0.03175,0.0637732969592676));
#1395=CARTESIAN_POINT('',(-0.0541234018715768,0.136673401871577,0.0637732969592676));
#1396=CARTESIAN_POINT('',(-0.0541234018715768,0.136673401871577,0.0637732969592676));
#1397=CARTESIAN_POINT('',(-0.0516234018715768,0.136673401871577,0.0637732969592676));
#1398=CARTESIAN_POINT('',(0.0508,0.03175,0.0637732969592676));
#1399=CARTESIAN_POINT('',(0.0508,0.03175,0.290073296959267));
#1400=MECHANICAL_DESIGN_GEOMETRIC_PRESENTATION_REPRESENTATION('',(#823),
#1401);
#1401=(
GEOMETRIC_REPRESENTATION_CONTEXT(3)
GLOBAL_UNCERTAINTY_ASSIGNED_CONTEXT((#1402))
GLOBAL_UNIT_ASSIGNED_CONTEXT((#1405,#1404,#1403))
REPRESENTATION_CONTEXT('top shell','TOP_LEVEL_ASSEMBLY_PART')
);
#1402=UNCERTAINTY_MEASURE_WITH_UNIT(LENGTH_MEASURE(1.E-8),#1405,
'DISTANCE_ACCURACY_VALUE','Maximum Tolerance applied to model');
#1403=(
NAMED_UNIT(*)
SI_UNIT($,.STERADIAN.)
SOLID_ANGLE_UNIT()
);
#1404=(
NAMED_UNIT(*)
PLANE_ANGLE_UNIT()
SI_UNIT($,.RADIAN.)
);
#1405=(
LENGTH_UNIT()
NAMED_UNIT(*)
SI_UNIT($,.METRE.)
);
#1406=PRODUCT_DEFINITION_SHAPE('','',#1407);
#1407=PRODUCT_DEFINITION('','',#1409,#1408);
#1408=PRODUCT_DEFINITION_CONTEXT('',#1415,'design');
#1409=PRODUCT_DEFINITION_FORMATION_WITH_SPECIFIED_SOURCE('','',#1411,
 .NOT_KNOWN.);
#1410=PRODUCT_RELATED_PRODUCT_CATEGORY('','',(#1411));
#1411=PRODUCT('top shell','top shell','top shell',(#1413));
#1412=PRODUCT_CATEGORY('','');
#1413=PRODUCT_CONTEXT('',#1415,'mechanical');
#1414=APPLICATION_PROTOCOL_DEFINITION('international standard',
'ap242_managed_model_based_3d_engineering',2020,#1415);
#1415=APPLICATION_CONTEXT('managed model based 3d engineering');
ENDSEC;
END-ISO-10303-21;
