ISO-10303-21;
HEADER;
/* Generated by software containing ST-Developer
 * from STEP Tools, Inc. (www.steptools.com) 
 */
/* OPTION: using custom renumber hook */

FILE_DESCRIPTION(
/* description */ ('STEP AP242 Edition 2',
'CAx-IF Rec.Pracs.---Representation and Presentation of Product Manufa
cturing Information (PMI)---4.0---2014-10-13',
'CAx-IF Rec.Pracs.---3D Tessellated Geometry---0.4---2014-09-14','2;1',
'CAx-IF Rec.Pracs.---User Defined Attributes---1.5---2016-08-15'),
/* implementation_level */ '2;1');

FILE_NAME(
/* name */ 'happy plant - secondary electronics box',
/* time_stamp */ '2026-10-08T17:28:25Z',
/* author */ (''),
/* organization */ (''),
/* preprocessor_version */ 'ST-DEVELOPER v20',
/* originating_system */ 'ONSHAPE BY PTC INC, 1.221',
/* authorisation */ '  ');

FILE_SCHEMA (('AP242_MANAGED_MODEL_BASED_3D_ENGINEERING_MIM_LF { 1 0 10303 442 3 1 4 }'));
ENDSEC;

DATA;
#10=SHAPE_REPRESENTATION_RELATIONSHIP('','',#433,#11);
#11=ADVANCED_BREP_SHAPE_REPRESENTATION('',(#431),#687);
#12=CIRCLE('',#439,0.01);
#13=CIRCLE('',#440,0.01);
#14=CIRCLE('',#442,0.01);
#15=CIRCLE('',#443,0.01);
#16=CIRCLE('',#445,0.01);
#17=CIRCLE('',#446,0.01);
#18=CIRCLE('',#448,0.01);
#19=CIRCLE('',#449,0.01);
#20=CYLINDRICAL_SURFACE('',#438,0.01);
#21=CYLINDRICAL_SURFACE('',#441,0.01);
#22=CYLINDRICAL_SURFACE('',#444,0.01);
#23=CYLINDRICAL_SURFACE('',#447,0.01);
#24=ORIENTED_EDGE('',*,*,#128,.T.);
#25=ORIENTED_EDGE('',*,*,#129,.F.);
#26=ORIENTED_EDGE('',*,*,#130,.F.);
#27=ORIENTED_EDGE('',*,*,#131,.T.);
#28=ORIENTED_EDGE('',*,*,#132,.T.);
#29=ORIENTED_EDGE('',*,*,#133,.F.);
#30=ORIENTED_EDGE('',*,*,#134,.F.);
#31=ORIENTED_EDGE('',*,*,#129,.T.);
#32=ORIENTED_EDGE('',*,*,#135,.T.);
#33=ORIENTED_EDGE('',*,*,#136,.F.);
#34=ORIENTED_EDGE('',*,*,#137,.F.);
#35=ORIENTED_EDGE('',*,*,#133,.T.);
#36=ORIENTED_EDGE('',*,*,#138,.T.);
#37=ORIENTED_EDGE('',*,*,#139,.F.);
#38=ORIENTED_EDGE('',*,*,#140,.T.);
#39=ORIENTED_EDGE('',*,*,#141,.F.);
#40=ORIENTED_EDGE('',*,*,#142,.T.);
#41=ORIENTED_EDGE('',*,*,#143,.F.);
#42=ORIENTED_EDGE('',*,*,#144,.T.);
#43=ORIENTED_EDGE('',*,*,#145,.F.);
#44=ORIENTED_EDGE('',*,*,#146,.T.);
#45=ORIENTED_EDGE('',*,*,#131,.F.);
#46=ORIENTED_EDGE('',*,*,#147,.F.);
#47=ORIENTED_EDGE('',*,*,#136,.T.);
#48=ORIENTED_EDGE('',*,*,#148,.F.);
#49=ORIENTED_EDGE('',*,*,#149,.F.);
#50=ORIENTED_EDGE('',*,*,#150,.T.);
#51=ORIENTED_EDGE('',*,*,#151,.T.);
#52=ORIENTED_EDGE('',*,*,#152,.T.);
#53=ORIENTED_EDGE('',*,*,#153,.T.);
#54=ORIENTED_EDGE('',*,*,#154,.F.);
#55=ORIENTED_EDGE('',*,*,#155,.F.);
#56=ORIENTED_EDGE('',*,*,#156,.F.);
#57=ORIENTED_EDGE('',*,*,#157,.T.);
#58=ORIENTED_EDGE('',*,*,#158,.T.);
#59=ORIENTED_EDGE('',*,*,#148,.T.);
#60=ORIENTED_EDGE('',*,*,#159,.F.);
#61=ORIENTED_EDGE('',*,*,#160,.T.);
#62=ORIENTED_EDGE('',*,*,#156,.T.);
#63=ORIENTED_EDGE('',*,*,#151,.F.);
#64=ORIENTED_EDGE('',*,*,#161,.F.);
#65=ORIENTED_EDGE('',*,*,#162,.T.);
#66=ORIENTED_EDGE('',*,*,#159,.T.);
#67=ORIENTED_EDGE('',*,*,#150,.F.);
#68=ORIENTED_EDGE('',*,*,#158,.F.);
#69=ORIENTED_EDGE('',*,*,#163,.T.);
#70=ORIENTED_EDGE('',*,*,#161,.T.);
#71=ORIENTED_EDGE('',*,*,#149,.T.);
#72=ORIENTED_EDGE('',*,*,#164,.T.);
#73=ORIENTED_EDGE('',*,*,#165,.T.);
#74=ORIENTED_EDGE('',*,*,#166,.T.);
#75=ORIENTED_EDGE('',*,*,#167,.T.);
#76=ORIENTED_EDGE('',*,*,#144,.F.);
#77=ORIENTED_EDGE('',*,*,#142,.F.);
#78=ORIENTED_EDGE('',*,*,#140,.F.);
#79=ORIENTED_EDGE('',*,*,#138,.F.);
#80=ORIENTED_EDGE('',*,*,#130,.T.);
#81=ORIENTED_EDGE('',*,*,#134,.T.);
#82=ORIENTED_EDGE('',*,*,#137,.T.);
#83=ORIENTED_EDGE('',*,*,#147,.T.);
#84=ORIENTED_EDGE('',*,*,#153,.F.);
#85=ORIENTED_EDGE('',*,*,#168,.F.);
#86=ORIENTED_EDGE('',*,*,#169,.T.);
#87=ORIENTED_EDGE('',*,*,#170,.T.);
#88=ORIENTED_EDGE('',*,*,#152,.F.);
#89=ORIENTED_EDGE('',*,*,#171,.F.);
#90=ORIENTED_EDGE('',*,*,#172,.T.);
#91=ORIENTED_EDGE('',*,*,#168,.T.);
#92=ORIENTED_EDGE('',*,*,#155,.T.);
#93=ORIENTED_EDGE('',*,*,#173,.F.);
#94=ORIENTED_EDGE('',*,*,#174,.F.);
#95=ORIENTED_EDGE('',*,*,#171,.T.);
#96=ORIENTED_EDGE('',*,*,#154,.T.);
#97=ORIENTED_EDGE('',*,*,#170,.F.);
#98=ORIENTED_EDGE('',*,*,#175,.F.);
#99=ORIENTED_EDGE('',*,*,#173,.T.);
#100=ORIENTED_EDGE('',*,*,#169,.F.);
#101=ORIENTED_EDGE('',*,*,#172,.F.);
#102=ORIENTED_EDGE('',*,*,#174,.T.);
#103=ORIENTED_EDGE('',*,*,#175,.T.);
#104=ORIENTED_EDGE('',*,*,#143,.T.);
#105=ORIENTED_EDGE('',*,*,#139,.T.);
#106=ORIENTED_EDGE('',*,*,#128,.F.);
#107=ORIENTED_EDGE('',*,*,#146,.F.);
#108=ORIENTED_EDGE('',*,*,#135,.F.);
#109=ORIENTED_EDGE('',*,*,#132,.F.);
#110=ORIENTED_EDGE('',*,*,#141,.T.);
#111=ORIENTED_EDGE('',*,*,#145,.T.);
#112=ORIENTED_EDGE('',*,*,#176,.F.);
#113=ORIENTED_EDGE('',*,*,#167,.F.);
#114=ORIENTED_EDGE('',*,*,#177,.F.);
#115=ORIENTED_EDGE('',*,*,#157,.F.);
#116=ORIENTED_EDGE('',*,*,#177,.T.);
#117=ORIENTED_EDGE('',*,*,#166,.F.);
#118=ORIENTED_EDGE('',*,*,#178,.F.);
#119=ORIENTED_EDGE('',*,*,#163,.F.);
#120=ORIENTED_EDGE('',*,*,#176,.T.);
#121=ORIENTED_EDGE('',*,*,#160,.F.);
#122=ORIENTED_EDGE('',*,*,#179,.F.);
#123=ORIENTED_EDGE('',*,*,#164,.F.);
#124=ORIENTED_EDGE('',*,*,#178,.T.);
#125=ORIENTED_EDGE('',*,*,#165,.F.);
#126=ORIENTED_EDGE('',*,*,#179,.T.);
#127=ORIENTED_EDGE('',*,*,#162,.F.);
#128=EDGE_CURVE('',#180,#181,#216,.T.);
#129=EDGE_CURVE('',#182,#181,#217,.T.);
#130=EDGE_CURVE('',#183,#182,#218,.T.);
#131=EDGE_CURVE('',#183,#180,#219,.T.);
#132=EDGE_CURVE('',#181,#184,#220,.T.);
#133=EDGE_CURVE('',#185,#184,#221,.T.);
#134=EDGE_CURVE('',#182,#185,#222,.T.);
#135=EDGE_CURVE('',#184,#186,#223,.T.);
#136=EDGE_CURVE('',#187,#186,#224,.T.);
#137=EDGE_CURVE('',#185,#187,#225,.T.);
#138=EDGE_CURVE('',#188,#188,#12,.T.);
#139=EDGE_CURVE('',#189,#189,#13,.T.);
#140=EDGE_CURVE('',#190,#190,#14,.T.);
#141=EDGE_CURVE('',#191,#191,#15,.T.);
#142=EDGE_CURVE('',#192,#192,#16,.T.);
#143=EDGE_CURVE('',#193,#193,#17,.T.);
#144=EDGE_CURVE('',#194,#194,#18,.T.);
#145=EDGE_CURVE('',#195,#195,#19,.T.);
#146=EDGE_CURVE('',#186,#180,#226,.T.);
#147=EDGE_CURVE('',#187,#183,#227,.T.);
#148=EDGE_CURVE('',#196,#197,#228,.T.);
#149=EDGE_CURVE('',#198,#196,#229,.T.);
#150=EDGE_CURVE('',#198,#199,#230,.T.);
#151=EDGE_CURVE('',#199,#197,#231,.T.);
#152=EDGE_CURVE('',#200,#201,#232,.T.);
#153=EDGE_CURVE('',#201,#202,#233,.T.);
#154=EDGE_CURVE('',#203,#202,#234,.T.);
#155=EDGE_CURVE('',#200,#203,#235,.T.);
#156=EDGE_CURVE('',#204,#197,#236,.T.);
#157=EDGE_CURVE('',#204,#205,#237,.T.);
#158=EDGE_CURVE('',#205,#196,#238,.T.);
#159=EDGE_CURVE('',#206,#199,#239,.T.);
#160=EDGE_CURVE('',#206,#204,#240,.T.);
#161=EDGE_CURVE('',#207,#198,#241,.T.);
#162=EDGE_CURVE('',#207,#206,#242,.T.);
#163=EDGE_CURVE('',#205,#207,#243,.T.);
#164=EDGE_CURVE('',#208,#209,#244,.T.);
#165=EDGE_CURVE('',#209,#210,#245,.T.);
#166=EDGE_CURVE('',#210,#211,#246,.T.);
#167=EDGE_CURVE('',#211,#208,#247,.T.);
#168=EDGE_CURVE('',#212,#201,#248,.T.);
#169=EDGE_CURVE('',#212,#213,#249,.T.);
#170=EDGE_CURVE('',#213,#202,#250,.T.);
#171=EDGE_CURVE('',#214,#200,#251,.T.);
#172=EDGE_CURVE('',#214,#212,#252,.T.);
#173=EDGE_CURVE('',#215,#203,#253,.T.);
#174=EDGE_CURVE('',#214,#215,#254,.T.);
#175=EDGE_CURVE('',#215,#213,#255,.T.);
#176=EDGE_CURVE('',#208,#204,#256,.T.);
#177=EDGE_CURVE('',#205,#211,#257,.T.);
#178=EDGE_CURVE('',#207,#210,#258,.T.);
#179=EDGE_CURVE('',#209,#206,#259,.F.);
#180=VERTEX_POINT('',#577);
#181=VERTEX_POINT('',#578);
#182=VERTEX_POINT('',#580);
#183=VERTEX_POINT('',#582);
#184=VERTEX_POINT('',#586);
#185=VERTEX_POINT('',#588);
#186=VERTEX_POINT('',#592);
#187=VERTEX_POINT('',#594);
#188=VERTEX_POINT('',#598);
#189=VERTEX_POINT('',#600);
#190=VERTEX_POINT('',#603);
#191=VERTEX_POINT('',#605);
#192=VERTEX_POINT('',#608);
#193=VERTEX_POINT('',#610);
#194=VERTEX_POINT('',#613);
#195=VERTEX_POINT('',#615);
#196=VERTEX_POINT('',#621);
#197=VERTEX_POINT('',#622);
#198=VERTEX_POINT('',#624);
#199=VERTEX_POINT('',#626);
#200=VERTEX_POINT('',#629);
#201=VERTEX_POINT('',#630);
#202=VERTEX_POINT('',#632);
#203=VERTEX_POINT('',#634);
#204=VERTEX_POINT('',#638);
#205=VERTEX_POINT('',#640);
#206=VERTEX_POINT('',#644);
#207=VERTEX_POINT('',#648);
#208=VERTEX_POINT('',#654);
#209=VERTEX_POINT('',#655);
#210=VERTEX_POINT('',#657);
#211=VERTEX_POINT('',#659);
#212=VERTEX_POINT('',#663);
#213=VERTEX_POINT('',#665);
#214=VERTEX_POINT('',#669);
#215=VERTEX_POINT('',#673);
#216=LINE('',#576,#260);
#217=LINE('',#579,#261);
#218=LINE('',#581,#262);
#219=LINE('',#583,#263);
#220=LINE('',#585,#264);
#221=LINE('',#587,#265);
#222=LINE('',#589,#266);
#223=LINE('',#591,#267);
#224=LINE('',#593,#268);
#225=LINE('',#595,#269);
#226=LINE('',#617,#270);
#227=LINE('',#618,#271);
#228=LINE('',#620,#272);
#229=LINE('',#623,#273);
#230=LINE('',#625,#274);
#231=LINE('',#627,#275);
#232=LINE('',#628,#276);
#233=LINE('',#631,#277);
#234=LINE('',#633,#278);
#235=LINE('',#635,#279);
#236=LINE('',#637,#280);
#237=LINE('',#639,#281);
#238=LINE('',#641,#282);
#239=LINE('',#643,#283);
#240=LINE('',#645,#284);
#241=LINE('',#647,#285);
#242=LINE('',#649,#286);
#243=LINE('',#651,#287);
#244=LINE('',#653,#288);
#245=LINE('',#656,#289);
#246=LINE('',#658,#290);
#247=LINE('',#660,#291);
#248=LINE('',#662,#292);
#249=LINE('',#664,#293);
#250=LINE('',#666,#294);
#251=LINE('',#668,#295);
#252=LINE('',#670,#296);
#253=LINE('',#672,#297);
#254=LINE('',#674,#298);
#255=LINE('',#676,#299);
#256=LINE('',#679,#300);
#257=LINE('',#680,#301);
#258=LINE('',#682,#302);
#259=LINE('',#684,#303);
#260=VECTOR('',#470,1.);
#261=VECTOR('',#471,1.);
#262=VECTOR('',#472,1.);
#263=VECTOR('',#473,1.);
#264=VECTOR('',#476,1.);
#265=VECTOR('',#477,1.);
#266=VECTOR('',#478,1.);
#267=VECTOR('',#481,1.);
#268=VECTOR('',#482,1.);
#269=VECTOR('',#483,1.);
#270=VECTOR('',#510,1.);
#271=VECTOR('',#511,1.);
#272=VECTOR('',#514,1.);
#273=VECTOR('',#515,1.);
#274=VECTOR('',#516,1.);
#275=VECTOR('',#517,1.);
#276=VECTOR('',#518,1.);
#277=VECTOR('',#519,1.);
#278=VECTOR('',#520,1.);
#279=VECTOR('',#521,1.);
#280=VECTOR('',#524,1.);
#281=VECTOR('',#525,1.);
#282=VECTOR('',#526,1.);
#283=VECTOR('',#529,1.);
#284=VECTOR('',#530,1.);
#285=VECTOR('',#533,1.);
#286=VECTOR('',#534,1.);
#287=VECTOR('',#537,1.);
#288=VECTOR('',#540,1.);
#289=VECTOR('',#541,1.);
#290=VECTOR('',#542,1.);
#291=VECTOR('',#543,1.);
#292=VECTOR('',#546,1.);
#293=VECTOR('',#547,1.);
#294=VECTOR('',#548,1.);
#295=VECTOR('',#551,1.);
#296=VECTOR('',#552,1.);
#297=VECTOR('',#555,1.);
#298=VECTOR('',#556,1.);
#299=VECTOR('',#559,1.);
#300=VECTOR('',#564,1.);
#301=VECTOR('',#565,1.);
#302=VECTOR('',#568,1.);
#303=VECTOR('',#571,1.);
#304=EDGE_LOOP('',(#24,#25,#26,#27));
#305=EDGE_LOOP('',(#28,#29,#30,#31));
#306=EDGE_LOOP('',(#32,#33,#34,#35));
#307=EDGE_LOOP('',(#36));
#308=EDGE_LOOP('',(#37));
#309=EDGE_LOOP('',(#38));
#310=EDGE_LOOP('',(#39));
#311=EDGE_LOOP('',(#40));
#312=EDGE_LOOP('',(#41));
#313=EDGE_LOOP('',(#42));
#314=EDGE_LOOP('',(#43));
#315=EDGE_LOOP('',(#44,#45,#46,#47));
#316=EDGE_LOOP('',(#48,#49,#50,#51));
#317=EDGE_LOOP('',(#52,#53,#54,#55));
#318=EDGE_LOOP('',(#56,#57,#58,#59));
#319=EDGE_LOOP('',(#60,#61,#62,#63));
#320=EDGE_LOOP('',(#64,#65,#66,#67));
#321=EDGE_LOOP('',(#68,#69,#70,#71));
#322=EDGE_LOOP('',(#72,#73,#74,#75));
#323=EDGE_LOOP('',(#76));
#324=EDGE_LOOP('',(#77));
#325=EDGE_LOOP('',(#78));
#326=EDGE_LOOP('',(#79));
#327=EDGE_LOOP('',(#80,#81,#82,#83));
#328=EDGE_LOOP('',(#84,#85,#86,#87));
#329=EDGE_LOOP('',(#88,#89,#90,#91));
#330=EDGE_LOOP('',(#92,#93,#94,#95));
#331=EDGE_LOOP('',(#96,#97,#98,#99));
#332=EDGE_LOOP('',(#100,#101,#102,#103));
#333=EDGE_LOOP('',(#104));
#334=EDGE_LOOP('',(#105));
#335=EDGE_LOOP('',(#106,#107,#108,#109));
#336=EDGE_LOOP('',(#110));
#337=EDGE_LOOP('',(#111));
#338=EDGE_LOOP('',(#112,#113,#114,#115));
#339=EDGE_LOOP('',(#116,#117,#118,#119));
#340=EDGE_LOOP('',(#120,#121,#122,#123));
#341=EDGE_LOOP('',(#124,#125,#126,#127));
#342=FACE_BOUND('',#304,.T.);
#343=FACE_BOUND('',#305,.T.);
#344=FACE_BOUND('',#306,.T.);
#345=FACE_BOUND('',#307,.T.);
#346=FACE_BOUND('',#308,.T.);
#347=FACE_BOUND('',#309,.T.);
#348=FACE_BOUND('',#310,.T.);
#349=FACE_BOUND('',#311,.T.);
#350=FACE_BOUND('',#312,.T.);
#351=FACE_BOUND('',#313,.T.);
#352=FACE_BOUND('',#314,.T.);
#353=FACE_BOUND('',#315,.T.);
#354=FACE_BOUND('',#316,.T.);
#355=FACE_BOUND('',#317,.T.);
#356=FACE_BOUND('',#318,.T.);
#357=FACE_BOUND('',#319,.T.);
#358=FACE_BOUND('',#320,.T.);
#359=FACE_BOUND('',#321,.T.);
#360=FACE_BOUND('',#322,.T.);
#361=FACE_BOUND('',#323,.T.);
#362=FACE_BOUND('',#324,.T.);
#363=FACE_BOUND('',#325,.T.);
#364=FACE_BOUND('',#326,.T.);
#365=FACE_BOUND('',#327,.T.);
#366=FACE_BOUND('',#328,.T.);
#367=FACE_BOUND('',#329,.T.);
#368=FACE_BOUND('',#330,.T.);
#369=FACE_BOUND('',#331,.T.);
#370=FACE_BOUND('',#332,.T.);
#371=FACE_BOUND('',#333,.T.);
#372=FACE_BOUND('',#334,.T.);
#373=FACE_BOUND('',#335,.T.);
#374=FACE_BOUND('',#336,.T.);
#375=FACE_BOUND('',#337,.T.);
#376=FACE_BOUND('',#338,.T.);
#377=FACE_BOUND('',#339,.T.);
#378=FACE_BOUND('',#340,.T.);
#379=FACE_BOUND('',#341,.T.);
#380=PLANE('',#435);
#381=PLANE('',#436);
#382=PLANE('',#437);
#383=PLANE('',#450);
#384=PLANE('',#451);
#385=PLANE('',#452);
#386=PLANE('',#453);
#387=PLANE('',#454);
#388=PLANE('',#455);
#389=PLANE('',#456);
#390=PLANE('',#457);
#391=PLANE('',#458);
#392=PLANE('',#459);
#393=PLANE('',#460);
#394=PLANE('',#461);
#395=PLANE('',#462);
#396=PLANE('',#463);
#397=PLANE('',#464);
#398=PLANE('',#465);
#399=ADVANCED_FACE('',(#342),#380,.F.);
#400=ADVANCED_FACE('',(#343),#381,.F.);
#401=ADVANCED_FACE('',(#344),#382,.F.);
#402=ADVANCED_FACE('',(#345,#346),#20,.F.);
#403=ADVANCED_FACE('',(#347,#348),#21,.F.);
#404=ADVANCED_FACE('',(#349,#350),#22,.F.);
#405=ADVANCED_FACE('',(#351,#352),#23,.F.);
#406=ADVANCED_FACE('',(#353),#383,.F.);
#407=ADVANCED_FACE('',(#354,#355),#384,.T.);
#408=ADVANCED_FACE('',(#356),#385,.F.);
#409=ADVANCED_FACE('',(#357),#386,.T.);
#410=ADVANCED_FACE('',(#358),#387,.T.);
#411=ADVANCED_FACE('',(#359),#388,.F.);
#412=ADVANCED_FACE('',(#360,#361,#362,#363,#364,#365),#389,.F.);
#413=ADVANCED_FACE('',(#366),#390,.T.);
#414=ADVANCED_FACE('',(#367),#391,.T.);
#415=ADVANCED_FACE('',(#368),#392,.F.);
#416=ADVANCED_FACE('',(#369),#393,.F.);
#417=ADVANCED_FACE('',(#370,#371,#372,#373,#374,#375),#394,.T.);
#418=ADVANCED_FACE('',(#376),#395,.F.);
#419=ADVANCED_FACE('',(#377),#396,.F.);
#420=ADVANCED_FACE('',(#378),#397,.T.);
#421=ADVANCED_FACE('',(#379),#398,.T.);
#422=CLOSED_SHELL('',(#399,#400,#401,#402,#403,#404,#405,#406,#407,#408,
#409,#410,#411,#412,#413,#414,#415,#416,#417,#418,#419,#420,#421));
#423=STYLED_ITEM('',(#424),#431);
#424=PRESENTATION_STYLE_ASSIGNMENT((#425));
#425=SURFACE_STYLE_USAGE(.BOTH.,#426);
#426=SURFACE_SIDE_STYLE('',(#427));
#427=SURFACE_STYLE_FILL_AREA(#428);
#428=FILL_AREA_STYLE('',(#429));
#429=FILL_AREA_STYLE_COLOUR('',#430);
#430=COLOUR_RGB('',0.654901960784314,0.823529411764706,0.576470588235294);
#431=MANIFOLD_SOLID_BREP('secondary electronics box',#422);
#432=SHAPE_DEFINITION_REPRESENTATION(#692,#433);
#433=SHAPE_REPRESENTATION('secondary electronics box',(#434),#687);
#434=AXIS2_PLACEMENT_3D('',#574,#466,#467);
#435=AXIS2_PLACEMENT_3D('',#575,#468,#469);
#436=AXIS2_PLACEMENT_3D('',#584,#474,#475);
#437=AXIS2_PLACEMENT_3D('',#590,#479,#480);
#438=AXIS2_PLACEMENT_3D('',#596,#484,#485);
#439=AXIS2_PLACEMENT_3D('',#597,#486,#487);
#440=AXIS2_PLACEMENT_3D('',#599,#488,#489);
#441=AXIS2_PLACEMENT_3D('',#601,#490,#491);
#442=AXIS2_PLACEMENT_3D('',#602,#492,#493);
#443=AXIS2_PLACEMENT_3D('',#604,#494,#495);
#444=AXIS2_PLACEMENT_3D('',#606,#496,#497);
#445=AXIS2_PLACEMENT_3D('',#607,#498,#499);
#446=AXIS2_PLACEMENT_3D('',#609,#500,#501);
#447=AXIS2_PLACEMENT_3D('',#611,#502,#503);
#448=AXIS2_PLACEMENT_3D('',#612,#504,#505);
#449=AXIS2_PLACEMENT_3D('',#614,#506,#507);
#450=AXIS2_PLACEMENT_3D('',#616,#508,#509);
#451=AXIS2_PLACEMENT_3D('',#619,#512,#513);
#452=AXIS2_PLACEMENT_3D('',#636,#522,#523);
#453=AXIS2_PLACEMENT_3D('',#642,#527,#528);
#454=AXIS2_PLACEMENT_3D('',#646,#531,#532);
#455=AXIS2_PLACEMENT_3D('',#650,#535,#536);
#456=AXIS2_PLACEMENT_3D('',#652,#538,#539);
#457=AXIS2_PLACEMENT_3D('',#661,#544,#545);
#458=AXIS2_PLACEMENT_3D('',#667,#549,#550);
#459=AXIS2_PLACEMENT_3D('',#671,#553,#554);
#460=AXIS2_PLACEMENT_3D('',#675,#557,#558);
#461=AXIS2_PLACEMENT_3D('',#677,#560,#561);
#462=AXIS2_PLACEMENT_3D('',#678,#562,#563);
#463=AXIS2_PLACEMENT_3D('',#681,#566,#567);
#464=AXIS2_PLACEMENT_3D('',#683,#569,#570);
#465=AXIS2_PLACEMENT_3D('',#685,#572,#573);
#466=DIRECTION('',(0.,0.,1.));
#467=DIRECTION('',(1.,0.,0.));
#468=DIRECTION('',(0.,0.,-1.));
#469=DIRECTION('',(-1.,0.,0.));
#470=DIRECTION('',(-1.,-1.36592399683213E-16,0.));
#471=DIRECTION('',(-1.36592399683213E-16,1.,0.));
#472=DIRECTION('',(-1.,-1.36592399683213E-16,0.));
#473=DIRECTION('',(-1.36592399683213E-16,1.,0.));
#474=DIRECTION('',(-1.,-1.36592399683213E-16,0.));
#475=DIRECTION('',(1.36592399683213E-16,-1.,0.));
#476=DIRECTION('',(0.,0.,1.));
#477=DIRECTION('',(-1.36592399683213E-16,1.,0.));
#478=DIRECTION('',(0.,0.,1.));
#479=DIRECTION('',(0.,0.,1.));
#480=DIRECTION('',(1.,0.,0.));
#481=DIRECTION('',(1.,1.36592399683213E-16,0.));
#482=DIRECTION('',(-1.36592399683213E-16,1.,0.));
#483=DIRECTION('',(1.,1.36592399683213E-16,0.));
#484=DIRECTION('',(-1.36592399683213E-16,1.,0.));
#485=DIRECTION('',(-1.,-1.36592399683213E-16,0.));
#486=DIRECTION('',(1.36592399683213E-16,-1.,0.));
#487=DIRECTION('',(1.,1.36592399683213E-16,0.));
#488=DIRECTION('',(1.36592399683213E-16,-1.,0.));
#489=DIRECTION('',(1.,1.36592399683213E-16,0.));
#490=DIRECTION('',(-1.36592399683213E-16,1.,0.));
#491=DIRECTION('',(-1.,-1.36592399683213E-16,0.));
#492=DIRECTION('',(1.36592399683213E-16,-1.,0.));
#493=DIRECTION('',(1.,1.36592399683213E-16,0.));
#494=DIRECTION('',(1.36592399683213E-16,-1.,0.));
#495=DIRECTION('',(1.,1.36592399683213E-16,0.));
#496=DIRECTION('',(-1.36592399683213E-16,1.,0.));
#497=DIRECTION('',(-1.,-1.36592399683213E-16,0.));
#498=DIRECTION('',(1.36592399683213E-16,-1.,0.));
#499=DIRECTION('',(1.,1.36592399683213E-16,0.));
#500=DIRECTION('',(1.36592399683213E-16,-1.,0.));
#501=DIRECTION('',(1.,1.36592399683213E-16,0.));
#502=DIRECTION('',(-1.36592399683213E-16,1.,0.));
#503=DIRECTION('',(-1.,-1.36592399683213E-16,0.));
#504=DIRECTION('',(1.36592399683213E-16,-1.,0.));
#505=DIRECTION('',(1.,1.36592399683213E-16,0.));
#506=DIRECTION('',(1.36592399683213E-16,-1.,0.));
#507=DIRECTION('',(1.,1.36592399683213E-16,0.));
#508=DIRECTION('',(1.,1.36592399683213E-16,0.));
#509=DIRECTION('',(-1.36592399683213E-16,1.,0.));
#510=DIRECTION('',(0.,0.,-1.));
#511=DIRECTION('',(0.,0.,-1.));
#512=DIRECTION('',(-1.36592399683213E-16,1.,0.));
#513=DIRECTION('',(-1.,-1.36592399683213E-16,0.));
#514=DIRECTION('',(-1.,-1.36592399683213E-16,0.));
#515=DIRECTION('',(0.,0.,1.));
#516=DIRECTION('',(-1.,-1.36592399683213E-16,0.));
#517=DIRECTION('',(0.,0.,1.));
#518=DIRECTION('',(0.,0.,1.));
#519=DIRECTION('',(-1.,-1.36592399683213E-16,0.));
#520=DIRECTION('',(0.,0.,1.));
#521=DIRECTION('',(-1.,-1.36592399683213E-16,0.));
#522=DIRECTION('',(0.,0.,-1.));
#523=DIRECTION('',(-1.,0.,0.));
#524=DIRECTION('',(-1.36592399683213E-16,1.,0.));
#525=DIRECTION('',(1.,1.36592399683213E-16,0.));
#526=DIRECTION('',(-1.36592399683213E-16,1.,0.));
#527=DIRECTION('',(-1.,-1.36592399683213E-16,0.));
#528=DIRECTION('',(1.36592399683213E-16,-1.,0.));
#529=DIRECTION('',(-1.36592399683213E-16,1.,0.));
#530=DIRECTION('',(0.,0.,1.));
#531=DIRECTION('',(0.,0.,-1.));
#532=DIRECTION('',(-1.,0.,0.));
#533=DIRECTION('',(-1.36592399683213E-16,1.,0.));
#534=DIRECTION('',(-1.,-1.36592399683213E-16,0.));
#535=DIRECTION('',(-1.,-1.36592399683213E-16,0.));
#536=DIRECTION('',(1.36592399683213E-16,-1.,0.));
#537=DIRECTION('',(0.,0.,-1.));
#538=DIRECTION('',(-1.36592399683213E-16,1.,0.));
#539=DIRECTION('',(-1.,-1.36592399683213E-16,0.));
#540=DIRECTION('',(0.,0.,-1.));
#541=DIRECTION('',(1.,1.36592399683213E-16,0.));
#542=DIRECTION('',(0.,0.,1.));
#543=DIRECTION('',(-1.,-1.36592399683213E-16,0.));
#544=DIRECTION('',(0.,0.,-1.));
#545=DIRECTION('',(-1.,0.,0.));
#546=DIRECTION('',(-1.36592399683213E-16,1.,0.));
#547=DIRECTION('',(-1.,-1.36592399683213E-16,0.));
#548=DIRECTION('',(-1.36592399683213E-16,1.,0.));
#549=DIRECTION('',(-1.,-1.36592399683213E-16,0.));
#550=DIRECTION('',(1.36592399683213E-16,-1.,0.));
#551=DIRECTION('',(-1.36592399683213E-16,1.,0.));
#552=DIRECTION('',(0.,0.,1.));
#553=DIRECTION('',(0.,0.,-1.));
#554=DIRECTION('',(-1.,0.,0.));
#555=DIRECTION('',(-1.36592399683213E-16,1.,0.));
#556=DIRECTION('',(-1.,-1.36592399683213E-16,0.));
#557=DIRECTION('',(-1.,-1.36592399683213E-16,0.));
#558=DIRECTION('',(1.36592399683213E-16,-1.,0.));
#559=DIRECTION('',(0.,0.,1.));
#560=DIRECTION('',(-1.36592399683213E-16,1.,0.));
#561=DIRECTION('',(-1.,-1.36592399683213E-16,0.));
#562=DIRECTION('',(-9.65854120745432E-17,0.707106781186547,-0.707106781186548));
#563=DIRECTION('',(-1.,-1.36592399683213E-16,0.));
#564=DIRECTION('',(-0.577350269189625,0.577350269189627,0.577350269189626));
#565=DIRECTION('',(-0.577350269189626,-0.577350269189626,-0.577350269189625));
#566=DIRECTION('',(-0.707106781186548,0.707106781186548,0.));
#567=DIRECTION('',(0.,0.,1.));
#568=DIRECTION('',(-0.577350269189626,-0.577350269189626,0.577350269189626));
#569=DIRECTION('',(-0.707106781186549,-0.707106781186547,0.));
#570=DIRECTION('',(0.,0.,-1.));
#571=DIRECTION('',(0.577350269189625,-0.577350269189626,0.577350269189626));
#572=DIRECTION('',(9.65854120745433E-17,-0.707106781186548,-0.707106781186548));
#573=DIRECTION('',(1.,1.36592399683213E-16,0.));
#574=CARTESIAN_POINT('',(0.,0.,0.));
#575=CARTESIAN_POINT('',(0.0308,-0.09755,0.0109792035073042));
#576=CARTESIAN_POINT('',(0.0308,-0.09455,0.0109792035073042));
#577=CARTESIAN_POINT('',(0.0908,-0.09455,0.0109792035073042));
#578=CARTESIAN_POINT('',(0.0108,-0.09455,0.0109792035073042));
#579=CARTESIAN_POINT('',(0.0108,-0.09755,0.0109792035073042));
#580=CARTESIAN_POINT('',(0.0108,-0.09755,0.0109792035073042));
#581=CARTESIAN_POINT('',(0.0308,-0.09755,0.0109792035073042));
#582=CARTESIAN_POINT('',(0.0908,-0.09755,0.0109792035073042));
#583=CARTESIAN_POINT('',(0.0908,-0.09755,0.0109792035073042));
#584=CARTESIAN_POINT('',(0.0108,-0.09755,0.0236602583900094));
#585=CARTESIAN_POINT('',(0.0108,-0.09455,0.0236602583900094));
#586=CARTESIAN_POINT('',(0.0108,-0.09455,0.0363413132727146));
#587=CARTESIAN_POINT('',(0.0108,-0.09755,0.0363413132727146));
#588=CARTESIAN_POINT('',(0.0108,-0.09755,0.0363413132727146));
#589=CARTESIAN_POINT('',(0.0108,-0.09755,0.0236602583900094));
#590=CARTESIAN_POINT('',(0.0508,-0.09755,0.0363413132727146));
#591=CARTESIAN_POINT('',(0.0508,-0.09455,0.0363413132727146));
#592=CARTESIAN_POINT('',(0.0908,-0.09455,0.0363413132727146));
#593=CARTESIAN_POINT('',(0.0908,-0.09755,0.0363413132727146));
#594=CARTESIAN_POINT('',(0.0908,-0.09755,0.0363413132727146));
#595=CARTESIAN_POINT('',(0.0508,-0.09755,0.0363413132727146));
#596=CARTESIAN_POINT('',(-0.0254,-0.09755,-0.0369548387825489));
#597=CARTESIAN_POINT('',(-0.0254,-0.09755,-0.0369548387825489));
#598=CARTESIAN_POINT('',(-0.0154,-0.09755,-0.0369548387825489));
#599=CARTESIAN_POINT('',(-0.0254,-0.09455,-0.0369548387825489));
#600=CARTESIAN_POINT('',(-0.0154,-0.09455,-0.0369548387825489));
#601=CARTESIAN_POINT('',(0.0254,-0.09755,-0.0369548387825489));
#602=CARTESIAN_POINT('',(0.0254,-0.09755,-0.0369548387825489));
#603=CARTESIAN_POINT('',(0.0354,-0.09755,-0.0369548387825489));
#604=CARTESIAN_POINT('',(0.0254,-0.09455,-0.0369548387825489));
#605=CARTESIAN_POINT('',(0.0354,-0.09455,-0.0369548387825489));
#606=CARTESIAN_POINT('',(0.0762,-0.09755,-0.0369548387825489));
#607=CARTESIAN_POINT('',(0.0762,-0.09755,-0.0369548387825489));
#608=CARTESIAN_POINT('',(0.0862,-0.09755,-0.0369548387825489));
#609=CARTESIAN_POINT('',(0.0762,-0.09455,-0.0369548387825489));
#610=CARTESIAN_POINT('',(0.0862,-0.09455,-0.0369548387825489));
#611=CARTESIAN_POINT('',(0.127,-0.09755,-0.0369548387825489));
#612=CARTESIAN_POINT('',(0.127,-0.09755,-0.0369548387825489));
#613=CARTESIAN_POINT('',(0.137,-0.09755,-0.0369548387825489));
#614=CARTESIAN_POINT('',(0.127,-0.09455,-0.0369548387825489));
#615=CARTESIAN_POINT('',(0.137,-0.09455,-0.0369548387825489));
#616=CARTESIAN_POINT('',(0.0908,-0.09755,0.0236602583900094));
#617=CARTESIAN_POINT('',(0.0908,-0.09455,0.0236602583900094));
#618=CARTESIAN_POINT('',(0.0908,-0.09755,0.0236602583900094));
#619=CARTESIAN_POINT('',(0.0508,-0.08255,-0.0782267030407324));
#620=CARTESIAN_POINT('',(0.0508,-0.08255,0.0487732969592676));
#621=CARTESIAN_POINT('',(0.1524,-0.08255,0.0487732969592676));
#622=CARTESIAN_POINT('',(-0.0508,-0.08255,0.0487732969592676));
#623=CARTESIAN_POINT('',(0.1524,-0.08255,-0.0782267030407324));
#624=CARTESIAN_POINT('',(0.1524,-0.08255,-0.0782267030407324));
#625=CARTESIAN_POINT('',(0.0508,-0.08255,-0.0782267030407324));
#626=CARTESIAN_POINT('',(-0.0508,-0.08255,-0.0782267030407324));
#627=CARTESIAN_POINT('',(-0.0508,-0.08255,-0.0782267030407324));
#628=CARTESIAN_POINT('',(0.1494,-0.08255,-0.0147267030407324));
#629=CARTESIAN_POINT('',(0.1494,-0.08255,-0.0752267030407324));
#630=CARTESIAN_POINT('',(0.1494,-0.08255,0.0457732969592676));
#631=CARTESIAN_POINT('',(0.0508,-0.08255,0.0457732969592676));
#632=CARTESIAN_POINT('',(-0.0478,-0.08255,0.0457732969592676));
#633=CARTESIAN_POINT('',(-0.0478,-0.08255,-0.0147267030407324));
#634=CARTESIAN_POINT('',(-0.0478,-0.08255,-0.0752267030407324));
#635=CARTESIAN_POINT('',(0.0508,-0.08255,-0.0752267030407324));
#636=CARTESIAN_POINT('',(0.0508,-0.09755,0.0487732969592676));
#637=CARTESIAN_POINT('',(-0.0508,-0.09755,0.0487732969592676));
#638=CARTESIAN_POINT('',(-0.0508,-0.09255,0.0487732969592676));
#639=CARTESIAN_POINT('',(0.0508,-0.09255,0.0487732969592676));
#640=CARTESIAN_POINT('',(0.1524,-0.09255,0.0487732969592676));
#641=CARTESIAN_POINT('',(0.1524,-0.09755,0.0487732969592676));
#642=CARTESIAN_POINT('',(-0.0508,-0.09755,-0.0782267030407324));
#643=CARTESIAN_POINT('',(-0.0508,-0.09755,-0.0782267030407324));
#644=CARTESIAN_POINT('',(-0.0508,-0.09255,-0.0782267030407324));
#645=CARTESIAN_POINT('',(-0.0508,-0.09255,0.0487732969592676));
#646=CARTESIAN_POINT('',(0.0508,-0.09755,-0.0782267030407324));
#647=CARTESIAN_POINT('',(0.1524,-0.09755,-0.0782267030407324));
#648=CARTESIAN_POINT('',(0.1524,-0.09255,-0.0782267030407324));
#649=CARTESIAN_POINT('',(-0.0508,-0.09255,-0.0782267030407324));
#650=CARTESIAN_POINT('',(0.1524,-0.09755,-0.0782267030407324));
#651=CARTESIAN_POINT('',(0.1524,-0.09255,-0.0782267030407324));
#652=CARTESIAN_POINT('',(0.0508,-0.09755,-0.0782267030407324));
#653=CARTESIAN_POINT('',(-0.0458,-0.09755,-0.0782267030407324));
#654=CARTESIAN_POINT('',(-0.0458,-0.09755,0.0437732969592676));
#655=CARTESIAN_POINT('',(-0.0458,-0.09755,-0.0732267030407324));
#656=CARTESIAN_POINT('',(0.1524,-0.09755,-0.0732267030407324));
#657=CARTESIAN_POINT('',(0.1474,-0.09755,-0.0732267030407324));
#658=CARTESIAN_POINT('',(0.1474,-0.09755,-0.0782267030407324));
#659=CARTESIAN_POINT('',(0.1474,-0.09755,0.0437732969592676));
#660=CARTESIAN_POINT('',(0.0508,-0.09755,0.0437732969592676));
#661=CARTESIAN_POINT('',(0.0508,-0.09455,0.0457732969592676));
#662=CARTESIAN_POINT('',(0.1494,-0.09455,0.0457732969592676));
#663=CARTESIAN_POINT('',(0.1494,-0.09455,0.0457732969592676));
#664=CARTESIAN_POINT('',(0.0508,-0.09455,0.0457732969592676));
#665=CARTESIAN_POINT('',(-0.0478,-0.09455,0.0457732969592676));
#666=CARTESIAN_POINT('',(-0.0478,-0.09455,0.0457732969592676));
#667=CARTESIAN_POINT('',(0.1494,-0.09455,-0.0147267030407324));
#668=CARTESIAN_POINT('',(0.1494,-0.09455,-0.0752267030407324));
#669=CARTESIAN_POINT('',(0.1494,-0.09455,-0.0752267030407324));
#670=CARTESIAN_POINT('',(0.1494,-0.09455,-0.0147267030407324));
#671=CARTESIAN_POINT('',(0.0508,-0.09455,-0.0752267030407324));
#672=CARTESIAN_POINT('',(-0.0478,-0.09455,-0.0752267030407324));
#673=CARTESIAN_POINT('',(-0.0478,-0.09455,-0.0752267030407324));
#674=CARTESIAN_POINT('',(0.0508,-0.09455,-0.0752267030407324));
#675=CARTESIAN_POINT('',(-0.0478,-0.09455,-0.0147267030407324));
#676=CARTESIAN_POINT('',(-0.0478,-0.09455,-0.0147267030407324));
#677=CARTESIAN_POINT('',(0.0508,-0.09455,-0.0147267030407324));
#678=CARTESIAN_POINT('',(0.0508,-0.09755,0.0437732969592676));
#679=CARTESIAN_POINT('',(-0.0136,-0.12975,0.0115732969592677));
#680=CARTESIAN_POINT('',(0.106733333333333,-0.138216666666667,0.00310663029260101));
#681=CARTESIAN_POINT('',(0.1474,-0.09755,-0.0782267030407324));
#682=CARTESIAN_POINT('',(0.149066666666667,-0.0958833333333334,-0.0748933697073991));
#683=CARTESIAN_POINT('',(-0.0508,-0.09255,-0.0782267030407324));
#684=CARTESIAN_POINT('',(-0.0508,-0.09255,-0.0782267030407324));
#685=CARTESIAN_POINT('',(0.0508,-0.09255,-0.0782267030407324));
#686=MECHANICAL_DESIGN_GEOMETRIC_PRESENTATION_REPRESENTATION('',(#423),
#687);
#687=(
GEOMETRIC_REPRESENTATION_CONTEXT(3)
GLOBAL_UNCERTAINTY_ASSIGNED_CONTEXT((#688))
GLOBAL_UNIT_ASSIGNED_CONTEXT((#691,#690,#689))
REPRESENTATION_CONTEXT('secondary electronics box',
'TOP_LEVEL_ASSEMBLY_PART')
);
#688=UNCERTAINTY_MEASURE_WITH_UNIT(LENGTH_MEASURE(1.E-8),#691,
'DISTANCE_ACCURACY_VALUE','Maximum Tolerance applied to model');
#689=(
NAMED_UNIT(*)
SI_UNIT($,.STERADIAN.)
SOLID_ANGLE_UNIT()
);
#690=(
NAMED_UNIT(*)
PLANE_ANGLE_UNIT()
SI_UNIT($,.RADIAN.)
);
#691=(
LENGTH_UNIT()
NAMED_UNIT(*)
SI_UNIT($,.METRE.)
);
#692=PRODUCT_DEFINITION_SHAPE('','',#693);
#693=PRODUCT_DEFINITION('','',#695,#694);
#694=PRODUCT_DEFINITION_CONTEXT('',#701,'design');
#695=PRODUCT_DEFINITION_FORMATION_WITH_SPECIFIED_SOURCE('','',#697,
 .NOT_KNOWN.);
#696=PRODUCT_RELATED_PRODUCT_CATEGORY('','',(#697));
#697=PRODUCT('secondary electronics box','secondary electronics box',
'secondary electronics box',(#699));
#698=PRODUCT_CATEGORY('','');
#699=PRODUCT_CONTEXT('',#701,'mechanical');
#700=APPLICATION_PROTOCOL_DEFINITION('international standard',
'ap242_managed_model_based_3d_engineering',2020,#701);
#701=APPLICATION_CONTEXT('managed model based 3d engineering');
ENDSEC;
END-ISO-10303-21;
