ISO-10303-21;
HEADER;
/* Generated by software containing ST-Developer
 * from STEP Tools, Inc. (www.steptools.com) 
 */
/* OPTION: using custom renumber hook */

FILE_DESCRIPTION(
/* description */ ('STEP AP242 Edition 2',
'CAx-IF Rec.Pracs.---Representation and Presentation of Product Manufa
cturing Information (PMI)---4.0---2014-10-13',
'CAx-IF Rec.Pracs.---3D Tessellated Geometry---0.4---2014-09-14','2;1',
'CAx-IF Rec.Pracs.---User Defined Attributes---1.5---2016-08-15'),
/* implementation_level */ '2;1');

FILE_NAME(
/* name */ 'happy plant - main electronic box',
/* time_stamp */ '2026-10-08T17:27:58Z',
/* author */ (''),
/* organization */ (''),
/* preprocessor_version */ 'ST-DEVELOPER v20',
/* originating_system */ 'ONSHAPE BY PTC INC, 1.221',
/* authorisation */ '  ');

FILE_SCHEMA (('AP242_MANAGED_MODEL_BASED_3D_ENGINEERING_MIM_LF { 1 0 10303 442 3 1 4 }'));
ENDSEC;

DATA;
#10=SHAPE_REPRESENTATION_RELATIONSHIP('','',#1396,#11);
#11=ADVANCED_BREP_SHAPE_REPRESENTATION('',(#1394),#2192);
#12=CYLINDRICAL_SURFACE('',#1404,0.0254361699685306);
#13=CYLINDRICAL_SURFACE('',#1444,0.01);
#14=CYLINDRICAL_SURFACE('',#1457,0.00344113867530602);
#15=CYLINDRICAL_SURFACE('',#1472,0.003);
#16=CIRCLE('',#1400,0.01);
#17=CIRCLE('',#1405,0.0254361699685306);
#18=CIRCLE('',#1406,0.0254361699685306);
#19=CIRCLE('',#1411,0.003);
#20=CIRCLE('',#1415,0.01);
#21=CIRCLE('',#1421,0.003);
#22=CIRCLE('',#1451,0.00344113867530602);
#23=CIRCLE('',#1454,0.00344113867530602);
#24=ORIENTED_EDGE('',*,*,#402,.F.);
#25=ORIENTED_EDGE('',*,*,#403,.T.);
#26=ORIENTED_EDGE('',*,*,#404,.T.);
#27=ORIENTED_EDGE('',*,*,#405,.F.);
#28=ORIENTED_EDGE('',*,*,#406,.F.);
#29=ORIENTED_EDGE('',*,*,#407,.T.);
#30=ORIENTED_EDGE('',*,*,#408,.F.);
#31=ORIENTED_EDGE('',*,*,#409,.T.);
#32=ORIENTED_EDGE('',*,*,#410,.T.);
#33=ORIENTED_EDGE('',*,*,#411,.T.);
#34=ORIENTED_EDGE('',*,*,#412,.F.);
#35=ORIENTED_EDGE('',*,*,#413,.F.);
#36=ORIENTED_EDGE('',*,*,#414,.T.);
#37=ORIENTED_EDGE('',*,*,#415,.T.);
#38=ORIENTED_EDGE('',*,*,#416,.T.);
#39=ORIENTED_EDGE('',*,*,#417,.F.);
#40=ORIENTED_EDGE('',*,*,#418,.F.);
#41=ORIENTED_EDGE('',*,*,#419,.T.);
#42=ORIENTED_EDGE('',*,*,#420,.T.);
#43=ORIENTED_EDGE('',*,*,#421,.F.);
#44=ORIENTED_EDGE('',*,*,#422,.F.);
#45=ORIENTED_EDGE('',*,*,#423,.F.);
#46=ORIENTED_EDGE('',*,*,#424,.T.);
#47=ORIENTED_EDGE('',*,*,#425,.T.);
#48=ORIENTED_EDGE('',*,*,#426,.F.);
#49=ORIENTED_EDGE('',*,*,#427,.F.);
#50=ORIENTED_EDGE('',*,*,#428,.T.);
#51=ORIENTED_EDGE('',*,*,#429,.T.);
#52=ORIENTED_EDGE('',*,*,#430,.F.);
#53=ORIENTED_EDGE('',*,*,#431,.F.);
#54=ORIENTED_EDGE('',*,*,#432,.T.);
#55=ORIENTED_EDGE('',*,*,#433,.T.);
#56=ORIENTED_EDGE('',*,*,#434,.T.);
#57=ORIENTED_EDGE('',*,*,#435,.F.);
#58=ORIENTED_EDGE('',*,*,#436,.F.);
#59=ORIENTED_EDGE('',*,*,#437,.F.);
#60=ORIENTED_EDGE('',*,*,#422,.T.);
#61=ORIENTED_EDGE('',*,*,#438,.F.);
#62=ORIENTED_EDGE('',*,*,#430,.T.);
#63=ORIENTED_EDGE('',*,*,#439,.T.);
#64=ORIENTED_EDGE('',*,*,#440,.F.);
#65=ORIENTED_EDGE('',*,*,#441,.F.);
#66=ORIENTED_EDGE('',*,*,#442,.T.);
#67=ORIENTED_EDGE('',*,*,#434,.F.);
#68=ORIENTED_EDGE('',*,*,#443,.T.);
#69=ORIENTED_EDGE('',*,*,#444,.T.);
#70=ORIENTED_EDGE('',*,*,#445,.F.);
#71=ORIENTED_EDGE('',*,*,#446,.F.);
#72=ORIENTED_EDGE('',*,*,#447,.F.);
#73=ORIENTED_EDGE('',*,*,#448,.F.);
#74=ORIENTED_EDGE('',*,*,#449,.F.);
#75=ORIENTED_EDGE('',*,*,#409,.F.);
#76=ORIENTED_EDGE('',*,*,#450,.F.);
#77=ORIENTED_EDGE('',*,*,#451,.T.);
#78=ORIENTED_EDGE('',*,*,#452,.T.);
#79=ORIENTED_EDGE('',*,*,#453,.T.);
#80=ORIENTED_EDGE('',*,*,#454,.T.);
#81=ORIENTED_EDGE('',*,*,#455,.T.);
#82=ORIENTED_EDGE('',*,*,#456,.T.);
#83=ORIENTED_EDGE('',*,*,#457,.T.);
#84=ORIENTED_EDGE('',*,*,#458,.T.);
#85=ORIENTED_EDGE('',*,*,#459,.F.);
#86=ORIENTED_EDGE('',*,*,#460,.T.);
#87=ORIENTED_EDGE('',*,*,#461,.F.);
#88=ORIENTED_EDGE('',*,*,#462,.T.);
#89=ORIENTED_EDGE('',*,*,#439,.F.);
#90=ORIENTED_EDGE('',*,*,#429,.F.);
#91=ORIENTED_EDGE('',*,*,#463,.F.);
#92=ORIENTED_EDGE('',*,*,#464,.F.);
#93=ORIENTED_EDGE('',*,*,#465,.T.);
#94=ORIENTED_EDGE('',*,*,#425,.F.);
#95=ORIENTED_EDGE('',*,*,#466,.T.);
#96=ORIENTED_EDGE('',*,*,#467,.F.);
#97=ORIENTED_EDGE('',*,*,#468,.F.);
#98=ORIENTED_EDGE('',*,*,#469,.T.);
#99=ORIENTED_EDGE('',*,*,#470,.F.);
#100=ORIENTED_EDGE('',*,*,#471,.F.);
#101=ORIENTED_EDGE('',*,*,#472,.T.);
#102=ORIENTED_EDGE('',*,*,#473,.F.);
#103=ORIENTED_EDGE('',*,*,#474,.T.);
#104=ORIENTED_EDGE('',*,*,#475,.F.);
#105=ORIENTED_EDGE('',*,*,#476,.F.);
#106=ORIENTED_EDGE('',*,*,#477,.T.);
#107=ORIENTED_EDGE('',*,*,#478,.F.);
#108=ORIENTED_EDGE('',*,*,#479,.F.);
#109=ORIENTED_EDGE('',*,*,#480,.F.);
#110=ORIENTED_EDGE('',*,*,#481,.T.);
#111=ORIENTED_EDGE('',*,*,#446,.T.);
#112=ORIENTED_EDGE('',*,*,#482,.F.);
#113=ORIENTED_EDGE('',*,*,#483,.T.);
#114=ORIENTED_EDGE('',*,*,#484,.F.);
#115=ORIENTED_EDGE('',*,*,#485,.F.);
#116=ORIENTED_EDGE('',*,*,#486,.T.);
#117=ORIENTED_EDGE('',*,*,#487,.T.);
#118=ORIENTED_EDGE('',*,*,#482,.T.);
#119=ORIENTED_EDGE('',*,*,#449,.T.);
#120=ORIENTED_EDGE('',*,*,#488,.F.);
#121=ORIENTED_EDGE('',*,*,#489,.F.);
#122=ORIENTED_EDGE('',*,*,#479,.T.);
#123=ORIENTED_EDGE('',*,*,#490,.F.);
#124=ORIENTED_EDGE('',*,*,#491,.T.);
#125=ORIENTED_EDGE('',*,*,#492,.T.);
#126=ORIENTED_EDGE('',*,*,#471,.T.);
#127=ORIENTED_EDGE('',*,*,#493,.F.);
#128=ORIENTED_EDGE('',*,*,#494,.T.);
#129=ORIENTED_EDGE('',*,*,#495,.F.);
#130=ORIENTED_EDGE('',*,*,#496,.F.);
#131=ORIENTED_EDGE('',*,*,#497,.T.);
#132=ORIENTED_EDGE('',*,*,#498,.F.);
#133=ORIENTED_EDGE('',*,*,#440,.T.);
#134=ORIENTED_EDGE('',*,*,#462,.F.);
#135=ORIENTED_EDGE('',*,*,#499,.F.);
#136=ORIENTED_EDGE('',*,*,#500,.T.);
#137=ORIENTED_EDGE('',*,*,#501,.F.);
#138=ORIENTED_EDGE('',*,*,#458,.F.);
#139=ORIENTED_EDGE('',*,*,#502,.T.);
#140=ORIENTED_EDGE('',*,*,#503,.T.);
#141=ORIENTED_EDGE('',*,*,#504,.T.);
#142=ORIENTED_EDGE('',*,*,#454,.F.);
#143=ORIENTED_EDGE('',*,*,#505,.F.);
#144=ORIENTED_EDGE('',*,*,#506,.F.);
#145=ORIENTED_EDGE('',*,*,#507,.F.);
#146=ORIENTED_EDGE('',*,*,#508,.T.);
#147=ORIENTED_EDGE('',*,*,#509,.F.);
#148=ORIENTED_EDGE('',*,*,#510,.T.);
#149=ORIENTED_EDGE('',*,*,#436,.T.);
#150=ORIENTED_EDGE('',*,*,#511,.T.);
#151=ORIENTED_EDGE('',*,*,#441,.T.);
#152=ORIENTED_EDGE('',*,*,#512,.T.);
#153=ORIENTED_EDGE('',*,*,#513,.T.);
#154=ORIENTED_EDGE('',*,*,#408,.T.);
#155=ORIENTED_EDGE('',*,*,#514,.T.);
#156=ORIENTED_EDGE('',*,*,#515,.F.);
#157=ORIENTED_EDGE('',*,*,#450,.T.);
#158=ORIENTED_EDGE('',*,*,#516,.T.);
#159=ORIENTED_EDGE('',*,*,#517,.T.);
#160=ORIENTED_EDGE('',*,*,#410,.F.);
#161=ORIENTED_EDGE('',*,*,#452,.F.);
#162=ORIENTED_EDGE('',*,*,#518,.F.);
#163=ORIENTED_EDGE('',*,*,#515,.T.);
#164=ORIENTED_EDGE('',*,*,#519,.T.);
#165=ORIENTED_EDGE('',*,*,#516,.F.);
#166=ORIENTED_EDGE('',*,*,#451,.F.);
#167=ORIENTED_EDGE('',*,*,#444,.F.);
#168=ORIENTED_EDGE('',*,*,#520,.T.);
#169=ORIENTED_EDGE('',*,*,#480,.T.);
#170=ORIENTED_EDGE('',*,*,#489,.T.);
#171=ORIENTED_EDGE('',*,*,#521,.T.);
#172=ORIENTED_EDGE('',*,*,#522,.T.);
#173=ORIENTED_EDGE('',*,*,#523,.T.);
#174=ORIENTED_EDGE('',*,*,#406,.T.);
#175=ORIENTED_EDGE('',*,*,#524,.T.);
#176=ORIENTED_EDGE('',*,*,#411,.F.);
#177=ORIENTED_EDGE('',*,*,#517,.F.);
#178=ORIENTED_EDGE('',*,*,#525,.F.);
#179=ORIENTED_EDGE('',*,*,#524,.F.);
#180=ORIENTED_EDGE('',*,*,#525,.T.);
#181=ORIENTED_EDGE('',*,*,#519,.F.);
#182=ORIENTED_EDGE('',*,*,#526,.F.);
#183=ORIENTED_EDGE('',*,*,#522,.F.);
#184=ORIENTED_EDGE('',*,*,#526,.T.);
#185=ORIENTED_EDGE('',*,*,#514,.F.);
#186=ORIENTED_EDGE('',*,*,#407,.F.);
#187=ORIENTED_EDGE('',*,*,#523,.F.);
#188=ORIENTED_EDGE('',*,*,#527,.T.);
#189=ORIENTED_EDGE('',*,*,#448,.T.);
#190=ORIENTED_EDGE('',*,*,#528,.F.);
#191=ORIENTED_EDGE('',*,*,#521,.F.);
#192=ORIENTED_EDGE('',*,*,#488,.T.);
#193=ORIENTED_EDGE('',*,*,#447,.T.);
#194=ORIENTED_EDGE('',*,*,#481,.F.);
#195=ORIENTED_EDGE('',*,*,#520,.F.);
#196=ORIENTED_EDGE('',*,*,#528,.T.);
#197=ORIENTED_EDGE('',*,*,#529,.F.);
#198=ORIENTED_EDGE('',*,*,#530,.F.);
#199=ORIENTED_EDGE('',*,*,#531,.F.);
#200=ORIENTED_EDGE('',*,*,#503,.F.);
#201=ORIENTED_EDGE('',*,*,#457,.F.);
#202=ORIENTED_EDGE('',*,*,#532,.F.);
#203=ORIENTED_EDGE('',*,*,#529,.T.);
#204=ORIENTED_EDGE('',*,*,#502,.F.);
#205=ORIENTED_EDGE('',*,*,#531,.T.);
#206=ORIENTED_EDGE('',*,*,#533,.T.);
#207=ORIENTED_EDGE('',*,*,#455,.F.);
#208=ORIENTED_EDGE('',*,*,#504,.F.);
#209=ORIENTED_EDGE('',*,*,#456,.F.);
#210=ORIENTED_EDGE('',*,*,#533,.F.);
#211=ORIENTED_EDGE('',*,*,#530,.T.);
#212=ORIENTED_EDGE('',*,*,#532,.T.);
#213=ORIENTED_EDGE('',*,*,#534,.T.);
#214=ORIENTED_EDGE('',*,*,#535,.F.);
#215=ORIENTED_EDGE('',*,*,#536,.T.);
#216=ORIENTED_EDGE('',*,*,#500,.F.);
#217=ORIENTED_EDGE('',*,*,#499,.T.);
#218=ORIENTED_EDGE('',*,*,#461,.T.);
#219=ORIENTED_EDGE('',*,*,#537,.F.);
#220=ORIENTED_EDGE('',*,*,#534,.F.);
#221=ORIENTED_EDGE('',*,*,#501,.T.);
#222=ORIENTED_EDGE('',*,*,#536,.F.);
#223=ORIENTED_EDGE('',*,*,#538,.T.);
#224=ORIENTED_EDGE('',*,*,#459,.T.);
#225=ORIENTED_EDGE('',*,*,#460,.F.);
#226=ORIENTED_EDGE('',*,*,#538,.F.);
#227=ORIENTED_EDGE('',*,*,#535,.T.);
#228=ORIENTED_EDGE('',*,*,#537,.T.);
#229=ORIENTED_EDGE('',*,*,#539,.F.);
#230=ORIENTED_EDGE('',*,*,#540,.T.);
#231=ORIENTED_EDGE('',*,*,#463,.T.);
#232=ORIENTED_EDGE('',*,*,#428,.F.);
#233=ORIENTED_EDGE('',*,*,#426,.T.);
#234=ORIENTED_EDGE('',*,*,#465,.F.);
#235=ORIENTED_EDGE('',*,*,#541,.F.);
#236=ORIENTED_EDGE('',*,*,#542,.T.);
#237=ORIENTED_EDGE('',*,*,#427,.T.);
#238=ORIENTED_EDGE('',*,*,#542,.F.);
#239=ORIENTED_EDGE('',*,*,#543,.T.);
#240=ORIENTED_EDGE('',*,*,#539,.T.);
#241=ORIENTED_EDGE('',*,*,#464,.T.);
#242=ORIENTED_EDGE('',*,*,#540,.F.);
#243=ORIENTED_EDGE('',*,*,#543,.F.);
#244=ORIENTED_EDGE('',*,*,#541,.T.);
#245=ORIENTED_EDGE('',*,*,#453,.F.);
#246=ORIENTED_EDGE('',*,*,#424,.F.);
#247=ORIENTED_EDGE('',*,*,#544,.T.);
#248=ORIENTED_EDGE('',*,*,#509,.T.);
#249=ORIENTED_EDGE('',*,*,#545,.F.);
#250=ORIENTED_EDGE('',*,*,#405,.T.);
#251=ORIENTED_EDGE('',*,*,#546,.T.);
#252=ORIENTED_EDGE('',*,*,#505,.T.);
#253=ORIENTED_EDGE('',*,*,#547,.T.);
#254=ORIENTED_EDGE('',*,*,#507,.T.);
#255=ORIENTED_EDGE('',*,*,#548,.F.);
#256=ORIENTED_EDGE('',*,*,#403,.F.);
#257=ORIENTED_EDGE('',*,*,#548,.T.);
#258=ORIENTED_EDGE('',*,*,#506,.T.);
#259=ORIENTED_EDGE('',*,*,#546,.F.);
#260=ORIENTED_EDGE('',*,*,#404,.F.);
#261=ORIENTED_EDGE('',*,*,#402,.T.);
#262=ORIENTED_EDGE('',*,*,#545,.T.);
#263=ORIENTED_EDGE('',*,*,#508,.F.);
#264=ORIENTED_EDGE('',*,*,#547,.F.);
#265=ORIENTED_EDGE('',*,*,#423,.T.);
#266=ORIENTED_EDGE('',*,*,#437,.T.);
#267=ORIENTED_EDGE('',*,*,#510,.F.);
#268=ORIENTED_EDGE('',*,*,#544,.F.);
#269=ORIENTED_EDGE('',*,*,#445,.T.);
#270=ORIENTED_EDGE('',*,*,#549,.F.);
#271=ORIENTED_EDGE('',*,*,#431,.T.);
#272=ORIENTED_EDGE('',*,*,#438,.T.);
#273=ORIENTED_EDGE('',*,*,#498,.T.);
#274=ORIENTED_EDGE('',*,*,#432,.F.);
#275=ORIENTED_EDGE('',*,*,#549,.T.);
#276=ORIENTED_EDGE('',*,*,#513,.F.);
#277=ORIENTED_EDGE('',*,*,#550,.F.);
#278=ORIENTED_EDGE('',*,*,#433,.F.);
#279=ORIENTED_EDGE('',*,*,#550,.T.);
#280=ORIENTED_EDGE('',*,*,#512,.F.);
#281=ORIENTED_EDGE('',*,*,#443,.F.);
#282=ORIENTED_EDGE('',*,*,#442,.F.);
#283=ORIENTED_EDGE('',*,*,#511,.F.);
#284=ORIENTED_EDGE('',*,*,#435,.T.);
#285=ORIENTED_EDGE('',*,*,#421,.T.);
#286=ORIENTED_EDGE('',*,*,#518,.T.);
#287=ORIENTED_EDGE('',*,*,#420,.F.);
#288=ORIENTED_EDGE('',*,*,#551,.T.);
#289=ORIENTED_EDGE('',*,*,#552,.T.);
#290=ORIENTED_EDGE('',*,*,#553,.F.);
#291=ORIENTED_EDGE('',*,*,#554,.F.);
#292=ORIENTED_EDGE('',*,*,#553,.T.);
#293=ORIENTED_EDGE('',*,*,#555,.T.);
#294=ORIENTED_EDGE('',*,*,#556,.F.);
#295=ORIENTED_EDGE('',*,*,#557,.F.);
#296=ORIENTED_EDGE('',*,*,#558,.F.);
#297=ORIENTED_EDGE('',*,*,#559,.F.);
#298=ORIENTED_EDGE('',*,*,#560,.T.);
#299=ORIENTED_EDGE('',*,*,#556,.T.);
#300=ORIENTED_EDGE('',*,*,#494,.F.);
#301=ORIENTED_EDGE('',*,*,#561,.F.);
#302=ORIENTED_EDGE('',*,*,#562,.T.);
#303=ORIENTED_EDGE('',*,*,#563,.T.);
#304=ORIENTED_EDGE('',*,*,#497,.F.);
#305=ORIENTED_EDGE('',*,*,#564,.F.);
#306=ORIENTED_EDGE('',*,*,#565,.T.);
#307=ORIENTED_EDGE('',*,*,#561,.T.);
#308=ORIENTED_EDGE('',*,*,#566,.T.);
#309=ORIENTED_EDGE('',*,*,#496,.T.);
#310=ORIENTED_EDGE('',*,*,#567,.F.);
#311=ORIENTED_EDGE('',*,*,#568,.F.);
#312=ORIENTED_EDGE('',*,*,#564,.T.);
#313=ORIENTED_EDGE('',*,*,#495,.T.);
#314=ORIENTED_EDGE('',*,*,#563,.F.);
#315=ORIENTED_EDGE('',*,*,#569,.F.);
#316=ORIENTED_EDGE('',*,*,#567,.T.);
#317=ORIENTED_EDGE('',*,*,#570,.F.);
#318=ORIENTED_EDGE('',*,*,#571,.F.);
#319=ORIENTED_EDGE('',*,*,#551,.F.);
#320=ORIENTED_EDGE('',*,*,#572,.T.);
#321=ORIENTED_EDGE('',*,*,#559,.T.);
#322=ORIENTED_EDGE('',*,*,#562,.F.);
#323=ORIENTED_EDGE('',*,*,#565,.F.);
#324=ORIENTED_EDGE('',*,*,#568,.T.);
#325=ORIENTED_EDGE('',*,*,#569,.T.);
#326=ORIENTED_EDGE('',*,*,#554,.T.);
#327=ORIENTED_EDGE('',*,*,#557,.T.);
#328=ORIENTED_EDGE('',*,*,#560,.F.);
#329=ORIENTED_EDGE('',*,*,#572,.F.);
#330=ORIENTED_EDGE('',*,*,#555,.F.);
#331=ORIENTED_EDGE('',*,*,#552,.F.);
#332=ORIENTED_EDGE('',*,*,#571,.T.);
#333=ORIENTED_EDGE('',*,*,#558,.T.);
#334=ORIENTED_EDGE('',*,*,#570,.T.);
#335=ORIENTED_EDGE('',*,*,#566,.F.);
#336=ORIENTED_EDGE('',*,*,#415,.F.);
#337=ORIENTED_EDGE('',*,*,#573,.F.);
#338=ORIENTED_EDGE('',*,*,#475,.T.);
#339=ORIENTED_EDGE('',*,*,#574,.T.);
#340=ORIENTED_EDGE('',*,*,#472,.F.);
#341=ORIENTED_EDGE('',*,*,#492,.F.);
#342=ORIENTED_EDGE('',*,*,#575,.F.);
#343=ORIENTED_EDGE('',*,*,#576,.T.);
#344=ORIENTED_EDGE('',*,*,#490,.T.);
#345=ORIENTED_EDGE('',*,*,#478,.T.);
#346=ORIENTED_EDGE('',*,*,#577,.F.);
#347=ORIENTED_EDGE('',*,*,#578,.T.);
#348=ORIENTED_EDGE('',*,*,#575,.T.);
#349=ORIENTED_EDGE('',*,*,#491,.F.);
#350=ORIENTED_EDGE('',*,*,#578,.F.);
#351=ORIENTED_EDGE('',*,*,#579,.F.);
#352=ORIENTED_EDGE('',*,*,#413,.T.);
#353=ORIENTED_EDGE('',*,*,#580,.F.);
#354=ORIENTED_EDGE('',*,*,#473,.T.);
#355=ORIENTED_EDGE('',*,*,#576,.F.);
#356=ORIENTED_EDGE('',*,*,#579,.T.);
#357=ORIENTED_EDGE('',*,*,#577,.T.);
#358=ORIENTED_EDGE('',*,*,#477,.F.);
#359=ORIENTED_EDGE('',*,*,#581,.T.);
#360=ORIENTED_EDGE('',*,*,#581,.F.);
#361=ORIENTED_EDGE('',*,*,#476,.T.);
#362=ORIENTED_EDGE('',*,*,#573,.T.);
#363=ORIENTED_EDGE('',*,*,#414,.F.);
#364=ORIENTED_EDGE('',*,*,#412,.T.);
#365=ORIENTED_EDGE('',*,*,#574,.F.);
#366=ORIENTED_EDGE('',*,*,#474,.F.);
#367=ORIENTED_EDGE('',*,*,#580,.T.);
#368=ORIENTED_EDGE('',*,*,#483,.F.);
#369=ORIENTED_EDGE('',*,*,#487,.F.);
#370=ORIENTED_EDGE('',*,*,#582,.F.);
#371=ORIENTED_EDGE('',*,*,#583,.T.);
#372=ORIENTED_EDGE('',*,*,#485,.T.);
#373=ORIENTED_EDGE('',*,*,#470,.T.);
#374=ORIENTED_EDGE('',*,*,#584,.F.);
#375=ORIENTED_EDGE('',*,*,#585,.T.);
#376=ORIENTED_EDGE('',*,*,#582,.T.);
#377=ORIENTED_EDGE('',*,*,#486,.F.);
#378=ORIENTED_EDGE('',*,*,#585,.F.);
#379=ORIENTED_EDGE('',*,*,#586,.F.);
#380=ORIENTED_EDGE('',*,*,#418,.T.);
#381=ORIENTED_EDGE('',*,*,#587,.F.);
#382=ORIENTED_EDGE('',*,*,#484,.T.);
#383=ORIENTED_EDGE('',*,*,#583,.F.);
#384=ORIENTED_EDGE('',*,*,#586,.T.);
#385=ORIENTED_EDGE('',*,*,#584,.T.);
#386=ORIENTED_EDGE('',*,*,#469,.F.);
#387=ORIENTED_EDGE('',*,*,#588,.T.);
#388=ORIENTED_EDGE('',*,*,#416,.F.);
#389=ORIENTED_EDGE('',*,*,#589,.F.);
#390=ORIENTED_EDGE('',*,*,#467,.T.);
#391=ORIENTED_EDGE('',*,*,#590,.T.);
#392=ORIENTED_EDGE('',*,*,#588,.F.);
#393=ORIENTED_EDGE('',*,*,#468,.T.);
#394=ORIENTED_EDGE('',*,*,#589,.T.);
#395=ORIENTED_EDGE('',*,*,#419,.F.);
#396=ORIENTED_EDGE('',*,*,#417,.T.);
#397=ORIENTED_EDGE('',*,*,#590,.F.);
#398=ORIENTED_EDGE('',*,*,#466,.F.);
#399=ORIENTED_EDGE('',*,*,#587,.T.);
#400=ORIENTED_EDGE('',*,*,#493,.T.);
#401=ORIENTED_EDGE('',*,*,#527,.F.);
#402=EDGE_CURVE('',#591,#592,#719,.T.);
#403=EDGE_CURVE('',#591,#593,#720,.T.);
#404=EDGE_CURVE('',#593,#594,#721,.T.);
#405=EDGE_CURVE('',#592,#594,#722,.T.);
#406=EDGE_CURVE('',#595,#596,#723,.T.);
#407=EDGE_CURVE('',#595,#597,#724,.F.);
#408=EDGE_CURVE('',#598,#597,#725,.T.);
#409=EDGE_CURVE('',#598,#599,#726,.T.);
#410=EDGE_CURVE('',#599,#600,#727,.T.);
#411=EDGE_CURVE('',#600,#596,#728,.T.);
#412=EDGE_CURVE('',#601,#602,#729,.T.);
#413=EDGE_CURVE('',#603,#601,#730,.T.);
#414=EDGE_CURVE('',#603,#604,#731,.T.);
#415=EDGE_CURVE('',#604,#602,#732,.T.);
#416=EDGE_CURVE('',#605,#606,#733,.T.);
#417=EDGE_CURVE('',#607,#606,#734,.T.);
#418=EDGE_CURVE('',#608,#607,#735,.T.);
#419=EDGE_CURVE('',#608,#605,#736,.T.);
#420=EDGE_CURVE('',#609,#609,#16,.T.);
#421=EDGE_CURVE('',#610,#611,#737,.T.);
#422=EDGE_CURVE('',#612,#610,#738,.T.);
#423=EDGE_CURVE('',#613,#612,#739,.T.);
#424=EDGE_CURVE('',#613,#614,#740,.T.);
#425=EDGE_CURVE('',#614,#615,#741,.T.);
#426=EDGE_CURVE('',#616,#615,#742,.T.);
#427=EDGE_CURVE('',#617,#616,#743,.T.);
#428=EDGE_CURVE('',#617,#618,#744,.T.);
#429=EDGE_CURVE('',#618,#619,#745,.T.);
#430=EDGE_CURVE('',#620,#619,#746,.T.);
#431=EDGE_CURVE('',#621,#620,#747,.T.);
#432=EDGE_CURVE('',#621,#622,#748,.T.);
#433=EDGE_CURVE('',#622,#623,#749,.T.);
#434=EDGE_CURVE('',#623,#611,#750,.T.);
#435=EDGE_CURVE('',#624,#610,#751,.T.);
#436=EDGE_CURVE('',#625,#624,#752,.T.);
#437=EDGE_CURVE('',#612,#625,#753,.T.);
#438=EDGE_CURVE('',#620,#626,#754,.T.);
#439=EDGE_CURVE('',#619,#627,#755,.T.);
#440=EDGE_CURVE('',#626,#627,#756,.T.);
#441=EDGE_CURVE('',#628,#629,#757,.T.);
#442=EDGE_CURVE('',#628,#611,#758,.T.);
#443=EDGE_CURVE('',#623,#629,#759,.T.);
#444=EDGE_CURVE('',#630,#630,#17,.T.);
#445=EDGE_CURVE('',#631,#631,#18,.F.);
#446=EDGE_CURVE('',#632,#633,#760,.T.);
#447=EDGE_CURVE('',#634,#632,#761,.T.);
#448=EDGE_CURVE('',#635,#634,#762,.T.);
#449=EDGE_CURVE('',#633,#635,#763,.T.);
#450=EDGE_CURVE('',#636,#598,#764,.T.);
#451=EDGE_CURVE('',#636,#637,#765,.T.);
#452=EDGE_CURVE('',#637,#599,#766,.T.);
#453=EDGE_CURVE('',#614,#638,#767,.T.);
#454=EDGE_CURVE('',#638,#639,#768,.T.);
#455=EDGE_CURVE('',#639,#640,#769,.T.);
#456=EDGE_CURVE('',#640,#641,#770,.T.);
#457=EDGE_CURVE('',#641,#642,#771,.T.);
#458=EDGE_CURVE('',#642,#643,#772,.T.);
#459=EDGE_CURVE('',#644,#643,#773,.T.);
#460=EDGE_CURVE('',#644,#645,#774,.T.);
#461=EDGE_CURVE('',#646,#645,#775,.T.);
#462=EDGE_CURVE('',#646,#627,#776,.T.);
#463=EDGE_CURVE('',#647,#618,#777,.T.);
#464=EDGE_CURVE('',#648,#647,#778,.T.);
#465=EDGE_CURVE('',#648,#615,#779,.T.);
#466=EDGE_CURVE('',#649,#650,#780,.T.);
#467=EDGE_CURVE('',#651,#650,#781,.T.);
#468=EDGE_CURVE('',#652,#651,#782,.T.);
#469=EDGE_CURVE('',#652,#653,#783,.T.);
#470=EDGE_CURVE('',#654,#653,#784,.T.);
#471=EDGE_CURVE('',#655,#654,#785,.T.);
#472=EDGE_CURVE('',#655,#656,#786,.T.);
#473=EDGE_CURVE('',#657,#656,#787,.T.);
#474=EDGE_CURVE('',#657,#658,#788,.T.);
#475=EDGE_CURVE('',#659,#658,#789,.T.);
#476=EDGE_CURVE('',#660,#659,#790,.T.);
#477=EDGE_CURVE('',#660,#661,#791,.T.);
#478=EDGE_CURVE('',#662,#661,#792,.T.);
#479=EDGE_CURVE('',#663,#662,#793,.T.);
#480=EDGE_CURVE('',#664,#663,#794,.T.);
#481=EDGE_CURVE('',#664,#632,#795,.T.);
#482=EDGE_CURVE('',#665,#633,#796,.T.);
#483=EDGE_CURVE('',#665,#666,#797,.T.);
#484=EDGE_CURVE('',#649,#666,#798,.T.);
#485=EDGE_CURVE('',#667,#654,#799,.T.);
#486=EDGE_CURVE('',#667,#668,#800,.T.);
#487=EDGE_CURVE('',#668,#665,#801,.T.);
#488=EDGE_CURVE('',#669,#635,#802,.T.);
#489=EDGE_CURVE('',#663,#669,#803,.T.);
#490=EDGE_CURVE('',#670,#662,#804,.T.);
#491=EDGE_CURVE('',#670,#671,#805,.T.);
#492=EDGE_CURVE('',#671,#655,#806,.T.);
#493=EDGE_CURVE('',#672,#672,#19,.T.);
#494=EDGE_CURVE('',#673,#674,#807,.T.);
#495=EDGE_CURVE('',#675,#674,#808,.T.);
#496=EDGE_CURVE('',#676,#675,#809,.T.);
#497=EDGE_CURVE('',#676,#673,#810,.T.);
#498=EDGE_CURVE('',#626,#677,#811,.T.);
#499=EDGE_CURVE('',#678,#646,#812,.T.);
#500=EDGE_CURVE('',#678,#679,#813,.T.);
#501=EDGE_CURVE('',#643,#679,#814,.T.);
#502=EDGE_CURVE('',#642,#680,#815,.T.);
#503=EDGE_CURVE('',#680,#681,#816,.T.);
#504=EDGE_CURVE('',#681,#639,#817,.T.);
#505=EDGE_CURVE('',#682,#638,#818,.T.);
#506=EDGE_CURVE('',#683,#682,#819,.T.);
#507=EDGE_CURVE('',#684,#683,#820,.T.);
#508=EDGE_CURVE('',#684,#685,#821,.T.);
#509=EDGE_CURVE('',#686,#685,#822,.T.);
#510=EDGE_CURVE('',#686,#625,#823,.T.);
#511=EDGE_CURVE('',#624,#628,#824,.T.);
#512=EDGE_CURVE('',#629,#687,#825,.T.);
#513=EDGE_CURVE('',#687,#677,#826,.T.);
#514=EDGE_CURVE('',#597,#688,#827,.T.);
#515=EDGE_CURVE('',#636,#688,#828,.T.);
#516=EDGE_CURVE('',#637,#689,#829,.T.);
#517=EDGE_CURVE('',#689,#600,#830,.T.);
#518=EDGE_CURVE('',#690,#690,#20,.T.);
#519=EDGE_CURVE('',#688,#689,#831,.T.);
#520=EDGE_CURVE('',#691,#664,#832,.T.);
#521=EDGE_CURVE('',#669,#691,#833,.T.);
#522=EDGE_CURVE('',#692,#693,#834,.T.);
#523=EDGE_CURVE('',#693,#595,#835,.T.);
#524=EDGE_CURVE('',#596,#692,#836,.T.);
#525=EDGE_CURVE('',#692,#689,#837,.F.);
#526=EDGE_CURVE('',#693,#688,#838,.T.);
#527=EDGE_CURVE('',#694,#694,#21,.T.);
#528=EDGE_CURVE('',#691,#634,#839,.T.);
#529=EDGE_CURVE('',#695,#680,#840,.T.);
#530=EDGE_CURVE('',#696,#695,#841,.T.);
#531=EDGE_CURVE('',#681,#696,#842,.T.);
#532=EDGE_CURVE('',#695,#641,#843,.T.);
#533=EDGE_CURVE('',#696,#640,#844,.T.);
#534=EDGE_CURVE('',#678,#697,#845,.T.);
#535=EDGE_CURVE('',#698,#697,#846,.T.);
#536=EDGE_CURVE('',#698,#679,#847,.T.);
#537=EDGE_CURVE('',#697,#645,#848,.T.);
#538=EDGE_CURVE('',#698,#644,#849,.T.);
#539=EDGE_CURVE('',#699,#617,#850,.T.);
#540=EDGE_CURVE('',#699,#647,#851,.T.);
#541=EDGE_CURVE('',#700,#648,#852,.T.);
#542=EDGE_CURVE('',#700,#616,#853,.T.);
#543=EDGE_CURVE('',#700,#699,#854,.T.);
#544=EDGE_CURVE('',#613,#686,#855,.T.);
#545=EDGE_CURVE('',#592,#685,#856,.T.);
#546=EDGE_CURVE('',#594,#682,#857,.T.);
#547=EDGE_CURVE('',#591,#684,#858,.T.);
#548=EDGE_CURVE('',#593,#683,#859,.T.);
#549=EDGE_CURVE('',#621,#677,#860,.T.);
#550=EDGE_CURVE('',#622,#687,#861,.T.);
#551=EDGE_CURVE('',#701,#702,#862,.T.);
#552=EDGE_CURVE('',#702,#703,#863,.T.);
#553=EDGE_CURVE('',#704,#703,#864,.T.);
#554=EDGE_CURVE('',#701,#704,#865,.T.);
#555=EDGE_CURVE('',#703,#705,#866,.T.);
#556=EDGE_CURVE('',#706,#705,#867,.T.);
#557=EDGE_CURVE('',#704,#706,#868,.T.);
#558=EDGE_CURVE('',#707,#705,#869,.T.);
#559=EDGE_CURVE('',#708,#707,#870,.T.);
#560=EDGE_CURVE('',#708,#706,#871,.T.);
#561=EDGE_CURVE('',#709,#673,#872,.T.);
#562=EDGE_CURVE('',#709,#710,#873,.T.);
#563=EDGE_CURVE('',#710,#674,#874,.T.);
#564=EDGE_CURVE('',#711,#676,#875,.T.);
#565=EDGE_CURVE('',#711,#709,#876,.T.);
#566=EDGE_CURVE('',#712,#712,#22,.T.);
#567=EDGE_CURVE('',#713,#675,#877,.T.);
#568=EDGE_CURVE('',#711,#713,#878,.T.);
#569=EDGE_CURVE('',#713,#710,#879,.T.);
#570=EDGE_CURVE('',#714,#714,#23,.T.);
#571=EDGE_CURVE('',#702,#707,#880,.T.);
#572=EDGE_CURVE('',#701,#708,#881,.T.);
#573=EDGE_CURVE('',#659,#604,#882,.T.);
#574=EDGE_CURVE('',#658,#602,#883,.T.);
#575=EDGE_CURVE('',#715,#671,#884,.T.);
#576=EDGE_CURVE('',#715,#656,#885,.T.);
#577=EDGE_CURVE('',#716,#661,#886,.T.);
#578=EDGE_CURVE('',#716,#670,#887,.T.);
#579=EDGE_CURVE('',#715,#716,#888,.T.);
#580=EDGE_CURVE('',#657,#601,#889,.T.);
#581=EDGE_CURVE('',#660,#603,#890,.T.);
#582=EDGE_CURVE('',#717,#668,#891,.T.);
#583=EDGE_CURVE('',#717,#666,#892,.T.);
#584=EDGE_CURVE('',#718,#653,#893,.T.);
#585=EDGE_CURVE('',#718,#667,#894,.T.);
#586=EDGE_CURVE('',#717,#718,#895,.T.);
#587=EDGE_CURVE('',#649,#607,#896,.T.);
#588=EDGE_CURVE('',#652,#608,#897,.T.);
#589=EDGE_CURVE('',#651,#605,#898,.T.);
#590=EDGE_CURVE('',#650,#606,#899,.T.);
#591=VERTEX_POINT('',#1809);
#592=VERTEX_POINT('',#1810);
#593=VERTEX_POINT('',#1812);
#594=VERTEX_POINT('',#1814);
#595=VERTEX_POINT('',#1817);
#596=VERTEX_POINT('',#1818);
#597=VERTEX_POINT('',#1820);
#598=VERTEX_POINT('',#1822);
#599=VERTEX_POINT('',#1824);
#600=VERTEX_POINT('',#1826);
#601=VERTEX_POINT('',#1829);
#602=VERTEX_POINT('',#1830);
#603=VERTEX_POINT('',#1832);
#604=VERTEX_POINT('',#1834);
#605=VERTEX_POINT('',#1837);
#606=VERTEX_POINT('',#1838);
#607=VERTEX_POINT('',#1840);
#608=VERTEX_POINT('',#1842);
#609=VERTEX_POINT('',#1846);
#610=VERTEX_POINT('',#1848);
#611=VERTEX_POINT('',#1849);
#612=VERTEX_POINT('',#1851);
#613=VERTEX_POINT('',#1853);
#614=VERTEX_POINT('',#1855);
#615=VERTEX_POINT('',#1857);
#616=VERTEX_POINT('',#1859);
#617=VERTEX_POINT('',#1861);
#618=VERTEX_POINT('',#1863);
#619=VERTEX_POINT('',#1865);
#620=VERTEX_POINT('',#1867);
#621=VERTEX_POINT('',#1869);
#622=VERTEX_POINT('',#1871);
#623=VERTEX_POINT('',#1873);
#624=VERTEX_POINT('',#1877);
#625=VERTEX_POINT('',#1879);
#626=VERTEX_POINT('',#1883);
#627=VERTEX_POINT('',#1885);
#628=VERTEX_POINT('',#1889);
#629=VERTEX_POINT('',#1890);
#630=VERTEX_POINT('',#1895);
#631=VERTEX_POINT('',#1897);
#632=VERTEX_POINT('',#1900);
#633=VERTEX_POINT('',#1901);
#634=VERTEX_POINT('',#1903);
#635=VERTEX_POINT('',#1905);
#636=VERTEX_POINT('',#1908);
#637=VERTEX_POINT('',#1910);
#638=VERTEX_POINT('',#1913);
#639=VERTEX_POINT('',#1915);
#640=VERTEX_POINT('',#1917);
#641=VERTEX_POINT('',#1919);
#642=VERTEX_POINT('',#1921);
#643=VERTEX_POINT('',#1923);
#644=VERTEX_POINT('',#1925);
#645=VERTEX_POINT('',#1927);
#646=VERTEX_POINT('',#1929);
#647=VERTEX_POINT('',#1932);
#648=VERTEX_POINT('',#1934);
#649=VERTEX_POINT('',#1938);
#650=VERTEX_POINT('',#1939);
#651=VERTEX_POINT('',#1941);
#652=VERTEX_POINT('',#1943);
#653=VERTEX_POINT('',#1945);
#654=VERTEX_POINT('',#1947);
#655=VERTEX_POINT('',#1949);
#656=VERTEX_POINT('',#1951);
#657=VERTEX_POINT('',#1953);
#658=VERTEX_POINT('',#1955);
#659=VERTEX_POINT('',#1957);
#660=VERTEX_POINT('',#1959);
#661=VERTEX_POINT('',#1961);
#662=VERTEX_POINT('',#1963);
#663=VERTEX_POINT('',#1965);
#664=VERTEX_POINT('',#1967);
#665=VERTEX_POINT('',#1970);
#666=VERTEX_POINT('',#1972);
#667=VERTEX_POINT('',#1976);
#668=VERTEX_POINT('',#1978);
#669=VERTEX_POINT('',#1981);
#670=VERTEX_POINT('',#1984);
#671=VERTEX_POINT('',#1986);
#672=VERTEX_POINT('',#1990);
#673=VERTEX_POINT('',#1992);
#674=VERTEX_POINT('',#1993);
#675=VERTEX_POINT('',#1995);
#676=VERTEX_POINT('',#1997);
#677=VERTEX_POINT('',#2000);
#678=VERTEX_POINT('',#2002);
#679=VERTEX_POINT('',#2004);
#680=VERTEX_POINT('',#2007);
#681=VERTEX_POINT('',#2009);
#682=VERTEX_POINT('',#2012);
#683=VERTEX_POINT('',#2014);
#684=VERTEX_POINT('',#2016);
#685=VERTEX_POINT('',#2018);
#686=VERTEX_POINT('',#2020);
#687=VERTEX_POINT('',#2024);
#688=VERTEX_POINT('',#2028);
#689=VERTEX_POINT('',#2032);
#690=VERTEX_POINT('',#2036);
#691=VERTEX_POINT('',#2040);
#692=VERTEX_POINT('',#2043);
#693=VERTEX_POINT('',#2044);
#694=VERTEX_POINT('',#2054);
#695=VERTEX_POINT('',#2059);
#696=VERTEX_POINT('',#2061);
#697=VERTEX_POINT('',#2070);
#698=VERTEX_POINT('',#2072);
#699=VERTEX_POINT('',#2081);
#700=VERTEX_POINT('',#2085);
#701=VERTEX_POINT('',#2109);
#702=VERTEX_POINT('',#2110);
#703=VERTEX_POINT('',#2112);
#704=VERTEX_POINT('',#2114);
#705=VERTEX_POINT('',#2118);
#706=VERTEX_POINT('',#2120);
#707=VERTEX_POINT('',#2124);
#708=VERTEX_POINT('',#2126);
#709=VERTEX_POINT('',#2130);
#710=VERTEX_POINT('',#2132);
#711=VERTEX_POINT('',#2136);
#712=VERTEX_POINT('',#2140);
#713=VERTEX_POINT('',#2142);
#714=VERTEX_POINT('',#2148);
#715=VERTEX_POINT('',#2159);
#716=VERTEX_POINT('',#2163);
#717=VERTEX_POINT('',#2174);
#718=VERTEX_POINT('',#2178);
#719=LINE('',#1808,#900);
#720=LINE('',#1811,#901);
#721=LINE('',#1813,#902);
#722=LINE('',#1815,#903);
#723=LINE('',#1816,#904);
#724=LINE('',#1819,#905);
#725=LINE('',#1821,#906);
#726=LINE('',#1823,#907);
#727=LINE('',#1825,#908);
#728=LINE('',#1827,#909);
#729=LINE('',#1828,#910);
#730=LINE('',#1831,#911);
#731=LINE('',#1833,#912);
#732=LINE('',#1835,#913);
#733=LINE('',#1836,#914);
#734=LINE('',#1839,#915);
#735=LINE('',#1841,#916);
#736=LINE('',#1843,#917);
#737=LINE('',#1847,#918);
#738=LINE('',#1850,#919);
#739=LINE('',#1852,#920);
#740=LINE('',#1854,#921);
#741=LINE('',#1856,#922);
#742=LINE('',#1858,#923);
#743=LINE('',#1860,#924);
#744=LINE('',#1862,#925);
#745=LINE('',#1864,#926);
#746=LINE('',#1866,#927);
#747=LINE('',#1868,#928);
#748=LINE('',#1870,#929);
#749=LINE('',#1872,#930);
#750=LINE('',#1874,#931);
#751=LINE('',#1876,#932);
#752=LINE('',#1878,#933);
#753=LINE('',#1880,#934);
#754=LINE('',#1882,#935);
#755=LINE('',#1884,#936);
#756=LINE('',#1886,#937);
#757=LINE('',#1888,#938);
#758=LINE('',#1891,#939);
#759=LINE('',#1892,#940);
#760=LINE('',#1899,#941);
#761=LINE('',#1902,#942);
#762=LINE('',#1904,#943);
#763=LINE('',#1906,#944);
#764=LINE('',#1907,#945);
#765=LINE('',#1909,#946);
#766=LINE('',#1911,#947);
#767=LINE('',#1912,#948);
#768=LINE('',#1914,#949);
#769=LINE('',#1916,#950);
#770=LINE('',#1918,#951);
#771=LINE('',#1920,#952);
#772=LINE('',#1922,#953);
#773=LINE('',#1924,#954);
#774=LINE('',#1926,#955);
#775=LINE('',#1928,#956);
#776=LINE('',#1930,#957);
#777=LINE('',#1931,#958);
#778=LINE('',#1933,#959);
#779=LINE('',#1935,#960);
#780=LINE('',#1937,#961);
#781=LINE('',#1940,#962);
#782=LINE('',#1942,#963);
#783=LINE('',#1944,#964);
#784=LINE('',#1946,#965);
#785=LINE('',#1948,#966);
#786=LINE('',#1950,#967);
#787=LINE('',#1952,#968);
#788=LINE('',#1954,#969);
#789=LINE('',#1956,#970);
#790=LINE('',#1958,#971);
#791=LINE('',#1960,#972);
#792=LINE('',#1962,#973);
#793=LINE('',#1964,#974);
#794=LINE('',#1966,#975);
#795=LINE('',#1968,#976);
#796=LINE('',#1969,#977);
#797=LINE('',#1971,#978);
#798=LINE('',#1973,#979);
#799=LINE('',#1975,#980);
#800=LINE('',#1977,#981);
#801=LINE('',#1979,#982);
#802=LINE('',#1980,#983);
#803=LINE('',#1982,#984);
#804=LINE('',#1983,#985);
#805=LINE('',#1985,#986);
#806=LINE('',#1987,#987);
#807=LINE('',#1991,#988);
#808=LINE('',#1994,#989);
#809=LINE('',#1996,#990);
#810=LINE('',#1998,#991);
#811=LINE('',#1999,#992);
#812=LINE('',#2001,#993);
#813=LINE('',#2003,#994);
#814=LINE('',#2005,#995);
#815=LINE('',#2006,#996);
#816=LINE('',#2008,#997);
#817=LINE('',#2010,#998);
#818=LINE('',#2011,#999);
#819=LINE('',#2013,#1000);
#820=LINE('',#2015,#1001);
#821=LINE('',#2017,#1002);
#822=LINE('',#2019,#1003);
#823=LINE('',#2021,#1004);
#824=LINE('',#2022,#1005);
#825=LINE('',#2023,#1006);
#826=LINE('',#2025,#1007);
#827=LINE('',#2027,#1008);
#828=LINE('',#2029,#1009);
#829=LINE('',#2031,#1010);
#830=LINE('',#2033,#1011);
#831=LINE('',#2037,#1012);
#832=LINE('',#2039,#1013);
#833=LINE('',#2041,#1014);
#834=LINE('',#2042,#1015);
#835=LINE('',#2045,#1016);
#836=LINE('',#2046,#1017);
#837=LINE('',#2048,#1018);
#838=LINE('',#2050,#1019);
#839=LINE('',#2055,#1020);
#840=LINE('',#2058,#1021);
#841=LINE('',#2060,#1022);
#842=LINE('',#2062,#1023);
#843=LINE('',#2064,#1024);
#844=LINE('',#2066,#1025);
#845=LINE('',#2069,#1026);
#846=LINE('',#2071,#1027);
#847=LINE('',#2073,#1028);
#848=LINE('',#2075,#1029);
#849=LINE('',#2077,#1030);
#850=LINE('',#2080,#1031);
#851=LINE('',#2082,#1032);
#852=LINE('',#2084,#1033);
#853=LINE('',#2086,#1034);
#854=LINE('',#2088,#1035);
#855=LINE('',#2091,#1036);
#856=LINE('',#2092,#1037);
#857=LINE('',#2093,#1038);
#858=LINE('',#2095,#1039);
#859=LINE('',#2096,#1040);
#860=LINE('',#2101,#1041);
#861=LINE('',#2103,#1042);
#862=LINE('',#2108,#1043);
#863=LINE('',#2111,#1044);
#864=LINE('',#2113,#1045);
#865=LINE('',#2115,#1046);
#866=LINE('',#2117,#1047);
#867=LINE('',#2119,#1048);
#868=LINE('',#2121,#1049);
#869=LINE('',#2123,#1050);
#870=LINE('',#2125,#1051);
#871=LINE('',#2127,#1052);
#872=LINE('',#2129,#1053);
#873=LINE('',#2131,#1054);
#874=LINE('',#2133,#1055);
#875=LINE('',#2135,#1056);
#876=LINE('',#2137,#1057);
#877=LINE('',#2141,#1058);
#878=LINE('',#2143,#1059);
#879=LINE('',#2145,#1060);
#880=LINE('',#2149,#1061);
#881=LINE('',#2150,#1062);
#882=LINE('',#2155,#1063);
#883=LINE('',#2156,#1064);
#884=LINE('',#2158,#1065);
#885=LINE('',#2160,#1066);
#886=LINE('',#2162,#1067);
#887=LINE('',#2164,#1068);
#888=LINE('',#2166,#1069);
#889=LINE('',#2168,#1070);
#890=LINE('',#2169,#1071);
#891=LINE('',#2173,#1072);
#892=LINE('',#2175,#1073);
#893=LINE('',#2177,#1074);
#894=LINE('',#2179,#1075);
#895=LINE('',#2181,#1076);
#896=LINE('',#2183,#1077);
#897=LINE('',#2184,#1078);
#898=LINE('',#2186,#1079);
#899=LINE('',#2187,#1080);
#900=VECTOR('',#1477,1.);
#901=VECTOR('',#1478,1.);
#902=VECTOR('',#1479,1.);
#903=VECTOR('',#1480,1.);
#904=VECTOR('',#1481,1.);
#905=VECTOR('',#1482,1.);
#906=VECTOR('',#1483,1.);
#907=VECTOR('',#1484,1.);
#908=VECTOR('',#1485,1.);
#909=VECTOR('',#1486,1.);
#910=VECTOR('',#1487,1.);
#911=VECTOR('',#1488,1.);
#912=VECTOR('',#1489,1.);
#913=VECTOR('',#1490,1.);
#914=VECTOR('',#1491,1.);
#915=VECTOR('',#1492,1.);
#916=VECTOR('',#1493,1.);
#917=VECTOR('',#1494,1.);
#918=VECTOR('',#1499,1.);
#919=VECTOR('',#1500,1.);
#920=VECTOR('',#1501,1.);
#921=VECTOR('',#1502,1.);
#922=VECTOR('',#1503,1.);
#923=VECTOR('',#1504,1.);
#924=VECTOR('',#1505,1.);
#925=VECTOR('',#1506,1.);
#926=VECTOR('',#1507,1.);
#927=VECTOR('',#1508,1.);
#928=VECTOR('',#1509,1.);
#929=VECTOR('',#1510,1.);
#930=VECTOR('',#1511,1.);
#931=VECTOR('',#1512,1.);
#932=VECTOR('',#1515,1.);
#933=VECTOR('',#1516,1.);
#934=VECTOR('',#1517,1.);
#935=VECTOR('',#1520,1.);
#936=VECTOR('',#1521,1.);
#937=VECTOR('',#1522,1.);
#938=VECTOR('',#1525,1.);
#939=VECTOR('',#1526,1.);
#940=VECTOR('',#1527,1.);
#941=VECTOR('',#1536,1.);
#942=VECTOR('',#1537,1.);
#943=VECTOR('',#1538,1.);
#944=VECTOR('',#1539,1.);
#945=VECTOR('',#1540,1.);
#946=VECTOR('',#1541,1.);
#947=VECTOR('',#1542,1.);
#948=VECTOR('',#1543,1.);
#949=VECTOR('',#1544,1.);
#950=VECTOR('',#1545,1.);
#951=VECTOR('',#1546,1.);
#952=VECTOR('',#1547,1.);
#953=VECTOR('',#1548,1.);
#954=VECTOR('',#1549,1.);
#955=VECTOR('',#1550,1.);
#956=VECTOR('',#1551,1.);
#957=VECTOR('',#1552,1.);
#958=VECTOR('',#1553,1.);
#959=VECTOR('',#1554,1.);
#960=VECTOR('',#1555,1.);
#961=VECTOR('',#1558,1.);
#962=VECTOR('',#1559,1.);
#963=VECTOR('',#1560,1.);
#964=VECTOR('',#1561,1.);
#965=VECTOR('',#1562,1.);
#966=VECTOR('',#1563,1.);
#967=VECTOR('',#1564,1.);
#968=VECTOR('',#1565,1.);
#969=VECTOR('',#1566,1.);
#970=VECTOR('',#1567,1.);
#971=VECTOR('',#1568,1.);
#972=VECTOR('',#1569,1.);
#973=VECTOR('',#1570,1.);
#974=VECTOR('',#1571,1.);
#975=VECTOR('',#1572,1.);
#976=VECTOR('',#1573,1.);
#977=VECTOR('',#1574,1.);
#978=VECTOR('',#1575,1.);
#979=VECTOR('',#1576,1.);
#980=VECTOR('',#1579,1.);
#981=VECTOR('',#1580,1.);
#982=VECTOR('',#1581,1.);
#983=VECTOR('',#1582,1.);
#984=VECTOR('',#1583,1.);
#985=VECTOR('',#1584,1.);
#986=VECTOR('',#1585,1.);
#987=VECTOR('',#1586,1.);
#988=VECTOR('',#1591,1.);
#989=VECTOR('',#1592,1.);
#990=VECTOR('',#1593,1.);
#991=VECTOR('',#1594,1.);
#992=VECTOR('',#1595,1.);
#993=VECTOR('',#1596,1.);
#994=VECTOR('',#1597,1.);
#995=VECTOR('',#1598,1.);
#996=VECTOR('',#1599,1.);
#997=VECTOR('',#1600,1.);
#998=VECTOR('',#1601,1.);
#999=VECTOR('',#1602,1.);
#1000=VECTOR('',#1603,1.);
#1001=VECTOR('',#1604,1.);
#1002=VECTOR('',#1605,1.);
#1003=VECTOR('',#1606,1.);
#1004=VECTOR('',#1607,1.);
#1005=VECTOR('',#1608,1.);
#1006=VECTOR('',#1609,1.);
#1007=VECTOR('',#1610,1.);
#1008=VECTOR('',#1613,1.);
#1009=VECTOR('',#1614,1.);
#1010=VECTOR('',#1617,1.);
#1011=VECTOR('',#1618,1.);
#1012=VECTOR('',#1623,1.);
#1013=VECTOR('',#1626,1.);
#1014=VECTOR('',#1627,1.);
#1015=VECTOR('',#1628,1.);
#1016=VECTOR('',#1629,1.);
#1017=VECTOR('',#1630,1.);
#1018=VECTOR('',#1633,1.);
#1019=VECTOR('',#1636,1.);
#1020=VECTOR('',#1643,1.);
#1021=VECTOR('',#1648,1.);
#1022=VECTOR('',#1649,1.);
#1023=VECTOR('',#1650,1.);
#1024=VECTOR('',#1653,1.);
#1025=VECTOR('',#1656,1.);
#1026=VECTOR('',#1661,1.);
#1027=VECTOR('',#1662,1.);
#1028=VECTOR('',#1663,1.);
#1029=VECTOR('',#1666,1.);
#1030=VECTOR('',#1669,1.);
#1031=VECTOR('',#1674,1.);
#1032=VECTOR('',#1675,1.);
#1033=VECTOR('',#1678,1.);
#1034=VECTOR('',#1679,1.);
#1035=VECTOR('',#1682,1.);
#1036=VECTOR('',#1687,1.);
#1037=VECTOR('',#1688,1.);
#1038=VECTOR('',#1689,1.);
#1039=VECTOR('',#1692,1.);
#1040=VECTOR('',#1693,1.);
#1041=VECTOR('',#1702,1.);
#1042=VECTOR('',#1705,1.);
#1043=VECTOR('',#1714,1.);
#1044=VECTOR('',#1715,1.);
#1045=VECTOR('',#1716,1.);
#1046=VECTOR('',#1717,1.);
#1047=VECTOR('',#1720,1.);
#1048=VECTOR('',#1721,1.);
#1049=VECTOR('',#1722,1.);
#1050=VECTOR('',#1725,1.);
#1051=VECTOR('',#1726,1.);
#1052=VECTOR('',#1727,1.);
#1053=VECTOR('',#1730,1.);
#1054=VECTOR('',#1731,1.);
#1055=VECTOR('',#1732,1.);
#1056=VECTOR('',#1735,1.);
#1057=VECTOR('',#1736,1.);
#1058=VECTOR('',#1741,1.);
#1059=VECTOR('',#1742,1.);
#1060=VECTOR('',#1745,1.);
#1061=VECTOR('',#1750,1.);
#1062=VECTOR('',#1751,1.);
#1063=VECTOR('',#1760,1.);
#1064=VECTOR('',#1761,1.);
#1065=VECTOR('',#1764,1.);
#1066=VECTOR('',#1765,1.);
#1067=VECTOR('',#1768,1.);
#1068=VECTOR('',#1769,1.);
#1069=VECTOR('',#1772,1.);
#1070=VECTOR('',#1775,1.);
#1071=VECTOR('',#1776,1.);
#1072=VECTOR('',#1783,1.);
#1073=VECTOR('',#1784,1.);
#1074=VECTOR('',#1787,1.);
#1075=VECTOR('',#1788,1.);
#1076=VECTOR('',#1791,1.);
#1077=VECTOR('',#1794,1.);
#1078=VECTOR('',#1795,1.);
#1079=VECTOR('',#1798,1.);
#1080=VECTOR('',#1799,1.);
#1081=EDGE_LOOP('',(#24,#25,#26,#27));
#1082=EDGE_LOOP('',(#28,#29,#30,#31,#32,#33));
#1083=EDGE_LOOP('',(#34,#35,#36,#37));
#1084=EDGE_LOOP('',(#38,#39,#40,#41));
#1085=EDGE_LOOP('',(#42));
#1086=EDGE_LOOP('',(#43,#44,#45,#46,#47,#48,#49,#50,#51,#52,#53,#54,#55,
#56));
#1087=EDGE_LOOP('',(#57,#58,#59,#60));
#1088=EDGE_LOOP('',(#61,#62,#63,#64));
#1089=EDGE_LOOP('',(#65,#66,#67,#68));
#1090=EDGE_LOOP('',(#69));
#1091=EDGE_LOOP('',(#70));
#1092=EDGE_LOOP('',(#71,#72,#73,#74));
#1093=EDGE_LOOP('',(#75,#76,#77,#78));
#1094=EDGE_LOOP('',(#79,#80,#81,#82,#83,#84,#85,#86,#87,#88,#89,#90,#91,
#92,#93,#94));
#1095=EDGE_LOOP('',(#95,#96,#97,#98,#99,#100,#101,#102,#103,#104,#105,#106,
#107,#108,#109,#110,#111,#112,#113,#114));
#1096=EDGE_LOOP('',(#115,#116,#117,#118,#119,#120,#121,#122,#123,#124,#125,
#126));
#1097=EDGE_LOOP('',(#127));
#1098=EDGE_LOOP('',(#128,#129,#130,#131));
#1099=EDGE_LOOP('',(#132,#133,#134,#135,#136,#137,#138,#139,#140,#141,#142,
#143,#144,#145,#146,#147,#148,#149,#150,#151,#152,#153));
#1100=EDGE_LOOP('',(#154,#155,#156,#157));
#1101=EDGE_LOOP('',(#158,#159,#160,#161));
#1102=EDGE_LOOP('',(#162));
#1103=EDGE_LOOP('',(#163,#164,#165,#166));
#1104=EDGE_LOOP('',(#167));
#1105=EDGE_LOOP('',(#168,#169,#170,#171));
#1106=EDGE_LOOP('',(#172,#173,#174,#175));
#1107=EDGE_LOOP('',(#176,#177,#178,#179));
#1108=EDGE_LOOP('',(#180,#181,#182,#183));
#1109=EDGE_LOOP('',(#184,#185,#186,#187));
#1110=EDGE_LOOP('',(#188));
#1111=EDGE_LOOP('',(#189,#190,#191,#192));
#1112=EDGE_LOOP('',(#193,#194,#195,#196));
#1113=EDGE_LOOP('',(#197,#198,#199,#200));
#1114=EDGE_LOOP('',(#201,#202,#203,#204));
#1115=EDGE_LOOP('',(#205,#206,#207,#208));
#1116=EDGE_LOOP('',(#209,#210,#211,#212));
#1117=EDGE_LOOP('',(#213,#214,#215,#216));
#1118=EDGE_LOOP('',(#217,#218,#219,#220));
#1119=EDGE_LOOP('',(#221,#222,#223,#224));
#1120=EDGE_LOOP('',(#225,#226,#227,#228));
#1121=EDGE_LOOP('',(#229,#230,#231,#232));
#1122=EDGE_LOOP('',(#233,#234,#235,#236));
#1123=EDGE_LOOP('',(#237,#238,#239,#240));
#1124=EDGE_LOOP('',(#241,#242,#243,#244));
#1125=EDGE_LOOP('',(#245,#246,#247,#248,#249,#250,#251,#252));
#1126=EDGE_LOOP('',(#253,#254,#255,#256));
#1127=EDGE_LOOP('',(#257,#258,#259,#260));
#1128=EDGE_LOOP('',(#261,#262,#263,#264));
#1129=EDGE_LOOP('',(#265,#266,#267,#268));
#1130=EDGE_LOOP('',(#269));
#1131=EDGE_LOOP('',(#270,#271,#272,#273));
#1132=EDGE_LOOP('',(#274,#275,#276,#277));
#1133=EDGE_LOOP('',(#278,#279,#280,#281));
#1134=EDGE_LOOP('',(#282,#283,#284,#285));
#1135=EDGE_LOOP('',(#286));
#1136=EDGE_LOOP('',(#287));
#1137=EDGE_LOOP('',(#288,#289,#290,#291));
#1138=EDGE_LOOP('',(#292,#293,#294,#295));
#1139=EDGE_LOOP('',(#296,#297,#298,#299));
#1140=EDGE_LOOP('',(#300,#301,#302,#303));
#1141=EDGE_LOOP('',(#304,#305,#306,#307));
#1142=EDGE_LOOP('',(#308));
#1143=EDGE_LOOP('',(#309,#310,#311,#312));
#1144=EDGE_LOOP('',(#313,#314,#315,#316));
#1145=EDGE_LOOP('',(#317));
#1146=EDGE_LOOP('',(#318,#319,#320,#321));
#1147=EDGE_LOOP('',(#322,#323,#324,#325));
#1148=EDGE_LOOP('',(#326,#327,#328,#329));
#1149=EDGE_LOOP('',(#330,#331,#332,#333));
#1150=EDGE_LOOP('',(#334));
#1151=EDGE_LOOP('',(#335));
#1152=EDGE_LOOP('',(#336,#337,#338,#339));
#1153=EDGE_LOOP('',(#340,#341,#342,#343));
#1154=EDGE_LOOP('',(#344,#345,#346,#347));
#1155=EDGE_LOOP('',(#348,#349,#350,#351));
#1156=EDGE_LOOP('',(#352,#353,#354,#355,#356,#357,#358,#359));
#1157=EDGE_LOOP('',(#360,#361,#362,#363));
#1158=EDGE_LOOP('',(#364,#365,#366,#367));
#1159=EDGE_LOOP('',(#368,#369,#370,#371));
#1160=EDGE_LOOP('',(#372,#373,#374,#375));
#1161=EDGE_LOOP('',(#376,#377,#378,#379));
#1162=EDGE_LOOP('',(#380,#381,#382,#383,#384,#385,#386,#387));
#1163=EDGE_LOOP('',(#388,#389,#390,#391));
#1164=EDGE_LOOP('',(#392,#393,#394,#395));
#1165=EDGE_LOOP('',(#396,#397,#398,#399));
#1166=EDGE_LOOP('',(#400));
#1167=EDGE_LOOP('',(#401));
#1168=FACE_BOUND('',#1081,.T.);
#1169=FACE_BOUND('',#1082,.T.);
#1170=FACE_BOUND('',#1083,.T.);
#1171=FACE_BOUND('',#1084,.T.);
#1172=FACE_BOUND('',#1085,.T.);
#1173=FACE_BOUND('',#1086,.T.);
#1174=FACE_BOUND('',#1087,.T.);
#1175=FACE_BOUND('',#1088,.T.);
#1176=FACE_BOUND('',#1089,.T.);
#1177=FACE_BOUND('',#1090,.T.);
#1178=FACE_BOUND('',#1091,.T.);
#1179=FACE_BOUND('',#1092,.T.);
#1180=FACE_BOUND('',#1093,.T.);
#1181=FACE_BOUND('',#1094,.T.);
#1182=FACE_BOUND('',#1095,.T.);
#1183=FACE_BOUND('',#1096,.T.);
#1184=FACE_BOUND('',#1097,.T.);
#1185=FACE_BOUND('',#1098,.T.);
#1186=FACE_BOUND('',#1099,.T.);
#1187=FACE_BOUND('',#1100,.T.);
#1188=FACE_BOUND('',#1101,.T.);
#1189=FACE_BOUND('',#1102,.T.);
#1190=FACE_BOUND('',#1103,.T.);
#1191=FACE_BOUND('',#1104,.T.);
#1192=FACE_BOUND('',#1105,.T.);
#1193=FACE_BOUND('',#1106,.T.);
#1194=FACE_BOUND('',#1107,.T.);
#1195=FACE_BOUND('',#1108,.T.);
#1196=FACE_BOUND('',#1109,.T.);
#1197=FACE_BOUND('',#1110,.T.);
#1198=FACE_BOUND('',#1111,.T.);
#1199=FACE_BOUND('',#1112,.T.);
#1200=FACE_BOUND('',#1113,.T.);
#1201=FACE_BOUND('',#1114,.T.);
#1202=FACE_BOUND('',#1115,.T.);
#1203=FACE_BOUND('',#1116,.T.);
#1204=FACE_BOUND('',#1117,.T.);
#1205=FACE_BOUND('',#1118,.T.);
#1206=FACE_BOUND('',#1119,.T.);
#1207=FACE_BOUND('',#1120,.T.);
#1208=FACE_BOUND('',#1121,.T.);
#1209=FACE_BOUND('',#1122,.T.);
#1210=FACE_BOUND('',#1123,.T.);
#1211=FACE_BOUND('',#1124,.T.);
#1212=FACE_BOUND('',#1125,.T.);
#1213=FACE_BOUND('',#1126,.T.);
#1214=FACE_BOUND('',#1127,.T.);
#1215=FACE_BOUND('',#1128,.T.);
#1216=FACE_BOUND('',#1129,.T.);
#1217=FACE_BOUND('',#1130,.T.);
#1218=FACE_BOUND('',#1131,.T.);
#1219=FACE_BOUND('',#1132,.T.);
#1220=FACE_BOUND('',#1133,.T.);
#1221=FACE_BOUND('',#1134,.T.);
#1222=FACE_BOUND('',#1135,.T.);
#1223=FACE_BOUND('',#1136,.T.);
#1224=FACE_BOUND('',#1137,.T.);
#1225=FACE_BOUND('',#1138,.T.);
#1226=FACE_BOUND('',#1139,.T.);
#1227=FACE_BOUND('',#1140,.T.);
#1228=FACE_BOUND('',#1141,.T.);
#1229=FACE_BOUND('',#1142,.T.);
#1230=FACE_BOUND('',#1143,.T.);
#1231=FACE_BOUND('',#1144,.T.);
#1232=FACE_BOUND('',#1145,.T.);
#1233=FACE_BOUND('',#1146,.T.);
#1234=FACE_BOUND('',#1147,.T.);
#1235=FACE_BOUND('',#1148,.T.);
#1236=FACE_BOUND('',#1149,.T.);
#1237=FACE_BOUND('',#1150,.T.);
#1238=FACE_BOUND('',#1151,.T.);
#1239=FACE_BOUND('',#1152,.T.);
#1240=FACE_BOUND('',#1153,.T.);
#1241=FACE_BOUND('',#1154,.T.);
#1242=FACE_BOUND('',#1155,.T.);
#1243=FACE_BOUND('',#1156,.T.);
#1244=FACE_BOUND('',#1157,.T.);
#1245=FACE_BOUND('',#1158,.T.);
#1246=FACE_BOUND('',#1159,.T.);
#1247=FACE_BOUND('',#1160,.T.);
#1248=FACE_BOUND('',#1161,.T.);
#1249=FACE_BOUND('',#1162,.T.);
#1250=FACE_BOUND('',#1163,.T.);
#1251=FACE_BOUND('',#1164,.T.);
#1252=FACE_BOUND('',#1165,.T.);
#1253=FACE_BOUND('',#1166,.T.);
#1254=FACE_BOUND('',#1167,.T.);
#1255=PLANE('',#1398);
#1256=PLANE('',#1399);
#1257=PLANE('',#1401);
#1258=PLANE('',#1402);
#1259=PLANE('',#1403);
#1260=PLANE('',#1407);
#1261=PLANE('',#1408);
#1262=PLANE('',#1409);
#1263=PLANE('',#1410);
#1264=PLANE('',#1412);
#1265=PLANE('',#1413);
#1266=PLANE('',#1414);
#1267=PLANE('',#1416);
#1268=PLANE('',#1417);
#1269=PLANE('',#1418);
#1270=PLANE('',#1419);
#1271=PLANE('',#1420);
#1272=PLANE('',#1422);
#1273=PLANE('',#1423);
#1274=PLANE('',#1424);
#1275=PLANE('',#1425);
#1276=PLANE('',#1426);
#1277=PLANE('',#1427);
#1278=PLANE('',#1428);
#1279=PLANE('',#1429);
#1280=PLANE('',#1430);
#1281=PLANE('',#1431);
#1282=PLANE('',#1432);
#1283=PLANE('',#1433);
#1284=PLANE('',#1434);
#1285=PLANE('',#1435);
#1286=PLANE('',#1436);
#1287=PLANE('',#1437);
#1288=PLANE('',#1438);
#1289=PLANE('',#1439);
#1290=PLANE('',#1440);
#1291=PLANE('',#1441);
#1292=PLANE('',#1442);
#1293=PLANE('',#1443);
#1294=PLANE('',#1445);
#1295=PLANE('',#1446);
#1296=PLANE('',#1447);
#1297=PLANE('',#1448);
#1298=PLANE('',#1449);
#1299=PLANE('',#1450);
#1300=PLANE('',#1452);
#1301=PLANE('',#1453);
#1302=PLANE('',#1455);
#1303=PLANE('',#1456);
#1304=PLANE('',#1458);
#1305=PLANE('',#1459);
#1306=PLANE('',#1460);
#1307=PLANE('',#1461);
#1308=PLANE('',#1462);
#1309=PLANE('',#1463);
#1310=PLANE('',#1464);
#1311=PLANE('',#1465);
#1312=PLANE('',#1466);
#1313=PLANE('',#1467);
#1314=PLANE('',#1468);
#1315=PLANE('',#1469);
#1316=PLANE('',#1470);
#1317=PLANE('',#1471);
#1318=ADVANCED_FACE('',(#1168,#1169,#1170,#1171),#1255,.F.);
#1319=ADVANCED_FACE('',(#1172,#1173),#1256,.F.);
#1320=ADVANCED_FACE('',(#1174),#1257,.F.);
#1321=ADVANCED_FACE('',(#1175),#1258,.F.);
#1322=ADVANCED_FACE('',(#1176),#1259,.T.);
#1323=ADVANCED_FACE('',(#1177,#1178),#12,.F.);
#1324=ADVANCED_FACE('',(#1179,#1180,#1181),#1260,.T.);
#1325=ADVANCED_FACE('',(#1182),#1261,.F.);
#1326=ADVANCED_FACE('',(#1183),#1262,.F.);
#1327=ADVANCED_FACE('',(#1184,#1185,#1186),#1263,.T.);
#1328=ADVANCED_FACE('',(#1187),#1264,.F.);
#1329=ADVANCED_FACE('',(#1188),#1265,.T.);
#1330=ADVANCED_FACE('',(#1189,#1190),#1266,.T.);
#1331=ADVANCED_FACE('',(#1191,#1192,#1193),#1267,.F.);
#1332=ADVANCED_FACE('',(#1194),#1268,.T.);
#1333=ADVANCED_FACE('',(#1195),#1269,.T.);
#1334=ADVANCED_FACE('',(#1196),#1270,.F.);
#1335=ADVANCED_FACE('',(#1197,#1198),#1271,.F.);
#1336=ADVANCED_FACE('',(#1199),#1272,.F.);
#1337=ADVANCED_FACE('',(#1200),#1273,.T.);
#1338=ADVANCED_FACE('',(#1201),#1274,.T.);
#1339=ADVANCED_FACE('',(#1202),#1275,.T.);
#1340=ADVANCED_FACE('',(#1203),#1276,.T.);
#1341=ADVANCED_FACE('',(#1204),#1277,.T.);
#1342=ADVANCED_FACE('',(#1205),#1278,.F.);
#1343=ADVANCED_FACE('',(#1206),#1279,.F.);
#1344=ADVANCED_FACE('',(#1207),#1280,.T.);
#1345=ADVANCED_FACE('',(#1208),#1281,.F.);
#1346=ADVANCED_FACE('',(#1209),#1282,.T.);
#1347=ADVANCED_FACE('',(#1210),#1283,.T.);
#1348=ADVANCED_FACE('',(#1211),#1284,.F.);
#1349=ADVANCED_FACE('',(#1212),#1285,.T.);
#1350=ADVANCED_FACE('',(#1213),#1286,.F.);
#1351=ADVANCED_FACE('',(#1214),#1287,.F.);
#1352=ADVANCED_FACE('',(#1215),#1288,.T.);
#1353=ADVANCED_FACE('',(#1216,#1217),#1289,.T.);
#1354=ADVANCED_FACE('',(#1218),#1290,.F.);
#1355=ADVANCED_FACE('',(#1219),#1291,.T.);
#1356=ADVANCED_FACE('',(#1220),#1292,.T.);
#1357=ADVANCED_FACE('',(#1221),#1293,.T.);
#1358=ADVANCED_FACE('',(#1222,#1223),#13,.F.);
#1359=ADVANCED_FACE('',(#1224),#1294,.F.);
#1360=ADVANCED_FACE('',(#1225),#1295,.F.);
#1361=ADVANCED_FACE('',(#1226),#1296,.T.);
#1362=ADVANCED_FACE('',(#1227),#1297,.T.);
#1363=ADVANCED_FACE('',(#1228),#1298,.T.);
#1364=ADVANCED_FACE('',(#1229,#1230),#1299,.F.);
#1365=ADVANCED_FACE('',(#1231),#1300,.F.);
#1366=ADVANCED_FACE('',(#1232,#1233),#1301,.T.);
#1367=ADVANCED_FACE('',(#1234,#1235),#1302,.T.);
#1368=ADVANCED_FACE('',(#1236),#1303,.T.);
#1369=ADVANCED_FACE('',(#1237,#1238),#14,.F.);
#1370=ADVANCED_FACE('',(#1239),#1304,.F.);
#1371=ADVANCED_FACE('',(#1240),#1305,.T.);
#1372=ADVANCED_FACE('',(#1241),#1306,.F.);
#1373=ADVANCED_FACE('',(#1242),#1307,.F.);
#1374=ADVANCED_FACE('',(#1243),#1308,.T.);
#1375=ADVANCED_FACE('',(#1244),#1309,.F.);
#1376=ADVANCED_FACE('',(#1245),#1310,.T.);
#1377=ADVANCED_FACE('',(#1246),#1311,.T.);
#1378=ADVANCED_FACE('',(#1247),#1312,.F.);
#1379=ADVANCED_FACE('',(#1248),#1313,.F.);
#1380=ADVANCED_FACE('',(#1249),#1314,.T.);
#1381=ADVANCED_FACE('',(#1250),#1315,.F.);
#1382=ADVANCED_FACE('',(#1251),#1316,.F.);
#1383=ADVANCED_FACE('',(#1252),#1317,.T.);
#1384=ADVANCED_FACE('',(#1253,#1254),#15,.F.);
#1385=CLOSED_SHELL('',(#1318,#1319,#1320,#1321,#1322,#1323,#1324,#1325,
#1326,#1327,#1328,#1329,#1330,#1331,#1332,#1333,#1334,#1335,#1336,#1337,
#1338,#1339,#1340,#1341,#1342,#1343,#1344,#1345,#1346,#1347,#1348,#1349,
#1350,#1351,#1352,#1353,#1354,#1355,#1356,#1357,#1358,#1359,#1360,#1361,
#1362,#1363,#1364,#1365,#1366,#1367,#1368,#1369,#1370,#1371,#1372,#1373,
#1374,#1375,#1376,#1377,#1378,#1379,#1380,#1381,#1382,#1383,#1384));
#1386=STYLED_ITEM('',(#1387),#1394);
#1387=PRESENTATION_STYLE_ASSIGNMENT((#1388));
#1388=SURFACE_STYLE_USAGE(.BOTH.,#1389);
#1389=SURFACE_SIDE_STYLE('',(#1390));
#1390=SURFACE_STYLE_FILL_AREA(#1391);
#1391=FILL_AREA_STYLE('',(#1392));
#1392=FILL_AREA_STYLE_COLOUR('',#1393);
#1393=COLOUR_RGB('',0.529411764705882,0.568627450980392,0.6);
#1394=MANIFOLD_SOLID_BREP('main electronic box',#1385);
#1395=SHAPE_DEFINITION_REPRESENTATION(#2197,#1396);
#1396=SHAPE_REPRESENTATION('main electronic box',(#1397),#2192);
#1397=AXIS2_PLACEMENT_3D('',#1806,#1473,#1474);
#1398=AXIS2_PLACEMENT_3D('',#1807,#1475,#1476);
#1399=AXIS2_PLACEMENT_3D('',#1844,#1495,#1496);
#1400=AXIS2_PLACEMENT_3D('',#1845,#1497,#1498);
#1401=AXIS2_PLACEMENT_3D('',#1875,#1513,#1514);
#1402=AXIS2_PLACEMENT_3D('',#1881,#1518,#1519);
#1403=AXIS2_PLACEMENT_3D('',#1887,#1523,#1524);
#1404=AXIS2_PLACEMENT_3D('',#1893,#1528,#1529);
#1405=AXIS2_PLACEMENT_3D('',#1894,#1530,#1531);
#1406=AXIS2_PLACEMENT_3D('',#1896,#1532,#1533);
#1407=AXIS2_PLACEMENT_3D('',#1898,#1534,#1535);
#1408=AXIS2_PLACEMENT_3D('',#1936,#1556,#1557);
#1409=AXIS2_PLACEMENT_3D('',#1974,#1577,#1578);
#1410=AXIS2_PLACEMENT_3D('',#1988,#1587,#1588);
#1411=AXIS2_PLACEMENT_3D('',#1989,#1589,#1590);
#1412=AXIS2_PLACEMENT_3D('',#2026,#1611,#1612);
#1413=AXIS2_PLACEMENT_3D('',#2030,#1615,#1616);
#1414=AXIS2_PLACEMENT_3D('',#2034,#1619,#1620);
#1415=AXIS2_PLACEMENT_3D('',#2035,#1621,#1622);
#1416=AXIS2_PLACEMENT_3D('',#2038,#1624,#1625);
#1417=AXIS2_PLACEMENT_3D('',#2047,#1631,#1632);
#1418=AXIS2_PLACEMENT_3D('',#2049,#1634,#1635);
#1419=AXIS2_PLACEMENT_3D('',#2051,#1637,#1638);
#1420=AXIS2_PLACEMENT_3D('',#2052,#1639,#1640);
#1421=AXIS2_PLACEMENT_3D('',#2053,#1641,#1642);
#1422=AXIS2_PLACEMENT_3D('',#2056,#1644,#1645);
#1423=AXIS2_PLACEMENT_3D('',#2057,#1646,#1647);
#1424=AXIS2_PLACEMENT_3D('',#2063,#1651,#1652);
#1425=AXIS2_PLACEMENT_3D('',#2065,#1654,#1655);
#1426=AXIS2_PLACEMENT_3D('',#2067,#1657,#1658);
#1427=AXIS2_PLACEMENT_3D('',#2068,#1659,#1660);
#1428=AXIS2_PLACEMENT_3D('',#2074,#1664,#1665);
#1429=AXIS2_PLACEMENT_3D('',#2076,#1667,#1668);
#1430=AXIS2_PLACEMENT_3D('',#2078,#1670,#1671);
#1431=AXIS2_PLACEMENT_3D('',#2079,#1672,#1673);
#1432=AXIS2_PLACEMENT_3D('',#2083,#1676,#1677);
#1433=AXIS2_PLACEMENT_3D('',#2087,#1680,#1681);
#1434=AXIS2_PLACEMENT_3D('',#2089,#1683,#1684);
#1435=AXIS2_PLACEMENT_3D('',#2090,#1685,#1686);
#1436=AXIS2_PLACEMENT_3D('',#2094,#1690,#1691);
#1437=AXIS2_PLACEMENT_3D('',#2097,#1694,#1695);
#1438=AXIS2_PLACEMENT_3D('',#2098,#1696,#1697);
#1439=AXIS2_PLACEMENT_3D('',#2099,#1698,#1699);
#1440=AXIS2_PLACEMENT_3D('',#2100,#1700,#1701);
#1441=AXIS2_PLACEMENT_3D('',#2102,#1703,#1704);
#1442=AXIS2_PLACEMENT_3D('',#2104,#1706,#1707);
#1443=AXIS2_PLACEMENT_3D('',#2105,#1708,#1709);
#1444=AXIS2_PLACEMENT_3D('',#2106,#1710,#1711);
#1445=AXIS2_PLACEMENT_3D('',#2107,#1712,#1713);
#1446=AXIS2_PLACEMENT_3D('',#2116,#1718,#1719);
#1447=AXIS2_PLACEMENT_3D('',#2122,#1723,#1724);
#1448=AXIS2_PLACEMENT_3D('',#2128,#1728,#1729);
#1449=AXIS2_PLACEMENT_3D('',#2134,#1733,#1734);
#1450=AXIS2_PLACEMENT_3D('',#2138,#1737,#1738);
#1451=AXIS2_PLACEMENT_3D('',#2139,#1739,#1740);
#1452=AXIS2_PLACEMENT_3D('',#2144,#1743,#1744);
#1453=AXIS2_PLACEMENT_3D('',#2146,#1746,#1747);
#1454=AXIS2_PLACEMENT_3D('',#2147,#1748,#1749);
#1455=AXIS2_PLACEMENT_3D('',#2151,#1752,#1753);
#1456=AXIS2_PLACEMENT_3D('',#2152,#1754,#1755);
#1457=AXIS2_PLACEMENT_3D('',#2153,#1756,#1757);
#1458=AXIS2_PLACEMENT_3D('',#2154,#1758,#1759);
#1459=AXIS2_PLACEMENT_3D('',#2157,#1762,#1763);
#1460=AXIS2_PLACEMENT_3D('',#2161,#1766,#1767);
#1461=AXIS2_PLACEMENT_3D('',#2165,#1770,#1771);
#1462=AXIS2_PLACEMENT_3D('',#2167,#1773,#1774);
#1463=AXIS2_PLACEMENT_3D('',#2170,#1777,#1778);
#1464=AXIS2_PLACEMENT_3D('',#2171,#1779,#1780);
#1465=AXIS2_PLACEMENT_3D('',#2172,#1781,#1782);
#1466=AXIS2_PLACEMENT_3D('',#2176,#1785,#1786);
#1467=AXIS2_PLACEMENT_3D('',#2180,#1789,#1790);
#1468=AXIS2_PLACEMENT_3D('',#2182,#1792,#1793);
#1469=AXIS2_PLACEMENT_3D('',#2185,#1796,#1797);
#1470=AXIS2_PLACEMENT_3D('',#2188,#1800,#1801);
#1471=AXIS2_PLACEMENT_3D('',#2189,#1802,#1803);
#1472=AXIS2_PLACEMENT_3D('',#2190,#1804,#1805);
#1473=DIRECTION('',(0.,0.,1.));
#1474=DIRECTION('',(1.,0.,0.));
#1475=DIRECTION('',(-1.,-1.36592399683213E-16,0.));
#1476=DIRECTION('',(1.36592399683213E-16,-1.,0.));
#1477=DIRECTION('',(1.36592399683213E-16,-1.,-5.78241158658938E-16));
#1478=DIRECTION('',(0.,0.,-1.));
#1479=DIRECTION('',(1.36592399683213E-16,-1.,0.));
#1480=DIRECTION('',(0.,0.,-1.));
#1481=DIRECTION('',(-1.36592399683213E-16,1.,0.));
#1482=DIRECTION('',(-9.65854120745433E-17,0.707106781186548,0.707106781186548));
#1483=DIRECTION('',(0.,0.,1.));
#1484=DIRECTION('',(-1.36592399683213E-16,1.,0.));
#1485=DIRECTION('',(0.,0.,1.));
#1486=DIRECTION('',(9.65854120745433E-17,-0.707106781186548,0.707106781186548));
#1487=DIRECTION('',(-1.36592399683213E-16,1.,0.));
#1488=DIRECTION('',(0.,0.,-1.));
#1489=DIRECTION('',(-1.36592399683213E-16,1.,0.));
#1490=DIRECTION('',(0.,0.,-1.));
#1491=DIRECTION('',(0.,0.,-1.));
#1492=DIRECTION('',(-1.36592399683213E-16,1.,0.));
#1493=DIRECTION('',(0.,0.,-1.));
#1494=DIRECTION('',(-1.36592399683213E-16,1.,0.));
#1495=DIRECTION('',(-1.,0.,0.));
#1496=DIRECTION('',(0.,0.,1.));
#1497=DIRECTION('',(-1.,0.,0.));
#1498=DIRECTION('',(0.,0.,1.));
#1499=DIRECTION('',(0.,-1.,0.));
#1500=DIRECTION('',(0.,0.,-1.));
#1501=DIRECTION('',(0.,1.,0.));
#1502=DIRECTION('',(0.,0.,-1.));
#1503=DIRECTION('',(0.,1.,0.));
#1504=DIRECTION('',(0.,0.,-1.));
#1505=DIRECTION('',(0.,-1.,0.));
#1506=DIRECTION('',(0.,0.,-1.));
#1507=DIRECTION('',(0.,1.,0.));
#1508=DIRECTION('',(0.,0.,-1.));
#1509=DIRECTION('',(0.,1.,0.));
#1510=DIRECTION('',(0.,0.,1.));
#1511=DIRECTION('',(0.,1.,0.));
#1512=DIRECTION('',(0.,0.,-1.));
#1513=DIRECTION('',(0.,1.,0.));
#1514=DIRECTION('',(0.,0.,1.));
#1515=DIRECTION('',(-1.,0.,0.));
#1516=DIRECTION('',(0.,0.,-1.));
#1517=DIRECTION('',(1.,0.,0.));
#1518=DIRECTION('',(0.,1.,0.));
#1519=DIRECTION('',(0.,0.,1.));
#1520=DIRECTION('',(1.,0.,0.));
#1521=DIRECTION('',(1.,0.,0.));
#1522=DIRECTION('',(0.,0.,-1.));
#1523=DIRECTION('',(0.,1.,0.));
#1524=DIRECTION('',(0.,0.,1.));
#1525=DIRECTION('',(0.,0.,1.));
#1526=DIRECTION('',(-1.,0.,0.));
#1527=DIRECTION('',(1.,0.,0.));
#1528=DIRECTION('',(0.,0.,1.));
#1529=DIRECTION('',(1.,0.,0.));
#1530=DIRECTION('',(0.,0.,1.));
#1531=DIRECTION('',(1.,0.,0.));
#1532=DIRECTION('',(0.,0.,-1.));
#1533=DIRECTION('',(-1.,0.,0.));
#1534=DIRECTION('',(0.,0.,-1.));
#1535=DIRECTION('',(-1.,0.,0.));
#1536=DIRECTION('',(0.,-1.,0.));
#1537=DIRECTION('',(1.,0.,0.));
#1538=DIRECTION('',(0.,1.,0.));
#1539=DIRECTION('',(-1.,0.,0.));
#1540=DIRECTION('',(1.,1.36592399683213E-16,0.));
#1541=DIRECTION('',(-1.36592399683213E-16,1.,0.));
#1542=DIRECTION('',(1.,1.36592399683213E-16,0.));
#1543=DIRECTION('',(1.,0.,0.));
#1544=DIRECTION('',(0.,1.,0.));
#1545=DIRECTION('',(1.,0.,0.));
#1546=DIRECTION('',(0.,1.,0.));
#1547=DIRECTION('',(-1.,0.,0.));
#1548=DIRECTION('',(0.,1.,0.));
#1549=DIRECTION('',(-1.,0.,0.));
#1550=DIRECTION('',(0.,1.,0.));
#1551=DIRECTION('',(1.,0.,0.));
#1552=DIRECTION('',(0.,1.,0.));
#1553=DIRECTION('',(1.,0.,0.));
#1554=DIRECTION('',(0.,1.,0.));
#1555=DIRECTION('',(1.,0.,0.));
#1556=DIRECTION('',(1.,0.,0.));
#1557=DIRECTION('',(0.,0.,-1.));
#1558=DIRECTION('',(0.,1.,0.));
#1559=DIRECTION('',(0.,0.,-1.));
#1560=DIRECTION('',(0.,1.,0.));
#1561=DIRECTION('',(0.,0.,-1.));
#1562=DIRECTION('',(0.,1.,0.));
#1563=DIRECTION('',(0.,0.,-1.));
#1564=DIRECTION('',(0.,1.,0.));
#1565=DIRECTION('',(0.,0.,1.));
#1566=DIRECTION('',(0.,1.,0.));
#1567=DIRECTION('',(0.,0.,-1.));
#1568=DIRECTION('',(0.,1.,0.));
#1569=DIRECTION('',(0.,0.,-1.));
#1570=DIRECTION('',(0.,1.,0.));
#1571=DIRECTION('',(0.,0.,-1.));
#1572=DIRECTION('',(0.,-1.,0.));
#1573=DIRECTION('',(0.,0.,-1.));
#1574=DIRECTION('',(0.,0.,-1.));
#1575=DIRECTION('',(0.,1.,0.));
#1576=DIRECTION('',(0.,0.,1.));
#1577=DIRECTION('',(0.,-1.,0.));
#1578=DIRECTION('',(0.,0.,-1.));
#1579=DIRECTION('',(1.,0.,0.));
#1580=DIRECTION('',(0.,0.,-1.));
#1581=DIRECTION('',(1.,0.,0.));
#1582=DIRECTION('',(0.,0.,-1.));
#1583=DIRECTION('',(-1.,0.,0.));
#1584=DIRECTION('',(1.,0.,0.));
#1585=DIRECTION('',(0.,0.,-1.));
#1586=DIRECTION('',(1.,0.,0.));
#1587=DIRECTION('',(-1.,0.,0.));
#1588=DIRECTION('',(0.,0.,1.));
#1589=DIRECTION('',(-1.,0.,0.));
#1590=DIRECTION('',(0.,0.,1.));
#1591=DIRECTION('',(0.,0.,-1.));
#1592=DIRECTION('',(0.,-1.,0.));
#1593=DIRECTION('',(0.,0.,-1.));
#1594=DIRECTION('',(0.,-1.,0.));
#1595=DIRECTION('',(0.,-1.,0.));
#1596=DIRECTION('',(0.,0.,-1.));
#1597=DIRECTION('',(0.,-1.,0.));
#1598=DIRECTION('',(0.,0.,1.));
#1599=DIRECTION('',(0.,0.,1.));
#1600=DIRECTION('',(0.,-1.,0.));
#1601=DIRECTION('',(0.,0.,-1.));
#1602=DIRECTION('',(0.,0.,-1.));
#1603=DIRECTION('',(0.,-1.,0.));
#1604=DIRECTION('',(0.,0.,-1.));
#1605=DIRECTION('',(0.,-1.,-5.78241158658938E-16));
#1606=DIRECTION('',(0.,0.,-1.));
#1607=DIRECTION('',(0.,1.,0.));
#1608=DIRECTION('',(0.,-1.,0.));
#1609=DIRECTION('',(0.,-1.,0.));
#1610=DIRECTION('',(0.,0.,-1.));
#1611=DIRECTION('',(-1.36592399683213E-16,1.,0.));
#1612=DIRECTION('',(-1.,-1.36592399683213E-16,0.));
#1613=DIRECTION('',(-1.,-1.36592399683213E-16,0.));
#1614=DIRECTION('',(0.,0.,1.));
#1615=DIRECTION('',(-1.36592399683213E-16,1.,0.));
#1616=DIRECTION('',(-1.,-1.36592399683213E-16,0.));
#1617=DIRECTION('',(0.,0.,1.));
#1618=DIRECTION('',(1.,1.36592399683213E-16,0.));
#1619=DIRECTION('',(-1.,-1.36592399683213E-16,0.));
#1620=DIRECTION('',(1.36592399683213E-16,-1.,0.));
#1621=DIRECTION('',(-1.,-1.36592399683213E-16,0.));
#1622=DIRECTION('',(1.36592399683213E-16,-1.,0.));
#1623=DIRECTION('',(-1.36592399683213E-16,1.,0.));
#1624=DIRECTION('',(0.,0.,-1.));
#1625=DIRECTION('',(-1.,0.,0.));
#1626=DIRECTION('',(1.,0.,0.));
#1627=DIRECTION('',(0.,1.,0.));
#1628=DIRECTION('',(1.36592399683213E-16,-1.,0.));
#1629=DIRECTION('',(1.,1.36592399683213E-16,0.));
#1630=DIRECTION('',(-1.,-1.36592399683213E-16,0.));
#1631=DIRECTION('',(-9.65854120745433E-17,0.707106781186548,0.707106781186548));
#1632=DIRECTION('',(-1.,-1.36592399683213E-16,0.));
#1633=DIRECTION('',(0.577350269189626,-0.577350269189626,0.577350269189626));
#1634=DIRECTION('',(-0.707106781186548,-9.65854120745433E-17,0.707106781186548));
#1635=DIRECTION('',(1.36592399683213E-16,-1.,0.));
#1636=DIRECTION('',(-0.577350269189626,-0.577350269189626,-0.577350269189626));
#1637=DIRECTION('',(-9.65854120745433E-17,0.707106781186548,-0.707106781186548));
#1638=DIRECTION('',(1.,1.36592399683213E-16,0.));
#1639=DIRECTION('',(-1.,0.,0.));
#1640=DIRECTION('',(0.,0.,1.));
#1641=DIRECTION('',(-1.,0.,0.));
#1642=DIRECTION('',(0.,0.,1.));
#1643=DIRECTION('',(0.,0.,-1.));
#1644=DIRECTION('',(0.,1.,0.));
#1645=DIRECTION('',(0.,0.,1.));
#1646=DIRECTION('',(0.,0.,-1.));
#1647=DIRECTION('',(1.,0.,0.));
#1648=DIRECTION('',(-1.,0.,0.));
#1649=DIRECTION('',(0.,1.,0.));
#1650=DIRECTION('',(1.,0.,0.));
#1651=DIRECTION('',(0.,-1.,0.));
#1652=DIRECTION('',(0.,0.,-1.));
#1653=DIRECTION('',(0.,0.,-1.));
#1654=DIRECTION('',(0.,1.,0.));
#1655=DIRECTION('',(0.,0.,1.));
#1656=DIRECTION('',(0.,0.,-1.));
#1657=DIRECTION('',(-1.,0.,0.));
#1658=DIRECTION('',(0.,0.,1.));
#1659=DIRECTION('',(0.,0.,-1.));
#1660=DIRECTION('',(1.,0.,0.));
#1661=DIRECTION('',(1.,0.,0.));
#1662=DIRECTION('',(0.,1.,0.));
#1663=DIRECTION('',(-1.,0.,0.));
#1664=DIRECTION('',(0.,1.,0.));
#1665=DIRECTION('',(0.,0.,1.));
#1666=DIRECTION('',(0.,0.,-1.));
#1667=DIRECTION('',(0.,-1.,0.));
#1668=DIRECTION('',(0.,0.,-1.));
#1669=DIRECTION('',(0.,0.,-1.));
#1670=DIRECTION('',(-1.,0.,0.));
#1671=DIRECTION('',(0.,0.,1.));
#1672=DIRECTION('',(0.,1.,0.));
#1673=DIRECTION('',(0.,0.,1.));
#1674=DIRECTION('',(1.,0.,0.));
#1675=DIRECTION('',(0.,0.,-1.));
#1676=DIRECTION('',(0.,1.,0.));
#1677=DIRECTION('',(0.,0.,1.));
#1678=DIRECTION('',(0.,0.,-1.));
#1679=DIRECTION('',(1.,0.,0.));
#1680=DIRECTION('',(0.,0.,-1.));
#1681=DIRECTION('',(1.,0.,0.));
#1682=DIRECTION('',(0.,1.,0.));
#1683=DIRECTION('',(-1.,0.,0.));
#1684=DIRECTION('',(0.,0.,1.));
#1685=DIRECTION('',(0.,1.,0.));
#1686=DIRECTION('',(0.,0.,1.));
#1687=DIRECTION('',(1.,0.,0.));
#1688=DIRECTION('',(-1.,0.,0.));
#1689=DIRECTION('',(-1.,0.,0.));
#1690=DIRECTION('',(0.,1.,0.));
#1691=DIRECTION('',(0.,0.,1.));
#1692=DIRECTION('',(-1.,0.,0.));
#1693=DIRECTION('',(-1.,0.,0.));
#1694=DIRECTION('',(0.,0.,-1.));
#1695=DIRECTION('',(-1.,0.,0.));
#1696=DIRECTION('',(0.,5.78241158658938E-16,-1.));
#1697=DIRECTION('',(0.,1.,5.78241158658938E-16));
#1698=DIRECTION('',(0.,0.,-1.));
#1699=DIRECTION('',(1.,0.,0.));
#1700=DIRECTION('',(0.,0.,1.));
#1701=DIRECTION('',(1.,0.,0.));
#1702=DIRECTION('',(1.,0.,0.));
#1703=DIRECTION('',(0.,-1.,0.));
#1704=DIRECTION('',(0.,0.,-1.));
#1705=DIRECTION('',(1.,0.,0.));
#1706=DIRECTION('',(0.,0.,1.));
#1707=DIRECTION('',(1.,0.,0.));
#1708=DIRECTION('',(0.,0.,1.));
#1709=DIRECTION('',(1.,0.,0.));
#1710=DIRECTION('',(-1.,-1.36592399683213E-16,0.));
#1711=DIRECTION('',(1.36592399683213E-16,-1.,0.));
#1712=DIRECTION('',(0.,0.,1.));
#1713=DIRECTION('',(1.,0.,0.));
#1714=DIRECTION('',(1.,0.,0.));
#1715=DIRECTION('',(0.,-1.,0.));
#1716=DIRECTION('',(1.,0.,0.));
#1717=DIRECTION('',(0.,-1.,0.));
#1718=DIRECTION('',(0.,-1.,0.));
#1719=DIRECTION('',(0.,0.,-1.));
#1720=DIRECTION('',(0.,0.,-1.));
#1721=DIRECTION('',(1.,0.,0.));
#1722=DIRECTION('',(0.,0.,-1.));
#1723=DIRECTION('',(0.,0.,1.));
#1724=DIRECTION('',(1.,0.,0.));
#1725=DIRECTION('',(0.,-1.,0.));
#1726=DIRECTION('',(1.,0.,0.));
#1727=DIRECTION('',(0.,-1.,0.));
#1728=DIRECTION('',(0.,-1.,0.));
#1729=DIRECTION('',(0.,0.,-1.));
#1730=DIRECTION('',(1.,0.,0.));
#1731=DIRECTION('',(0.,0.,-1.));
#1732=DIRECTION('',(1.,0.,0.));
#1733=DIRECTION('',(0.,0.,1.));
#1734=DIRECTION('',(1.,0.,0.));
#1735=DIRECTION('',(1.,0.,0.));
#1736=DIRECTION('',(0.,-1.,0.));
#1737=DIRECTION('',(0.,-1.,0.));
#1738=DIRECTION('',(0.,0.,-1.));
#1739=DIRECTION('',(0.,-1.,0.));
#1740=DIRECTION('',(0.,0.,-1.));
#1741=DIRECTION('',(1.,0.,0.));
#1742=DIRECTION('',(0.,0.,-1.));
#1743=DIRECTION('',(0.,0.,1.));
#1744=DIRECTION('',(1.,0.,0.));
#1745=DIRECTION('',(0.,-1.,0.));
#1746=DIRECTION('',(0.,-1.,0.));
#1747=DIRECTION('',(0.,0.,-1.));
#1748=DIRECTION('',(0.,-1.,0.));
#1749=DIRECTION('',(0.,0.,-1.));
#1750=DIRECTION('',(0.,0.,-1.));
#1751=DIRECTION('',(0.,0.,-1.));
#1752=DIRECTION('',(-1.,0.,0.));
#1753=DIRECTION('',(0.,-1.,0.));
#1754=DIRECTION('',(-1.,0.,0.));
#1755=DIRECTION('',(0.,-1.,0.));
#1756=DIRECTION('',(0.,-1.,0.));
#1757=DIRECTION('',(0.,0.,-1.));
#1758=DIRECTION('',(-1.56105599637958E-16,1.,0.));
#1759=DIRECTION('',(-1.,-1.56105599637958E-16,0.));
#1760=DIRECTION('',(1.,1.56105599637958E-16,0.));
#1761=DIRECTION('',(1.,1.56105599637958E-16,0.));
#1762=DIRECTION('',(0.,0.,-1.));
#1763=DIRECTION('',(-1.,0.,0.));
#1764=DIRECTION('',(1.56105599637958E-16,-1.,0.));
#1765=DIRECTION('',(1.,1.56105599637958E-16,0.));
#1766=DIRECTION('',(0.,0.,-1.));
#1767=DIRECTION('',(-1.,0.,0.));
#1768=DIRECTION('',(1.,1.56105599637958E-16,0.));
#1769=DIRECTION('',(1.56105599637958E-16,-1.,0.));
#1770=DIRECTION('',(1.,1.56105599637958E-16,0.));
#1771=DIRECTION('',(-1.56105599637958E-16,1.,0.));
#1772=DIRECTION('',(0.,0.,1.));
#1773=DIRECTION('',(-1.56105599637958E-16,1.,0.));
#1774=DIRECTION('',(-1.,-1.56105599637958E-16,0.));
#1775=DIRECTION('',(1.,1.56105599637958E-16,0.));
#1776=DIRECTION('',(1.,1.56105599637958E-16,0.));
#1777=DIRECTION('',(0.,0.,1.));
#1778=DIRECTION('',(1.,0.,0.));
#1779=DIRECTION('',(0.,0.,1.));
#1780=DIRECTION('',(1.,0.,0.));
#1781=DIRECTION('',(0.,0.,-1.));
#1782=DIRECTION('',(-1.,0.,0.));
#1783=DIRECTION('',(1.56105599637958E-16,-1.,0.));
#1784=DIRECTION('',(1.,1.56105599637958E-16,0.));
#1785=DIRECTION('',(0.,0.,-1.));
#1786=DIRECTION('',(-1.,0.,0.));
#1787=DIRECTION('',(1.,1.56105599637958E-16,0.));
#1788=DIRECTION('',(1.56105599637958E-16,-1.,0.));
#1789=DIRECTION('',(1.,1.56105599637958E-16,0.));
#1790=DIRECTION('',(-1.56105599637958E-16,1.,0.));
#1791=DIRECTION('',(0.,0.,1.));
#1792=DIRECTION('',(-1.56105599637958E-16,1.,0.));
#1793=DIRECTION('',(-1.,-1.56105599637958E-16,0.));
#1794=DIRECTION('',(1.,1.56105599637958E-16,0.));
#1795=DIRECTION('',(1.,1.56105599637958E-16,0.));
#1796=DIRECTION('',(-1.56105599637958E-16,1.,0.));
#1797=DIRECTION('',(-1.,-1.56105599637958E-16,0.));
#1798=DIRECTION('',(1.,1.56105599637958E-16,0.));
#1799=DIRECTION('',(1.,1.56105599637958E-16,0.));
#1800=DIRECTION('',(0.,0.,1.));
#1801=DIRECTION('',(1.,0.,0.));
#1802=DIRECTION('',(0.,0.,1.));
#1803=DIRECTION('',(1.,0.,0.));
#1804=DIRECTION('',(-1.,0.,0.));
#1805=DIRECTION('',(0.,0.,1.));
#1806=CARTESIAN_POINT('',(0.,0.,0.));
#1807=CARTESIAN_POINT('',(-0.0635,0.03175,-0.0147267030407324));
#1808=CARTESIAN_POINT('',(-0.0635,0.03175,5.20417042793042E-17));
#1809=CARTESIAN_POINT('',(-0.0635,-0.05385,2.54426109809913E-18));
#1810=CARTESIAN_POINT('',(-0.0635,-0.05985,0.));
#1811=CARTESIAN_POINT('',(-0.0635,-0.05385,-0.0147267030407324));
#1812=CARTESIAN_POINT('',(-0.0635,-0.05385,-0.0582267030407324));
#1813=CARTESIAN_POINT('',(-0.0635,0.03175,-0.0582267030407324));
#1814=CARTESIAN_POINT('',(-0.0635,-0.05985,-0.0582267030407324));
#1815=CARTESIAN_POINT('',(-0.0635,-0.05985,-0.0147267030407324));
#1816=CARTESIAN_POINT('',(-0.0635,0.03175,0.124973296959268));
#1817=CARTESIAN_POINT('',(-0.0635,-0.05969,0.124973296959268));
#1818=CARTESIAN_POINT('',(-0.0635,0.12319,0.124973296959268));
#1819=CARTESIAN_POINT('',(-0.0635,-0.05969,0.124973296959268));
#1820=CARTESIAN_POINT('',(-0.0635,-0.06985,0.114813296959268));
#1821=CARTESIAN_POINT('',(-0.0635,-0.06985,-0.0782267030407324));
#1822=CARTESIAN_POINT('',(-0.0635,-0.06985,-0.0782267030407324));
#1823=CARTESIAN_POINT('',(-0.0635,0.03175,-0.0782267030407324));
#1824=CARTESIAN_POINT('',(-0.0635,0.13335,-0.0782267030407324));
#1825=CARTESIAN_POINT('',(-0.0635,0.13335,-0.0782267030407324));
#1826=CARTESIAN_POINT('',(-0.0635,0.13335,0.114813296959268));
#1827=CARTESIAN_POINT('',(-0.0635,0.13335,0.114813296959268));
#1828=CARTESIAN_POINT('',(-0.0635,0.03175,0.0663452173039779));
#1829=CARTESIAN_POINT('',(-0.0635,0.00825,0.0663452173039779));
#1830=CARTESIAN_POINT('',(-0.0635,0.05525,0.0663452173039779));
#1831=CARTESIAN_POINT('',(-0.0635,0.00825,-0.0147267030407324));
#1832=CARTESIAN_POINT('',(-0.0635,0.00825,0.116345217303978));
#1833=CARTESIAN_POINT('',(-0.0635,0.03175,0.116345217303978));
#1834=CARTESIAN_POINT('',(-0.0635,0.05525,0.116345217303978));
#1835=CARTESIAN_POINT('',(-0.0635,0.05525,-0.0147267030407324));
#1836=CARTESIAN_POINT('',(-0.0635,0.05525,-0.0147267030407324));
#1837=CARTESIAN_POINT('',(-0.0635,0.05525,-0.00837329695926759));
#1838=CARTESIAN_POINT('',(-0.0635,0.05525,-0.0583732969592676));
#1839=CARTESIAN_POINT('',(-0.0635,0.03175,-0.0583732969592676));
#1840=CARTESIAN_POINT('',(-0.0635,0.00825,-0.0583732969592676));
#1841=CARTESIAN_POINT('',(-0.0635,0.00825,-0.0147267030407324));
#1842=CARTESIAN_POINT('',(-0.0635,0.00825,-0.00837329695926759));
#1843=CARTESIAN_POINT('',(-0.0635,0.03175,-0.00837329695926759));
#1844=CARTESIAN_POINT('',(-0.2019,0.03175,0.0217732969592676));
#1845=CARTESIAN_POINT('',(-0.2019,0.03175,-0.0486445857584477));
#1846=CARTESIAN_POINT('',(-0.2019,0.03175,-0.0386445857584477));
#1847=CARTESIAN_POINT('',(-0.2019,0.11935,-0.0630353098441496));
#1848=CARTESIAN_POINT('',(-0.2019,0.11935,-0.0630353098441496));
#1849=CARTESIAN_POINT('',(-0.2019,0.07935,-0.0630353098441496));
#1850=CARTESIAN_POINT('',(-0.2019,0.11935,0.0217732969592676));
#1851=CARTESIAN_POINT('',(-0.2019,0.11935,0.114773296959268));
#1852=CARTESIAN_POINT('',(-0.2019,0.03175,0.114773296959268));
#1853=CARTESIAN_POINT('',(-0.2019,-0.05985,0.114773296959268));
#1854=CARTESIAN_POINT('',(-0.2019,-0.05985,0.0217732969592676));
#1855=CARTESIAN_POINT('',(-0.2019,-0.05985,-0.0782267030407324));
#1856=CARTESIAN_POINT('',(-0.2019,0.03175,-0.0782267030407324));
#1857=CARTESIAN_POINT('',(-0.2019,0.02175,-0.0782267030407324));
#1858=CARTESIAN_POINT('',(-0.2019,0.02175,0.0217732969592676));
#1859=CARTESIAN_POINT('',(-0.2019,0.02175,-0.0742267030407324));
#1860=CARTESIAN_POINT('',(-0.2019,0.03175,-0.0742267030407324));
#1861=CARTESIAN_POINT('',(-0.2019,0.04175,-0.0742267030407324));
#1862=CARTESIAN_POINT('',(-0.2019,0.04175,0.0217732969592676));
#1863=CARTESIAN_POINT('',(-0.2019,0.04175,-0.0782267030407324));
#1864=CARTESIAN_POINT('',(-0.2019,0.03175,-0.0782267030407324));
#1865=CARTESIAN_POINT('',(-0.2019,0.11935,-0.0782267030407324));
#1866=CARTESIAN_POINT('',(-0.2019,0.11935,0.0217732969592676));
#1867=CARTESIAN_POINT('',(-0.2019,0.11935,-0.0730353098441496));
#1868=CARTESIAN_POINT('',(-0.2019,0.03175,-0.0730353098441496));
#1869=CARTESIAN_POINT('',(-0.2019,0.06935,-0.0730353098441496));
#1870=CARTESIAN_POINT('',(-0.2019,0.06935,0.0217732969592676));
#1871=CARTESIAN_POINT('',(-0.2019,0.06935,0.0717732969592676));
#1872=CARTESIAN_POINT('',(-0.2019,0.03175,0.0717732969592676));
#1873=CARTESIAN_POINT('',(-0.2019,0.07935,0.0717732969592676));
#1874=CARTESIAN_POINT('',(-0.2019,0.07935,0.0217732969592676));
#1875=CARTESIAN_POINT('',(-0.164016802120209,0.11935,0.0217732969592676));
#1876=CARTESIAN_POINT('',(-0.164016802120209,0.11935,-0.0630353098441496));
#1877=CARTESIAN_POINT('',(-0.126133604240417,0.11935,-0.0630353098441496));
#1878=CARTESIAN_POINT('',(-0.126133604240417,0.11935,0.0217732969592676));
#1879=CARTESIAN_POINT('',(-0.126133604240417,0.11935,0.114773296959268));
#1880=CARTESIAN_POINT('',(-0.164016802120209,0.11935,0.114773296959268));
#1881=CARTESIAN_POINT('',(-0.164016802120209,0.11935,0.0217732969592676));
#1882=CARTESIAN_POINT('',(-0.203133604240418,0.11935,-0.0730353098441496));
#1883=CARTESIAN_POINT('',(-0.126133604240417,0.11935,-0.0730353098441496));
#1884=CARTESIAN_POINT('',(-0.164016802120209,0.11935,-0.0782267030407324));
#1885=CARTESIAN_POINT('',(-0.126133604240417,0.11935,-0.0782267030407324));
#1886=CARTESIAN_POINT('',(-0.126133604240417,0.11935,0.0217732969592676));
#1887=CARTESIAN_POINT('',(-0.203133604240418,0.07935,-0.000631006442441004));
#1888=CARTESIAN_POINT('',(-0.126133604240417,0.07935,-0.000631006442441004));
#1889=CARTESIAN_POINT('',(-0.126133604240417,0.07935,-0.0630353098441496));
#1890=CARTESIAN_POINT('',(-0.126133604240417,0.07935,0.0717732969592676));
#1891=CARTESIAN_POINT('',(-0.164016802120209,0.07935,-0.0630353098441496));
#1892=CARTESIAN_POINT('',(-0.203133604240418,0.07935,0.0717732969592676));
#1893=CARTESIAN_POINT('',(-0.17078844769001,0.03175,0.0741732969592676));
#1894=CARTESIAN_POINT('',(-0.17078844769001,0.03175,0.124973296959268));
#1895=CARTESIAN_POINT('',(-0.145352277721479,0.03175,0.124973296959268));
#1896=CARTESIAN_POINT('',(-0.17078844769001,0.03175,0.114773296959268));
#1897=CARTESIAN_POINT('',(-0.196224617658541,0.03175,0.114773296959268));
#1898=CARTESIAN_POINT('',(-0.2159,0.03175,-0.0782267030407324));
#1899=CARTESIAN_POINT('',(-0.0899412653116466,0.0325749899148941,-0.0782267030407324));
#1900=CARTESIAN_POINT('',(-0.0899412653116466,0.0960749899148941,-0.0782267030407324));
#1901=CARTESIAN_POINT('',(-0.0899412653116466,-0.0309250100851059,-0.0782267030407324));
#1902=CARTESIAN_POINT('',(-0.102641265311647,0.0960749899148941,-0.0782267030407324));
#1903=CARTESIAN_POINT('',(-0.115341265311647,0.0960749899148941,-0.0782267030407324));
#1904=CARTESIAN_POINT('',(-0.115341265311647,0.0325749899148941,-0.0782267030407324));
#1905=CARTESIAN_POINT('',(-0.115341265311647,-0.0309250100851059,-0.0782267030407324));
#1906=CARTESIAN_POINT('',(-0.102641265311647,-0.0309250100851059,-0.0782267030407324));
#1907=CARTESIAN_POINT('',(-0.2159,-0.06985,-0.0782267030407324));
#1908=CARTESIAN_POINT('',(-0.2159,-0.06985,-0.0782267030407324));
#1909=CARTESIAN_POINT('',(-0.2159,0.03175,-0.0782267030407324));
#1910=CARTESIAN_POINT('',(-0.2159,0.13335,-0.0782267030407324));
#1911=CARTESIAN_POINT('',(-0.2159,0.13335,-0.0782267030407324));
#1912=CARTESIAN_POINT('',(-0.164016802120209,-0.05985,-0.0782267030407324));
#1913=CARTESIAN_POINT('',(-0.126133604240417,-0.05985,-0.0782267030407324));
#1914=CARTESIAN_POINT('',(-0.126133604240417,0.03175,-0.0782267030407324));
#1915=CARTESIAN_POINT('',(-0.126133604240417,-0.05385,-0.0782267030407324));
#1916=CARTESIAN_POINT('',(-0.164016802120209,-0.05385,-0.0782267030407324));
#1917=CARTESIAN_POINT('',(-0.118133604240417,-0.05385,-0.0782267030407324));
#1918=CARTESIAN_POINT('',(-0.118133604240417,0.03175,-0.0782267030407324));
#1919=CARTESIAN_POINT('',(-0.118133604240417,-0.03385,-0.0782267030407324));
#1920=CARTESIAN_POINT('',(-0.118133604240417,-0.03385,-0.0782267030407324));
#1921=CARTESIAN_POINT('',(-0.126133604240417,-0.03385,-0.0782267030407324));
#1922=CARTESIAN_POINT('',(-0.126133604240417,0.03175,-0.0782267030407324));
#1923=CARTESIAN_POINT('',(-0.126133604240417,0.09735,-0.0782267030407324));
#1924=CARTESIAN_POINT('',(-0.118133604240417,0.09735,-0.0782267030407324));
#1925=CARTESIAN_POINT('',(-0.118133604240417,0.09735,-0.0782267030407324));
#1926=CARTESIAN_POINT('',(-0.118133604240417,0.03175,-0.0782267030407324));
#1927=CARTESIAN_POINT('',(-0.118133604240417,0.11735,-0.0782267030407324));
#1928=CARTESIAN_POINT('',(-0.164016802120209,0.11735,-0.0782267030407324));
#1929=CARTESIAN_POINT('',(-0.126133604240417,0.11735,-0.0782267030407324));
#1930=CARTESIAN_POINT('',(-0.126133604240417,0.03175,-0.0782267030407324));
#1931=CARTESIAN_POINT('',(-0.2059,0.04175,-0.0782267030407324));
#1932=CARTESIAN_POINT('',(-0.2059,0.04175,-0.0782267030407324));
#1933=CARTESIAN_POINT('',(-0.2059,0.03175,-0.0782267030407324));
#1934=CARTESIAN_POINT('',(-0.2059,0.02175,-0.0782267030407324));
#1935=CARTESIAN_POINT('',(-0.2059,0.02175,-0.0782267030407324));
#1936=CARTESIAN_POINT('',(-0.0899412653116466,0.0325749899148941,0.124973296959268));
#1937=CARTESIAN_POINT('',(-0.0899412653116466,0.03175,-0.0583732969592676));
#1938=CARTESIAN_POINT('',(-0.0899412653116466,0.00825,-0.0583732969592676));
#1939=CARTESIAN_POINT('',(-0.0899412653116466,0.05525,-0.0583732969592676));
#1940=CARTESIAN_POINT('',(-0.0899412653116466,0.05525,-0.0360732969592676));
#1941=CARTESIAN_POINT('',(-0.0899412653116466,0.05525,-0.00837329695926759));
#1942=CARTESIAN_POINT('',(-0.0899412653116466,0.03175,-0.00837329695926759));
#1943=CARTESIAN_POINT('',(-0.0899412653116466,0.00825,-0.00837329695926758));
#1944=CARTESIAN_POINT('',(-0.0899412653116466,0.00825,-0.00837329695926759));
#1945=CARTESIAN_POINT('',(-0.0899412653116466,0.00825,-0.0133732969592676));
#1946=CARTESIAN_POINT('',(-0.0899412653116466,0.03175,-0.0133732969592676));
#1947=CARTESIAN_POINT('',(-0.0899412653116466,-0.0309250100851059,-0.0133732969592676));
#1948=CARTESIAN_POINT('',(-0.0899412653116466,-0.0309250100851059,0.124973296959268));
#1949=CARTESIAN_POINT('',(-0.0899412653116466,-0.0309250100851059,0.071345217303978));
#1950=CARTESIAN_POINT('',(-0.0899412653116466,0.03175,0.0713452173039779));
#1951=CARTESIAN_POINT('',(-0.0899412653116466,0.00825,0.0713452173039779));
#1952=CARTESIAN_POINT('',(-0.0899412653116466,0.00825,0.0663452173039779));
#1953=CARTESIAN_POINT('',(-0.0899412653116466,0.00825,0.0663452173039779));
#1954=CARTESIAN_POINT('',(-0.0899412653116466,0.03175,0.0663452173039779));
#1955=CARTESIAN_POINT('',(-0.0899412653116466,0.05525,0.0663452173039779));
#1956=CARTESIAN_POINT('',(-0.0899412653116466,0.05525,0.088645217303978));
#1957=CARTESIAN_POINT('',(-0.0899412653116466,0.05525,0.116345217303978));
#1958=CARTESIAN_POINT('',(-0.0899412653116466,0.03175,0.116345217303978));
#1959=CARTESIAN_POINT('',(-0.0899412653116466,0.00825,0.116345217303978));
#1960=CARTESIAN_POINT('',(-0.0899412653116466,0.00825,0.116345217303978));
#1961=CARTESIAN_POINT('',(-0.0899412653116466,0.00825,0.111345217303978));
#1962=CARTESIAN_POINT('',(-0.0899412653116466,0.03175,0.111345217303978));
#1963=CARTESIAN_POINT('',(-0.0899412653116466,-0.0309250100851059,0.111345217303978));
#1964=CARTESIAN_POINT('',(-0.0899412653116466,-0.0309250100851059,0.124973296959268));
#1965=CARTESIAN_POINT('',(-0.0899412653116466,-0.0309250100851059,0.124973296959268));
#1966=CARTESIAN_POINT('',(-0.0899412653116466,0.0325749899148941,0.124973296959268));
#1967=CARTESIAN_POINT('',(-0.0899412653116466,0.0960749899148941,0.124973296959268));
#1968=CARTESIAN_POINT('',(-0.0899412653116466,0.0960749899148941,0.124973296959268));
#1969=CARTESIAN_POINT('',(-0.0899412653116466,-0.0309250100851059,0.124973296959268));
#1970=CARTESIAN_POINT('',(-0.0899412653116466,-0.0309250100851059,-0.0533732969592675));
#1971=CARTESIAN_POINT('',(-0.0899412653116466,0.03175,-0.0533732969592676));
#1972=CARTESIAN_POINT('',(-0.0899412653116466,0.00825,-0.0533732969592676));
#1973=CARTESIAN_POINT('',(-0.0899412653116466,0.00825,-0.0583732969592676));
#1974=CARTESIAN_POINT('',(-0.102641265311647,-0.0309250100851059,0.124973296959268));
#1975=CARTESIAN_POINT('',(-0.090424,-0.0309250100851059,-0.0133732969592676));
#1976=CARTESIAN_POINT('',(-0.090424,-0.0309250100851059,-0.0133732969592676));
#1977=CARTESIAN_POINT('',(-0.090424,-0.0309250100851059,0.0115592571316228));
#1978=CARTESIAN_POINT('',(-0.090424,-0.0309250100851059,-0.0533732969592676));
#1979=CARTESIAN_POINT('',(-0.090424,-0.0309250100851059,-0.0533732969592676));
#1980=CARTESIAN_POINT('',(-0.115341265311647,-0.0309250100851059,0.124973296959268));
#1981=CARTESIAN_POINT('',(-0.115341265311647,-0.0309250100851059,0.124973296959268));
#1982=CARTESIAN_POINT('',(-0.102641265311647,-0.0309250100851059,0.124973296959268));
#1983=CARTESIAN_POINT('',(-0.090424,-0.0309250100851059,0.111345217303978));
#1984=CARTESIAN_POINT('',(-0.090424,-0.0309250100851059,0.111345217303978));
#1985=CARTESIAN_POINT('',(-0.090424,-0.0309250100851059,0.0115592571316228));
#1986=CARTESIAN_POINT('',(-0.090424,-0.0309250100851059,0.0713452173039779));
#1987=CARTESIAN_POINT('',(-0.090424,-0.0309250100851059,0.0713452173039779));
#1988=CARTESIAN_POINT('',(-0.126133604240417,0.03175,0.0217732969592676));
#1989=CARTESIAN_POINT('',(-0.126133604240417,0.0328820198774338,0.0262734554708004));
#1990=CARTESIAN_POINT('',(-0.126133604240417,0.0328820198774338,0.0292734554708004));
#1991=CARTESIAN_POINT('',(-0.126133604240417,-0.00597029553924222,0.0953899323940277));
#1992=CARTESIAN_POINT('',(-0.126133604240417,-0.00597029553924222,0.107585648953915));
#1993=CARTESIAN_POINT('',(-0.126133604240417,-0.00597029553924222,0.0831942158341408));
#1994=CARTESIAN_POINT('',(-0.126133604240417,0.0115497163133114,0.0831942158341408));
#1995=CARTESIAN_POINT('',(-0.126133604240417,0.029069728165865,0.0831942158341408));
#1996=CARTESIAN_POINT('',(-0.126133604240417,0.029069728165865,0.0953899323940277));
#1997=CARTESIAN_POINT('',(-0.126133604240417,0.029069728165865,0.107585648953915));
#1998=CARTESIAN_POINT('',(-0.126133604240417,0.0115497163133114,0.107585648953915));
#1999=CARTESIAN_POINT('',(-0.126133604240417,0.07435,-0.0730353098441496));
#2000=CARTESIAN_POINT('',(-0.126133604240417,0.06935,-0.0730353098441496));
#2001=CARTESIAN_POINT('',(-0.126133604240417,0.11735,0.0217732969592676));
#2002=CARTESIAN_POINT('',(-0.126133604240417,0.11735,-0.0742267030407324));
#2003=CARTESIAN_POINT('',(-0.126133604240417,0.03175,-0.0742267030407324));
#2004=CARTESIAN_POINT('',(-0.126133604240417,0.09735,-0.0742267030407324));
#2005=CARTESIAN_POINT('',(-0.126133604240417,0.09735,0.0217732969592676));
#2006=CARTESIAN_POINT('',(-0.126133604240417,-0.03385,0.0217732969592676));
#2007=CARTESIAN_POINT('',(-0.126133604240417,-0.03385,-0.0742267030407324));
#2008=CARTESIAN_POINT('',(-0.126133604240417,0.03175,-0.0742267030407324));
#2009=CARTESIAN_POINT('',(-0.126133604240417,-0.05385,-0.0742267030407324));
#2010=CARTESIAN_POINT('',(-0.126133604240417,-0.05385,0.0217732969592676));
#2011=CARTESIAN_POINT('',(-0.126133604240417,-0.05985,0.0217732969592676));
#2012=CARTESIAN_POINT('',(-0.126133604240417,-0.05985,-0.0582267030407324));
#2013=CARTESIAN_POINT('',(-0.126133604240417,-0.05685,-0.0582267030407324));
#2014=CARTESIAN_POINT('',(-0.126133604240417,-0.05385,-0.0582267030407324));
#2015=CARTESIAN_POINT('',(-0.126133604240417,-0.05385,-0.0291133515203662));
#2016=CARTESIAN_POINT('',(-0.126133604240417,-0.05385,0.));
#2017=CARTESIAN_POINT('',(-0.126133604240417,-0.05685,0.));
#2018=CARTESIAN_POINT('',(-0.126133604240417,-0.05985,0.));
#2019=CARTESIAN_POINT('',(-0.126133604240417,-0.05985,0.0217732969592676));
#2020=CARTESIAN_POINT('',(-0.126133604240417,-0.05985,0.114773296959268));
#2021=CARTESIAN_POINT('',(-0.126133604240417,0.03175,0.114773296959268));
#2022=CARTESIAN_POINT('',(-0.126133604240417,0.11935,-0.0630353098441496));
#2023=CARTESIAN_POINT('',(-0.126133604240417,0.07435,0.0717732969592676));
#2024=CARTESIAN_POINT('',(-0.126133604240417,0.06935,0.0717732969592676));
#2025=CARTESIAN_POINT('',(-0.126133604240417,0.06935,-0.000631006442441004));
#2026=CARTESIAN_POINT('',(-0.2159,-0.06985,-0.0782267030407324));
#2027=CARTESIAN_POINT('',(-0.2159,-0.06985,0.114813296959268));
#2028=CARTESIAN_POINT('',(-0.2159,-0.06985,0.114813296959268));
#2029=CARTESIAN_POINT('',(-0.2159,-0.06985,-0.0782267030407324));
#2030=CARTESIAN_POINT('',(-0.2159,0.13335,-0.0782267030407324));
#2031=CARTESIAN_POINT('',(-0.2159,0.13335,-0.0782267030407324));
#2032=CARTESIAN_POINT('',(-0.2159,0.13335,0.114813296959268));
#2033=CARTESIAN_POINT('',(-0.0635,0.13335,0.114813296959268));
#2034=CARTESIAN_POINT('',(-0.2159,0.03175,-0.0147267030407324));
#2035=CARTESIAN_POINT('',(-0.2159,0.03175,-0.0486445857584477));
#2036=CARTESIAN_POINT('',(-0.2159,0.02175,-0.0486445857584477));
#2037=CARTESIAN_POINT('',(-0.2159,0.13335,0.114813296959268));
#2038=CARTESIAN_POINT('',(-0.2159,0.03175,0.124973296959268));
#2039=CARTESIAN_POINT('',(-0.102641265311647,0.0960749899148941,0.124973296959268));
#2040=CARTESIAN_POINT('',(-0.115341265311647,0.0960749899148941,0.124973296959268));
#2041=CARTESIAN_POINT('',(-0.115341265311647,0.0325749899148941,0.124973296959268));
#2042=CARTESIAN_POINT('',(-0.20574,-0.06985,0.124973296959268));
#2043=CARTESIAN_POINT('',(-0.20574,0.12319,0.124973296959268));
#2044=CARTESIAN_POINT('',(-0.20574,-0.05969,0.124973296959268));
#2045=CARTESIAN_POINT('',(-0.2159,-0.05969,0.124973296959268));
#2046=CARTESIAN_POINT('',(-0.2159,0.12319,0.124973296959268));
#2047=CARTESIAN_POINT('',(-0.2159,0.13335,0.114813296959268));
#2048=CARTESIAN_POINT('',(-0.2159,0.13335,0.114813296959268));
#2049=CARTESIAN_POINT('',(-0.2159,0.03175,0.114813296959268));
#2050=CARTESIAN_POINT('',(-0.182033333333333,-0.0359833333333334,0.148679963625934));
#2051=CARTESIAN_POINT('',(-0.2159,-0.05969,0.124973296959268));
#2052=CARTESIAN_POINT('',(-0.115341265311647,0.0325749899148941,0.124973296959268));
#2053=CARTESIAN_POINT('',(-0.115341265311647,0.0328820198774338,0.0262734554708004));
#2054=CARTESIAN_POINT('',(-0.115341265311647,0.0328820198774338,0.0292734554708004));
#2055=CARTESIAN_POINT('',(-0.115341265311647,0.0960749899148941,0.124973296959268));
#2056=CARTESIAN_POINT('',(-0.102641265311647,0.0960749899148941,0.124973296959268));
#2057=CARTESIAN_POINT('',(-0.1397,0.03175,-0.0742267030407324));
#2058=CARTESIAN_POINT('',(-0.118133604240417,-0.03385,-0.0742267030407324));
#2059=CARTESIAN_POINT('',(-0.118133604240417,-0.03385,-0.0742267030407324));
#2060=CARTESIAN_POINT('',(-0.118133604240417,0.03175,-0.0742267030407324));
#2061=CARTESIAN_POINT('',(-0.118133604240417,-0.05385,-0.0742267030407324));
#2062=CARTESIAN_POINT('',(-0.164016802120209,-0.05385,-0.0742267030407324));
#2063=CARTESIAN_POINT('',(-0.118133604240417,-0.03385,-0.0742267030407324));
#2064=CARTESIAN_POINT('',(-0.118133604240417,-0.03385,-0.0742267030407324));
#2065=CARTESIAN_POINT('',(-0.164016802120209,-0.05385,-0.0742267030407324));
#2066=CARTESIAN_POINT('',(-0.118133604240417,-0.05385,-0.0742267030407324));
#2067=CARTESIAN_POINT('',(-0.118133604240417,0.03175,-0.0742267030407324));
#2068=CARTESIAN_POINT('',(-0.1397,0.03175,-0.0742267030407324));
#2069=CARTESIAN_POINT('',(-0.164016802120209,0.11735,-0.0742267030407324));
#2070=CARTESIAN_POINT('',(-0.118133604240417,0.11735,-0.0742267030407324));
#2071=CARTESIAN_POINT('',(-0.118133604240417,0.03175,-0.0742267030407324));
#2072=CARTESIAN_POINT('',(-0.118133604240417,0.09735,-0.0742267030407324));
#2073=CARTESIAN_POINT('',(-0.118133604240417,0.09735,-0.0742267030407324));
#2074=CARTESIAN_POINT('',(-0.164016802120209,0.11735,-0.0742267030407324));
#2075=CARTESIAN_POINT('',(-0.118133604240417,0.11735,-0.0742267030407324));
#2076=CARTESIAN_POINT('',(-0.118133604240417,0.09735,-0.0742267030407324));
#2077=CARTESIAN_POINT('',(-0.118133604240417,0.09735,-0.0742267030407324));
#2078=CARTESIAN_POINT('',(-0.118133604240417,0.03175,-0.0742267030407324));
#2079=CARTESIAN_POINT('',(-0.2059,0.04175,-0.0742267030407324));
#2080=CARTESIAN_POINT('',(-0.2059,0.04175,-0.0742267030407324));
#2081=CARTESIAN_POINT('',(-0.2059,0.04175,-0.0742267030407324));
#2082=CARTESIAN_POINT('',(-0.2059,0.04175,-0.0742267030407324));
#2083=CARTESIAN_POINT('',(-0.2059,0.02175,-0.0742267030407324));
#2084=CARTESIAN_POINT('',(-0.2059,0.02175,-0.0742267030407324));
#2085=CARTESIAN_POINT('',(-0.2059,0.02175,-0.0742267030407324));
#2086=CARTESIAN_POINT('',(-0.2059,0.02175,-0.0742267030407324));
#2087=CARTESIAN_POINT('',(-0.1397,0.03175,-0.0742267030407324));
#2088=CARTESIAN_POINT('',(-0.2059,0.03175,-0.0742267030407324));
#2089=CARTESIAN_POINT('',(-0.2059,0.03175,-0.0742267030407324));
#2090=CARTESIAN_POINT('',(-0.164016802120209,-0.05985,0.0217732969592676));
#2091=CARTESIAN_POINT('',(-0.164016802120209,-0.05985,0.114773296959268));
#2092=CARTESIAN_POINT('',(-0.0461336042404175,-0.05985,0.));
#2093=CARTESIAN_POINT('',(-0.0461336042404175,-0.05985,-0.0582267030407324));
#2094=CARTESIAN_POINT('',(-0.0461336042404175,-0.05385,-0.0291133515203662));
#2095=CARTESIAN_POINT('',(-0.0461336042404175,-0.05385,0.));
#2096=CARTESIAN_POINT('',(-0.0461336042404175,-0.05385,-0.0582267030407324));
#2097=CARTESIAN_POINT('',(-0.0461336042404175,-0.05685,-0.0582267030407324));
#2098=CARTESIAN_POINT('',(-0.0461336042404175,-0.05685,0.));
#2099=CARTESIAN_POINT('',(-0.1397,0.03175,0.114773296959268));
#2100=CARTESIAN_POINT('',(-0.203133604240418,0.07435,-0.0730353098441496));
#2101=CARTESIAN_POINT('',(-0.203133604240418,0.06935,-0.0730353098441496));
#2102=CARTESIAN_POINT('',(-0.203133604240418,0.06935,-0.000631006442441004));
#2103=CARTESIAN_POINT('',(-0.203133604240418,0.06935,0.0717732969592676));
#2104=CARTESIAN_POINT('',(-0.203133604240418,0.07435,0.0717732969592676));
#2105=CARTESIAN_POINT('',(-0.164016802120209,0.11935,-0.0630353098441496));
#2106=CARTESIAN_POINT('',(-0.2009,0.03175,-0.0486445857584477));
#2107=CARTESIAN_POINT('',(-0.154133604240417,0.0115497163133114,0.103085648953915));
#2108=CARTESIAN_POINT('',(-0.154133604240417,0.024569728165865,0.103085648953915));
#2109=CARTESIAN_POINT('',(-0.154133604240417,0.024569728165865,0.103085648953915));
#2110=CARTESIAN_POINT('',(-0.137133604240417,0.024569728165865,0.103085648953915));
#2111=CARTESIAN_POINT('',(-0.137133604240417,0.0115497163133114,0.103085648953915));
#2112=CARTESIAN_POINT('',(-0.137133604240417,-0.00147029553924222,0.103085648953915));
#2113=CARTESIAN_POINT('',(-0.154133604240417,-0.00147029553924222,0.103085648953915));
#2114=CARTESIAN_POINT('',(-0.154133604240417,-0.00147029553924222,0.103085648953915));
#2115=CARTESIAN_POINT('',(-0.154133604240417,0.0115497163133114,0.103085648953915));
#2116=CARTESIAN_POINT('',(-0.154133604240417,-0.00147029553924222,0.0953899323940277));
#2117=CARTESIAN_POINT('',(-0.137133604240417,-0.00147029553924222,0.0953899323940277));
#2118=CARTESIAN_POINT('',(-0.137133604240417,-0.00147029553924222,0.0876942158341408));
#2119=CARTESIAN_POINT('',(-0.154133604240417,-0.00147029553924222,0.0876942158341408));
#2120=CARTESIAN_POINT('',(-0.154133604240417,-0.00147029553924222,0.0876942158341408));
#2121=CARTESIAN_POINT('',(-0.154133604240417,-0.00147029553924222,0.0953899323940277));
#2122=CARTESIAN_POINT('',(-0.154133604240417,0.0115497163133114,0.0876942158341408));
#2123=CARTESIAN_POINT('',(-0.137133604240417,0.0115497163133114,0.0876942158341408));
#2124=CARTESIAN_POINT('',(-0.137133604240417,0.024569728165865,0.0876942158341408));
#2125=CARTESIAN_POINT('',(-0.154133604240417,0.024569728165865,0.0876942158341408));
#2126=CARTESIAN_POINT('',(-0.154133604240417,0.024569728165865,0.0876942158341408));
#2127=CARTESIAN_POINT('',(-0.154133604240417,0.0115497163133114,0.0876942158341408));
#2128=CARTESIAN_POINT('',(-0.154133604240417,-0.00597029553924222,0.0953899323940277));
#2129=CARTESIAN_POINT('',(-0.154133604240417,-0.00597029553924222,0.107585648953915));
#2130=CARTESIAN_POINT('',(-0.154133604240417,-0.00597029553924222,0.107585648953915));
#2131=CARTESIAN_POINT('',(-0.154133604240417,-0.00597029553924222,0.0953899323940277));
#2132=CARTESIAN_POINT('',(-0.154133604240417,-0.00597029553924222,0.0831942158341408));
#2133=CARTESIAN_POINT('',(-0.154133604240417,-0.00597029553924222,0.0831942158341408));
#2134=CARTESIAN_POINT('',(-0.154133604240417,0.0115497163133114,0.107585648953915));
#2135=CARTESIAN_POINT('',(-0.154133604240417,0.029069728165865,0.107585648953915));
#2136=CARTESIAN_POINT('',(-0.154133604240417,0.029069728165865,0.107585648953915));
#2137=CARTESIAN_POINT('',(-0.154133604240417,0.0115497163133114,0.107585648953915));
#2138=CARTESIAN_POINT('',(-0.154133604240417,0.029069728165865,0.0953899323940277));
#2139=CARTESIAN_POINT('',(-0.142192482948303,0.029069728165865,0.0953899323940277));
#2140=CARTESIAN_POINT('',(-0.142192482948303,0.029069728165865,0.0919487937187217));
#2141=CARTESIAN_POINT('',(-0.154133604240417,0.029069728165865,0.0831942158341408));
#2142=CARTESIAN_POINT('',(-0.154133604240417,0.029069728165865,0.0831942158341408));
#2143=CARTESIAN_POINT('',(-0.154133604240417,0.029069728165865,0.0953899323940277));
#2144=CARTESIAN_POINT('',(-0.154133604240417,0.0115497163133114,0.0831942158341408));
#2145=CARTESIAN_POINT('',(-0.154133604240417,0.0115497163133114,0.0831942158341408));
#2146=CARTESIAN_POINT('',(-0.154133604240417,0.024569728165865,0.0953899323940277));
#2147=CARTESIAN_POINT('',(-0.142192482948303,0.024569728165865,0.0953899323940277));
#2148=CARTESIAN_POINT('',(-0.142192482948303,0.024569728165865,0.0919487937187217));
#2149=CARTESIAN_POINT('',(-0.137133604240417,0.024569728165865,0.0953899323940277));
#2150=CARTESIAN_POINT('',(-0.154133604240417,0.024569728165865,0.0953899323940277));
#2151=CARTESIAN_POINT('',(-0.154133604240417,0.02975,0.0182732969592676));
#2152=CARTESIAN_POINT('',(-0.137133604240417,0.02975,0.0182732969592676));
#2153=CARTESIAN_POINT('',(-0.142192482948303,0.033569728165865,0.0953899323940277));
#2154=CARTESIAN_POINT('',(-0.090424,0.05525,0.088645217303978));
#2155=CARTESIAN_POINT('',(-0.090424,0.05525,0.116345217303978));
#2156=CARTESIAN_POINT('',(-0.090424,0.05525,0.0663452173039779));
#2157=CARTESIAN_POINT('',(-0.090424,0.00825,0.0713452173039779));
#2158=CARTESIAN_POINT('',(-0.090424,0.00825,0.0713452173039779));
#2159=CARTESIAN_POINT('',(-0.090424,0.00825,0.0713452173039779));
#2160=CARTESIAN_POINT('',(-0.090424,0.00825,0.0713452173039779));
#2161=CARTESIAN_POINT('',(-0.090424,0.00825,0.111345217303978));
#2162=CARTESIAN_POINT('',(-0.090424,0.00825,0.111345217303978));
#2163=CARTESIAN_POINT('',(-0.090424,0.00825,0.111345217303978));
#2164=CARTESIAN_POINT('',(-0.090424,0.00825,0.111345217303978));
#2165=CARTESIAN_POINT('',(-0.090424,0.00825,0.088645217303978));
#2166=CARTESIAN_POINT('',(-0.090424,0.00825,0.088645217303978));
#2167=CARTESIAN_POINT('',(-0.090424,0.00825,0.088645217303978));
#2168=CARTESIAN_POINT('',(-0.090424,0.00825,0.0663452173039779));
#2169=CARTESIAN_POINT('',(-0.090424,0.00825,0.116345217303978));
#2170=CARTESIAN_POINT('',(-0.090424,0.03175,0.116345217303978));
#2171=CARTESIAN_POINT('',(-0.090424,0.03175,0.0663452173039779));
#2172=CARTESIAN_POINT('',(-0.090424,0.00825,-0.0533732969592676));
#2173=CARTESIAN_POINT('',(-0.090424,0.00825,-0.0533732969592676));
#2174=CARTESIAN_POINT('',(-0.090424,0.00825,-0.0533732969592676));
#2175=CARTESIAN_POINT('',(-0.090424,0.00825,-0.0533732969592676));
#2176=CARTESIAN_POINT('',(-0.090424,0.00825,-0.0133732969592676));
#2177=CARTESIAN_POINT('',(-0.090424,0.00825,-0.0133732969592676));
#2178=CARTESIAN_POINT('',(-0.090424,0.00825,-0.0133732969592676));
#2179=CARTESIAN_POINT('',(-0.090424,0.00825,-0.0133732969592676));
#2180=CARTESIAN_POINT('',(-0.090424,0.00825,-0.0360732969592676));
#2181=CARTESIAN_POINT('',(-0.090424,0.00825,-0.0360732969592676));
#2182=CARTESIAN_POINT('',(-0.090424,0.00825,-0.0360732969592676));
#2183=CARTESIAN_POINT('',(-0.090424,0.00825,-0.0583732969592676));
#2184=CARTESIAN_POINT('',(-0.090424,0.00825,-0.00837329695926759));
#2185=CARTESIAN_POINT('',(-0.090424,0.05525,-0.0360732969592676));
#2186=CARTESIAN_POINT('',(-0.090424,0.05525,-0.00837329695926759));
#2187=CARTESIAN_POINT('',(-0.090424,0.05525,-0.0583732969592676));
#2188=CARTESIAN_POINT('',(-0.090424,0.03175,-0.00837329695926759));
#2189=CARTESIAN_POINT('',(-0.090424,0.03175,-0.0583732969592676));
#2190=CARTESIAN_POINT('',(-0.110133604240417,0.0328820198774338,0.0262734554708004));
#2191=MECHANICAL_DESIGN_GEOMETRIC_PRESENTATION_REPRESENTATION('',(#1386),
#2192);
#2192=(
GEOMETRIC_REPRESENTATION_CONTEXT(3)
GLOBAL_UNCERTAINTY_ASSIGNED_CONTEXT((#2193))
GLOBAL_UNIT_ASSIGNED_CONTEXT((#2196,#2195,#2194))
REPRESENTATION_CONTEXT('main electronic box','TOP_LEVEL_ASSEMBLY_PART')
);
#2193=UNCERTAINTY_MEASURE_WITH_UNIT(LENGTH_MEASURE(1.E-8),#2196,
'DISTANCE_ACCURACY_VALUE','Maximum Tolerance applied to model');
#2194=(
NAMED_UNIT(*)
SI_UNIT($,.STERADIAN.)
SOLID_ANGLE_UNIT()
);
#2195=(
NAMED_UNIT(*)
PLANE_ANGLE_UNIT()
SI_UNIT($,.RADIAN.)
);
#2196=(
LENGTH_UNIT()
NAMED_UNIT(*)
SI_UNIT($,.METRE.)
);
#2197=PRODUCT_DEFINITION_SHAPE('','',#2198);
#2198=PRODUCT_DEFINITION('','',#2200,#2199);
#2199=PRODUCT_DEFINITION_CONTEXT('',#2206,'design');
#2200=PRODUCT_DEFINITION_FORMATION_WITH_SPECIFIED_SOURCE('','',#2202,
 .NOT_KNOWN.);
#2201=PRODUCT_RELATED_PRODUCT_CATEGORY('','',(#2202));
#2202=PRODUCT('main electronic box','main electronic box',
'main electronic box',(#2204));
#2203=PRODUCT_CATEGORY('','');
#2204=PRODUCT_CONTEXT('',#2206,'mechanical');
#2205=APPLICATION_PROTOCOL_DEFINITION('international standard',
'ap242_managed_model_based_3d_engineering',2020,#2206);
#2206=APPLICATION_CONTEXT('managed model based 3d engineering');
ENDSEC;
END-ISO-10303-21;
