ISO-10303-21;
HEADER;
/* Generated by software containing ST-Developer
 * from STEP Tools, Inc. (www.steptools.com) 
 */
/* OPTION: using custom renumber hook */

FILE_DESCRIPTION(
/* description */ ('STEP AP242 Edition 2',
'CAx-IF Rec.Pracs.---Representation and Presentation of Product Manufa
cturing Information (PMI)---4.0---2014-10-13',
'CAx-IF Rec.Pracs.---3D Tessellated Geometry---0.4---2014-09-14','2;1',
'CAx-IF Rec.Pracs.---User Defined Attributes---1.5---2016-08-15'),
/* implementation_level */ '2;1');

FILE_NAME(
/* name */ 'happy plant - bottom shell',
/* time_stamp */ '2026-10-08T17:27:51Z',
/* author */ (''),
/* organization */ (''),
/* preprocessor_version */ 'ST-DEVELOPER v20',
/* originating_system */ 'ONSHAPE BY PTC INC, 1.221',
/* authorisation */ '  ');

FILE_SCHEMA (('AP242_MANAGED_MODEL_BASED_3D_ENGINEERING_MIM_LF { 1 0 10303 442 3 1 4 }'));
ENDSEC;

DATA;
#10=SHAPE_REPRESENTATION_RELATIONSHIP('','',#1034,#11);
#11=ADVANCED_BREP_SHAPE_REPRESENTATION('',(#1032),#1714);
#12=CYLINDRICAL_SURFACE('',#1045,0.0127);
#13=CYLINDRICAL_SURFACE('',#1048,0.0127);
#14=CYLINDRICAL_SURFACE('',#1051,0.0127);
#15=CYLINDRICAL_SURFACE('',#1056,0.0127);
#16=CYLINDRICAL_SURFACE('',#1076,0.0127);
#17=CYLINDRICAL_SURFACE('',#1078,0.0127);
#18=CYLINDRICAL_SURFACE('',#1080,0.0127);
#19=CYLINDRICAL_SURFACE('',#1083,0.0127);
#20=CYLINDRICAL_SURFACE('',#1089,0.0127);
#21=CYLINDRICAL_SURFACE('',#1091,0.0127);
#22=CYLINDRICAL_SURFACE('',#1093,0.0127);
#23=CYLINDRICAL_SURFACE('',#1095,0.0127);
#24=CYLINDRICAL_SURFACE('',#1110,0.0025);
#25=CYLINDRICAL_SURFACE('',#1113,0.0025);
#26=CYLINDRICAL_SURFACE('',#1116,0.0025);
#27=CYLINDRICAL_SURFACE('',#1119,0.0025);
#28=CYLINDRICAL_SURFACE('',#1123,0.0127);
#29=CYLINDRICAL_SURFACE('',#1125,0.0127);
#30=CIRCLE('',#1039,0.0127);
#31=CIRCLE('',#1040,0.0127);
#32=CIRCLE('',#1041,0.0127);
#33=CIRCLE('',#1042,0.0127);
#34=CIRCLE('',#1046,0.0127);
#35=CIRCLE('',#1047,0.0127);
#36=CIRCLE('',#1049,0.0127);
#37=CIRCLE('',#1050,0.0127);
#38=CIRCLE('',#1052,0.0127);
#39=CIRCLE('',#1053,0.0127);
#40=CIRCLE('',#1054,0.0127);
#41=CIRCLE('',#1055,0.0127);
#42=CIRCLE('',#1057,0.0127);
#43=CIRCLE('',#1058,0.0127);
#44=CIRCLE('',#1062,0.0025);
#45=CIRCLE('',#1063,0.0025);
#46=CIRCLE('',#1064,0.0025);
#47=CIRCLE('',#1065,0.0025);
#48=CIRCLE('',#1066,0.0127);
#49=CIRCLE('',#1067,0.0127);
#50=CIRCLE('',#1068,0.0127);
#51=CIRCLE('',#1069,0.0127);
#52=CIRCLE('',#1072,0.0127);
#53=CIRCLE('',#1073,0.0127);
#54=CIRCLE('',#1074,0.0127);
#55=CIRCLE('',#1075,0.0127);
#56=CIRCLE('',#1077,0.0127);
#57=CIRCLE('',#1079,0.0127);
#58=CIRCLE('',#1081,0.0127);
#59=CIRCLE('',#1084,0.0127);
#60=CIRCLE('',#1086,0.0127);
#61=CIRCLE('',#1087,0.0127);
#62=CIRCLE('',#1111,0.0025);
#63=CIRCLE('',#1114,0.0025);
#64=CIRCLE('',#1117,0.0025);
#65=CIRCLE('',#1120,0.0025);
#66=CIRCLE('',#1124,0.0127);
#67=CIRCLE('',#1126,0.0127);
#68=ORIENTED_EDGE('',*,*,#350,.F.);
#69=ORIENTED_EDGE('',*,*,#351,.T.);
#70=ORIENTED_EDGE('',*,*,#352,.T.);
#71=ORIENTED_EDGE('',*,*,#353,.F.);
#72=ORIENTED_EDGE('',*,*,#354,.F.);
#73=ORIENTED_EDGE('',*,*,#355,.T.);
#74=ORIENTED_EDGE('',*,*,#356,.F.);
#75=ORIENTED_EDGE('',*,*,#357,.T.);
#76=ORIENTED_EDGE('',*,*,#358,.F.);
#77=ORIENTED_EDGE('',*,*,#359,.T.);
#78=ORIENTED_EDGE('',*,*,#360,.F.);
#79=ORIENTED_EDGE('',*,*,#361,.T.);
#80=ORIENTED_EDGE('',*,*,#362,.T.);
#81=ORIENTED_EDGE('',*,*,#363,.T.);
#82=ORIENTED_EDGE('',*,*,#364,.T.);
#83=ORIENTED_EDGE('',*,*,#365,.T.);
#84=ORIENTED_EDGE('',*,*,#366,.F.);
#85=ORIENTED_EDGE('',*,*,#367,.F.);
#86=ORIENTED_EDGE('',*,*,#368,.T.);
#87=ORIENTED_EDGE('',*,*,#369,.F.);
#88=ORIENTED_EDGE('',*,*,#370,.F.);
#89=ORIENTED_EDGE('',*,*,#371,.T.);
#90=ORIENTED_EDGE('',*,*,#372,.T.);
#91=ORIENTED_EDGE('',*,*,#373,.T.);
#92=ORIENTED_EDGE('',*,*,#374,.T.);
#93=ORIENTED_EDGE('',*,*,#375,.T.);
#94=ORIENTED_EDGE('',*,*,#376,.F.);
#95=ORIENTED_EDGE('',*,*,#377,.F.);
#96=ORIENTED_EDGE('',*,*,#378,.F.);
#97=ORIENTED_EDGE('',*,*,#379,.T.);
#98=ORIENTED_EDGE('',*,*,#380,.T.);
#99=ORIENTED_EDGE('',*,*,#381,.F.);
#100=ORIENTED_EDGE('',*,*,#382,.F.);
#101=ORIENTED_EDGE('',*,*,#369,.T.);
#102=ORIENTED_EDGE('',*,*,#383,.T.);
#103=ORIENTED_EDGE('',*,*,#351,.F.);
#104=ORIENTED_EDGE('',*,*,#384,.F.);
#105=ORIENTED_EDGE('',*,*,#353,.T.);
#106=ORIENTED_EDGE('',*,*,#385,.T.);
#107=ORIENTED_EDGE('',*,*,#380,.F.);
#108=ORIENTED_EDGE('',*,*,#386,.F.);
#109=ORIENTED_EDGE('',*,*,#370,.T.);
#110=ORIENTED_EDGE('',*,*,#387,.T.);
#111=ORIENTED_EDGE('',*,*,#388,.F.);
#112=ORIENTED_EDGE('',*,*,#389,.F.);
#113=ORIENTED_EDGE('',*,*,#390,.T.);
#114=ORIENTED_EDGE('',*,*,#391,.T.);
#115=ORIENTED_EDGE('',*,*,#392,.T.);
#116=ORIENTED_EDGE('',*,*,#393,.F.);
#117=ORIENTED_EDGE('',*,*,#394,.T.);
#118=ORIENTED_EDGE('',*,*,#395,.T.);
#119=ORIENTED_EDGE('',*,*,#355,.F.);
#120=ORIENTED_EDGE('',*,*,#373,.F.);
#121=ORIENTED_EDGE('',*,*,#396,.T.);
#122=ORIENTED_EDGE('',*,*,#397,.F.);
#123=ORIENTED_EDGE('',*,*,#398,.T.);
#124=ORIENTED_EDGE('',*,*,#399,.F.);
#125=ORIENTED_EDGE('',*,*,#400,.F.);
#126=ORIENTED_EDGE('',*,*,#387,.F.);
#127=ORIENTED_EDGE('',*,*,#401,.T.);
#128=ORIENTED_EDGE('',*,*,#402,.F.);
#129=ORIENTED_EDGE('',*,*,#403,.T.);
#130=ORIENTED_EDGE('',*,*,#404,.F.);
#131=ORIENTED_EDGE('',*,*,#405,.T.);
#132=ORIENTED_EDGE('',*,*,#389,.T.);
#133=ORIENTED_EDGE('',*,*,#406,.T.);
#134=ORIENTED_EDGE('',*,*,#407,.F.);
#135=ORIENTED_EDGE('',*,*,#408,.F.);
#136=ORIENTED_EDGE('',*,*,#409,.F.);
#137=ORIENTED_EDGE('',*,*,#410,.F.);
#138=ORIENTED_EDGE('',*,*,#411,.T.);
#139=ORIENTED_EDGE('',*,*,#381,.T.);
#140=ORIENTED_EDGE('',*,*,#385,.F.);
#141=ORIENTED_EDGE('',*,*,#352,.F.);
#142=ORIENTED_EDGE('',*,*,#383,.F.);
#143=ORIENTED_EDGE('',*,*,#368,.F.);
#144=ORIENTED_EDGE('',*,*,#412,.F.);
#145=ORIENTED_EDGE('',*,*,#356,.T.);
#146=ORIENTED_EDGE('',*,*,#395,.F.);
#147=ORIENTED_EDGE('',*,*,#413,.F.);
#148=ORIENTED_EDGE('',*,*,#414,.T.);
#149=ORIENTED_EDGE('',*,*,#415,.T.);
#150=ORIENTED_EDGE('',*,*,#416,.T.);
#151=ORIENTED_EDGE('',*,*,#417,.T.);
#152=ORIENTED_EDGE('',*,*,#418,.T.);
#153=ORIENTED_EDGE('',*,*,#419,.T.);
#154=ORIENTED_EDGE('',*,*,#420,.F.);
#155=ORIENTED_EDGE('',*,*,#421,.T.);
#156=ORIENTED_EDGE('',*,*,#422,.F.);
#157=ORIENTED_EDGE('',*,*,#423,.F.);
#158=ORIENTED_EDGE('',*,*,#391,.F.);
#159=ORIENTED_EDGE('',*,*,#424,.F.);
#160=ORIENTED_EDGE('',*,*,#425,.T.);
#161=ORIENTED_EDGE('',*,*,#401,.F.);
#162=ORIENTED_EDGE('',*,*,#426,.F.);
#163=ORIENTED_EDGE('',*,*,#399,.T.);
#164=ORIENTED_EDGE('',*,*,#420,.T.);
#165=ORIENTED_EDGE('',*,*,#427,.F.);
#166=ORIENTED_EDGE('',*,*,#428,.F.);
#167=ORIENTED_EDGE('',*,*,#429,.T.);
#168=ORIENTED_EDGE('',*,*,#430,.F.);
#169=ORIENTED_EDGE('',*,*,#431,.T.);
#170=ORIENTED_EDGE('',*,*,#432,.T.);
#171=ORIENTED_EDGE('',*,*,#433,.F.);
#172=ORIENTED_EDGE('',*,*,#434,.F.);
#173=ORIENTED_EDGE('',*,*,#435,.T.);
#174=ORIENTED_EDGE('',*,*,#436,.F.);
#175=ORIENTED_EDGE('',*,*,#437,.F.);
#176=ORIENTED_EDGE('',*,*,#438,.F.);
#177=ORIENTED_EDGE('',*,*,#439,.F.);
#178=ORIENTED_EDGE('',*,*,#440,.F.);
#179=ORIENTED_EDGE('',*,*,#441,.T.);
#180=ORIENTED_EDGE('',*,*,#416,.F.);
#181=ORIENTED_EDGE('',*,*,#442,.F.);
#182=ORIENTED_EDGE('',*,*,#443,.T.);
#183=ORIENTED_EDGE('',*,*,#444,.T.);
#184=ORIENTED_EDGE('',*,*,#415,.F.);
#185=ORIENTED_EDGE('',*,*,#445,.F.);
#186=ORIENTED_EDGE('',*,*,#446,.T.);
#187=ORIENTED_EDGE('',*,*,#442,.T.);
#188=ORIENTED_EDGE('',*,*,#421,.F.);
#189=ORIENTED_EDGE('',*,*,#429,.F.);
#190=ORIENTED_EDGE('',*,*,#447,.T.);
#191=ORIENTED_EDGE('',*,*,#448,.T.);
#192=ORIENTED_EDGE('',*,*,#419,.F.);
#193=ORIENTED_EDGE('',*,*,#449,.F.);
#194=ORIENTED_EDGE('',*,*,#450,.T.);
#195=ORIENTED_EDGE('',*,*,#427,.T.);
#196=ORIENTED_EDGE('',*,*,#418,.F.);
#197=ORIENTED_EDGE('',*,*,#451,.F.);
#198=ORIENTED_EDGE('',*,*,#452,.T.);
#199=ORIENTED_EDGE('',*,*,#449,.T.);
#200=ORIENTED_EDGE('',*,*,#417,.F.);
#201=ORIENTED_EDGE('',*,*,#444,.F.);
#202=ORIENTED_EDGE('',*,*,#453,.T.);
#203=ORIENTED_EDGE('',*,*,#451,.T.);
#204=ORIENTED_EDGE('',*,*,#454,.F.);
#205=ORIENTED_EDGE('',*,*,#455,.T.);
#206=ORIENTED_EDGE('',*,*,#456,.T.);
#207=ORIENTED_EDGE('',*,*,#447,.F.);
#208=ORIENTED_EDGE('',*,*,#428,.T.);
#209=ORIENTED_EDGE('',*,*,#450,.F.);
#210=ORIENTED_EDGE('',*,*,#452,.F.);
#211=ORIENTED_EDGE('',*,*,#453,.F.);
#212=ORIENTED_EDGE('',*,*,#443,.F.);
#213=ORIENTED_EDGE('',*,*,#446,.F.);
#214=ORIENTED_EDGE('',*,*,#457,.F.);
#215=ORIENTED_EDGE('',*,*,#458,.T.);
#216=ORIENTED_EDGE('',*,*,#459,.F.);
#217=ORIENTED_EDGE('',*,*,#460,.T.);
#218=ORIENTED_EDGE('',*,*,#358,.T.);
#219=ORIENTED_EDGE('',*,*,#461,.T.);
#220=ORIENTED_EDGE('',*,*,#435,.F.);
#221=ORIENTED_EDGE('',*,*,#462,.F.);
#222=ORIENTED_EDGE('',*,*,#462,.T.);
#223=ORIENTED_EDGE('',*,*,#434,.T.);
#224=ORIENTED_EDGE('',*,*,#463,.F.);
#225=ORIENTED_EDGE('',*,*,#359,.F.);
#226=ORIENTED_EDGE('',*,*,#360,.T.);
#227=ORIENTED_EDGE('',*,*,#463,.T.);
#228=ORIENTED_EDGE('',*,*,#441,.F.);
#229=ORIENTED_EDGE('',*,*,#464,.F.);
#230=ORIENTED_EDGE('',*,*,#464,.T.);
#231=ORIENTED_EDGE('',*,*,#440,.T.);
#232=ORIENTED_EDGE('',*,*,#465,.F.);
#233=ORIENTED_EDGE('',*,*,#361,.F.);
#234=ORIENTED_EDGE('',*,*,#465,.T.);
#235=ORIENTED_EDGE('',*,*,#439,.T.);
#236=ORIENTED_EDGE('',*,*,#466,.F.);
#237=ORIENTED_EDGE('',*,*,#362,.F.);
#238=ORIENTED_EDGE('',*,*,#466,.T.);
#239=ORIENTED_EDGE('',*,*,#438,.T.);
#240=ORIENTED_EDGE('',*,*,#467,.F.);
#241=ORIENTED_EDGE('',*,*,#363,.F.);
#242=ORIENTED_EDGE('',*,*,#467,.T.);
#243=ORIENTED_EDGE('',*,*,#437,.T.);
#244=ORIENTED_EDGE('',*,*,#468,.F.);
#245=ORIENTED_EDGE('',*,*,#364,.F.);
#246=ORIENTED_EDGE('',*,*,#468,.T.);
#247=ORIENTED_EDGE('',*,*,#436,.T.);
#248=ORIENTED_EDGE('',*,*,#461,.F.);
#249=ORIENTED_EDGE('',*,*,#365,.F.);
#250=ORIENTED_EDGE('',*,*,#426,.T.);
#251=ORIENTED_EDGE('',*,*,#406,.F.);
#252=ORIENTED_EDGE('',*,*,#388,.T.);
#253=ORIENTED_EDGE('',*,*,#400,.T.);
#254=ORIENTED_EDGE('',*,*,#433,.T.);
#255=ORIENTED_EDGE('',*,*,#469,.T.);
#256=ORIENTED_EDGE('',*,*,#375,.F.);
#257=ORIENTED_EDGE('',*,*,#470,.F.);
#258=ORIENTED_EDGE('',*,*,#431,.F.);
#259=ORIENTED_EDGE('',*,*,#471,.T.);
#260=ORIENTED_EDGE('',*,*,#377,.T.);
#261=ORIENTED_EDGE('',*,*,#472,.F.);
#262=ORIENTED_EDGE('',*,*,#472,.T.);
#263=ORIENTED_EDGE('',*,*,#376,.T.);
#264=ORIENTED_EDGE('',*,*,#469,.F.);
#265=ORIENTED_EDGE('',*,*,#432,.F.);
#266=ORIENTED_EDGE('',*,*,#430,.T.);
#267=ORIENTED_EDGE('',*,*,#470,.T.);
#268=ORIENTED_EDGE('',*,*,#374,.F.);
#269=ORIENTED_EDGE('',*,*,#471,.F.);
#270=ORIENTED_EDGE('',*,*,#458,.F.);
#271=ORIENTED_EDGE('',*,*,#473,.T.);
#272=ORIENTED_EDGE('',*,*,#413,.T.);
#273=ORIENTED_EDGE('',*,*,#394,.F.);
#274=ORIENTED_EDGE('',*,*,#474,.F.);
#275=ORIENTED_EDGE('',*,*,#445,.T.);
#276=ORIENTED_EDGE('',*,*,#414,.F.);
#277=ORIENTED_EDGE('',*,*,#473,.F.);
#278=ORIENTED_EDGE('',*,*,#457,.T.);
#279=ORIENTED_EDGE('',*,*,#423,.T.);
#280=ORIENTED_EDGE('',*,*,#475,.F.);
#281=ORIENTED_EDGE('',*,*,#455,.F.);
#282=ORIENTED_EDGE('',*,*,#476,.F.);
#283=ORIENTED_EDGE('',*,*,#392,.F.);
#284=ORIENTED_EDGE('',*,*,#448,.F.);
#285=ORIENTED_EDGE('',*,*,#456,.F.);
#286=ORIENTED_EDGE('',*,*,#475,.T.);
#287=ORIENTED_EDGE('',*,*,#422,.T.);
#288=ORIENTED_EDGE('',*,*,#390,.F.);
#289=ORIENTED_EDGE('',*,*,#405,.F.);
#290=ORIENTED_EDGE('',*,*,#477,.T.);
#291=ORIENTED_EDGE('',*,*,#424,.T.);
#292=ORIENTED_EDGE('',*,*,#411,.F.);
#293=ORIENTED_EDGE('',*,*,#367,.T.);
#294=ORIENTED_EDGE('',*,*,#478,.T.);
#295=ORIENTED_EDGE('',*,*,#378,.T.);
#296=ORIENTED_EDGE('',*,*,#396,.F.);
#297=ORIENTED_EDGE('',*,*,#372,.F.);
#298=ORIENTED_EDGE('',*,*,#479,.F.);
#299=ORIENTED_EDGE('',*,*,#357,.F.);
#300=ORIENTED_EDGE('',*,*,#412,.T.);
#301=ORIENTED_EDGE('',*,*,#477,.F.);
#302=ORIENTED_EDGE('',*,*,#404,.T.);
#303=ORIENTED_EDGE('',*,*,#480,.T.);
#304=ORIENTED_EDGE('',*,*,#403,.F.);
#305=ORIENTED_EDGE('',*,*,#481,.T.);
#306=ORIENTED_EDGE('',*,*,#397,.T.);
#307=ORIENTED_EDGE('',*,*,#480,.F.);
#308=ORIENTED_EDGE('',*,*,#398,.F.);
#309=ORIENTED_EDGE('',*,*,#481,.F.);
#310=ORIENTED_EDGE('',*,*,#402,.T.);
#311=ORIENTED_EDGE('',*,*,#425,.F.);
#312=ORIENTED_EDGE('',*,*,#482,.F.);
#313=ORIENTED_EDGE('',*,*,#410,.T.);
#314=ORIENTED_EDGE('',*,*,#482,.T.);
#315=ORIENTED_EDGE('',*,*,#483,.F.);
#316=ORIENTED_EDGE('',*,*,#409,.T.);
#317=ORIENTED_EDGE('',*,*,#483,.T.);
#318=ORIENTED_EDGE('',*,*,#484,.F.);
#319=ORIENTED_EDGE('',*,*,#408,.T.);
#320=ORIENTED_EDGE('',*,*,#484,.T.);
#321=ORIENTED_EDGE('',*,*,#485,.F.);
#322=ORIENTED_EDGE('',*,*,#407,.T.);
#323=ORIENTED_EDGE('',*,*,#485,.T.);
#324=ORIENTED_EDGE('',*,*,#478,.F.);
#325=ORIENTED_EDGE('',*,*,#366,.T.);
#326=ORIENTED_EDGE('',*,*,#382,.T.);
#327=ORIENTED_EDGE('',*,*,#350,.T.);
#328=ORIENTED_EDGE('',*,*,#384,.T.);
#329=ORIENTED_EDGE('',*,*,#379,.F.);
#330=ORIENTED_EDGE('',*,*,#459,.T.);
#331=ORIENTED_EDGE('',*,*,#474,.T.);
#332=ORIENTED_EDGE('',*,*,#486,.F.);
#333=ORIENTED_EDGE('',*,*,#487,.T.);
#334=ORIENTED_EDGE('',*,*,#488,.F.);
#335=ORIENTED_EDGE('',*,*,#476,.T.);
#336=ORIENTED_EDGE('',*,*,#454,.T.);
#337=ORIENTED_EDGE('',*,*,#489,.F.);
#338=ORIENTED_EDGE('',*,*,#354,.T.);
#339=ORIENTED_EDGE('',*,*,#479,.T.);
#340=ORIENTED_EDGE('',*,*,#371,.F.);
#341=ORIENTED_EDGE('',*,*,#386,.T.);
#342=ORIENTED_EDGE('',*,*,#488,.T.);
#343=ORIENTED_EDGE('',*,*,#490,.F.);
#344=ORIENTED_EDGE('',*,*,#486,.T.);
#345=ORIENTED_EDGE('',*,*,#393,.T.);
#346=ORIENTED_EDGE('',*,*,#460,.F.);
#347=ORIENTED_EDGE('',*,*,#487,.F.);
#348=ORIENTED_EDGE('',*,*,#490,.T.);
#349=ORIENTED_EDGE('',*,*,#489,.T.);
#350=EDGE_CURVE('',#491,#492,#587,.T.);
#351=EDGE_CURVE('',#491,#493,#588,.T.);
#352=EDGE_CURVE('',#493,#494,#589,.T.);
#353=EDGE_CURVE('',#492,#494,#590,.T.);
#354=EDGE_CURVE('',#495,#496,#591,.T.);
#355=EDGE_CURVE('',#495,#497,#592,.T.);
#356=EDGE_CURVE('',#498,#497,#593,.T.);
#357=EDGE_CURVE('',#498,#496,#594,.F.);
#358=EDGE_CURVE('',#499,#500,#595,.T.);
#359=EDGE_CURVE('',#499,#501,#30,.T.);
#360=EDGE_CURVE('',#502,#501,#596,.T.);
#361=EDGE_CURVE('',#502,#503,#31,.T.);
#362=EDGE_CURVE('',#503,#504,#597,.T.);
#363=EDGE_CURVE('',#504,#505,#32,.T.);
#364=EDGE_CURVE('',#505,#506,#598,.T.);
#365=EDGE_CURVE('',#506,#500,#33,.T.);
#366=EDGE_CURVE('',#507,#508,#599,.T.);
#367=EDGE_CURVE('',#509,#507,#600,.T.);
#368=EDGE_CURVE('',#509,#510,#601,.T.);
#369=EDGE_CURVE('',#508,#510,#602,.T.);
#370=EDGE_CURVE('',#511,#512,#603,.T.);
#371=EDGE_CURVE('',#511,#513,#604,.T.);
#372=EDGE_CURVE('',#513,#514,#605,.T.);
#373=EDGE_CURVE('',#514,#512,#606,.T.);
#374=EDGE_CURVE('',#515,#516,#607,.T.);
#375=EDGE_CURVE('',#516,#517,#608,.T.);
#376=EDGE_CURVE('',#518,#517,#609,.T.);
#377=EDGE_CURVE('',#515,#518,#610,.T.);
#378=EDGE_CURVE('',#519,#520,#611,.T.);
#379=EDGE_CURVE('',#519,#521,#612,.T.);
#380=EDGE_CURVE('',#521,#522,#613,.T.);
#381=EDGE_CURVE('',#520,#522,#614,.T.);
#382=EDGE_CURVE('',#508,#491,#34,.T.);
#383=EDGE_CURVE('',#510,#493,#35,.T.);
#384=EDGE_CURVE('',#492,#521,#36,.T.);
#385=EDGE_CURVE('',#494,#522,#37,.T.);
#386=EDGE_CURVE('',#511,#523,#38,.T.);
#387=EDGE_CURVE('',#512,#524,#39,.F.);
#388=EDGE_CURVE('',#525,#524,#615,.F.);
#389=EDGE_CURVE('',#526,#525,#40,.F.);
#390=EDGE_CURVE('',#526,#527,#616,.T.);
#391=EDGE_CURVE('',#527,#528,#41,.T.);
#392=EDGE_CURVE('',#528,#523,#617,.F.);
#393=EDGE_CURVE('',#529,#495,#42,.T.);
#394=EDGE_CURVE('',#529,#530,#618,.T.);
#395=EDGE_CURVE('',#530,#497,#43,.T.);
#396=EDGE_CURVE('',#514,#531,#619,.T.);
#397=EDGE_CURVE('',#532,#531,#620,.T.);
#398=EDGE_CURVE('',#532,#533,#621,.T.);
#399=EDGE_CURVE('',#534,#533,#622,.T.);
#400=EDGE_CURVE('',#524,#534,#623,.T.);
#401=EDGE_CURVE('',#535,#536,#624,.T.);
#402=EDGE_CURVE('',#537,#536,#625,.T.);
#403=EDGE_CURVE('',#537,#538,#626,.T.);
#404=EDGE_CURVE('',#539,#538,#627,.T.);
#405=EDGE_CURVE('',#539,#526,#628,.T.);
#406=EDGE_CURVE('',#525,#535,#629,.T.);
#407=EDGE_CURVE('',#540,#540,#44,.T.);
#408=EDGE_CURVE('',#541,#541,#45,.T.);
#409=EDGE_CURVE('',#542,#542,#46,.T.);
#410=EDGE_CURVE('',#543,#543,#47,.T.);
#411=EDGE_CURVE('',#509,#520,#630,.T.);
#412=EDGE_CURVE('',#498,#544,#631,.T.);
#413=EDGE_CURVE('',#545,#530,#632,.T.);
#414=EDGE_CURVE('',#545,#546,#633,.T.);
#415=EDGE_CURVE('',#546,#547,#48,.T.);
#416=EDGE_CURVE('',#547,#548,#634,.T.);
#417=EDGE_CURVE('',#548,#549,#49,.T.);
#418=EDGE_CURVE('',#549,#550,#635,.T.);
#419=EDGE_CURVE('',#550,#551,#50,.T.);
#420=EDGE_CURVE('',#552,#551,#636,.T.);
#421=EDGE_CURVE('',#552,#553,#51,.T.);
#422=EDGE_CURVE('',#554,#553,#637,.T.);
#423=EDGE_CURVE('',#528,#554,#638,.T.);
#424=EDGE_CURVE('',#544,#527,#639,.T.);
#425=EDGE_CURVE('',#533,#536,#640,.T.);
#426=EDGE_CURVE('',#534,#535,#641,.T.);
#427=EDGE_CURVE('',#555,#551,#642,.T.);
#428=EDGE_CURVE('',#556,#555,#643,.T.);
#429=EDGE_CURVE('',#556,#552,#644,.T.);
#430=EDGE_CURVE('',#557,#558,#645,.T.);
#431=EDGE_CURVE('',#557,#559,#646,.T.);
#432=EDGE_CURVE('',#559,#560,#647,.T.);
#433=EDGE_CURVE('',#558,#560,#648,.T.);
#434=EDGE_CURVE('',#561,#562,#52,.T.);
#435=EDGE_CURVE('',#561,#563,#649,.T.);
#436=EDGE_CURVE('',#564,#563,#53,.T.);
#437=EDGE_CURVE('',#565,#564,#650,.T.);
#438=EDGE_CURVE('',#566,#565,#54,.T.);
#439=EDGE_CURVE('',#567,#566,#651,.T.);
#440=EDGE_CURVE('',#568,#567,#55,.T.);
#441=EDGE_CURVE('',#568,#562,#652,.T.);
#442=EDGE_CURVE('',#569,#547,#653,.T.);
#443=EDGE_CURVE('',#569,#570,#654,.T.);
#444=EDGE_CURVE('',#570,#548,#655,.T.);
#445=EDGE_CURVE('',#571,#546,#656,.T.);
#446=EDGE_CURVE('',#571,#569,#56,.T.);
#447=EDGE_CURVE('',#556,#572,#57,.T.);
#448=EDGE_CURVE('',#572,#553,#657,.T.);
#449=EDGE_CURVE('',#573,#550,#658,.T.);
#450=EDGE_CURVE('',#573,#555,#58,.T.);
#451=EDGE_CURVE('',#574,#549,#659,.T.);
#452=EDGE_CURVE('',#574,#573,#660,.T.);
#453=EDGE_CURVE('',#570,#574,#59,.T.);
#454=EDGE_CURVE('',#575,#576,#60,.T.);
#455=EDGE_CURVE('',#575,#577,#661,.T.);
#456=EDGE_CURVE('',#577,#572,#662,.T.);
#457=EDGE_CURVE('',#578,#571,#663,.T.);
#458=EDGE_CURVE('',#578,#579,#664,.T.);
#459=EDGE_CURVE('',#580,#579,#61,.T.);
#460=EDGE_CURVE('',#580,#576,#665,.T.);
#461=EDGE_CURVE('',#500,#563,#666,.T.);
#462=EDGE_CURVE('',#499,#561,#667,.T.);
#463=EDGE_CURVE('',#501,#562,#668,.T.);
#464=EDGE_CURVE('',#502,#568,#669,.T.);
#465=EDGE_CURVE('',#503,#567,#670,.T.);
#466=EDGE_CURVE('',#504,#566,#671,.T.);
#467=EDGE_CURVE('',#505,#565,#672,.T.);
#468=EDGE_CURVE('',#506,#564,#673,.T.);
#469=EDGE_CURVE('',#560,#517,#674,.T.);
#470=EDGE_CURVE('',#558,#516,#675,.T.);
#471=EDGE_CURVE('',#557,#515,#676,.T.);
#472=EDGE_CURVE('',#559,#518,#677,.T.);
#473=EDGE_CURVE('',#578,#545,#678,.T.);
#474=EDGE_CURVE('',#579,#529,#679,.T.);
#475=EDGE_CURVE('',#577,#554,#680,.T.);
#476=EDGE_CURVE('',#523,#575,#681,.F.);
#477=EDGE_CURVE('',#539,#544,#682,.T.);
#478=EDGE_CURVE('',#507,#519,#683,.T.);
#479=EDGE_CURVE('',#496,#513,#684,.T.);
#480=EDGE_CURVE('',#538,#531,#685,.T.);
#481=EDGE_CURVE('',#537,#532,#686,.T.);
#482=EDGE_CURVE('',#581,#581,#62,.T.);
#483=EDGE_CURVE('',#582,#582,#63,.T.);
#484=EDGE_CURVE('',#583,#583,#64,.T.);
#485=EDGE_CURVE('',#584,#584,#65,.T.);
#486=EDGE_CURVE('',#585,#529,#66,.T.);
#487=EDGE_CURVE('',#585,#580,#687,.T.);
#488=EDGE_CURVE('',#523,#586,#67,.T.);
#489=EDGE_CURVE('',#586,#576,#688,.T.);
#490=EDGE_CURVE('',#585,#586,#689,.T.);
#491=VERTEX_POINT('',#1423);
#492=VERTEX_POINT('',#1424);
#493=VERTEX_POINT('',#1426);
#494=VERTEX_POINT('',#1428);
#495=VERTEX_POINT('',#1432);
#496=VERTEX_POINT('',#1433);
#497=VERTEX_POINT('',#1435);
#498=VERTEX_POINT('',#1437);
#499=VERTEX_POINT('',#1441);
#500=VERTEX_POINT('',#1442);
#501=VERTEX_POINT('',#1444);
#502=VERTEX_POINT('',#1446);
#503=VERTEX_POINT('',#1448);
#504=VERTEX_POINT('',#1450);
#505=VERTEX_POINT('',#1452);
#506=VERTEX_POINT('',#1454);
#507=VERTEX_POINT('',#1457);
#508=VERTEX_POINT('',#1458);
#509=VERTEX_POINT('',#1460);
#510=VERTEX_POINT('',#1462);
#511=VERTEX_POINT('',#1466);
#512=VERTEX_POINT('',#1467);
#513=VERTEX_POINT('',#1469);
#514=VERTEX_POINT('',#1471);
#515=VERTEX_POINT('',#1475);
#516=VERTEX_POINT('',#1476);
#517=VERTEX_POINT('',#1478);
#518=VERTEX_POINT('',#1480);
#519=VERTEX_POINT('',#1483);
#520=VERTEX_POINT('',#1484);
#521=VERTEX_POINT('',#1486);
#522=VERTEX_POINT('',#1488);
#523=VERTEX_POINT('',#1498);
#524=VERTEX_POINT('',#1500);
#525=VERTEX_POINT('',#1502);
#526=VERTEX_POINT('',#1504);
#527=VERTEX_POINT('',#1506);
#528=VERTEX_POINT('',#1508);
#529=VERTEX_POINT('',#1512);
#530=VERTEX_POINT('',#1514);
#531=VERTEX_POINT('',#1518);
#532=VERTEX_POINT('',#1520);
#533=VERTEX_POINT('',#1522);
#534=VERTEX_POINT('',#1524);
#535=VERTEX_POINT('',#1528);
#536=VERTEX_POINT('',#1529);
#537=VERTEX_POINT('',#1531);
#538=VERTEX_POINT('',#1533);
#539=VERTEX_POINT('',#1535);
#540=VERTEX_POINT('',#1540);
#541=VERTEX_POINT('',#1542);
#542=VERTEX_POINT('',#1544);
#543=VERTEX_POINT('',#1546);
#544=VERTEX_POINT('',#1549);
#545=VERTEX_POINT('',#1551);
#546=VERTEX_POINT('',#1553);
#547=VERTEX_POINT('',#1555);
#548=VERTEX_POINT('',#1557);
#549=VERTEX_POINT('',#1559);
#550=VERTEX_POINT('',#1561);
#551=VERTEX_POINT('',#1563);
#552=VERTEX_POINT('',#1565);
#553=VERTEX_POINT('',#1567);
#554=VERTEX_POINT('',#1569);
#555=VERTEX_POINT('',#1576);
#556=VERTEX_POINT('',#1578);
#557=VERTEX_POINT('',#1581);
#558=VERTEX_POINT('',#1582);
#559=VERTEX_POINT('',#1584);
#560=VERTEX_POINT('',#1586);
#561=VERTEX_POINT('',#1590);
#562=VERTEX_POINT('',#1591);
#563=VERTEX_POINT('',#1593);
#564=VERTEX_POINT('',#1595);
#565=VERTEX_POINT('',#1597);
#566=VERTEX_POINT('',#1599);
#567=VERTEX_POINT('',#1601);
#568=VERTEX_POINT('',#1603);
#569=VERTEX_POINT('',#1606);
#570=VERTEX_POINT('',#1608);
#571=VERTEX_POINT('',#1612);
#572=VERTEX_POINT('',#1616);
#573=VERTEX_POINT('',#1620);
#574=VERTEX_POINT('',#1624);
#575=VERTEX_POINT('',#1630);
#576=VERTEX_POINT('',#1631);
#577=VERTEX_POINT('',#1633);
#578=VERTEX_POINT('',#1636);
#579=VERTEX_POINT('',#1638);
#580=VERTEX_POINT('',#1640);
#581=VERTEX_POINT('',#1687);
#582=VERTEX_POINT('',#1691);
#583=VERTEX_POINT('',#1695);
#584=VERTEX_POINT('',#1699);
#585=VERTEX_POINT('',#1704);
#586=VERTEX_POINT('',#1708);
#587=LINE('',#1422,#690);
#588=LINE('',#1425,#691);
#589=LINE('',#1427,#692);
#590=LINE('',#1429,#693);
#591=LINE('',#1431,#694);
#592=LINE('',#1434,#695);
#593=LINE('',#1436,#696);
#594=LINE('',#1438,#697);
#595=LINE('',#1440,#698);
#596=LINE('',#1445,#699);
#597=LINE('',#1449,#700);
#598=LINE('',#1453,#701);
#599=LINE('',#1456,#702);
#600=LINE('',#1459,#703);
#601=LINE('',#1461,#704);
#602=LINE('',#1463,#705);
#603=LINE('',#1465,#706);
#604=LINE('',#1468,#707);
#605=LINE('',#1470,#708);
#606=LINE('',#1472,#709);
#607=LINE('',#1474,#710);
#608=LINE('',#1477,#711);
#609=LINE('',#1479,#712);
#610=LINE('',#1481,#713);
#611=LINE('',#1482,#714);
#612=LINE('',#1485,#715);
#613=LINE('',#1487,#716);
#614=LINE('',#1489,#717);
#615=LINE('',#1501,#718);
#616=LINE('',#1505,#719);
#617=LINE('',#1509,#720);
#618=LINE('',#1513,#721);
#619=LINE('',#1517,#722);
#620=LINE('',#1519,#723);
#621=LINE('',#1521,#724);
#622=LINE('',#1523,#725);
#623=LINE('',#1525,#726);
#624=LINE('',#1527,#727);
#625=LINE('',#1530,#728);
#626=LINE('',#1532,#729);
#627=LINE('',#1534,#730);
#628=LINE('',#1536,#731);
#629=LINE('',#1537,#732);
#630=LINE('',#1547,#733);
#631=LINE('',#1548,#734);
#632=LINE('',#1550,#735);
#633=LINE('',#1552,#736);
#634=LINE('',#1556,#737);
#635=LINE('',#1560,#738);
#636=LINE('',#1564,#739);
#637=LINE('',#1568,#740);
#638=LINE('',#1570,#741);
#639=LINE('',#1571,#742);
#640=LINE('',#1573,#743);
#641=LINE('',#1574,#744);
#642=LINE('',#1575,#745);
#643=LINE('',#1577,#746);
#644=LINE('',#1579,#747);
#645=LINE('',#1580,#748);
#646=LINE('',#1583,#749);
#647=LINE('',#1585,#750);
#648=LINE('',#1587,#751);
#649=LINE('',#1592,#752);
#650=LINE('',#1596,#753);
#651=LINE('',#1600,#754);
#652=LINE('',#1604,#755);
#653=LINE('',#1605,#756);
#654=LINE('',#1607,#757);
#655=LINE('',#1609,#758);
#656=LINE('',#1611,#759);
#657=LINE('',#1617,#760);
#658=LINE('',#1619,#761);
#659=LINE('',#1623,#762);
#660=LINE('',#1625,#763);
#661=LINE('',#1632,#764);
#662=LINE('',#1634,#765);
#663=LINE('',#1635,#766);
#664=LINE('',#1637,#767);
#665=LINE('',#1641,#768);
#666=LINE('',#1643,#769);
#667=LINE('',#1644,#770);
#668=LINE('',#1646,#771);
#669=LINE('',#1648,#772);
#670=LINE('',#1650,#773);
#671=LINE('',#1652,#774);
#672=LINE('',#1654,#775);
#673=LINE('',#1656,#776);
#674=LINE('',#1660,#777);
#675=LINE('',#1661,#778);
#676=LINE('',#1663,#779);
#677=LINE('',#1664,#780);
#678=LINE('',#1668,#781);
#679=LINE('',#1669,#782);
#680=LINE('',#1672,#783);
#681=LINE('',#1673,#784);
#682=LINE('',#1676,#785);
#683=LINE('',#1678,#786);
#684=LINE('',#1680,#787);
#685=LINE('',#1681,#788);
#686=LINE('',#1683,#789);
#687=LINE('',#1705,#790);
#688=LINE('',#1709,#791);
#689=LINE('',#1711,#792);
#690=VECTOR('',#1133,1.);
#691=VECTOR('',#1134,1.);
#692=VECTOR('',#1135,1.);
#693=VECTOR('',#1136,1.);
#694=VECTOR('',#1139,1.);
#695=VECTOR('',#1140,1.);
#696=VECTOR('',#1141,1.);
#697=VECTOR('',#1142,1.);
#698=VECTOR('',#1145,1.);
#699=VECTOR('',#1148,1.);
#700=VECTOR('',#1151,1.);
#701=VECTOR('',#1154,1.);
#702=VECTOR('',#1157,1.);
#703=VECTOR('',#1158,1.);
#704=VECTOR('',#1159,1.);
#705=VECTOR('',#1160,1.);
#706=VECTOR('',#1163,1.);
#707=VECTOR('',#1164,1.);
#708=VECTOR('',#1165,1.);
#709=VECTOR('',#1166,1.);
#710=VECTOR('',#1169,1.);
#711=VECTOR('',#1170,1.);
#712=VECTOR('',#1171,1.);
#713=VECTOR('',#1172,1.);
#714=VECTOR('',#1173,1.);
#715=VECTOR('',#1174,1.);
#716=VECTOR('',#1175,1.);
#717=VECTOR('',#1176,1.);
#718=VECTOR('',#1195,1.);
#719=VECTOR('',#1198,1.);
#720=VECTOR('',#1201,1.);
#721=VECTOR('',#1206,1.);
#722=VECTOR('',#1211,1.);
#723=VECTOR('',#1212,1.);
#724=VECTOR('',#1213,1.);
#725=VECTOR('',#1214,1.);
#726=VECTOR('',#1215,1.);
#727=VECTOR('',#1218,1.);
#728=VECTOR('',#1219,1.);
#729=VECTOR('',#1220,1.);
#730=VECTOR('',#1221,1.);
#731=VECTOR('',#1222,1.);
#732=VECTOR('',#1223,1.);
#733=VECTOR('',#1234,1.);
#734=VECTOR('',#1235,1.);
#735=VECTOR('',#1236,1.);
#736=VECTOR('',#1237,1.);
#737=VECTOR('',#1240,1.);
#738=VECTOR('',#1243,1.);
#739=VECTOR('',#1246,1.);
#740=VECTOR('',#1249,1.);
#741=VECTOR('',#1250,1.);
#742=VECTOR('',#1251,1.);
#743=VECTOR('',#1254,1.);
#744=VECTOR('',#1255,1.);
#745=VECTOR('',#1256,1.);
#746=VECTOR('',#1257,1.);
#747=VECTOR('',#1258,1.);
#748=VECTOR('',#1259,1.);
#749=VECTOR('',#1260,1.);
#750=VECTOR('',#1261,1.);
#751=VECTOR('',#1262,1.);
#752=VECTOR('',#1267,1.);
#753=VECTOR('',#1270,1.);
#754=VECTOR('',#1273,1.);
#755=VECTOR('',#1276,1.);
#756=VECTOR('',#1277,1.);
#757=VECTOR('',#1278,1.);
#758=VECTOR('',#1279,1.);
#759=VECTOR('',#1282,1.);
#760=VECTOR('',#1289,1.);
#761=VECTOR('',#1292,1.);
#762=VECTOR('',#1297,1.);
#763=VECTOR('',#1298,1.);
#764=VECTOR('',#1307,1.);
#765=VECTOR('',#1308,1.);
#766=VECTOR('',#1309,1.);
#767=VECTOR('',#1310,1.);
#768=VECTOR('',#1313,1.);
#769=VECTOR('',#1316,1.);
#770=VECTOR('',#1317,1.);
#771=VECTOR('',#1320,1.);
#772=VECTOR('',#1323,1.);
#773=VECTOR('',#1326,1.);
#774=VECTOR('',#1329,1.);
#775=VECTOR('',#1332,1.);
#776=VECTOR('',#1335,1.);
#777=VECTOR('',#1342,1.);
#778=VECTOR('',#1343,1.);
#779=VECTOR('',#1346,1.);
#780=VECTOR('',#1347,1.);
#781=VECTOR('',#1354,1.);
#782=VECTOR('',#1355,1.);
#783=VECTOR('',#1360,1.);
#784=VECTOR('',#1361,1.);
#785=VECTOR('',#1366,1.);
#786=VECTOR('',#1369,1.);
#787=VECTOR('',#1372,1.);
#788=VECTOR('',#1373,1.);
#789=VECTOR('',#1376,1.);
#790=VECTOR('',#1409,1.);
#791=VECTOR('',#1414,1.);
#792=VECTOR('',#1417,1.);
#793=EDGE_LOOP('',(#68,#69,#70,#71));
#794=EDGE_LOOP('',(#72,#73,#74,#75));
#795=EDGE_LOOP('',(#76,#77,#78,#79,#80,#81,#82,#83));
#796=EDGE_LOOP('',(#84,#85,#86,#87));
#797=EDGE_LOOP('',(#88,#89,#90,#91));
#798=EDGE_LOOP('',(#92,#93,#94,#95));
#799=EDGE_LOOP('',(#96,#97,#98,#99));
#800=EDGE_LOOP('',(#100,#101,#102,#103));
#801=EDGE_LOOP('',(#104,#105,#106,#107));
#802=EDGE_LOOP('',(#108,#109,#110,#111,#112,#113,#114,#115));
#803=EDGE_LOOP('',(#116,#117,#118,#119));
#804=EDGE_LOOP('',(#120,#121,#122,#123,#124,#125,#126));
#805=EDGE_LOOP('',(#127,#128,#129,#130,#131,#132,#133));
#806=EDGE_LOOP('',(#134));
#807=EDGE_LOOP('',(#135));
#808=EDGE_LOOP('',(#136));
#809=EDGE_LOOP('',(#137));
#810=EDGE_LOOP('',(#138,#139,#140,#141,#142,#143));
#811=EDGE_LOOP('',(#144,#145,#146,#147,#148,#149,#150,#151,#152,#153,#154,
#155,#156,#157,#158,#159));
#812=EDGE_LOOP('',(#160,#161,#162,#163));
#813=EDGE_LOOP('',(#164,#165,#166,#167));
#814=EDGE_LOOP('',(#168,#169,#170,#171));
#815=EDGE_LOOP('',(#172,#173,#174,#175,#176,#177,#178,#179));
#816=EDGE_LOOP('',(#180,#181,#182,#183));
#817=EDGE_LOOP('',(#184,#185,#186,#187));
#818=EDGE_LOOP('',(#188,#189,#190,#191));
#819=EDGE_LOOP('',(#192,#193,#194,#195));
#820=EDGE_LOOP('',(#196,#197,#198,#199));
#821=EDGE_LOOP('',(#200,#201,#202,#203));
#822=EDGE_LOOP('',(#204,#205,#206,#207,#208,#209,#210,#211,#212,#213,#214,
#215,#216,#217));
#823=EDGE_LOOP('',(#218,#219,#220,#221));
#824=EDGE_LOOP('',(#222,#223,#224,#225));
#825=EDGE_LOOP('',(#226,#227,#228,#229));
#826=EDGE_LOOP('',(#230,#231,#232,#233));
#827=EDGE_LOOP('',(#234,#235,#236,#237));
#828=EDGE_LOOP('',(#238,#239,#240,#241));
#829=EDGE_LOOP('',(#242,#243,#244,#245));
#830=EDGE_LOOP('',(#246,#247,#248,#249));
#831=EDGE_LOOP('',(#250,#251,#252,#253));
#832=EDGE_LOOP('',(#254,#255,#256,#257));
#833=EDGE_LOOP('',(#258,#259,#260,#261));
#834=EDGE_LOOP('',(#262,#263,#264,#265));
#835=EDGE_LOOP('',(#266,#267,#268,#269));
#836=EDGE_LOOP('',(#270,#271,#272,#273,#274));
#837=EDGE_LOOP('',(#275,#276,#277,#278));
#838=EDGE_LOOP('',(#279,#280,#281,#282,#283));
#839=EDGE_LOOP('',(#284,#285,#286,#287));
#840=EDGE_LOOP('',(#288,#289,#290,#291));
#841=EDGE_LOOP('',(#292,#293,#294,#295));
#842=EDGE_LOOP('',(#296,#297,#298,#299,#300,#301,#302,#303));
#843=EDGE_LOOP('',(#304,#305,#306,#307));
#844=EDGE_LOOP('',(#308,#309,#310,#311));
#845=EDGE_LOOP('',(#312));
#846=EDGE_LOOP('',(#313));
#847=EDGE_LOOP('',(#314));
#848=EDGE_LOOP('',(#315));
#849=EDGE_LOOP('',(#316));
#850=EDGE_LOOP('',(#317));
#851=EDGE_LOOP('',(#318));
#852=EDGE_LOOP('',(#319));
#853=EDGE_LOOP('',(#320));
#854=EDGE_LOOP('',(#321));
#855=EDGE_LOOP('',(#322));
#856=EDGE_LOOP('',(#323));
#857=EDGE_LOOP('',(#324,#325,#326,#327,#328,#329));
#858=EDGE_LOOP('',(#330,#331,#332,#333));
#859=EDGE_LOOP('',(#334,#335,#336,#337));
#860=EDGE_LOOP('',(#338,#339,#340,#341,#342,#343,#344,#345));
#861=EDGE_LOOP('',(#346,#347,#348,#349));
#862=FACE_BOUND('',#793,.T.);
#863=FACE_BOUND('',#794,.T.);
#864=FACE_BOUND('',#795,.T.);
#865=FACE_BOUND('',#796,.T.);
#866=FACE_BOUND('',#797,.T.);
#867=FACE_BOUND('',#798,.T.);
#868=FACE_BOUND('',#799,.T.);
#869=FACE_BOUND('',#800,.T.);
#870=FACE_BOUND('',#801,.T.);
#871=FACE_BOUND('',#802,.T.);
#872=FACE_BOUND('',#803,.T.);
#873=FACE_BOUND('',#804,.T.);
#874=FACE_BOUND('',#805,.T.);
#875=FACE_BOUND('',#806,.T.);
#876=FACE_BOUND('',#807,.T.);
#877=FACE_BOUND('',#808,.T.);
#878=FACE_BOUND('',#809,.T.);
#879=FACE_BOUND('',#810,.T.);
#880=FACE_BOUND('',#811,.T.);
#881=FACE_BOUND('',#812,.T.);
#882=FACE_BOUND('',#813,.T.);
#883=FACE_BOUND('',#814,.T.);
#884=FACE_BOUND('',#815,.T.);
#885=FACE_BOUND('',#816,.T.);
#886=FACE_BOUND('',#817,.T.);
#887=FACE_BOUND('',#818,.T.);
#888=FACE_BOUND('',#819,.T.);
#889=FACE_BOUND('',#820,.T.);
#890=FACE_BOUND('',#821,.T.);
#891=FACE_BOUND('',#822,.T.);
#892=FACE_BOUND('',#823,.T.);
#893=FACE_BOUND('',#824,.T.);
#894=FACE_BOUND('',#825,.T.);
#895=FACE_BOUND('',#826,.T.);
#896=FACE_BOUND('',#827,.T.);
#897=FACE_BOUND('',#828,.T.);
#898=FACE_BOUND('',#829,.T.);
#899=FACE_BOUND('',#830,.T.);
#900=FACE_BOUND('',#831,.T.);
#901=FACE_BOUND('',#832,.T.);
#902=FACE_BOUND('',#833,.T.);
#903=FACE_BOUND('',#834,.T.);
#904=FACE_BOUND('',#835,.T.);
#905=FACE_BOUND('',#836,.T.);
#906=FACE_BOUND('',#837,.T.);
#907=FACE_BOUND('',#838,.T.);
#908=FACE_BOUND('',#839,.T.);
#909=FACE_BOUND('',#840,.T.);
#910=FACE_BOUND('',#841,.T.);
#911=FACE_BOUND('',#842,.T.);
#912=FACE_BOUND('',#843,.T.);
#913=FACE_BOUND('',#844,.T.);
#914=FACE_BOUND('',#845,.T.);
#915=FACE_BOUND('',#846,.T.);
#916=FACE_BOUND('',#847,.T.);
#917=FACE_BOUND('',#848,.T.);
#918=FACE_BOUND('',#849,.T.);
#919=FACE_BOUND('',#850,.T.);
#920=FACE_BOUND('',#851,.T.);
#921=FACE_BOUND('',#852,.T.);
#922=FACE_BOUND('',#853,.T.);
#923=FACE_BOUND('',#854,.T.);
#924=FACE_BOUND('',#855,.T.);
#925=FACE_BOUND('',#856,.T.);
#926=FACE_BOUND('',#857,.T.);
#927=FACE_BOUND('',#858,.T.);
#928=FACE_BOUND('',#859,.T.);
#929=FACE_BOUND('',#860,.T.);
#930=FACE_BOUND('',#861,.T.);
#931=PLANE('',#1036);
#932=PLANE('',#1037);
#933=PLANE('',#1038);
#934=PLANE('',#1043);
#935=PLANE('',#1044);
#936=PLANE('',#1059);
#937=PLANE('',#1060);
#938=PLANE('',#1061);
#939=PLANE('',#1070);
#940=PLANE('',#1071);
#941=PLANE('',#1082);
#942=PLANE('',#1085);
#943=PLANE('',#1088);
#944=PLANE('',#1090);
#945=PLANE('',#1092);
#946=PLANE('',#1094);
#947=PLANE('',#1096);
#948=PLANE('',#1097);
#949=PLANE('',#1098);
#950=PLANE('',#1099);
#951=PLANE('',#1100);
#952=PLANE('',#1101);
#953=PLANE('',#1102);
#954=PLANE('',#1103);
#955=PLANE('',#1104);
#956=PLANE('',#1105);
#957=PLANE('',#1106);
#958=PLANE('',#1107);
#959=PLANE('',#1108);
#960=PLANE('',#1109);
#961=PLANE('',#1112);
#962=PLANE('',#1115);
#963=PLANE('',#1118);
#964=PLANE('',#1121);
#965=PLANE('',#1122);
#966=PLANE('',#1127);
#967=PLANE('',#1128);
#968=ADVANCED_FACE('',(#862),#931,.F.);
#969=ADVANCED_FACE('',(#863),#932,.F.);
#970=ADVANCED_FACE('',(#864,#865),#933,.F.);
#971=ADVANCED_FACE('',(#866),#934,.T.);
#972=ADVANCED_FACE('',(#867,#868),#935,.T.);
#973=ADVANCED_FACE('',(#869),#12,.F.);
#974=ADVANCED_FACE('',(#870),#13,.F.);
#975=ADVANCED_FACE('',(#871),#14,.F.);
#976=ADVANCED_FACE('',(#872),#15,.F.);
#977=ADVANCED_FACE('',(#873),#936,.F.);
#978=ADVANCED_FACE('',(#874),#937,.T.);
#979=ADVANCED_FACE('',(#875,#876,#877,#878,#879,#880),#938,.T.);
#980=ADVANCED_FACE('',(#881,#882,#883),#939,.F.);
#981=ADVANCED_FACE('',(#884,#885),#940,.T.);
#982=ADVANCED_FACE('',(#886),#16,.T.);
#983=ADVANCED_FACE('',(#887),#17,.T.);
#984=ADVANCED_FACE('',(#888),#18,.T.);
#985=ADVANCED_FACE('',(#889),#941,.T.);
#986=ADVANCED_FACE('',(#890),#19,.T.);
#987=ADVANCED_FACE('',(#891),#942,.F.);
#988=ADVANCED_FACE('',(#892),#943,.T.);
#989=ADVANCED_FACE('',(#893),#20,.F.);
#990=ADVANCED_FACE('',(#894),#944,.T.);
#991=ADVANCED_FACE('',(#895),#21,.F.);
#992=ADVANCED_FACE('',(#896),#945,.F.);
#993=ADVANCED_FACE('',(#897),#22,.F.);
#994=ADVANCED_FACE('',(#898),#946,.F.);
#995=ADVANCED_FACE('',(#899),#23,.F.);
#996=ADVANCED_FACE('',(#900),#947,.T.);
#997=ADVANCED_FACE('',(#901),#948,.T.);
#998=ADVANCED_FACE('',(#902),#949,.F.);
#999=ADVANCED_FACE('',(#903),#950,.F.);
#1000=ADVANCED_FACE('',(#904),#951,.T.);
#1001=ADVANCED_FACE('',(#905),#952,.F.);
#1002=ADVANCED_FACE('',(#906),#953,.F.);
#1003=ADVANCED_FACE('',(#907),#954,.F.);
#1004=ADVANCED_FACE('',(#908),#955,.T.);
#1005=ADVANCED_FACE('',(#909),#956,.T.);
#1006=ADVANCED_FACE('',(#910),#957,.F.);
#1007=ADVANCED_FACE('',(#911),#958,.T.);
#1008=ADVANCED_FACE('',(#912),#959,.T.);
#1009=ADVANCED_FACE('',(#913),#960,.F.);
#1010=ADVANCED_FACE('',(#914,#915),#24,.F.);
#1011=ADVANCED_FACE('',(#916),#961,.T.);
#1012=ADVANCED_FACE('',(#917,#918),#25,.F.);
#1013=ADVANCED_FACE('',(#919),#962,.T.);
#1014=ADVANCED_FACE('',(#920,#921),#26,.F.);
#1015=ADVANCED_FACE('',(#922),#963,.T.);
#1016=ADVANCED_FACE('',(#923,#924),#27,.F.);
#1017=ADVANCED_FACE('',(#925),#964,.T.);
#1018=ADVANCED_FACE('',(#926),#965,.F.);
#1019=ADVANCED_FACE('',(#927),#28,.T.);
#1020=ADVANCED_FACE('',(#928),#29,.T.);
#1021=ADVANCED_FACE('',(#929),#966,.F.);
#1022=ADVANCED_FACE('',(#930),#967,.T.);
#1023=CLOSED_SHELL('',(#968,#969,#970,#971,#972,#973,#974,#975,#976,#977,
#978,#979,#980,#981,#982,#983,#984,#985,#986,#987,#988,#989,#990,#991,#992,
#993,#994,#995,#996,#997,#998,#999,#1000,#1001,#1002,#1003,#1004,#1005,
#1006,#1007,#1008,#1009,#1010,#1011,#1012,#1013,#1014,#1015,#1016,#1017,
#1018,#1019,#1020,#1021,#1022));
#1024=STYLED_ITEM('',(#1025),#1032);
#1025=PRESENTATION_STYLE_ASSIGNMENT((#1026));
#1026=SURFACE_STYLE_USAGE(.BOTH.,#1027);
#1027=SURFACE_SIDE_STYLE('',(#1028));
#1028=SURFACE_STYLE_FILL_AREA(#1029);
#1029=FILL_AREA_STYLE('',(#1030));
#1030=FILL_AREA_STYLE_COLOUR('',#1031);
#1031=COLOUR_RGB('',0.0862745098039216,0.32156862745098,0.580392156862745);
#1032=MANIFOLD_SOLID_BREP('bottom shell',#1023);
#1033=SHAPE_DEFINITION_REPRESENTATION(#1719,#1034);
#1034=SHAPE_REPRESENTATION('bottom shell',(#1035),#1714);
#1035=AXIS2_PLACEMENT_3D('',#1420,#1129,#1130);
#1036=AXIS2_PLACEMENT_3D('',#1421,#1131,#1132);
#1037=AXIS2_PLACEMENT_3D('',#1430,#1137,#1138);
#1038=AXIS2_PLACEMENT_3D('',#1439,#1143,#1144);
#1039=AXIS2_PLACEMENT_3D('',#1443,#1146,#1147);
#1040=AXIS2_PLACEMENT_3D('',#1447,#1149,#1150);
#1041=AXIS2_PLACEMENT_3D('',#1451,#1152,#1153);
#1042=AXIS2_PLACEMENT_3D('',#1455,#1155,#1156);
#1043=AXIS2_PLACEMENT_3D('',#1464,#1161,#1162);
#1044=AXIS2_PLACEMENT_3D('',#1473,#1167,#1168);
#1045=AXIS2_PLACEMENT_3D('',#1490,#1177,#1178);
#1046=AXIS2_PLACEMENT_3D('',#1491,#1179,#1180);
#1047=AXIS2_PLACEMENT_3D('',#1492,#1181,#1182);
#1048=AXIS2_PLACEMENT_3D('',#1493,#1183,#1184);
#1049=AXIS2_PLACEMENT_3D('',#1494,#1185,#1186);
#1050=AXIS2_PLACEMENT_3D('',#1495,#1187,#1188);
#1051=AXIS2_PLACEMENT_3D('',#1496,#1189,#1190);
#1052=AXIS2_PLACEMENT_3D('',#1497,#1191,#1192);
#1053=AXIS2_PLACEMENT_3D('',#1499,#1193,#1194);
#1054=AXIS2_PLACEMENT_3D('',#1503,#1196,#1197);
#1055=AXIS2_PLACEMENT_3D('',#1507,#1199,#1200);
#1056=AXIS2_PLACEMENT_3D('',#1510,#1202,#1203);
#1057=AXIS2_PLACEMENT_3D('',#1511,#1204,#1205);
#1058=AXIS2_PLACEMENT_3D('',#1515,#1207,#1208);
#1059=AXIS2_PLACEMENT_3D('',#1516,#1209,#1210);
#1060=AXIS2_PLACEMENT_3D('',#1526,#1216,#1217);
#1061=AXIS2_PLACEMENT_3D('',#1538,#1224,#1225);
#1062=AXIS2_PLACEMENT_3D('',#1539,#1226,#1227);
#1063=AXIS2_PLACEMENT_3D('',#1541,#1228,#1229);
#1064=AXIS2_PLACEMENT_3D('',#1543,#1230,#1231);
#1065=AXIS2_PLACEMENT_3D('',#1545,#1232,#1233);
#1066=AXIS2_PLACEMENT_3D('',#1554,#1238,#1239);
#1067=AXIS2_PLACEMENT_3D('',#1558,#1241,#1242);
#1068=AXIS2_PLACEMENT_3D('',#1562,#1244,#1245);
#1069=AXIS2_PLACEMENT_3D('',#1566,#1247,#1248);
#1070=AXIS2_PLACEMENT_3D('',#1572,#1252,#1253);
#1071=AXIS2_PLACEMENT_3D('',#1588,#1263,#1264);
#1072=AXIS2_PLACEMENT_3D('',#1589,#1265,#1266);
#1073=AXIS2_PLACEMENT_3D('',#1594,#1268,#1269);
#1074=AXIS2_PLACEMENT_3D('',#1598,#1271,#1272);
#1075=AXIS2_PLACEMENT_3D('',#1602,#1274,#1275);
#1076=AXIS2_PLACEMENT_3D('',#1610,#1280,#1281);
#1077=AXIS2_PLACEMENT_3D('',#1613,#1283,#1284);
#1078=AXIS2_PLACEMENT_3D('',#1614,#1285,#1286);
#1079=AXIS2_PLACEMENT_3D('',#1615,#1287,#1288);
#1080=AXIS2_PLACEMENT_3D('',#1618,#1290,#1291);
#1081=AXIS2_PLACEMENT_3D('',#1621,#1293,#1294);
#1082=AXIS2_PLACEMENT_3D('',#1622,#1295,#1296);
#1083=AXIS2_PLACEMENT_3D('',#1626,#1299,#1300);
#1084=AXIS2_PLACEMENT_3D('',#1627,#1301,#1302);
#1085=AXIS2_PLACEMENT_3D('',#1628,#1303,#1304);
#1086=AXIS2_PLACEMENT_3D('',#1629,#1305,#1306);
#1087=AXIS2_PLACEMENT_3D('',#1639,#1311,#1312);
#1088=AXIS2_PLACEMENT_3D('',#1642,#1314,#1315);
#1089=AXIS2_PLACEMENT_3D('',#1645,#1318,#1319);
#1090=AXIS2_PLACEMENT_3D('',#1647,#1321,#1322);
#1091=AXIS2_PLACEMENT_3D('',#1649,#1324,#1325);
#1092=AXIS2_PLACEMENT_3D('',#1651,#1327,#1328);
#1093=AXIS2_PLACEMENT_3D('',#1653,#1330,#1331);
#1094=AXIS2_PLACEMENT_3D('',#1655,#1333,#1334);
#1095=AXIS2_PLACEMENT_3D('',#1657,#1336,#1337);
#1096=AXIS2_PLACEMENT_3D('',#1658,#1338,#1339);
#1097=AXIS2_PLACEMENT_3D('',#1659,#1340,#1341);
#1098=AXIS2_PLACEMENT_3D('',#1662,#1344,#1345);
#1099=AXIS2_PLACEMENT_3D('',#1665,#1348,#1349);
#1100=AXIS2_PLACEMENT_3D('',#1666,#1350,#1351);
#1101=AXIS2_PLACEMENT_3D('',#1667,#1352,#1353);
#1102=AXIS2_PLACEMENT_3D('',#1670,#1356,#1357);
#1103=AXIS2_PLACEMENT_3D('',#1671,#1358,#1359);
#1104=AXIS2_PLACEMENT_3D('',#1674,#1362,#1363);
#1105=AXIS2_PLACEMENT_3D('',#1675,#1364,#1365);
#1106=AXIS2_PLACEMENT_3D('',#1677,#1367,#1368);
#1107=AXIS2_PLACEMENT_3D('',#1679,#1370,#1371);
#1108=AXIS2_PLACEMENT_3D('',#1682,#1374,#1375);
#1109=AXIS2_PLACEMENT_3D('',#1684,#1377,#1378);
#1110=AXIS2_PLACEMENT_3D('',#1685,#1379,#1380);
#1111=AXIS2_PLACEMENT_3D('',#1686,#1381,#1382);
#1112=AXIS2_PLACEMENT_3D('',#1688,#1383,#1384);
#1113=AXIS2_PLACEMENT_3D('',#1689,#1385,#1386);
#1114=AXIS2_PLACEMENT_3D('',#1690,#1387,#1388);
#1115=AXIS2_PLACEMENT_3D('',#1692,#1389,#1390);
#1116=AXIS2_PLACEMENT_3D('',#1693,#1391,#1392);
#1117=AXIS2_PLACEMENT_3D('',#1694,#1393,#1394);
#1118=AXIS2_PLACEMENT_3D('',#1696,#1395,#1396);
#1119=AXIS2_PLACEMENT_3D('',#1697,#1397,#1398);
#1120=AXIS2_PLACEMENT_3D('',#1698,#1399,#1400);
#1121=AXIS2_PLACEMENT_3D('',#1700,#1401,#1402);
#1122=AXIS2_PLACEMENT_3D('',#1701,#1403,#1404);
#1123=AXIS2_PLACEMENT_3D('',#1702,#1405,#1406);
#1124=AXIS2_PLACEMENT_3D('',#1703,#1407,#1408);
#1125=AXIS2_PLACEMENT_3D('',#1706,#1410,#1411);
#1126=AXIS2_PLACEMENT_3D('',#1707,#1412,#1413);
#1127=AXIS2_PLACEMENT_3D('',#1710,#1415,#1416);
#1128=AXIS2_PLACEMENT_3D('',#1712,#1418,#1419);
#1129=DIRECTION('',(0.,0.,1.));
#1130=DIRECTION('',(1.,0.,0.));
#1131=DIRECTION('',(0.,1.,0.));
#1132=DIRECTION('',(0.,0.,1.));
#1133=DIRECTION('',(-1.,0.,0.));
#1134=DIRECTION('',(0.,0.,1.));
#1135=DIRECTION('',(-1.,0.,0.));
#1136=DIRECTION('',(0.,0.,1.));
#1137=DIRECTION('',(1.,1.56105599637958E-16,0.));
#1138=DIRECTION('',(-1.56105599637958E-16,1.,0.));
#1139=DIRECTION('',(-1.56105599637958E-16,1.,0.));
#1140=DIRECTION('',(0.,0.,1.));
#1141=DIRECTION('',(1.56105599637958E-16,-1.,0.));
#1142=DIRECTION('',(0.,0.,1.));
#1143=DIRECTION('',(1.,1.56105599637958E-16,0.));
#1144=DIRECTION('',(-1.56105599637958E-16,1.,0.));
#1145=DIRECTION('',(0.,0.,-1.));
#1146=DIRECTION('',(1.,1.56105599637958E-16,0.));
#1147=DIRECTION('',(-1.56105599637958E-16,1.,0.));
#1148=DIRECTION('',(-1.56105599637958E-16,1.,0.));
#1149=DIRECTION('',(1.,1.56105599637958E-16,0.));
#1150=DIRECTION('',(-1.56105599637958E-16,1.,0.));
#1151=DIRECTION('',(0.,0.,-1.));
#1152=DIRECTION('',(1.,1.56105599637958E-16,0.));
#1153=DIRECTION('',(-1.56105599637958E-16,1.,0.));
#1154=DIRECTION('',(-1.56105599637958E-16,1.,0.));
#1155=DIRECTION('',(1.,1.56105599637958E-16,0.));
#1156=DIRECTION('',(-1.56105599637958E-16,1.,0.));
#1157=DIRECTION('',(-1.56105599637958E-16,1.,0.));
#1158=DIRECTION('',(0.,0.,-1.));
#1159=DIRECTION('',(-1.56105599637958E-16,1.,0.));
#1160=DIRECTION('',(0.,0.,1.));
#1161=DIRECTION('',(1.,1.56105599637958E-16,0.));
#1162=DIRECTION('',(-1.56105599637958E-16,1.,0.));
#1163=DIRECTION('',(0.,0.,1.));
#1164=DIRECTION('',(-1.56105599637958E-16,1.,0.));
#1165=DIRECTION('',(0.,0.,1.));
#1166=DIRECTION('',(1.56105599637958E-16,-1.,0.));
#1167=DIRECTION('',(1.,1.56105599637958E-16,0.));
#1168=DIRECTION('',(-1.56105599637958E-16,1.,0.));
#1169=DIRECTION('',(1.56105599637958E-16,-1.,0.));
#1170=DIRECTION('',(0.,0.,1.));
#1171=DIRECTION('',(1.56105599637958E-16,-1.,0.));
#1172=DIRECTION('',(0.,0.,1.));
#1173=DIRECTION('',(0.,0.,1.));
#1174=DIRECTION('',(-1.56105599637958E-16,1.,0.));
#1175=DIRECTION('',(0.,0.,1.));
#1176=DIRECTION('',(-1.56105599637958E-16,1.,0.));
#1177=DIRECTION('',(0.,0.,1.));
#1178=DIRECTION('',(1.,0.,0.));
#1179=DIRECTION('',(0.,0.,1.));
#1180=DIRECTION('',(1.,0.,0.));
#1181=DIRECTION('',(0.,0.,1.));
#1182=DIRECTION('',(1.,0.,0.));
#1183=DIRECTION('',(0.,0.,1.));
#1184=DIRECTION('',(1.,0.,0.));
#1185=DIRECTION('',(0.,0.,1.));
#1186=DIRECTION('',(1.,0.,0.));
#1187=DIRECTION('',(0.,0.,1.));
#1188=DIRECTION('',(1.,0.,0.));
#1189=DIRECTION('',(0.,0.,1.));
#1190=DIRECTION('',(1.,0.,0.));
#1191=DIRECTION('',(0.,0.,1.));
#1192=DIRECTION('',(1.,0.,0.));
#1193=DIRECTION('',(0.,0.,-1.));
#1194=DIRECTION('',(-1.,0.,0.));
#1195=DIRECTION('',(0.,0.,1.));
#1196=DIRECTION('',(0.,5.78241158658938E-16,-1.));
#1197=DIRECTION('',(0.,1.,5.78241158658938E-16));
#1198=DIRECTION('',(0.,0.,1.));
#1199=DIRECTION('',(0.,0.,1.));
#1200=DIRECTION('',(1.,0.,0.));
#1201=DIRECTION('',(0.,0.,1.));
#1202=DIRECTION('',(0.,0.,1.));
#1203=DIRECTION('',(1.,0.,0.));
#1204=DIRECTION('',(0.,0.,1.));
#1205=DIRECTION('',(1.,0.,0.));
#1206=DIRECTION('',(0.,0.,1.));
#1207=DIRECTION('',(0.,0.,1.));
#1208=DIRECTION('',(1.,0.,0.));
#1209=DIRECTION('',(0.,0.,-1.));
#1210=DIRECTION('',(-1.,0.,0.));
#1211=DIRECTION('',(1.,1.56105599637958E-16,0.));
#1212=DIRECTION('',(0.,-1.,0.));
#1213=DIRECTION('',(-1.,0.,0.));
#1214=DIRECTION('',(-1.36592399683213E-16,1.,0.));
#1215=DIRECTION('',(-1.,0.,0.));
#1216=DIRECTION('',(0.,5.78241158658938E-16,-1.));
#1217=DIRECTION('',(0.,1.,5.78241158658938E-16));
#1218=DIRECTION('',(-1.36592399683213E-16,1.,5.78241158658938E-16));
#1219=DIRECTION('',(-1.,0.,0.));
#1220=DIRECTION('',(0.,-1.,0.));
#1221=DIRECTION('',(1.,1.56105599637958E-16,9.0266682807801E-32));
#1222=DIRECTION('',(1.56105599637958E-16,-1.,0.));
#1223=DIRECTION('',(-1.,0.,0.));
#1224=DIRECTION('',(0.,0.,1.));
#1225=DIRECTION('',(1.,0.,0.));
#1226=DIRECTION('',(0.,0.,1.));
#1227=DIRECTION('',(1.,0.,0.));
#1228=DIRECTION('',(0.,0.,1.));
#1229=DIRECTION('',(1.,0.,0.));
#1230=DIRECTION('',(0.,0.,1.));
#1231=DIRECTION('',(1.,0.,0.));
#1232=DIRECTION('',(0.,0.,1.));
#1233=DIRECTION('',(1.,0.,0.));
#1234=DIRECTION('',(-1.,-1.56105599637958E-16,0.));
#1235=DIRECTION('',(-1.,-1.56105599637958E-16,0.));
#1236=DIRECTION('',(-1.,-1.36592399683213E-16,0.));
#1237=DIRECTION('',(1.36592399683213E-16,-1.,0.));
#1238=DIRECTION('',(0.,0.,1.));
#1239=DIRECTION('',(1.,0.,0.));
#1240=DIRECTION('',(-1.36592399683213E-16,1.,0.));
#1241=DIRECTION('',(0.,0.,1.));
#1242=DIRECTION('',(1.,0.,0.));
#1243=DIRECTION('',(-1.,0.,0.));
#1244=DIRECTION('',(0.,0.,1.));
#1245=DIRECTION('',(1.,0.,0.));
#1246=DIRECTION('',(-1.36592399683213E-16,1.,0.));
#1247=DIRECTION('',(0.,0.,1.));
#1248=DIRECTION('',(1.,0.,0.));
#1249=DIRECTION('',(1.36592399683213E-16,-1.,0.));
#1250=DIRECTION('',(-1.,-1.36592399683213E-16,0.));
#1251=DIRECTION('',(1.56105599637958E-16,-1.,0.));
#1252=DIRECTION('',(1.,1.36592399683213E-16,0.));
#1253=DIRECTION('',(-1.36592399683213E-16,1.,0.));
#1254=DIRECTION('',(0.,0.,1.));
#1255=DIRECTION('',(0.,0.,1.));
#1256=DIRECTION('',(0.,0.,1.));
#1257=DIRECTION('',(-1.36592399683213E-16,1.,0.));
#1258=DIRECTION('',(0.,0.,1.));
#1259=DIRECTION('',(1.36592399683213E-16,-1.,0.));
#1260=DIRECTION('',(0.,0.,1.));
#1261=DIRECTION('',(1.36592399683213E-16,-1.,0.));
#1262=DIRECTION('',(0.,0.,1.));
#1263=DIRECTION('',(1.,1.36592399683213E-16,0.));
#1264=DIRECTION('',(-1.36592399683213E-16,1.,0.));
#1265=DIRECTION('',(1.,1.36592399683213E-16,0.));
#1266=DIRECTION('',(-1.36592399683213E-16,1.,0.));
#1267=DIRECTION('',(0.,0.,-1.));
#1268=DIRECTION('',(1.,1.36592399683213E-16,0.));
#1269=DIRECTION('',(-1.36592399683213E-16,1.,0.));
#1270=DIRECTION('',(-1.36592399683213E-16,1.,0.));
#1271=DIRECTION('',(1.,1.36592399683213E-16,0.));
#1272=DIRECTION('',(-1.36592399683213E-16,1.,0.));
#1273=DIRECTION('',(0.,0.,-1.));
#1274=DIRECTION('',(1.,1.36592399683213E-16,0.));
#1275=DIRECTION('',(-1.36592399683213E-16,1.,0.));
#1276=DIRECTION('',(-1.36592399683213E-16,1.,0.));
#1277=DIRECTION('',(0.,0.,1.));
#1278=DIRECTION('',(-1.36592399683213E-16,1.,0.));
#1279=DIRECTION('',(0.,0.,1.));
#1280=DIRECTION('',(0.,0.,1.));
#1281=DIRECTION('',(1.,0.,0.));
#1282=DIRECTION('',(0.,0.,1.));
#1283=DIRECTION('',(0.,0.,1.));
#1284=DIRECTION('',(1.,0.,0.));
#1285=DIRECTION('',(0.,0.,1.));
#1286=DIRECTION('',(1.,0.,0.));
#1287=DIRECTION('',(0.,0.,1.));
#1288=DIRECTION('',(1.,0.,0.));
#1289=DIRECTION('',(0.,0.,1.));
#1290=DIRECTION('',(0.,0.,1.));
#1291=DIRECTION('',(1.,0.,0.));
#1292=DIRECTION('',(0.,0.,1.));
#1293=DIRECTION('',(0.,0.,1.));
#1294=DIRECTION('',(1.,0.,0.));
#1295=DIRECTION('',(0.,1.,0.));
#1296=DIRECTION('',(0.,0.,1.));
#1297=DIRECTION('',(0.,0.,1.));
#1298=DIRECTION('',(-1.,0.,0.));
#1299=DIRECTION('',(0.,0.,1.));
#1300=DIRECTION('',(1.,0.,0.));
#1301=DIRECTION('',(0.,0.,1.));
#1302=DIRECTION('',(1.,0.,0.));
#1303=DIRECTION('',(0.,0.,1.));
#1304=DIRECTION('',(1.,0.,0.));
#1305=DIRECTION('',(0.,0.,1.));
#1306=DIRECTION('',(1.,0.,0.));
#1307=DIRECTION('',(-1.,-1.36592399683213E-16,0.));
#1308=DIRECTION('',(1.36592399683213E-16,-1.,0.));
#1309=DIRECTION('',(1.36592399683213E-16,-1.,0.));
#1310=DIRECTION('',(-1.,-1.36592399683213E-16,0.));
#1311=DIRECTION('',(0.,0.,1.));
#1312=DIRECTION('',(1.,0.,0.));
#1313=DIRECTION('',(-1.,-1.56105599637958E-16,0.));
#1314=DIRECTION('',(1.36592399683213E-16,-1.,0.));
#1315=DIRECTION('',(1.,1.36592399683213E-16,0.));
#1316=DIRECTION('',(1.,1.36592399683213E-16,0.));
#1317=DIRECTION('',(1.,1.36592399683213E-16,0.));
#1318=DIRECTION('',(1.,1.36592399683213E-16,0.));
#1319=DIRECTION('',(-1.36592399683213E-16,1.,0.));
#1320=DIRECTION('',(1.,1.36592399683213E-16,0.));
#1321=DIRECTION('',(0.,0.,-1.));
#1322=DIRECTION('',(-1.,0.,0.));
#1323=DIRECTION('',(1.,1.36592399683213E-16,0.));
#1324=DIRECTION('',(1.,1.36592399683213E-16,0.));
#1325=DIRECTION('',(-1.36592399683213E-16,1.,0.));
#1326=DIRECTION('',(1.,1.36592399683213E-16,0.));
#1327=DIRECTION('',(1.36592399683213E-16,-1.,0.));
#1328=DIRECTION('',(1.,1.36592399683213E-16,0.));
#1329=DIRECTION('',(1.,1.36592399683213E-16,0.));
#1330=DIRECTION('',(1.,1.36592399683213E-16,0.));
#1331=DIRECTION('',(-1.36592399683213E-16,1.,0.));
#1332=DIRECTION('',(1.,1.36592399683213E-16,0.));
#1333=DIRECTION('',(0.,0.,-1.));
#1334=DIRECTION('',(-1.,0.,0.));
#1335=DIRECTION('',(1.,1.36592399683213E-16,0.));
#1336=DIRECTION('',(1.,1.36592399683213E-16,0.));
#1337=DIRECTION('',(-1.36592399683213E-16,1.,0.));
#1338=DIRECTION('',(0.,1.,0.));
#1339=DIRECTION('',(0.,0.,1.));
#1340=DIRECTION('',(-1.56105599637958E-16,1.,0.));
#1341=DIRECTION('',(-1.,-1.56105599637958E-16,0.));
#1342=DIRECTION('',(1.,1.56105599637958E-16,0.));
#1343=DIRECTION('',(1.,1.56105599637958E-16,0.));
#1344=DIRECTION('',(-1.56105599637958E-16,1.,0.));
#1345=DIRECTION('',(-1.,-1.56105599637958E-16,0.));
#1346=DIRECTION('',(1.,1.56105599637958E-16,0.));
#1347=DIRECTION('',(1.,1.56105599637958E-16,0.));
#1348=DIRECTION('',(0.,0.,1.));
#1349=DIRECTION('',(1.,0.,0.));
#1350=DIRECTION('',(0.,0.,1.));
#1351=DIRECTION('',(1.,0.,0.));
#1352=DIRECTION('',(-1.36592399683213E-16,1.,0.));
#1353=DIRECTION('',(-1.,-1.36592399683213E-16,0.));
#1354=DIRECTION('',(0.,0.,1.));
#1355=DIRECTION('',(0.,0.,1.));
#1356=DIRECTION('',(1.,1.36592399683213E-16,0.));
#1357=DIRECTION('',(-1.36592399683213E-16,1.,0.));
#1358=DIRECTION('',(-1.36592399683213E-16,1.,0.));
#1359=DIRECTION('',(-1.,-1.36592399683213E-16,0.));
#1360=DIRECTION('',(0.,0.,1.));
#1361=DIRECTION('',(0.,0.,1.));
#1362=DIRECTION('',(1.,1.36592399683213E-16,0.));
#1363=DIRECTION('',(-1.36592399683213E-16,1.,0.));
#1364=DIRECTION('',(1.,1.56105599637958E-16,0.));
#1365=DIRECTION('',(-1.56105599637958E-16,1.,0.));
#1366=DIRECTION('',(0.,0.,1.));
#1367=DIRECTION('',(1.56105599637958E-16,-1.,0.));
#1368=DIRECTION('',(1.,1.56105599637958E-16,0.));
#1369=DIRECTION('',(-1.,-1.56105599637958E-16,0.));
#1370=DIRECTION('',(1.56105599637958E-16,-1.,0.));
#1371=DIRECTION('',(1.,1.56105599637958E-16,0.));
#1372=DIRECTION('',(-1.,-1.56105599637958E-16,0.));
#1373=DIRECTION('',(0.,0.,-1.));
#1374=DIRECTION('',(-1.,0.,0.));
#1375=DIRECTION('',(0.,0.,1.));
#1376=DIRECTION('',(0.,0.,-1.));
#1377=DIRECTION('',(0.,1.,0.));
#1378=DIRECTION('',(0.,0.,1.));
#1379=DIRECTION('',(0.,0.,1.));
#1380=DIRECTION('',(1.,0.,0.));
#1381=DIRECTION('',(0.,0.,1.));
#1382=DIRECTION('',(1.,0.,0.));
#1383=DIRECTION('',(0.,0.,1.));
#1384=DIRECTION('',(1.,0.,0.));
#1385=DIRECTION('',(0.,0.,1.));
#1386=DIRECTION('',(1.,0.,0.));
#1387=DIRECTION('',(0.,0.,1.));
#1388=DIRECTION('',(1.,0.,0.));
#1389=DIRECTION('',(0.,0.,1.));
#1390=DIRECTION('',(1.,0.,0.));
#1391=DIRECTION('',(0.,0.,1.));
#1392=DIRECTION('',(1.,0.,0.));
#1393=DIRECTION('',(0.,0.,1.));
#1394=DIRECTION('',(1.,0.,0.));
#1395=DIRECTION('',(0.,0.,1.));
#1396=DIRECTION('',(1.,0.,0.));
#1397=DIRECTION('',(0.,0.,1.));
#1398=DIRECTION('',(1.,0.,0.));
#1399=DIRECTION('',(0.,0.,1.));
#1400=DIRECTION('',(1.,0.,0.));
#1401=DIRECTION('',(0.,0.,1.));
#1402=DIRECTION('',(1.,0.,0.));
#1403=DIRECTION('',(0.,0.,-1.));
#1404=DIRECTION('',(1.,0.,0.));
#1405=DIRECTION('',(0.,0.,-1.));
#1406=DIRECTION('',(-1.,0.,0.));
#1407=DIRECTION('',(0.,0.,1.));
#1408=DIRECTION('',(1.,0.,0.));
#1409=DIRECTION('',(0.,0.,-1.));
#1410=DIRECTION('',(0.,0.,-1.));
#1411=DIRECTION('',(-1.,0.,0.));
#1412=DIRECTION('',(0.,0.,1.));
#1413=DIRECTION('',(1.,0.,0.));
#1414=DIRECTION('',(0.,0.,-1.));
#1415=DIRECTION('',(0.,0.,-1.));
#1416=DIRECTION('',(1.,0.,0.));
#1417=DIRECTION('',(-1.,-1.56105599637958E-16,0.));
#1418=DIRECTION('',(1.56105599637958E-16,-1.,0.));
#1419=DIRECTION('',(1.,1.56105599637958E-16,0.));
#1420=CARTESIAN_POINT('',(0.,0.,0.));
#1421=CARTESIAN_POINT('',(0.0508,0.13335,-0.0782267030407324));
#1422=CARTESIAN_POINT('',(0.0508,0.13335,-0.0655267030407324));
#1423=CARTESIAN_POINT('',(0.1397,0.13335,-0.0655267030407324));
#1424=CARTESIAN_POINT('',(-0.0381,0.13335,-0.0655267030407324));
#1425=CARTESIAN_POINT('',(0.1397,0.13335,-0.0782267030407324));
#1426=CARTESIAN_POINT('',(0.1397,0.13335,0.0487732969592676));
#1427=CARTESIAN_POINT('',(0.0508,0.13335,0.0487732969592676));
#1428=CARTESIAN_POINT('',(-0.0381,0.13335,0.0487732969592676));
#1429=CARTESIAN_POINT('',(-0.0381,0.13335,-0.0782267030407324));
#1430=CARTESIAN_POINT('',(0.1524,0.03175,-0.0782267030407324));
#1431=CARTESIAN_POINT('',(0.1524,0.03175,-0.0655267030407324));
#1432=CARTESIAN_POINT('',(0.1524,-0.05715,-0.0655267030407324));
#1433=CARTESIAN_POINT('',(0.1524,-0.05215,-0.0655267030407324));
#1434=CARTESIAN_POINT('',(0.1524,-0.05715,-0.0782267030407324));
#1435=CARTESIAN_POINT('',(0.1524,-0.05715,0.0487732969592676));
#1436=CARTESIAN_POINT('',(0.1524,-0.05615,0.0487732969592676));
#1437=CARTESIAN_POINT('',(0.1524,-0.05215,0.0487732969592676));
#1438=CARTESIAN_POINT('',(0.1524,-0.05215,-0.0782267030407324));
#1439=CARTESIAN_POINT('',(0.1524,0.03175,-0.0782267030407324));
#1440=CARTESIAN_POINT('',(0.1524,0.109576119959354,-0.0782267030407324));
#1441=CARTESIAN_POINT('',(0.1524,0.109576119959354,0.0192259845088587));
#1442=CARTESIAN_POINT('',(0.1524,0.109576119959354,-0.0432162787724868));
#1443=CARTESIAN_POINT('',(0.1524,0.0968761199593544,0.0192259845088587));
#1444=CARTESIAN_POINT('',(0.1524,0.0968761199593544,0.0319259845088586));
#1445=CARTESIAN_POINT('',(0.1524,0.03175,0.0319259845088586));
#1446=CARTESIAN_POINT('',(0.1524,-0.0333761199593545,0.0319259845088586));
#1447=CARTESIAN_POINT('',(0.1524,-0.0333761199593544,0.0192259845088587));
#1448=CARTESIAN_POINT('',(0.1524,-0.0460761199593544,0.0192259845088587));
#1449=CARTESIAN_POINT('',(0.1524,-0.0460761199593544,-0.0782267030407324));
#1450=CARTESIAN_POINT('',(0.1524,-0.0460761199593544,-0.0432162787724867));
#1451=CARTESIAN_POINT('',(0.1524,-0.0333761199593544,-0.0432162787724867));
#1452=CARTESIAN_POINT('',(0.1524,-0.0333761199593545,-0.0559162787724867));
#1453=CARTESIAN_POINT('',(0.1524,0.03175,-0.0559162787724867));
#1454=CARTESIAN_POINT('',(0.1524,0.0968761199593544,-0.0559162787724867));
#1455=CARTESIAN_POINT('',(0.1524,0.0968761199593544,-0.0432162787724868));
#1456=CARTESIAN_POINT('',(0.1524,0.03175,-0.0655267030407324));
#1457=CARTESIAN_POINT('',(0.1524,-0.05015,-0.0655267030407324));
#1458=CARTESIAN_POINT('',(0.1524,0.12065,-0.0655267030407324));
#1459=CARTESIAN_POINT('',(0.1524,-0.05015,-0.0782267030407324));
#1460=CARTESIAN_POINT('',(0.1524,-0.05015,0.0487732969592676));
#1461=CARTESIAN_POINT('',(0.1524,0.03175,0.0487732969592676));
#1462=CARTESIAN_POINT('',(0.1524,0.12065,0.0487732969592676));
#1463=CARTESIAN_POINT('',(0.1524,0.12065,-0.0782267030407324));
#1464=CARTESIAN_POINT('',(-0.0508,0.03175,-0.0782267030407324));
#1465=CARTESIAN_POINT('',(-0.0508,-0.05715,-0.0782267030407324));
#1466=CARTESIAN_POINT('',(-0.0508,-0.05715,-0.0655267030407324));
#1467=CARTESIAN_POINT('',(-0.0508,-0.05715,-0.0582267030407324));
#1468=CARTESIAN_POINT('',(-0.0508,0.03175,-0.0655267030407324));
#1469=CARTESIAN_POINT('',(-0.0508,-0.05215,-0.0655267030407324));
#1470=CARTESIAN_POINT('',(-0.0508,-0.05215,-0.0782267030407324));
#1471=CARTESIAN_POINT('',(-0.0508,-0.05215,-0.0582267030407324));
#1472=CARTESIAN_POINT('',(-0.0508,-0.05615,-0.0582267030407324));
#1473=CARTESIAN_POINT('',(-0.0508,0.03175,-0.0782267030407324));
#1474=CARTESIAN_POINT('',(-0.0508,0.03175,-0.0583732969592676));
#1475=CARTESIAN_POINT('',(-0.0508,0.05525,-0.0583732969592676));
#1476=CARTESIAN_POINT('',(-0.0508,0.00825,-0.0583732969592676));
#1477=CARTESIAN_POINT('',(-0.0508,0.00825,-0.0360732969592676));
#1478=CARTESIAN_POINT('',(-0.0508,0.00825,-0.00837329695926759));
#1479=CARTESIAN_POINT('',(-0.0508,0.03175,-0.00837329695926759));
#1480=CARTESIAN_POINT('',(-0.0508,0.05525,-0.00837329695926759));
#1481=CARTESIAN_POINT('',(-0.0508,0.05525,-0.0360732969592676));
#1482=CARTESIAN_POINT('',(-0.0508,-0.05015,-0.0083767030407324));
#1483=CARTESIAN_POINT('',(-0.0508,-0.05015,-0.0655267030407324));
#1484=CARTESIAN_POINT('',(-0.0508,-0.05015,0.0487732969592676));
#1485=CARTESIAN_POINT('',(-0.0508,0.03175,-0.0655267030407324));
#1486=CARTESIAN_POINT('',(-0.0508,0.12065,-0.0655267030407324));
#1487=CARTESIAN_POINT('',(-0.0508,0.12065,-0.0782267030407324));
#1488=CARTESIAN_POINT('',(-0.0508,0.12065,0.0487732969592676));
#1489=CARTESIAN_POINT('',(-0.0508,0.03175,0.0487732969592676));
#1490=CARTESIAN_POINT('',(0.1397,0.12065,-0.0782267030407324));
#1491=CARTESIAN_POINT('',(0.1397,0.12065,-0.0655267030407324));
#1492=CARTESIAN_POINT('',(0.1397,0.12065,0.0487732969592676));
#1493=CARTESIAN_POINT('',(-0.0381,0.12065,-0.0782267030407324));
#1494=CARTESIAN_POINT('',(-0.0381,0.12065,-0.0655267030407324));
#1495=CARTESIAN_POINT('',(-0.0381,0.12065,0.0487732969592676));
#1496=CARTESIAN_POINT('',(-0.0381,-0.05715,-0.0782267030407324));
#1497=CARTESIAN_POINT('',(-0.0381,-0.05715,-0.0655267030407324));
#1498=CARTESIAN_POINT('',(-0.0453890328576567,-0.06755,-0.0655267030407324));
#1499=CARTESIAN_POINT('',(-0.0381,-0.05715,-0.0582267030407324));
#1500=CARTESIAN_POINT('',(-0.0505096736459909,-0.05985,-0.0582267030407324));
#1501=CARTESIAN_POINT('',(-0.0505096736459909,-0.05985,-0.0782267030407324));
#1502=CARTESIAN_POINT('',(-0.0505096736459909,-0.05985,-1.56125112837913E-18));
#1503=CARTESIAN_POINT('',(-0.0381,-0.05715,0.));
#1504=CARTESIAN_POINT('',(-0.0508,-0.05715,-1.89560033896382E-32));
#1505=CARTESIAN_POINT('',(-0.0508,-0.05715,-0.0782267030407324));
#1506=CARTESIAN_POINT('',(-0.0508,-0.05715,0.0487732969592676));
#1507=CARTESIAN_POINT('',(-0.0381,-0.05715,0.0487732969592676));
#1508=CARTESIAN_POINT('',(-0.0453890328576567,-0.06755,0.0487732969592676));
#1509=CARTESIAN_POINT('',(-0.0453890328576567,-0.06755,-0.0782267030407324));
#1510=CARTESIAN_POINT('',(0.1397,-0.05715,-0.0782267030407324));
#1511=CARTESIAN_POINT('',(0.1397,-0.05715,-0.0655267030407324));
#1512=CARTESIAN_POINT('',(0.146989032857657,-0.06755,-0.0655267030407324));
#1513=CARTESIAN_POINT('',(0.146989032857657,-0.06755,-0.0782267030407324));
#1514=CARTESIAN_POINT('',(0.146989032857657,-0.06755,0.0487732969592676));
#1515=CARTESIAN_POINT('',(0.1397,-0.05715,0.0487732969592676));
#1516=CARTESIAN_POINT('',(-0.0461336042404175,-0.05685,-0.0582267030407324));
#1517=CARTESIAN_POINT('',(0.1592,-0.05215,-0.0582267030407324));
#1518=CARTESIAN_POINT('',(-0.0461336042404175,-0.05215,-0.0582267030407324));
#1519=CARTESIAN_POINT('',(-0.0461336042404175,-0.05185,-0.0582267030407324));
#1520=CARTESIAN_POINT('',(-0.0461336042404175,-0.05185,-0.0582267030407324));
#1521=CARTESIAN_POINT('',(-0.0461336042404175,-0.05185,-0.0582267030407324));
#1522=CARTESIAN_POINT('',(-0.0635,-0.05185,-0.0582267030407324));
#1523=CARTESIAN_POINT('',(-0.0635,0.03175,-0.0582267030407324));
#1524=CARTESIAN_POINT('',(-0.0635,-0.05985,-0.0582267030407324));
#1525=CARTESIAN_POINT('',(-0.0461336042404175,-0.05985,-0.0582267030407324));
#1526=CARTESIAN_POINT('',(-0.0461336042404175,-0.05685,0.));
#1527=CARTESIAN_POINT('',(-0.0635,0.03175,5.55111512312578E-17));
#1528=CARTESIAN_POINT('',(-0.0635,-0.05985,2.54426109809916E-18));
#1529=CARTESIAN_POINT('',(-0.0635,-0.05185,0.));
#1530=CARTESIAN_POINT('',(-0.0461336042404175,-0.05185,0.));
#1531=CARTESIAN_POINT('',(-0.0461336042404175,-0.05185,1.56125112837914E-18));
#1532=CARTESIAN_POINT('',(-0.0461336042404175,-0.05185,1.56125112837914E-18));
#1533=CARTESIAN_POINT('',(-0.0461336042404175,-0.05215,1.56125112837914E-18));
#1534=CARTESIAN_POINT('',(0.1592,-0.05215,0.));
#1535=CARTESIAN_POINT('',(-0.0508,-0.05215,0.));
#1536=CARTESIAN_POINT('',(-0.0508,-0.05615,-1.89560033896382E-32));
#1537=CARTESIAN_POINT('',(-0.0461336042404175,-0.05985,0.));
#1538=CARTESIAN_POINT('',(0.0508,0.03175,0.0487732969592676));
#1539=CARTESIAN_POINT('',(0.155723401871577,0.136673401871577,0.0487732969592676));
#1540=CARTESIAN_POINT('',(0.158223401871577,0.136673401871577,0.0487732969592676));
#1541=CARTESIAN_POINT('',(-0.0541234018715768,0.136673401871577,0.0487732969592676));
#1542=CARTESIAN_POINT('',(-0.0516234018715768,0.136673401871577,0.0487732969592676));
#1543=CARTESIAN_POINT('',(-0.05715,-0.07285,0.0487732969592676));
#1544=CARTESIAN_POINT('',(-0.05465,-0.07285,0.0487732969592676));
#1545=CARTESIAN_POINT('',(0.15875,-0.07285,0.0487732969592676));
#1546=CARTESIAN_POINT('',(0.16125,-0.07285,0.0487732969592676));
#1547=CARTESIAN_POINT('',(0.1592,-0.05015,0.0487732969592676));
#1548=CARTESIAN_POINT('',(0.1592,-0.05215,0.0487732969592676));
#1549=CARTESIAN_POINT('',(-0.0508,-0.05215,0.0487732969592676));
#1550=CARTESIAN_POINT('',(0.0508,-0.06755,0.0487732969592676));
#1551=CARTESIAN_POINT('',(0.1524,-0.06755,0.0487732969592676));
#1552=CARTESIAN_POINT('',(0.1524,-0.06755,0.0487732969592676));
#1553=CARTESIAN_POINT('',(0.1524,-0.08255,0.0487732969592676));
#1554=CARTESIAN_POINT('',(0.1524,-0.06985,0.0487732969592676));
#1555=CARTESIAN_POINT('',(0.1651,-0.06985,0.0487732969592676));
#1556=CARTESIAN_POINT('',(0.1651,0.03175,0.0487732969592676));
#1557=CARTESIAN_POINT('',(0.1651,0.13335,0.0487732969592676));
#1558=CARTESIAN_POINT('',(0.1524,0.13335,0.0487732969592676));
#1559=CARTESIAN_POINT('',(0.1524,0.14605,0.0487732969592676));
#1560=CARTESIAN_POINT('',(0.0508,0.14605,0.0487732969592676));
#1561=CARTESIAN_POINT('',(-0.0508,0.14605,0.0487732969592676));
#1562=CARTESIAN_POINT('',(-0.0508,0.13335,0.0487732969592676));
#1563=CARTESIAN_POINT('',(-0.0635,0.13335,0.0487732969592676));
#1564=CARTESIAN_POINT('',(-0.0635,0.03175,0.0487732969592676));
#1565=CARTESIAN_POINT('',(-0.0635,-0.06985,0.0487732969592676));
#1566=CARTESIAN_POINT('',(-0.0508,-0.06985,0.0487732969592676));
#1567=CARTESIAN_POINT('',(-0.0508,-0.08255,0.0487732969592676));
#1568=CARTESIAN_POINT('',(-0.0508,-0.06755,0.0487732969592676));
#1569=CARTESIAN_POINT('',(-0.0508,-0.06755,0.0487732969592676));
#1570=CARTESIAN_POINT('',(0.0508,-0.06755,0.0487732969592676));
#1571=CARTESIAN_POINT('',(-0.0508,-0.05615,0.0487732969592676));
#1572=CARTESIAN_POINT('',(-0.0635,0.03175,-0.0782267030407324));
#1573=CARTESIAN_POINT('',(-0.0635,-0.05185,-0.0782267030407324));
#1574=CARTESIAN_POINT('',(-0.0635,-0.05985,-0.0782267030407324));
#1575=CARTESIAN_POINT('',(-0.0635,0.13335,-0.0782267030407324));
#1576=CARTESIAN_POINT('',(-0.0635,0.13335,-0.0782267030407324));
#1577=CARTESIAN_POINT('',(-0.0635,0.03175,-0.0782267030407324));
#1578=CARTESIAN_POINT('',(-0.0635,-0.06985,-0.0782267030407324));
#1579=CARTESIAN_POINT('',(-0.0635,-0.06985,-0.0782267030407324));
#1580=CARTESIAN_POINT('',(-0.0635,0.03175,-0.0583732969592676));
#1581=CARTESIAN_POINT('',(-0.0635,0.05525,-0.0583732969592676));
#1582=CARTESIAN_POINT('',(-0.0635,0.00825,-0.0583732969592676));
#1583=CARTESIAN_POINT('',(-0.0635,0.05525,-0.0782267030407324));
#1584=CARTESIAN_POINT('',(-0.0635,0.05525,-0.00837329695926759));
#1585=CARTESIAN_POINT('',(-0.0635,0.03175,-0.00837329695926758));
#1586=CARTESIAN_POINT('',(-0.0635,0.00825,-0.00837329695926758));
#1587=CARTESIAN_POINT('',(-0.0635,0.00825,-0.0782267030407324));
#1588=CARTESIAN_POINT('',(0.1651,0.03175,-0.0782267030407324));
#1589=CARTESIAN_POINT('',(0.1651,0.0968761199593544,0.0192259845088587));
#1590=CARTESIAN_POINT('',(0.1651,0.109576119959354,0.0192259845088587));
#1591=CARTESIAN_POINT('',(0.1651,0.0968761199593544,0.0319259845088586));
#1592=CARTESIAN_POINT('',(0.1651,0.109576119959354,-0.011995147131814));
#1593=CARTESIAN_POINT('',(0.1651,0.109576119959354,-0.0432162787724867));
#1594=CARTESIAN_POINT('',(0.1651,0.0968761199593544,-0.0432162787724868));
#1595=CARTESIAN_POINT('',(0.1651,0.0968761199593544,-0.0559162787724867));
#1596=CARTESIAN_POINT('',(0.1651,0.03175,-0.0559162787724867));
#1597=CARTESIAN_POINT('',(0.1651,-0.0333761199593545,-0.0559162787724867));
#1598=CARTESIAN_POINT('',(0.1651,-0.0333761199593544,-0.0432162787724867));
#1599=CARTESIAN_POINT('',(0.1651,-0.0460761199593544,-0.0432162787724867));
#1600=CARTESIAN_POINT('',(0.1651,-0.0460761199593544,-0.011995147131814));
#1601=CARTESIAN_POINT('',(0.1651,-0.0460761199593544,0.0192259845088587));
#1602=CARTESIAN_POINT('',(0.1651,-0.0333761199593544,0.0192259845088587));
#1603=CARTESIAN_POINT('',(0.1651,-0.0333761199593545,0.0319259845088586));
#1604=CARTESIAN_POINT('',(0.1651,0.03175,0.0319259845088586));
#1605=CARTESIAN_POINT('',(0.1651,-0.06985,-0.0782267030407324));
#1606=CARTESIAN_POINT('',(0.1651,-0.06985,-0.0782267030407324));
#1607=CARTESIAN_POINT('',(0.1651,0.03175,-0.0782267030407324));
#1608=CARTESIAN_POINT('',(0.1651,0.13335,-0.0782267030407324));
#1609=CARTESIAN_POINT('',(0.1651,0.13335,-0.0782267030407324));
#1610=CARTESIAN_POINT('',(0.1524,-0.06985,-0.0782267030407324));
#1611=CARTESIAN_POINT('',(0.1524,-0.08255,-0.0782267030407324));
#1612=CARTESIAN_POINT('',(0.1524,-0.08255,-0.0782267030407324));
#1613=CARTESIAN_POINT('',(0.1524,-0.06985,-0.0782267030407324));
#1614=CARTESIAN_POINT('',(-0.0508,-0.06985,-0.0782267030407324));
#1615=CARTESIAN_POINT('',(-0.0508,-0.06985,-0.0782267030407324));
#1616=CARTESIAN_POINT('',(-0.0508,-0.08255,-0.0782267030407324));
#1617=CARTESIAN_POINT('',(-0.0508,-0.08255,-0.0782267030407324));
#1618=CARTESIAN_POINT('',(-0.0508,0.13335,-0.0782267030407324));
#1619=CARTESIAN_POINT('',(-0.0508,0.14605,-0.0782267030407324));
#1620=CARTESIAN_POINT('',(-0.0508,0.14605,-0.0782267030407324));
#1621=CARTESIAN_POINT('',(-0.0508,0.13335,-0.0782267030407324));
#1622=CARTESIAN_POINT('',(0.0508,0.14605,-0.0782267030407324));
#1623=CARTESIAN_POINT('',(0.1524,0.14605,-0.0782267030407324));
#1624=CARTESIAN_POINT('',(0.1524,0.14605,-0.0782267030407324));
#1625=CARTESIAN_POINT('',(0.0508,0.14605,-0.0782267030407324));
#1626=CARTESIAN_POINT('',(0.1524,0.13335,-0.0782267030407324));
#1627=CARTESIAN_POINT('',(0.1524,0.13335,-0.0782267030407324));
#1628=CARTESIAN_POINT('',(0.0508,0.03175,-0.0782267030407324));
#1629=CARTESIAN_POINT('',(-0.0381,-0.05715,-0.0782267030407324));
#1630=CARTESIAN_POINT('',(-0.0453890328576567,-0.06755,-0.0782267030407324));
#1631=CARTESIAN_POINT('',(-0.0381,-0.06985,-0.0782267030407324));
#1632=CARTESIAN_POINT('',(0.0508,-0.06755,-0.0782267030407324));
#1633=CARTESIAN_POINT('',(-0.0508,-0.06755,-0.0782267030407324));
#1634=CARTESIAN_POINT('',(-0.0508,-0.06755,-0.0782267030407324));
#1635=CARTESIAN_POINT('',(0.1524,-0.06755,-0.0782267030407324));
#1636=CARTESIAN_POINT('',(0.1524,-0.06755,-0.0782267030407324));
#1637=CARTESIAN_POINT('',(0.0508,-0.06755,-0.0782267030407324));
#1638=CARTESIAN_POINT('',(0.146989032857657,-0.06755,-0.0782267030407324));
#1639=CARTESIAN_POINT('',(0.1397,-0.05715,-0.0782267030407324));
#1640=CARTESIAN_POINT('',(0.1397,-0.06985,-0.0782267030407324));
#1641=CARTESIAN_POINT('',(0.0508,-0.06985,-0.0782267030407324));
#1642=CARTESIAN_POINT('',(0.1397,0.109576119959354,-0.011995147131814));
#1643=CARTESIAN_POINT('',(0.1397,0.109576119959354,-0.0432162787724867));
#1644=CARTESIAN_POINT('',(0.1397,0.109576119959354,0.0192259845088587));
#1645=CARTESIAN_POINT('',(0.1397,0.0968761199593544,0.0192259845088587));
#1646=CARTESIAN_POINT('',(0.1397,0.0968761199593544,0.0319259845088586));
#1647=CARTESIAN_POINT('',(0.1397,0.03175,0.0319259845088586));
#1648=CARTESIAN_POINT('',(0.1397,-0.0333761199593545,0.0319259845088586));
#1649=CARTESIAN_POINT('',(0.1397,-0.0333761199593544,0.0192259845088587));
#1650=CARTESIAN_POINT('',(0.1397,-0.0460761199593544,0.0192259845088587));
#1651=CARTESIAN_POINT('',(0.1397,-0.0460761199593544,-0.011995147131814));
#1652=CARTESIAN_POINT('',(0.1397,-0.0460761199593544,-0.0432162787724867));
#1653=CARTESIAN_POINT('',(0.1397,-0.0333761199593544,-0.0432162787724867));
#1654=CARTESIAN_POINT('',(0.1397,-0.0333761199593545,-0.0559162787724867));
#1655=CARTESIAN_POINT('',(0.1397,0.03175,-0.0559162787724867));
#1656=CARTESIAN_POINT('',(0.1397,0.0968761199593544,-0.0559162787724867));
#1657=CARTESIAN_POINT('',(0.1397,0.0968761199593544,-0.0432162787724868));
#1658=CARTESIAN_POINT('',(-0.0461336042404175,-0.05985,0.0217732969592676));
#1659=CARTESIAN_POINT('',(-0.090424,0.00825,-0.0360732969592676));
#1660=CARTESIAN_POINT('',(-0.090424,0.00825,-0.00837329695926759));
#1661=CARTESIAN_POINT('',(-0.090424,0.00825,-0.0583732969592676));
#1662=CARTESIAN_POINT('',(-0.090424,0.05525,-0.0360732969592676));
#1663=CARTESIAN_POINT('',(-0.090424,0.05525,-0.0583732969592676));
#1664=CARTESIAN_POINT('',(-0.090424,0.05525,-0.00837329695926759));
#1665=CARTESIAN_POINT('',(-0.090424,0.03175,-0.00837329695926759));
#1666=CARTESIAN_POINT('',(-0.090424,0.03175,-0.0583732969592676));
#1667=CARTESIAN_POINT('',(0.0508,-0.06755,-0.0782267030407324));
#1668=CARTESIAN_POINT('',(0.1524,-0.06755,-0.0782267030407324));
#1669=CARTESIAN_POINT('',(0.146989032857657,-0.06755,-0.0782267030407324));
#1670=CARTESIAN_POINT('',(0.1524,-0.06755,-0.0782267030407324));
#1671=CARTESIAN_POINT('',(0.0508,-0.06755,-0.0782267030407324));
#1672=CARTESIAN_POINT('',(-0.0508,-0.06755,-0.0782267030407324));
#1673=CARTESIAN_POINT('',(-0.0453890328576567,-0.06755,-0.0782267030407324));
#1674=CARTESIAN_POINT('',(-0.0508,-0.06755,-0.0782267030407324));
#1675=CARTESIAN_POINT('',(-0.0508,-0.05615,-0.0782267030407324));
#1676=CARTESIAN_POINT('',(-0.0508,-0.05215,-0.0782267030407324));
#1677=CARTESIAN_POINT('',(0.1592,-0.05015,-0.0083767030407324));
#1678=CARTESIAN_POINT('',(0.1592,-0.05015,-0.0655267030407324));
#1679=CARTESIAN_POINT('',(0.1592,-0.05215,-0.0782267030407324));
#1680=CARTESIAN_POINT('',(0.1592,-0.05215,-0.0655267030407324));
#1681=CARTESIAN_POINT('',(-0.0461336042404175,-0.05215,-0.0782267030407324));
#1682=CARTESIAN_POINT('',(-0.0461336042404175,-0.05185,-0.0291133515203662));
#1683=CARTESIAN_POINT('',(-0.0461336042404175,-0.05185,-0.0291133515203662));
#1684=CARTESIAN_POINT('',(-0.0461336042404175,-0.05185,-0.0291133515203662));
#1685=CARTESIAN_POINT('',(0.15875,-0.07285,0.0337732969592676));
#1686=CARTESIAN_POINT('',(0.15875,-0.07285,0.0337732969592676));
#1687=CARTESIAN_POINT('',(0.16125,-0.07285,0.0337732969592676));
#1688=CARTESIAN_POINT('',(0.0508,0.03175,0.0337732969592676));
#1689=CARTESIAN_POINT('',(-0.05715,-0.07285,0.0337732969592676));
#1690=CARTESIAN_POINT('',(-0.05715,-0.07285,0.0337732969592676));
#1691=CARTESIAN_POINT('',(-0.05465,-0.07285,0.0337732969592676));
#1692=CARTESIAN_POINT('',(0.0508,0.03175,0.0337732969592676));
#1693=CARTESIAN_POINT('',(-0.0541234018715768,0.136673401871577,0.0337732969592676));
#1694=CARTESIAN_POINT('',(-0.0541234018715768,0.136673401871577,0.0337732969592676));
#1695=CARTESIAN_POINT('',(-0.0516234018715768,0.136673401871577,0.0337732969592676));
#1696=CARTESIAN_POINT('',(0.0508,0.03175,0.0337732969592676));
#1697=CARTESIAN_POINT('',(0.155723401871577,0.136673401871577,0.0337732969592676));
#1698=CARTESIAN_POINT('',(0.155723401871577,0.136673401871577,0.0337732969592676));
#1699=CARTESIAN_POINT('',(0.158223401871577,0.136673401871577,0.0337732969592676));
#1700=CARTESIAN_POINT('',(0.0508,0.03175,0.0337732969592676));
#1701=CARTESIAN_POINT('',(0.0508,0.03175,-0.0655267030407324));
#1702=CARTESIAN_POINT('',(0.1397,-0.05715,-0.0655267030407324));
#1703=CARTESIAN_POINT('',(0.1397,-0.05715,-0.0655267030407324));
#1704=CARTESIAN_POINT('',(0.1397,-0.06985,-0.0655267030407324));
#1705=CARTESIAN_POINT('',(0.1397,-0.06985,-0.0655267030407324));
#1706=CARTESIAN_POINT('',(-0.0381,-0.05715,-0.0655267030407324));
#1707=CARTESIAN_POINT('',(-0.0381,-0.05715,-0.0655267030407324));
#1708=CARTESIAN_POINT('',(-0.0381,-0.06985,-0.0655267030407324));
#1709=CARTESIAN_POINT('',(-0.0381,-0.06985,-0.0655267030407324));
#1710=CARTESIAN_POINT('',(0.0508,0.03175,-0.0655267030407324));
#1711=CARTESIAN_POINT('',(0.0508,-0.06985,-0.0655267030407324));
#1712=CARTESIAN_POINT('',(0.0508,-0.06985,-0.0655267030407324));
#1713=MECHANICAL_DESIGN_GEOMETRIC_PRESENTATION_REPRESENTATION('',(#1024),
#1714);
#1714=(
GEOMETRIC_REPRESENTATION_CONTEXT(3)
GLOBAL_UNCERTAINTY_ASSIGNED_CONTEXT((#1715))
GLOBAL_UNIT_ASSIGNED_CONTEXT((#1718,#1717,#1716))
REPRESENTATION_CONTEXT('bottom shell','TOP_LEVEL_ASSEMBLY_PART')
);
#1715=UNCERTAINTY_MEASURE_WITH_UNIT(LENGTH_MEASURE(1.E-8),#1718,
'DISTANCE_ACCURACY_VALUE','Maximum Tolerance applied to model');
#1716=(
NAMED_UNIT(*)
SI_UNIT($,.STERADIAN.)
SOLID_ANGLE_UNIT()
);
#1717=(
NAMED_UNIT(*)
PLANE_ANGLE_UNIT()
SI_UNIT($,.RADIAN.)
);
#1718=(
LENGTH_UNIT()
NAMED_UNIT(*)
SI_UNIT($,.METRE.)
);
#1719=PRODUCT_DEFINITION_SHAPE('','',#1720);
#1720=PRODUCT_DEFINITION('','',#1722,#1721);
#1721=PRODUCT_DEFINITION_CONTEXT('',#1728,'design');
#1722=PRODUCT_DEFINITION_FORMATION_WITH_SPECIFIED_SOURCE('','',#1724,
 .NOT_KNOWN.);
#1723=PRODUCT_RELATED_PRODUCT_CATEGORY('','',(#1724));
#1724=PRODUCT('bottom shell','bottom shell','bottom shell',(#1726));
#1725=PRODUCT_CATEGORY('','');
#1726=PRODUCT_CONTEXT('',#1728,'mechanical');
#1727=APPLICATION_PROTOCOL_DEFINITION('international standard',
'ap242_managed_model_based_3d_engineering',2020,#1728);
#1728=APPLICATION_CONTEXT('managed model based 3d engineering');
ENDSEC;
END-ISO-10303-21;
