ISO-10303-21;
HEADER;
/* Generated by software containing ST-Developer
 * from STEP Tools, Inc. (www.steptools.com) 
 */
/* OPTION: using custom renumber hook */

FILE_DESCRIPTION(
/* description */ ('STEP AP242 Edition 2',
'CAx-IF Rec.Pracs.---Representation and Presentation of Product Manufa
cturing Information (PMI)---4.0---2014-10-13',
'CAx-IF Rec.Pracs.---3D Tessellated Geometry---0.4---2014-09-14','2;1',
'CAx-IF Rec.Pracs.---User Defined Attributes---1.5---2016-08-15'),
/* implementation_level */ '2;1');

FILE_NAME(
/* name */ 'happy plant - heater cap 2',
/* time_stamp */ '2026-10-08T17:34:28Z',
/* author */ (''),
/* organization */ (''),
/* preprocessor_version */ 'ST-DEVELOPER v20',
/* originating_system */ 'ONSHAPE BY PTC INC, 1.221',
/* authorisation */ '  ');

FILE_SCHEMA (('AP242_MANAGED_MODEL_BASED_3D_ENGINEERING_MIM_LF { 1 0 10303 442 3 1 4 }'));
ENDSEC;

DATA;
#10=SHAPE_REPRESENTATION_RELATIONSHIP('','',#263,#11);
#11=ADVANCED_BREP_SHAPE_REPRESENTATION('',(#261),#409);
#12=ORIENTED_EDGE('',*,*,#76,.F.);
#13=ORIENTED_EDGE('',*,*,#77,.T.);
#14=ORIENTED_EDGE('',*,*,#78,.T.);
#15=ORIENTED_EDGE('',*,*,#79,.T.);
#16=ORIENTED_EDGE('',*,*,#80,.F.);
#17=ORIENTED_EDGE('',*,*,#81,.T.);
#18=ORIENTED_EDGE('',*,*,#76,.T.);
#19=ORIENTED_EDGE('',*,*,#82,.T.);
#20=ORIENTED_EDGE('',*,*,#83,.F.);
#21=ORIENTED_EDGE('',*,*,#84,.T.);
#22=ORIENTED_EDGE('',*,*,#80,.T.);
#23=ORIENTED_EDGE('',*,*,#85,.T.);
#24=ORIENTED_EDGE('',*,*,#86,.T.);
#25=ORIENTED_EDGE('',*,*,#87,.F.);
#26=ORIENTED_EDGE('',*,*,#88,.F.);
#27=ORIENTED_EDGE('',*,*,#89,.T.);
#28=ORIENTED_EDGE('',*,*,#90,.T.);
#29=ORIENTED_EDGE('',*,*,#91,.F.);
#30=ORIENTED_EDGE('',*,*,#92,.F.);
#31=ORIENTED_EDGE('',*,*,#87,.T.);
#32=ORIENTED_EDGE('',*,*,#93,.F.);
#33=ORIENTED_EDGE('',*,*,#94,.F.);
#34=ORIENTED_EDGE('',*,*,#95,.T.);
#35=ORIENTED_EDGE('',*,*,#91,.T.);
#36=ORIENTED_EDGE('',*,*,#96,.F.);
#37=ORIENTED_EDGE('',*,*,#89,.F.);
#38=ORIENTED_EDGE('',*,*,#97,.T.);
#39=ORIENTED_EDGE('',*,*,#94,.T.);
#40=ORIENTED_EDGE('',*,*,#78,.F.);
#41=ORIENTED_EDGE('',*,*,#98,.T.);
#42=ORIENTED_EDGE('',*,*,#83,.T.);
#43=ORIENTED_EDGE('',*,*,#99,.T.);
#44=ORIENTED_EDGE('',*,*,#100,.T.);
#45=ORIENTED_EDGE('',*,*,#101,.T.);
#46=ORIENTED_EDGE('',*,*,#102,.T.);
#47=ORIENTED_EDGE('',*,*,#103,.T.);
#48=ORIENTED_EDGE('',*,*,#88,.T.);
#49=ORIENTED_EDGE('',*,*,#92,.T.);
#50=ORIENTED_EDGE('',*,*,#95,.F.);
#51=ORIENTED_EDGE('',*,*,#97,.F.);
#52=ORIENTED_EDGE('',*,*,#86,.F.);
#53=ORIENTED_EDGE('',*,*,#96,.T.);
#54=ORIENTED_EDGE('',*,*,#93,.T.);
#55=ORIENTED_EDGE('',*,*,#90,.F.);
#56=ORIENTED_EDGE('',*,*,#79,.F.);
#57=ORIENTED_EDGE('',*,*,#99,.F.);
#58=ORIENTED_EDGE('',*,*,#85,.F.);
#59=ORIENTED_EDGE('',*,*,#82,.F.);
#60=ORIENTED_EDGE('',*,*,#104,.F.);
#61=ORIENTED_EDGE('',*,*,#84,.F.);
#62=ORIENTED_EDGE('',*,*,#105,.F.);
#63=ORIENTED_EDGE('',*,*,#103,.F.);
#64=ORIENTED_EDGE('',*,*,#105,.T.);
#65=ORIENTED_EDGE('',*,*,#98,.F.);
#66=ORIENTED_EDGE('',*,*,#106,.F.);
#67=ORIENTED_EDGE('',*,*,#100,.F.);
#68=ORIENTED_EDGE('',*,*,#104,.T.);
#69=ORIENTED_EDGE('',*,*,#102,.F.);
#70=ORIENTED_EDGE('',*,*,#107,.F.);
#71=ORIENTED_EDGE('',*,*,#81,.F.);
#72=ORIENTED_EDGE('',*,*,#106,.T.);
#73=ORIENTED_EDGE('',*,*,#77,.F.);
#74=ORIENTED_EDGE('',*,*,#107,.T.);
#75=ORIENTED_EDGE('',*,*,#101,.F.);
#76=EDGE_CURVE('',#108,#109,#128,.T.);
#77=EDGE_CURVE('',#108,#110,#129,.T.);
#78=EDGE_CURVE('',#110,#111,#130,.T.);
#79=EDGE_CURVE('',#111,#109,#131,.T.);
#80=EDGE_CURVE('',#112,#113,#132,.T.);
#81=EDGE_CURVE('',#112,#108,#133,.T.);
#82=EDGE_CURVE('',#109,#113,#134,.T.);
#83=EDGE_CURVE('',#114,#115,#135,.T.);
#84=EDGE_CURVE('',#114,#112,#136,.T.);
#85=EDGE_CURVE('',#113,#115,#137,.T.);
#86=EDGE_CURVE('',#116,#117,#138,.T.);
#87=EDGE_CURVE('',#118,#117,#139,.T.);
#88=EDGE_CURVE('',#119,#118,#140,.T.);
#89=EDGE_CURVE('',#119,#116,#141,.T.);
#90=EDGE_CURVE('',#117,#120,#142,.T.);
#91=EDGE_CURVE('',#121,#120,#143,.T.);
#92=EDGE_CURVE('',#118,#121,#144,.T.);
#93=EDGE_CURVE('',#122,#120,#145,.T.);
#94=EDGE_CURVE('',#123,#122,#146,.T.);
#95=EDGE_CURVE('',#123,#121,#147,.T.);
#96=EDGE_CURVE('',#116,#122,#148,.T.);
#97=EDGE_CURVE('',#119,#123,#149,.T.);
#98=EDGE_CURVE('',#110,#114,#150,.T.);
#99=EDGE_CURVE('',#115,#111,#151,.T.);
#100=EDGE_CURVE('',#124,#125,#152,.T.);
#101=EDGE_CURVE('',#125,#126,#153,.T.);
#102=EDGE_CURVE('',#126,#127,#154,.T.);
#103=EDGE_CURVE('',#127,#124,#155,.T.);
#104=EDGE_CURVE('',#112,#127,#156,.T.);
#105=EDGE_CURVE('',#124,#114,#157,.F.);
#106=EDGE_CURVE('',#125,#110,#158,.F.);
#107=EDGE_CURVE('',#108,#126,#159,.F.);
#108=VERTEX_POINT('',#344);
#109=VERTEX_POINT('',#345);
#110=VERTEX_POINT('',#347);
#111=VERTEX_POINT('',#349);
#112=VERTEX_POINT('',#353);
#113=VERTEX_POINT('',#354);
#114=VERTEX_POINT('',#359);
#115=VERTEX_POINT('',#360);
#116=VERTEX_POINT('',#365);
#117=VERTEX_POINT('',#366);
#118=VERTEX_POINT('',#368);
#119=VERTEX_POINT('',#370);
#120=VERTEX_POINT('',#374);
#121=VERTEX_POINT('',#376);
#122=VERTEX_POINT('',#380);
#123=VERTEX_POINT('',#382);
#124=VERTEX_POINT('',#392);
#125=VERTEX_POINT('',#393);
#126=VERTEX_POINT('',#395);
#127=VERTEX_POINT('',#397);
#128=LINE('',#343,#160);
#129=LINE('',#346,#161);
#130=LINE('',#348,#162);
#131=LINE('',#350,#163);
#132=LINE('',#352,#164);
#133=LINE('',#355,#165);
#134=LINE('',#356,#166);
#135=LINE('',#358,#167);
#136=LINE('',#361,#168);
#137=LINE('',#362,#169);
#138=LINE('',#364,#170);
#139=LINE('',#367,#171);
#140=LINE('',#369,#172);
#141=LINE('',#371,#173);
#142=LINE('',#373,#174);
#143=LINE('',#375,#175);
#144=LINE('',#377,#176);
#145=LINE('',#379,#177);
#146=LINE('',#381,#178);
#147=LINE('',#383,#179);
#148=LINE('',#385,#180);
#149=LINE('',#386,#181);
#150=LINE('',#388,#182);
#151=LINE('',#389,#183);
#152=LINE('',#391,#184);
#153=LINE('',#394,#185);
#154=LINE('',#396,#186);
#155=LINE('',#398,#187);
#156=LINE('',#401,#188);
#157=LINE('',#402,#189);
#158=LINE('',#404,#190);
#159=LINE('',#406,#191);
#160=VECTOR('',#283,1.);
#161=VECTOR('',#284,1.);
#162=VECTOR('',#285,1.);
#163=VECTOR('',#286,1.);
#164=VECTOR('',#289,1.);
#165=VECTOR('',#290,1.);
#166=VECTOR('',#291,1.);
#167=VECTOR('',#294,1.);
#168=VECTOR('',#295,1.);
#169=VECTOR('',#296,1.);
#170=VECTOR('',#299,1.);
#171=VECTOR('',#300,1.);
#172=VECTOR('',#301,1.);
#173=VECTOR('',#302,1.);
#174=VECTOR('',#305,1.);
#175=VECTOR('',#306,1.);
#176=VECTOR('',#307,1.);
#177=VECTOR('',#310,1.);
#178=VECTOR('',#311,1.);
#179=VECTOR('',#312,1.);
#180=VECTOR('',#315,1.);
#181=VECTOR('',#316,1.);
#182=VECTOR('',#319,1.);
#183=VECTOR('',#320,1.);
#184=VECTOR('',#323,1.);
#185=VECTOR('',#324,1.);
#186=VECTOR('',#325,1.);
#187=VECTOR('',#326,1.);
#188=VECTOR('',#331,1.);
#189=VECTOR('',#332,1.);
#190=VECTOR('',#335,1.);
#191=VECTOR('',#338,1.);
#192=EDGE_LOOP('',(#12,#13,#14,#15));
#193=EDGE_LOOP('',(#16,#17,#18,#19));
#194=EDGE_LOOP('',(#20,#21,#22,#23));
#195=EDGE_LOOP('',(#24,#25,#26,#27));
#196=EDGE_LOOP('',(#28,#29,#30,#31));
#197=EDGE_LOOP('',(#32,#33,#34,#35));
#198=EDGE_LOOP('',(#36,#37,#38,#39));
#199=EDGE_LOOP('',(#40,#41,#42,#43));
#200=EDGE_LOOP('',(#44,#45,#46,#47));
#201=EDGE_LOOP('',(#48,#49,#50,#51));
#202=EDGE_LOOP('',(#52,#53,#54,#55));
#203=EDGE_LOOP('',(#56,#57,#58,#59));
#204=EDGE_LOOP('',(#60,#61,#62,#63));
#205=EDGE_LOOP('',(#64,#65,#66,#67));
#206=EDGE_LOOP('',(#68,#69,#70,#71));
#207=EDGE_LOOP('',(#72,#73,#74,#75));
#208=FACE_BOUND('',#192,.T.);
#209=FACE_BOUND('',#193,.T.);
#210=FACE_BOUND('',#194,.T.);
#211=FACE_BOUND('',#195,.T.);
#212=FACE_BOUND('',#196,.T.);
#213=FACE_BOUND('',#197,.T.);
#214=FACE_BOUND('',#198,.T.);
#215=FACE_BOUND('',#199,.T.);
#216=FACE_BOUND('',#200,.T.);
#217=FACE_BOUND('',#201,.T.);
#218=FACE_BOUND('',#202,.T.);
#219=FACE_BOUND('',#203,.T.);
#220=FACE_BOUND('',#204,.T.);
#221=FACE_BOUND('',#205,.T.);
#222=FACE_BOUND('',#206,.T.);
#223=FACE_BOUND('',#207,.T.);
#224=PLANE('',#265);
#225=PLANE('',#266);
#226=PLANE('',#267);
#227=PLANE('',#268);
#228=PLANE('',#269);
#229=PLANE('',#270);
#230=PLANE('',#271);
#231=PLANE('',#272);
#232=PLANE('',#273);
#233=PLANE('',#274);
#234=PLANE('',#275);
#235=PLANE('',#276);
#236=PLANE('',#277);
#237=PLANE('',#278);
#238=ADVANCED_FACE('',(#208),#224,.F.);
#239=ADVANCED_FACE('',(#209),#225,.F.);
#240=ADVANCED_FACE('',(#210),#226,.F.);
#241=ADVANCED_FACE('',(#211),#227,.F.);
#242=ADVANCED_FACE('',(#212),#228,.F.);
#243=ADVANCED_FACE('',(#213),#229,.T.);
#244=ADVANCED_FACE('',(#214),#230,.T.);
#245=ADVANCED_FACE('',(#215),#231,.F.);
#246=ADVANCED_FACE('',(#216,#217),#232,.T.);
#247=ADVANCED_FACE('',(#218,#219),#233,.F.);
#248=ADVANCED_FACE('',(#220),#234,.T.);
#249=ADVANCED_FACE('',(#221),#235,.T.);
#250=ADVANCED_FACE('',(#222),#236,.T.);
#251=ADVANCED_FACE('',(#223),#237,.T.);
#252=CLOSED_SHELL('',(#238,#239,#240,#241,#242,#243,#244,#245,#246,#247,
#248,#249,#250,#251));
#253=STYLED_ITEM('',(#254),#261);
#254=PRESENTATION_STYLE_ASSIGNMENT((#255));
#255=SURFACE_STYLE_USAGE(.BOTH.,#256);
#256=SURFACE_SIDE_STYLE('',(#257));
#257=SURFACE_STYLE_FILL_AREA(#258);
#258=FILL_AREA_STYLE('',(#259));
#259=FILL_AREA_STYLE_COLOUR('',#260);
#260=COLOUR_RGB('',0.917647058823529,0.917647058823529,0.917647058823529);
#261=MANIFOLD_SOLID_BREP('heater cap 2',#252);
#262=SHAPE_DEFINITION_REPRESENTATION(#414,#263);
#263=SHAPE_REPRESENTATION('heater cap 2',(#264),#409);
#264=AXIS2_PLACEMENT_3D('',#341,#279,#280);
#265=AXIS2_PLACEMENT_3D('',#342,#281,#282);
#266=AXIS2_PLACEMENT_3D('',#351,#287,#288);
#267=AXIS2_PLACEMENT_3D('',#357,#292,#293);
#268=AXIS2_PLACEMENT_3D('',#363,#297,#298);
#269=AXIS2_PLACEMENT_3D('',#372,#303,#304);
#270=AXIS2_PLACEMENT_3D('',#378,#308,#309);
#271=AXIS2_PLACEMENT_3D('',#384,#313,#314);
#272=AXIS2_PLACEMENT_3D('',#387,#317,#318);
#273=AXIS2_PLACEMENT_3D('',#390,#321,#322);
#274=AXIS2_PLACEMENT_3D('',#399,#327,#328);
#275=AXIS2_PLACEMENT_3D('',#400,#329,#330);
#276=AXIS2_PLACEMENT_3D('',#403,#333,#334);
#277=AXIS2_PLACEMENT_3D('',#405,#336,#337);
#278=AXIS2_PLACEMENT_3D('',#407,#339,#340);
#279=DIRECTION('',(0.,0.,1.));
#280=DIRECTION('',(1.,0.,0.));
#281=DIRECTION('',(-1.,0.,0.));
#282=DIRECTION('',(0.,0.,1.));
#283=DIRECTION('',(0.,0.,-1.));
#284=DIRECTION('',(0.,-1.,0.));
#285=DIRECTION('',(0.,0.,-1.));
#286=DIRECTION('',(0.,1.,0.));
#287=DIRECTION('',(0.,-1.,0.));
#288=DIRECTION('',(0.,0.,-1.));
#289=DIRECTION('',(0.,0.,-1.));
#290=DIRECTION('',(1.,0.,0.));
#291=DIRECTION('',(-1.,0.,0.));
#292=DIRECTION('',(1.,0.,0.));
#293=DIRECTION('',(0.,0.,-1.));
#294=DIRECTION('',(0.,0.,-1.));
#295=DIRECTION('',(0.,1.,0.));
#296=DIRECTION('',(0.,-1.,0.));
#297=DIRECTION('',(0.,1.,0.));
#298=DIRECTION('',(0.,0.,1.));
#299=DIRECTION('',(1.,0.,0.));
#300=DIRECTION('',(0.,0.,-1.));
#301=DIRECTION('',(1.,0.,0.));
#302=DIRECTION('',(0.,0.,-1.));
#303=DIRECTION('',(1.,0.,0.));
#304=DIRECTION('',(0.,0.,-1.));
#305=DIRECTION('',(0.,-1.,0.));
#306=DIRECTION('',(0.,0.,-1.));
#307=DIRECTION('',(0.,-1.,0.));
#308=DIRECTION('',(0.,1.,0.));
#309=DIRECTION('',(0.,0.,1.));
#310=DIRECTION('',(1.,0.,0.));
#311=DIRECTION('',(0.,0.,-1.));
#312=DIRECTION('',(1.,0.,0.));
#313=DIRECTION('',(1.,0.,0.));
#314=DIRECTION('',(0.,0.,-1.));
#315=DIRECTION('',(0.,-1.,0.));
#316=DIRECTION('',(0.,-1.,0.));
#317=DIRECTION('',(0.,1.,0.));
#318=DIRECTION('',(0.,0.,1.));
#319=DIRECTION('',(-1.,0.,0.));
#320=DIRECTION('',(1.,0.,0.));
#321=DIRECTION('',(0.,0.,1.));
#322=DIRECTION('',(1.,0.,0.));
#323=DIRECTION('',(1.,0.,0.));
#324=DIRECTION('',(0.,1.,0.));
#325=DIRECTION('',(-1.,0.,0.));
#326=DIRECTION('',(0.,-1.,0.));
#327=DIRECTION('',(0.,0.,1.));
#328=DIRECTION('',(1.,0.,0.));
#329=DIRECTION('',(-0.707106781186548,0.,0.707106781186548));
#330=DIRECTION('',(0.,1.,0.));
#331=DIRECTION('',(0.577350269189626,-0.577350269189626,0.577350269189626));
#332=DIRECTION('',(0.577350269189626,0.577350269189626,0.577350269189626));
#333=DIRECTION('',(0.,-0.707106781186548,0.707106781186548));
#334=DIRECTION('',(-1.,0.,0.));
#335=DIRECTION('',(-0.577350269189626,0.577350269189626,0.577350269189626));
#336=DIRECTION('',(0.,0.707106781186548,0.707106781186548));
#337=DIRECTION('',(1.,0.,0.));
#338=DIRECTION('',(0.577350269189626,0.577350269189626,-0.577350269189626));
#339=DIRECTION('',(0.707106781186548,0.,0.707106781186548));
#340=DIRECTION('',(0.,-1.,0.));
#341=CARTESIAN_POINT('',(0.,0.,0.));
#342=CARTESIAN_POINT('',(-0.0873412653116466,0.0325749899148941,0.130973296959268));
#343=CARTESIAN_POINT('',(-0.0873412653116466,0.0986749899148941,0.130973296959268));
#344=CARTESIAN_POINT('',(-0.0873412653116466,0.0986749899148941,0.128973296959268));
#345=CARTESIAN_POINT('',(-0.0873412653116466,0.0986749899148941,0.126973296959268));
#346=CARTESIAN_POINT('',(-0.0873412653116466,-0.0335250100851059,0.128973296959268));
#347=CARTESIAN_POINT('',(-0.0873412653116466,-0.0335250100851059,0.128973296959268));
#348=CARTESIAN_POINT('',(-0.0873412653116466,-0.0335250100851059,0.130973296959268));
#349=CARTESIAN_POINT('',(-0.0873412653116466,-0.0335250100851059,0.126973296959268));
#350=CARTESIAN_POINT('',(-0.0873412653116466,0.0325749899148941,0.126973296959268));
#351=CARTESIAN_POINT('',(-0.102641265311647,0.0986749899148941,0.130973296959268));
#352=CARTESIAN_POINT('',(-0.117941265311647,0.0986749899148941,0.130973296959268));
#353=CARTESIAN_POINT('',(-0.117941265311647,0.0986749899148941,0.128973296959268));
#354=CARTESIAN_POINT('',(-0.117941265311647,0.0986749899148941,0.126973296959268));
#355=CARTESIAN_POINT('',(-0.0873412653116466,0.0986749899148941,0.128973296959268));
#356=CARTESIAN_POINT('',(-0.102641265311647,0.0986749899148941,0.126973296959268));
#357=CARTESIAN_POINT('',(-0.117941265311647,0.0325749899148941,0.130973296959268));
#358=CARTESIAN_POINT('',(-0.117941265311647,-0.0335250100851059,0.130973296959268));
#359=CARTESIAN_POINT('',(-0.117941265311647,-0.0335250100851059,0.128973296959268));
#360=CARTESIAN_POINT('',(-0.117941265311647,-0.0335250100851059,0.126973296959268));
#361=CARTESIAN_POINT('',(-0.117941265311647,0.0986749899148941,0.128973296959268));
#362=CARTESIAN_POINT('',(-0.117941265311647,0.0325749899148941,0.126973296959268));
#363=CARTESIAN_POINT('',(-0.102641265311647,0.0950749899148941,0.130973296959268));
#364=CARTESIAN_POINT('',(-0.102641265311647,0.0950749899148941,0.126973296959268));
#365=CARTESIAN_POINT('',(-0.114341265311647,0.0950749899148941,0.126973296959268));
#366=CARTESIAN_POINT('',(-0.0909412653116466,0.0950749899148941,0.126973296959268));
#367=CARTESIAN_POINT('',(-0.0909412653116466,0.0950749899148941,0.130973296959268));
#368=CARTESIAN_POINT('',(-0.0909412653116466,0.0950749899148941,0.130973296959268));
#369=CARTESIAN_POINT('',(-0.102641265311647,0.0950749899148941,0.130973296959268));
#370=CARTESIAN_POINT('',(-0.114341265311647,0.0950749899148941,0.130973296959268));
#371=CARTESIAN_POINT('',(-0.114341265311647,0.0950749899148941,0.130973296959268));
#372=CARTESIAN_POINT('',(-0.0909412653116466,0.0325749899148941,0.130973296959268));
#373=CARTESIAN_POINT('',(-0.0909412653116466,0.0325749899148941,0.126973296959268));
#374=CARTESIAN_POINT('',(-0.0909412653116466,-0.0299250100851059,0.126973296959268));
#375=CARTESIAN_POINT('',(-0.0909412653116466,-0.0299250100851059,0.130973296959268));
#376=CARTESIAN_POINT('',(-0.0909412653116466,-0.0299250100851059,0.130973296959268));
#377=CARTESIAN_POINT('',(-0.0909412653116466,0.0325749899148941,0.130973296959268));
#378=CARTESIAN_POINT('',(-0.102641265311647,-0.0299250100851059,0.130973296959268));
#379=CARTESIAN_POINT('',(-0.102641265311647,-0.0299250100851059,0.126973296959268));
#380=CARTESIAN_POINT('',(-0.114341265311647,-0.0299250100851059,0.126973296959268));
#381=CARTESIAN_POINT('',(-0.114341265311647,-0.0299250100851059,0.130973296959268));
#382=CARTESIAN_POINT('',(-0.114341265311647,-0.0299250100851059,0.130973296959268));
#383=CARTESIAN_POINT('',(-0.102641265311647,-0.0299250100851059,0.130973296959268));
#384=CARTESIAN_POINT('',(-0.114341265311647,0.0325749899148941,0.130973296959268));
#385=CARTESIAN_POINT('',(-0.114341265311647,0.0325749899148941,0.126973296959268));
#386=CARTESIAN_POINT('',(-0.114341265311647,0.0325749899148941,0.130973296959268));
#387=CARTESIAN_POINT('',(-0.102641265311647,-0.0335250100851059,0.130973296959268));
#388=CARTESIAN_POINT('',(-0.117941265311647,-0.0335250100851059,0.128973296959268));
#389=CARTESIAN_POINT('',(-0.102641265311647,-0.0335250100851059,0.126973296959268));
#390=CARTESIAN_POINT('',(-0.102641265311647,0.0325749899148941,0.130973296959268));
#391=CARTESIAN_POINT('',(-0.0873412653116466,-0.0315250100851059,0.130973296959268));
#392=CARTESIAN_POINT('',(-0.115941265311647,-0.0315250100851059,0.130973296959268));
#393=CARTESIAN_POINT('',(-0.0893412653116466,-0.0315250100851059,0.130973296959268));
#394=CARTESIAN_POINT('',(-0.0893412653116466,0.0986749899148941,0.130973296959268));
#395=CARTESIAN_POINT('',(-0.0893412653116466,0.0966749899148941,0.130973296959268));
#396=CARTESIAN_POINT('',(-0.117941265311647,0.0966749899148941,0.130973296959268));
#397=CARTESIAN_POINT('',(-0.115941265311647,0.0966749899148941,0.130973296959268));
#398=CARTESIAN_POINT('',(-0.115941265311647,-0.0335250100851059,0.130973296959268));
#399=CARTESIAN_POINT('',(-0.102641265311647,0.0325749899148941,0.126973296959268));
#400=CARTESIAN_POINT('',(-0.115941265311647,0.0325749899148941,0.130973296959268));
#401=CARTESIAN_POINT('',(-0.111507931978313,0.0922416565815608,0.135406630292601));
#402=CARTESIAN_POINT('',(-0.0945745986449799,-0.0101583434184392,0.152339963625934));
#403=CARTESIAN_POINT('',(-0.102641265311647,-0.0315250100851059,0.130973296959268));
#404=CARTESIAN_POINT('',(-0.0937745986449799,-0.0270916767517726,0.135406630292601));
#405=CARTESIAN_POINT('',(-0.102641265311647,0.0966749899148941,0.130973296959268));
#406=CARTESIAN_POINT('',(-0.0937745986449799,0.0922416565815608,0.135406630292601));
#407=CARTESIAN_POINT('',(-0.0893412653116466,0.0325749899148941,0.130973296959268));
#408=MECHANICAL_DESIGN_GEOMETRIC_PRESENTATION_REPRESENTATION('',(#253),
#409);
#409=(
GEOMETRIC_REPRESENTATION_CONTEXT(3)
GLOBAL_UNCERTAINTY_ASSIGNED_CONTEXT((#410))
GLOBAL_UNIT_ASSIGNED_CONTEXT((#413,#412,#411))
REPRESENTATION_CONTEXT('heater cap 2','TOP_LEVEL_ASSEMBLY_PART')
);
#410=UNCERTAINTY_MEASURE_WITH_UNIT(LENGTH_MEASURE(1.E-8),#413,
'DISTANCE_ACCURACY_VALUE','Maximum Tolerance applied to model');
#411=(
NAMED_UNIT(*)
SI_UNIT($,.STERADIAN.)
SOLID_ANGLE_UNIT()
);
#412=(
NAMED_UNIT(*)
PLANE_ANGLE_UNIT()
SI_UNIT($,.RADIAN.)
);
#413=(
LENGTH_UNIT()
NAMED_UNIT(*)
SI_UNIT($,.METRE.)
);
#414=PRODUCT_DEFINITION_SHAPE('','',#415);
#415=PRODUCT_DEFINITION('','',#417,#416);
#416=PRODUCT_DEFINITION_CONTEXT('',#423,'design');
#417=PRODUCT_DEFINITION_FORMATION_WITH_SPECIFIED_SOURCE('','',#419,
 .NOT_KNOWN.);
#418=PRODUCT_RELATED_PRODUCT_CATEGORY('','',(#419));
#419=PRODUCT('heater cap 2','heater cap 2','heater cap 2',(#421));
#420=PRODUCT_CATEGORY('','');
#421=PRODUCT_CONTEXT('',#423,'mechanical');
#422=APPLICATION_PROTOCOL_DEFINITION('international standard',
'ap242_managed_model_based_3d_engineering',2020,#423);
#423=APPLICATION_CONTEXT('managed model based 3d engineering');
ENDSEC;
END-ISO-10303-21;
