ISO-10303-21;
HEADER;
/* Generated by software containing ST-Developer
 * from STEP Tools, Inc. (www.steptools.com) 
 */
/* OPTION: using custom renumber hook */

FILE_DESCRIPTION(
/* description */ ('STEP AP242 Edition 2',
'CAx-IF Rec.Pracs.---Representation and Presentation of Product Manufa
cturing Information (PMI)---4.0---2014-10-13',
'CAx-IF Rec.Pracs.---3D Tessellated Geometry---0.4---2014-09-14','2;1',
'CAx-IF Rec.Pracs.---User Defined Attributes---1.5---2016-08-15'),
/* implementation_level */ '2;1');

FILE_NAME(
/* name */ 'happy plant - water cap 1',
/* time_stamp */ '2026-10-08T17:39:40Z',
/* author */ (''),
/* organization */ (''),
/* preprocessor_version */ 'ST-DEVELOPER v20',
/* originating_system */ 'ONSHAPE BY PTC INC, 1.221',
/* authorisation */ '  ');

FILE_SCHEMA (('AP242_MANAGED_MODEL_BASED_3D_ENGINEERING_MIM_LF { 1 0 10303 442 3 1 4 }'));
ENDSEC;

DATA;
#10=SHAPE_REPRESENTATION_RELATIONSHIP('','',#164,#11);
#11=ADVANCED_BREP_SHAPE_REPRESENTATION('',(#162),#275);
#12=LINE('',#243,#20);
#13=LINE('',#247,#21);
#14=LINE('',#251,#22);
#15=LINE('',#255,#23);
#16=LINE('',#257,#24);
#17=LINE('',#259,#25);
#18=LINE('',#261,#26);
#19=LINE('',#265,#27);
#20=VECTOR('',#197,1.);
#21=VECTOR('',#200,1.);
#22=VECTOR('',#205,1.);
#23=VECTOR('',#208,1.);
#24=VECTOR('',#211,1.);
#25=VECTOR('',#212,1.);
#26=VECTOR('',#215,1.);
#27=VECTOR('',#220,1.);
#28=PLANE('',#169);
#29=PLANE('',#175);
#30=PLANE('',#178);
#31=PLANE('',#179);
#32=PLANE('',#180);
#33=PLANE('',#182);
#34=ORIENTED_EDGE('',*,*,#68,.T.);
#35=ORIENTED_EDGE('',*,*,#69,.F.);
#36=ORIENTED_EDGE('',*,*,#70,.F.);
#37=ORIENTED_EDGE('',*,*,#71,.T.);
#38=ORIENTED_EDGE('',*,*,#72,.F.);
#39=ORIENTED_EDGE('',*,*,#73,.F.);
#40=ORIENTED_EDGE('',*,*,#68,.F.);
#41=ORIENTED_EDGE('',*,*,#74,.T.);
#42=ORIENTED_EDGE('',*,*,#70,.T.);
#43=ORIENTED_EDGE('',*,*,#75,.F.);
#44=ORIENTED_EDGE('',*,*,#76,.T.);
#45=ORIENTED_EDGE('',*,*,#77,.T.);
#46=ORIENTED_EDGE('',*,*,#73,.T.);
#47=ORIENTED_EDGE('',*,*,#78,.F.);
#48=ORIENTED_EDGE('',*,*,#79,.F.);
#49=ORIENTED_EDGE('',*,*,#75,.T.);
#50=ORIENTED_EDGE('',*,*,#72,.T.);
#51=ORIENTED_EDGE('',*,*,#80,.F.);
#52=ORIENTED_EDGE('',*,*,#81,.F.);
#53=ORIENTED_EDGE('',*,*,#78,.T.);
#54=ORIENTED_EDGE('',*,*,#71,.F.);
#55=ORIENTED_EDGE('',*,*,#77,.F.);
#56=ORIENTED_EDGE('',*,*,#82,.T.);
#57=ORIENTED_EDGE('',*,*,#80,.T.);
#58=ORIENTED_EDGE('',*,*,#76,.F.);
#59=ORIENTED_EDGE('',*,*,#79,.T.);
#60=ORIENTED_EDGE('',*,*,#81,.T.);
#61=ORIENTED_EDGE('',*,*,#82,.F.);
#62=ORIENTED_EDGE('',*,*,#83,.T.);
#63=ORIENTED_EDGE('',*,*,#74,.F.);
#64=ORIENTED_EDGE('',*,*,#84,.F.);
#65=ORIENTED_EDGE('',*,*,#69,.T.);
#66=ORIENTED_EDGE('',*,*,#84,.T.);
#67=ORIENTED_EDGE('',*,*,#83,.F.);
#68=EDGE_CURVE('',#85,#85,#98,.T.);
#69=EDGE_CURVE('',#86,#86,#99,.T.);
#70=EDGE_CURVE('',#87,#88,#100,.T.);
#71=EDGE_CURVE('',#87,#89,#12,.T.);
#72=EDGE_CURVE('',#90,#89,#101,.T.);
#73=EDGE_CURVE('',#88,#90,#13,.T.);
#74=EDGE_CURVE('',#91,#91,#102,.T.);
#75=EDGE_CURVE('',#92,#88,#14,.T.);
#76=EDGE_CURVE('',#92,#93,#103,.T.);
#77=EDGE_CURVE('',#93,#87,#15,.T.);
#78=EDGE_CURVE('',#94,#90,#16,.T.);
#79=EDGE_CURVE('',#92,#94,#17,.T.);
#80=EDGE_CURVE('',#95,#89,#18,.T.);
#81=EDGE_CURVE('',#94,#95,#104,.T.);
#82=EDGE_CURVE('',#93,#95,#19,.T.);
#83=EDGE_CURVE('',#96,#96,#105,.T.);
#84=EDGE_CURVE('',#97,#97,#106,.T.);
#85=VERTEX_POINT('',#236);
#86=VERTEX_POINT('',#238);
#87=VERTEX_POINT('',#241);
#88=VERTEX_POINT('',#242);
#89=VERTEX_POINT('',#244);
#90=VERTEX_POINT('',#246);
#91=VERTEX_POINT('',#250);
#92=VERTEX_POINT('',#252);
#93=VERTEX_POINT('',#254);
#94=VERTEX_POINT('',#258);
#95=VERTEX_POINT('',#262);
#96=VERTEX_POINT('',#269);
#97=VERTEX_POINT('',#272);
#98=CIRCLE('',#167,0.0238784375526328);
#99=CIRCLE('',#168,0.0238784375526328);
#100=CIRCLE('',#170,0.00526688687897553);
#101=CIRCLE('',#171,0.00883471125546509);
#102=CIRCLE('',#173,0.00526688687897553);
#103=CIRCLE('',#174,0.00526688687897553);
#104=CIRCLE('',#177,0.00883471125546509);
#105=CIRCLE('',#181,0.005);
#106=CIRCLE('',#183,0.005);
#107=EDGE_LOOP('',(#34));
#108=EDGE_LOOP('',(#35));
#109=EDGE_LOOP('',(#36,#37,#38,#39));
#110=EDGE_LOOP('',(#40));
#111=EDGE_LOOP('',(#41));
#112=EDGE_LOOP('',(#42,#43,#44,#45));
#113=EDGE_LOOP('',(#46,#47,#48,#49));
#114=EDGE_LOOP('',(#50,#51,#52,#53));
#115=EDGE_LOOP('',(#54,#55,#56,#57));
#116=EDGE_LOOP('',(#58,#59,#60,#61));
#117=EDGE_LOOP('',(#62));
#118=EDGE_LOOP('',(#63));
#119=EDGE_LOOP('',(#64));
#120=EDGE_LOOP('',(#65));
#121=EDGE_LOOP('',(#66));
#122=EDGE_LOOP('',(#67));
#123=FACE_BOUND('',#107,.T.);
#124=FACE_BOUND('',#108,.T.);
#125=FACE_BOUND('',#109,.T.);
#126=FACE_BOUND('',#110,.T.);
#127=FACE_BOUND('',#111,.T.);
#128=FACE_BOUND('',#112,.T.);
#129=FACE_BOUND('',#113,.T.);
#130=FACE_BOUND('',#114,.T.);
#131=FACE_BOUND('',#115,.T.);
#132=FACE_BOUND('',#116,.T.);
#133=FACE_BOUND('',#117,.T.);
#134=FACE_BOUND('',#118,.T.);
#135=FACE_BOUND('',#119,.T.);
#136=FACE_BOUND('',#120,.T.);
#137=FACE_BOUND('',#121,.T.);
#138=FACE_BOUND('',#122,.T.);
#139=CYLINDRICAL_SURFACE('',#166,0.0238784375526328);
#140=CYLINDRICAL_SURFACE('',#172,0.00526688687897553);
#141=CYLINDRICAL_SURFACE('',#176,0.00883471125546509);
#142=CYLINDRICAL_SURFACE('',#184,0.005);
#143=ADVANCED_FACE('',(#123,#124),#139,.T.);
#144=ADVANCED_FACE('',(#125,#126),#28,.F.);
#145=ADVANCED_FACE('',(#127,#128),#140,.F.);
#146=ADVANCED_FACE('',(#129),#29,.F.);
#147=ADVANCED_FACE('',(#130),#141,.T.);
#148=ADVANCED_FACE('',(#131),#30,.T.);
#149=ADVANCED_FACE('',(#132),#31,.T.);
#150=ADVANCED_FACE('',(#133,#134),#32,.F.);
#151=ADVANCED_FACE('',(#135,#136),#33,.T.);
#152=ADVANCED_FACE('',(#137,#138),#142,.F.);
#153=CLOSED_SHELL('',(#143,#144,#145,#146,#147,#148,#149,#150,#151,#152));
#154=STYLED_ITEM('',(#155),#162);
#155=PRESENTATION_STYLE_ASSIGNMENT((#156));
#156=SURFACE_STYLE_USAGE(.BOTH.,#157);
#157=SURFACE_SIDE_STYLE('',(#158));
#158=SURFACE_STYLE_FILL_AREA(#159);
#159=FILL_AREA_STYLE('',(#160));
#160=FILL_AREA_STYLE_COLOUR('',#161);
#161=COLOUR_RGB('',0.980392156862745,0.713725490196078,0.00392156862745098);
#162=MANIFOLD_SOLID_BREP('water cap 1',#153);
#163=SHAPE_DEFINITION_REPRESENTATION(#280,#164);
#164=SHAPE_REPRESENTATION('water cap 1',(#165),#275);
#165=AXIS2_PLACEMENT_3D('',#233,#185,#186);
#166=AXIS2_PLACEMENT_3D('',#234,#187,#188);
#167=AXIS2_PLACEMENT_3D('',#235,#189,#190);
#168=AXIS2_PLACEMENT_3D('',#237,#191,#192);
#169=AXIS2_PLACEMENT_3D('',#239,#193,#194);
#170=AXIS2_PLACEMENT_3D('',#240,#195,#196);
#171=AXIS2_PLACEMENT_3D('',#245,#198,#199);
#172=AXIS2_PLACEMENT_3D('',#248,#201,#202);
#173=AXIS2_PLACEMENT_3D('',#249,#203,#204);
#174=AXIS2_PLACEMENT_3D('',#253,#206,#207);
#175=AXIS2_PLACEMENT_3D('',#256,#209,#210);
#176=AXIS2_PLACEMENT_3D('',#260,#213,#214);
#177=AXIS2_PLACEMENT_3D('',#263,#216,#217);
#178=AXIS2_PLACEMENT_3D('',#264,#218,#219);
#179=AXIS2_PLACEMENT_3D('',#266,#221,#222);
#180=AXIS2_PLACEMENT_3D('',#267,#223,#224);
#181=AXIS2_PLACEMENT_3D('',#268,#225,#226);
#182=AXIS2_PLACEMENT_3D('',#270,#227,#228);
#183=AXIS2_PLACEMENT_3D('',#271,#229,#230);
#184=AXIS2_PLACEMENT_3D('',#273,#231,#232);
#185=DIRECTION('',(0.,0.,1.));
#186=DIRECTION('',(1.,0.,0.));
#187=DIRECTION('',(0.,0.,1.));
#188=DIRECTION('',(1.,0.,0.));
#189=DIRECTION('',(0.,0.,1.));
#190=DIRECTION('',(1.,0.,0.));
#191=DIRECTION('',(0.,0.,1.));
#192=DIRECTION('',(1.,0.,0.));
#193=DIRECTION('',(0.,0.,1.));
#194=DIRECTION('',(1.,0.,0.));
#195=DIRECTION('',(0.,0.,-1.));
#196=DIRECTION('',(-1.,0.,0.));
#197=DIRECTION('',(1.,0.,0.));
#198=DIRECTION('',(0.,0.,-1.));
#199=DIRECTION('',(-1.,0.,0.));
#200=DIRECTION('',(-1.,0.,0.));
#201=DIRECTION('',(0.,0.,-1.));
#202=DIRECTION('',(-1.,0.,0.));
#203=DIRECTION('',(0.,0.,1.));
#204=DIRECTION('',(1.,0.,0.));
#205=DIRECTION('',(0.,0.,1.));
#206=DIRECTION('',(0.,0.,-1.));
#207=DIRECTION('',(-1.,0.,0.));
#208=DIRECTION('',(0.,0.,1.));
#209=DIRECTION('',(0.,1.,0.));
#210=DIRECTION('',(0.,0.,1.));
#211=DIRECTION('',(0.,0.,1.));
#212=DIRECTION('',(-1.,0.,0.));
#213=DIRECTION('',(0.,0.,1.));
#214=DIRECTION('',(1.,0.,0.));
#215=DIRECTION('',(0.,0.,1.));
#216=DIRECTION('',(0.,0.,-1.));
#217=DIRECTION('',(-1.,0.,0.));
#218=DIRECTION('',(0.,-1.,0.));
#219=DIRECTION('',(0.,0.,-1.));
#220=DIRECTION('',(1.,0.,0.));
#221=DIRECTION('',(0.,0.,-1.));
#222=DIRECTION('',(1.,0.,0.));
#223=DIRECTION('',(0.,0.,1.));
#224=DIRECTION('',(1.,0.,0.));
#225=DIRECTION('',(0.,0.,1.));
#226=DIRECTION('',(1.,0.,0.));
#227=DIRECTION('',(0.,0.,1.));
#228=DIRECTION('',(1.,0.,0.));
#229=DIRECTION('',(0.,0.,1.));
#230=DIRECTION('',(1.,0.,0.));
#231=DIRECTION('',(0.,0.,1.));
#232=DIRECTION('',(1.,0.,0.));
#233=CARTESIAN_POINT('',(0.,0.,0.));
#234=CARTESIAN_POINT('',(-0.17078844769001,0.03175,0.114973296959268));
#235=CARTESIAN_POINT('',(-0.17078844769001,0.03175,0.120973296959268));
#236=CARTESIAN_POINT('',(-0.146910010137377,0.03175,0.120973296959268));
#237=CARTESIAN_POINT('',(-0.17078844769001,0.03175,0.130973296959268));
#238=CARTESIAN_POINT('',(-0.146910010137377,0.03175,0.130973296959268));
#239=CARTESIAN_POINT('',(-0.13462,0.03175,0.120973296959268));
#240=CARTESIAN_POINT('',(-0.17078844769001,0.03175,0.120973296959268));
#241=CARTESIAN_POINT('',(-0.165521560811035,0.03175,0.120973296959268));
#242=CARTESIAN_POINT('',(-0.176055334568986,0.03175,0.120973296959268));
#243=CARTESIAN_POINT('',(-0.16373764862279,0.03175,0.120973296959268));
#244=CARTESIAN_POINT('',(-0.161953736434545,0.03175,0.120973296959268));
#245=CARTESIAN_POINT('',(-0.17078844769001,0.03175,0.120973296959268));
#246=CARTESIAN_POINT('',(-0.179623158945475,0.03175,0.120973296959268));
#247=CARTESIAN_POINT('',(-0.177839246757231,0.03175,0.120973296959268));
#248=CARTESIAN_POINT('',(-0.17078844769001,0.03175,0.145973296959268));
#249=CARTESIAN_POINT('',(-0.17078844769001,0.03175,0.126973296959268));
#250=CARTESIAN_POINT('',(-0.165521560811034,0.03175,0.126973296959268));
#251=CARTESIAN_POINT('',(-0.176055334568986,0.03175,0.0809732969592676));
#252=CARTESIAN_POINT('',(-0.176055334568986,0.03175,0.0809732969592676));
#253=CARTESIAN_POINT('',(-0.17078844769001,0.03175,0.0809732969592676));
#254=CARTESIAN_POINT('',(-0.165521560811035,0.03175,0.0809732969592676));
#255=CARTESIAN_POINT('',(-0.165521560811035,0.03175,0.0809732969592676));
#256=CARTESIAN_POINT('',(-0.177839246757231,0.03175,0.0809732969592676));
#257=CARTESIAN_POINT('',(-0.179623158945475,0.03175,0.0809732969592676));
#258=CARTESIAN_POINT('',(-0.179623158945475,0.03175,0.0809732969592676));
#259=CARTESIAN_POINT('',(-0.177839246757231,0.03175,0.0809732969592676));
#260=CARTESIAN_POINT('',(-0.17078844769001,0.03175,0.0809732969592676));
#261=CARTESIAN_POINT('',(-0.161953736434545,0.03175,0.0809732969592676));
#262=CARTESIAN_POINT('',(-0.161953736434545,0.03175,0.0809732969592676));
#263=CARTESIAN_POINT('',(-0.17078844769001,0.03175,0.0809732969592676));
#264=CARTESIAN_POINT('',(-0.16373764862279,0.03175,0.0809732969592676));
#265=CARTESIAN_POINT('',(-0.16373764862279,0.03175,0.0809732969592676));
#266=CARTESIAN_POINT('',(-0.17078844769001,0.03175,0.0809732969592676));
#267=CARTESIAN_POINT('',(-0.13462,0.03175,0.126973296959268));
#268=CARTESIAN_POINT('',(-0.17078844769001,0.03175,0.126973296959268));
#269=CARTESIAN_POINT('',(-0.16578844769001,0.03175,0.126973296959268));
#270=CARTESIAN_POINT('',(-0.13462,0.03175,0.130973296959268));
#271=CARTESIAN_POINT('',(-0.17078844769001,0.03175,0.130973296959268));
#272=CARTESIAN_POINT('',(-0.16578844769001,0.03175,0.130973296959268));
#273=CARTESIAN_POINT('',(-0.17078844769001,0.03175,0.120973296959268));
#274=MECHANICAL_DESIGN_GEOMETRIC_PRESENTATION_REPRESENTATION('',(#154),
#275);
#275=(
GEOMETRIC_REPRESENTATION_CONTEXT(3)
GLOBAL_UNCERTAINTY_ASSIGNED_CONTEXT((#276))
GLOBAL_UNIT_ASSIGNED_CONTEXT((#279,#278,#277))
REPRESENTATION_CONTEXT('water cap 1','TOP_LEVEL_ASSEMBLY_PART')
);
#276=UNCERTAINTY_MEASURE_WITH_UNIT(LENGTH_MEASURE(1.E-8),#279,
'DISTANCE_ACCURACY_VALUE','Maximum Tolerance applied to model');
#277=(
NAMED_UNIT(*)
SI_UNIT($,.STERADIAN.)
SOLID_ANGLE_UNIT()
);
#278=(
NAMED_UNIT(*)
PLANE_ANGLE_UNIT()
SI_UNIT($,.RADIAN.)
);
#279=(
LENGTH_UNIT()
NAMED_UNIT(*)
SI_UNIT($,.METRE.)
);
#280=PRODUCT_DEFINITION_SHAPE('','',#281);
#281=PRODUCT_DEFINITION('','',#283,#282);
#282=PRODUCT_DEFINITION_CONTEXT('',#289,'design');
#283=PRODUCT_DEFINITION_FORMATION_WITH_SPECIFIED_SOURCE('','',#285,
 .NOT_KNOWN.);
#284=PRODUCT_RELATED_PRODUCT_CATEGORY('','',(#285));
#285=PRODUCT('water cap 1','water cap 1','water cap 1',(#287));
#286=PRODUCT_CATEGORY('','');
#287=PRODUCT_CONTEXT('',#289,'mechanical');
#288=APPLICATION_PROTOCOL_DEFINITION('international standard',
'ap242_managed_model_based_3d_engineering',2020,#289);
#289=APPLICATION_CONTEXT('managed model based 3d engineering');
ENDSEC;
END-ISO-10303-21;
