ISO-10303-21;
HEADER;
/* Generated by software containing ST-Developer
 * from STEP Tools, Inc. (www.steptools.com) 
 */
/* OPTION: using custom renumber hook */

FILE_DESCRIPTION(
/* description */ ('STEP AP242 Edition 2',
'CAx-IF Rec.Pracs.---Representation and Presentation of Product Manufa
cturing Information (PMI)---4.0---2014-10-13',
'CAx-IF Rec.Pracs.---3D Tessellated Geometry---0.4---2014-09-14','2;1',
'CAx-IF Rec.Pracs.---User Defined Attributes---1.5---2016-08-15'),
/* implementation_level */ '2;1');

FILE_NAME(
/* name */ 'happy plant - water cap 2',
/* time_stamp */ '2026-10-08T17:39:19Z',
/* author */ (''),
/* organization */ (''),
/* preprocessor_version */ 'ST-DEVELOPER v20',
/* originating_system */ 'ONSHAPE BY PTC INC, 1.221',
/* authorisation */ '  ');

FILE_SCHEMA (('AP242_MANAGED_MODEL_BASED_3D_ENGINEERING_MIM_LF { 1 0 10303 442 3 1 4 }'));
ENDSEC;

DATA;
#10=SHAPE_REPRESENTATION_RELATIONSHIP('','',#78,#11);
#11=ADVANCED_BREP_SHAPE_REPRESENTATION('',(#76),#129);
#12=CONICAL_SURFACE('',#89,0.0258876569063222,0.785398163397448);
#13=PLANE('',#86);
#14=PLANE('',#88);
#15=ORIENTED_EDGE('',*,*,#25,.T.);
#16=ORIENTED_EDGE('',*,*,#26,.F.);
#17=ORIENTED_EDGE('',*,*,#27,.T.);
#18=ORIENTED_EDGE('',*,*,#28,.T.);
#19=ORIENTED_EDGE('',*,*,#29,.T.);
#20=ORIENTED_EDGE('',*,*,#25,.F.);
#21=ORIENTED_EDGE('',*,*,#26,.T.);
#22=ORIENTED_EDGE('',*,*,#28,.F.);
#23=ORIENTED_EDGE('',*,*,#27,.F.);
#24=ORIENTED_EDGE('',*,*,#29,.F.);
#25=EDGE_CURVE('',#30,#30,#35,.T.);
#26=EDGE_CURVE('',#31,#31,#36,.T.);
#27=EDGE_CURVE('',#32,#32,#37,.F.);
#28=EDGE_CURVE('',#33,#33,#38,.T.);
#29=EDGE_CURVE('',#34,#34,#39,.T.);
#30=VERTEX_POINT('',#115);
#31=VERTEX_POINT('',#117);
#32=VERTEX_POINT('',#120);
#33=VERTEX_POINT('',#122);
#34=VERTEX_POINT('',#125);
#35=CIRCLE('',#81,0.0238784375526328);
#36=CIRCLE('',#82,0.0238784375526328);
#37=CIRCLE('',#84,0.0278876569063222);
#38=CIRCLE('',#85,0.0278876569063222);
#39=CIRCLE('',#87,0.0258876569063222);
#40=EDGE_LOOP('',(#15));
#41=EDGE_LOOP('',(#16));
#42=EDGE_LOOP('',(#17));
#43=EDGE_LOOP('',(#18));
#44=EDGE_LOOP('',(#19));
#45=EDGE_LOOP('',(#20));
#46=EDGE_LOOP('',(#21));
#47=EDGE_LOOP('',(#22));
#48=EDGE_LOOP('',(#23));
#49=EDGE_LOOP('',(#24));
#50=FACE_BOUND('',#40,.T.);
#51=FACE_BOUND('',#41,.T.);
#52=FACE_BOUND('',#42,.T.);
#53=FACE_BOUND('',#43,.T.);
#54=FACE_BOUND('',#44,.T.);
#55=FACE_BOUND('',#45,.T.);
#56=FACE_BOUND('',#46,.T.);
#57=FACE_BOUND('',#47,.T.);
#58=FACE_BOUND('',#48,.T.);
#59=FACE_BOUND('',#49,.T.);
#60=CYLINDRICAL_SURFACE('',#80,0.0238784375526328);
#61=CYLINDRICAL_SURFACE('',#83,0.0278876569063222);
#62=ADVANCED_FACE('',(#50,#51),#60,.F.);
#63=ADVANCED_FACE('',(#52,#53),#61,.T.);
#64=ADVANCED_FACE('',(#54,#55),#13,.T.);
#65=ADVANCED_FACE('',(#56,#57),#14,.F.);
#66=ADVANCED_FACE('',(#58,#59),#12,.T.);
#67=CLOSED_SHELL('',(#62,#63,#64,#65,#66));
#68=STYLED_ITEM('',(#69),#76);
#69=PRESENTATION_STYLE_ASSIGNMENT((#70));
#70=SURFACE_STYLE_USAGE(.BOTH.,#71);
#71=SURFACE_SIDE_STYLE('',(#72));
#72=SURFACE_STYLE_FILL_AREA(#73);
#73=FILL_AREA_STYLE('',(#74));
#74=FILL_AREA_STYLE_COLOUR('',#75);
#75=COLOUR_RGB('',0.980392156862745,0.713725490196078,0.00392156862745098);
#76=MANIFOLD_SOLID_BREP('water cap 2',#67);
#77=SHAPE_DEFINITION_REPRESENTATION(#134,#78);
#78=SHAPE_REPRESENTATION('water cap 2',(#79),#129);
#79=AXIS2_PLACEMENT_3D('',#112,#90,#91);
#80=AXIS2_PLACEMENT_3D('',#113,#92,#93);
#81=AXIS2_PLACEMENT_3D('',#114,#94,#95);
#82=AXIS2_PLACEMENT_3D('',#116,#96,#97);
#83=AXIS2_PLACEMENT_3D('',#118,#98,#99);
#84=AXIS2_PLACEMENT_3D('',#119,#100,#101);
#85=AXIS2_PLACEMENT_3D('',#121,#102,#103);
#86=AXIS2_PLACEMENT_3D('',#123,#104,#105);
#87=AXIS2_PLACEMENT_3D('',#124,#106,#107);
#88=AXIS2_PLACEMENT_3D('',#126,#108,#109);
#89=AXIS2_PLACEMENT_3D('',#127,#110,#111);
#90=DIRECTION('',(0.,0.,1.));
#91=DIRECTION('',(1.,0.,0.));
#92=DIRECTION('',(0.,0.,-1.));
#93=DIRECTION('',(-1.,0.,0.));
#94=DIRECTION('',(0.,0.,1.));
#95=DIRECTION('',(1.,0.,0.));
#96=DIRECTION('',(0.,0.,1.));
#97=DIRECTION('',(1.,0.,0.));
#98=DIRECTION('',(0.,0.,-1.));
#99=DIRECTION('',(-1.,0.,0.));
#100=DIRECTION('',(0.,0.,1.));
#101=DIRECTION('',(1.,0.,0.));
#102=DIRECTION('',(0.,0.,1.));
#103=DIRECTION('',(1.,0.,0.));
#104=DIRECTION('',(0.,0.,1.));
#105=DIRECTION('',(1.,0.,0.));
#106=DIRECTION('',(0.,0.,1.));
#107=DIRECTION('',(1.,0.,0.));
#108=DIRECTION('',(0.,0.,1.));
#109=DIRECTION('',(1.,0.,0.));
#110=DIRECTION('',(0.,0.,-1.));
#111=DIRECTION('',(-1.,0.,0.));
#112=CARTESIAN_POINT('',(0.,0.,0.));
#113=CARTESIAN_POINT('',(-0.17078844769001,0.03175,0.130973296959268));
#114=CARTESIAN_POINT('',(-0.17078844769001,0.03175,0.130973296959268));
#115=CARTESIAN_POINT('',(-0.146910010137377,0.03175,0.130973296959268));
#116=CARTESIAN_POINT('',(-0.17078844769001,0.03175,0.126973296959268));
#117=CARTESIAN_POINT('',(-0.146910010137377,0.03175,0.126973296959268));
#118=CARTESIAN_POINT('',(-0.17078844769001,0.03175,0.130973296959268));
#119=CARTESIAN_POINT('',(-0.17078844769001,0.03175,0.128973296959268));
#120=CARTESIAN_POINT('',(-0.142900790783688,0.03175,0.128973296959268));
#121=CARTESIAN_POINT('',(-0.17078844769001,0.03175,0.126973296959268));
#122=CARTESIAN_POINT('',(-0.142900790783688,0.03175,0.126973296959268));
#123=CARTESIAN_POINT('',(-0.17078844769001,0.03175,0.130973296959268));
#124=CARTESIAN_POINT('',(-0.17078844769001,0.03175,0.130973296959268));
#125=CARTESIAN_POINT('',(-0.144900790783688,0.03175,0.130973296959268));
#126=CARTESIAN_POINT('',(-0.17078844769001,0.03175,0.126973296959268));
#127=CARTESIAN_POINT('',(-0.17078844769001,0.03175,0.130973296959268));
#128=MECHANICAL_DESIGN_GEOMETRIC_PRESENTATION_REPRESENTATION('',(#68),#129);
#129=(
GEOMETRIC_REPRESENTATION_CONTEXT(3)
GLOBAL_UNCERTAINTY_ASSIGNED_CONTEXT((#130))
GLOBAL_UNIT_ASSIGNED_CONTEXT((#133,#132,#131))
REPRESENTATION_CONTEXT('water cap 2','TOP_LEVEL_ASSEMBLY_PART')
);
#130=UNCERTAINTY_MEASURE_WITH_UNIT(LENGTH_MEASURE(1.E-8),#133,
'DISTANCE_ACCURACY_VALUE','Maximum Tolerance applied to model');
#131=(
NAMED_UNIT(*)
SI_UNIT($,.STERADIAN.)
SOLID_ANGLE_UNIT()
);
#132=(
NAMED_UNIT(*)
PLANE_ANGLE_UNIT()
SI_UNIT($,.RADIAN.)
);
#133=(
LENGTH_UNIT()
NAMED_UNIT(*)
SI_UNIT($,.METRE.)
);
#134=PRODUCT_DEFINITION_SHAPE('','',#135);
#135=PRODUCT_DEFINITION('','',#137,#136);
#136=PRODUCT_DEFINITION_CONTEXT('',#143,'design');
#137=PRODUCT_DEFINITION_FORMATION_WITH_SPECIFIED_SOURCE('','',#139,
 .NOT_KNOWN.);
#138=PRODUCT_RELATED_PRODUCT_CATEGORY('','',(#139));
#139=PRODUCT('water cap 2','water cap 2','water cap 2',(#141));
#140=PRODUCT_CATEGORY('','');
#141=PRODUCT_CONTEXT('',#143,'mechanical');
#142=APPLICATION_PROTOCOL_DEFINITION('international standard',
'ap242_managed_model_based_3d_engineering',2020,#143);
#143=APPLICATION_CONTEXT('managed model based 3d engineering');
ENDSEC;
END-ISO-10303-21;
